%TF.GenerationSoftware,KiCad,Pcbnew,10.0.4-10.0.4~ubuntu24.04.1*%
%TF.CreationDate,2026-07-20T09:18:12+02:00*%
%TF.ProjectId,esp32stepper,65737033-3273-4746-9570-7065722e6b69,rev?*%
%TF.SameCoordinates,Original*%
%TF.FileFunction,Copper,L1,Top*%
%TF.FilePolarity,Positive*%
%FSLAX46Y46*%
G04 Gerber Fmt 4.6, Leading zero omitted, Abs format (unit mm)*
G04 Created by KiCad (PCBNEW 10.0.4-10.0.4~ubuntu24.04.1) date 2026-07-20 09:18:12*
%MOMM*%
%LPD*%
G01*
G04 APERTURE LIST*
G04 Aperture macros list*
%AMRoundRect*
0 Rectangle with rounded corners*
0 $1 Rounding radius*
0 $2 $3 $4 $5 $6 $7 $8 $9 X,Y pos of 4 corners*
0 Add a 4 corners polygon primitive as box body*
4,1,4,$2,$3,$4,$5,$6,$7,$8,$9,$2,$3,0*
0 Add four circle primitives for the rounded corners*
1,1,$1+$1,$2,$3*
1,1,$1+$1,$4,$5*
1,1,$1+$1,$6,$7*
1,1,$1+$1,$8,$9*
0 Add four rect primitives between the rounded corners*
20,1,$1+$1,$2,$3,$4,$5,0*
20,1,$1+$1,$4,$5,$6,$7,0*
20,1,$1+$1,$6,$7,$8,$9,0*
20,1,$1+$1,$8,$9,$2,$3,0*%
G04 Aperture macros list end*
%TA.AperFunction,SMDPad,CuDef*%
%ADD10RoundRect,0.237500X-0.237500X0.250000X-0.237500X-0.250000X0.237500X-0.250000X0.237500X0.250000X0*%
%TD*%
%TA.AperFunction,SMDPad,CuDef*%
%ADD11RoundRect,0.237500X0.250000X0.237500X-0.250000X0.237500X-0.250000X-0.237500X0.250000X-0.237500X0*%
%TD*%
%TA.AperFunction,ComponentPad*%
%ADD12C,1.700000*%
%TD*%
%TA.AperFunction,SMDPad,CuDef*%
%ADD13RoundRect,0.237500X0.237500X-0.250000X0.237500X0.250000X-0.237500X0.250000X-0.237500X-0.250000X0*%
%TD*%
%TA.AperFunction,SMDPad,CuDef*%
%ADD14RoundRect,0.250000X1.950000X1.000000X-1.950000X1.000000X-1.950000X-1.000000X1.950000X-1.000000X0*%
%TD*%
%TA.AperFunction,ComponentPad*%
%ADD15RoundRect,0.250000X-0.600000X-0.725000X0.600000X-0.725000X0.600000X0.725000X-0.600000X0.725000X0*%
%TD*%
%TA.AperFunction,ComponentPad*%
%ADD16O,1.700000X1.950000*%
%TD*%
%TA.AperFunction,SMDPad,CuDef*%
%ADD17RoundRect,0.237500X-0.237500X0.300000X-0.237500X-0.300000X0.237500X-0.300000X0.237500X0.300000X0*%
%TD*%
%TA.AperFunction,SMDPad,CuDef*%
%ADD18RoundRect,0.237500X-0.250000X-0.237500X0.250000X-0.237500X0.250000X0.237500X-0.250000X0.237500X0*%
%TD*%
%TA.AperFunction,SMDPad,CuDef*%
%ADD19RoundRect,0.237500X-0.300000X-0.237500X0.300000X-0.237500X0.300000X0.237500X-0.300000X0.237500X0*%
%TD*%
%TA.AperFunction,SMDPad,CuDef*%
%ADD20RoundRect,0.237500X0.300000X0.237500X-0.300000X0.237500X-0.300000X-0.237500X0.300000X-0.237500X0*%
%TD*%
%TA.AperFunction,SMDPad,CuDef*%
%ADD21RoundRect,0.112500X-0.187500X-0.112500X0.187500X-0.112500X0.187500X0.112500X-0.187500X0.112500X0*%
%TD*%
%TA.AperFunction,SMDPad,CuDef*%
%ADD22RoundRect,0.112500X0.112500X-0.187500X0.112500X0.187500X-0.112500X0.187500X-0.112500X-0.187500X0*%
%TD*%
%TA.AperFunction,SMDPad,CuDef*%
%ADD23RoundRect,0.237500X-0.237500X0.287500X-0.237500X-0.287500X0.237500X-0.287500X0.237500X0.287500X0*%
%TD*%
%TA.AperFunction,SMDPad,CuDef*%
%ADD24RoundRect,0.162500X-0.162500X0.447500X-0.162500X-0.447500X0.162500X-0.447500X0.162500X0.447500X0*%
%TD*%
%TA.AperFunction,HeatsinkPad*%
%ADD25C,0.600000*%
%TD*%
%TA.AperFunction,SMDPad,CuDef*%
%ADD26RoundRect,0.250000X0.475000X-0.337500X0.475000X0.337500X-0.475000X0.337500X-0.475000X-0.337500X0*%
%TD*%
%TA.AperFunction,SMDPad,CuDef*%
%ADD27RoundRect,0.100000X-0.637500X-0.100000X0.637500X-0.100000X0.637500X0.100000X-0.637500X0.100000X0*%
%TD*%
%TA.AperFunction,SMDPad,CuDef*%
%ADD28RoundRect,0.112500X-0.112500X0.187500X-0.112500X-0.187500X0.112500X-0.187500X0.112500X0.187500X0*%
%TD*%
%TA.AperFunction,SMDPad,CuDef*%
%ADD29R,1.680000X3.150000*%
%TD*%
%TA.AperFunction,SMDPad,CuDef*%
%ADD30R,1.800000X1.100000*%
%TD*%
%TA.AperFunction,ComponentPad*%
%ADD31O,2.000000X3.300000*%
%TD*%
%TA.AperFunction,ComponentPad*%
%ADD32O,3.500000X2.000000*%
%TD*%
%TA.AperFunction,SMDPad,CuDef*%
%ADD33RoundRect,0.250000X2.050000X0.300000X-2.050000X0.300000X-2.050000X-0.300000X2.050000X-0.300000X0*%
%TD*%
%TA.AperFunction,SMDPad,CuDef*%
%ADD34RoundRect,0.250002X4.449998X5.149998X-4.449998X5.149998X-4.449998X-5.149998X4.449998X-5.149998X0*%
%TD*%
%TA.AperFunction,SMDPad,CuDef*%
%ADD35RoundRect,0.150000X-0.512500X-0.150000X0.512500X-0.150000X0.512500X0.150000X-0.512500X0.150000X0*%
%TD*%
%TA.AperFunction,ComponentPad*%
%ADD36RoundRect,0.250000X0.725000X-0.600000X0.725000X0.600000X-0.725000X0.600000X-0.725000X-0.600000X0*%
%TD*%
%TA.AperFunction,ComponentPad*%
%ADD37O,1.950000X1.700000*%
%TD*%
%TA.AperFunction,ComponentPad*%
%ADD38C,0.650000*%
%TD*%
%TA.AperFunction,ComponentPad*%
%ADD39O,1.700000X0.900000*%
%TD*%
%TA.AperFunction,ComponentPad*%
%ADD40O,2.400000X0.900000*%
%TD*%
%TA.AperFunction,ComponentPad*%
%ADD41R,1.700000X1.700000*%
%TD*%
%TA.AperFunction,SMDPad,CuDef*%
%ADD42R,2.750000X1.000000*%
%TD*%
%TA.AperFunction,ComponentPad*%
%ADD43C,3.600000*%
%TD*%
%TA.AperFunction,ConnectorPad*%
%ADD44C,6.400000*%
%TD*%
%TA.AperFunction,SMDPad,CuDef*%
%ADD45RoundRect,0.237500X0.237500X-0.300000X0.237500X0.300000X-0.237500X0.300000X-0.237500X-0.300000X0*%
%TD*%
%TA.AperFunction,SMDPad,CuDef*%
%ADD46RoundRect,0.150000X-0.150000X0.587500X-0.150000X-0.587500X0.150000X-0.587500X0.150000X0.587500X0*%
%TD*%
%TA.AperFunction,SMDPad,CuDef*%
%ADD47RoundRect,0.375000X0.625000X0.375000X-0.625000X0.375000X-0.625000X-0.375000X0.625000X-0.375000X0*%
%TD*%
%TA.AperFunction,SMDPad,CuDef*%
%ADD48RoundRect,0.500000X0.500000X1.400000X-0.500000X1.400000X-0.500000X-1.400000X0.500000X-1.400000X0*%
%TD*%
%TA.AperFunction,SMDPad,CuDef*%
%ADD49RoundRect,0.150000X-0.150000X0.825000X-0.150000X-0.825000X0.150000X-0.825000X0.150000X0.825000X0*%
%TD*%
%TA.AperFunction,SMDPad,CuDef*%
%ADD50RoundRect,0.250000X-0.325000X-0.450000X0.325000X-0.450000X0.325000X0.450000X-0.325000X0.450000X0*%
%TD*%
%TA.AperFunction,SMDPad,CuDef*%
%ADD51RoundRect,0.162500X-0.162500X0.837500X-0.162500X-0.837500X0.162500X-0.837500X0.162500X0.837500X0*%
%TD*%
%TA.AperFunction,SMDPad,CuDef*%
%ADD52RoundRect,0.112500X-0.637500X0.112500X-0.637500X-0.112500X0.637500X-0.112500X0.637500X0.112500X0*%
%TD*%
%TA.AperFunction,SMDPad,CuDef*%
%ADD53R,1.500000X0.900000*%
%TD*%
%TA.AperFunction,SMDPad,CuDef*%
%ADD54R,0.900000X1.500000*%
%TD*%
%TA.AperFunction,HeatsinkPad*%
%ADD55R,1.000000X1.000000*%
%TD*%
%TA.AperFunction,SMDPad,CuDef*%
%ADD56RoundRect,0.075000X-0.650000X-0.075000X0.650000X-0.075000X0.650000X0.075000X-0.650000X0.075000X0*%
%TD*%
%TA.AperFunction,HeatsinkPad*%
%ADD57C,0.550000*%
%TD*%
%TA.AperFunction,HeatsinkPad*%
%ADD58R,1.651000X2.845000*%
%TD*%
%TA.AperFunction,ViaPad*%
%ADD59C,0.600000*%
%TD*%
%TA.AperFunction,Conductor*%
%ADD60C,0.200000*%
%TD*%
%TA.AperFunction,Conductor*%
%ADD61C,0.800000*%
%TD*%
%TA.AperFunction,Conductor*%
%ADD62C,0.300000*%
%TD*%
%TA.AperFunction,Conductor*%
%ADD63C,0.500000*%
%TD*%
%TA.AperFunction,Conductor*%
%ADD64C,0.900000*%
%TD*%
%TA.AperFunction,Conductor*%
%ADD65C,0.250000*%
%TD*%
%TA.AperFunction,Conductor*%
%ADD66C,2.200000*%
%TD*%
%TA.AperFunction,Conductor*%
%ADD67C,2.000000*%
%TD*%
%TA.AperFunction,Conductor*%
%ADD68C,1.200000*%
%TD*%
G04 APERTURE END LIST*
D10*
%TO.P,R21,1*%
%TO.N,encoder0_SD*%
X176185000Y-152027500D03*
%TO.P,R21,2*%
%TO.N,Net-(encoder0-Pin_2)*%
X176185000Y-153852500D03*
%TD*%
D11*
%TO.P,R28,1*%
%TO.N,SDA*%
X194597500Y-147390000D03*
%TO.P,R28,2*%
%TO.N,+3V3*%
X192772500Y-147390000D03*
%TD*%
D12*
%TO.P,BOB-2,1,DIR_1*%
%TO.N,dir2*%
X206297500Y-116777500D03*
%TO.P,BOB-2,2,GND_2*%
%TO.N,GND*%
X206297500Y-104077500D03*
%TO.P,BOB-2,3,STEP_3*%
%TO.N,step2*%
X208837500Y-116777500D03*
%TO.P,BOB-2,4,VIO_4*%
%TO.N,+3V3*%
X208837500Y-104077500D03*
%TO.P,BOB-2,5,PDN_5*%
%TO.N,unconnected-(BOB-2-PDN-Pad5)*%
X211377500Y-116777500D03*
%TO.P,BOB-2,6,M1B_6*%
%TO.N,mot2.B1*%
X211377500Y-104077500D03*
%TO.P,BOB-2,7,UART_7*%
%TO.N,UART*%
X213917500Y-116777500D03*
%TO.P,BOB-2,8,M1A_8*%
%TO.N,mot2.A1*%
X213917500Y-104077500D03*
%TO.P,BOB-2,9,SPRD_9*%
%TO.N,unconnected-(BOB-2-SPRD-Pad9)*%
X216457500Y-116777500D03*
%TO.P,BOB-2,10,M2A_10*%
%TO.N,mot2.A2*%
X216457500Y-104077500D03*
%TO.P,BOB-2,11,MS2_11*%
%TO.N,/mot2/MS2*%
X218997500Y-116777500D03*
%TO.P,BOB-2,12,M2B_12*%
%TO.N,mot2.B2*%
X218997500Y-104077500D03*
%TO.P,BOB-2,13,MS1_13*%
%TO.N,/mot2/MS1*%
X221537500Y-116777500D03*
%TO.P,BOB-2,14,GND_14*%
%TO.N,GND*%
X221537500Y-104077500D03*
%TO.P,BOB-2,15,EN_15*%
%TO.N,en2*%
X224077500Y-116817500D03*
%TO.P,BOB-2,16,+VM_16*%
%TO.N,Net-(BOB-2-+VM)*%
X224077500Y-104077500D03*
%TO.P,BOB-2,17,Index_17*%
%TO.N,unconnected-(BOB-2-Index-Pad17)*%
X224077500Y-114277500D03*
%TO.P,BOB-2,18,DIAG_18*%
%TO.N,unconnected-(BOB-2-DIAG-Pad18)*%
X224077500Y-111737500D03*
%TD*%
D13*
%TO.P,R9,1*%
%TO.N,Net-(U3-FB)*%
X241720500Y-143155000D03*
%TO.P,R9,2*%
%TO.N,GND*%
X241720500Y-141330000D03*
%TD*%
D11*
%TO.P,R1,1*%
%TO.N,GND*%
X244997500Y-163390000D03*
%TO.P,R1,2*%
%TO.N,Net-(USB1-CC1)*%
X243172500Y-163390000D03*
%TD*%
D14*
%TO.P,C28,1*%
%TO.N,Net-(BOB-3-+VM)*%
X240485000Y-110390000D03*
%TO.P,C28,2*%
%TO.N,GND*%
X233085000Y-110390000D03*
%TD*%
D10*
%TO.P,R36,1*%
%TO.N,encoder2_SD*%
X176385000Y-132627500D03*
%TO.P,R36,2*%
%TO.N,Net-(encoder2-Pin_2)*%
X176385000Y-134452500D03*
%TD*%
D15*
%TO.P,mot1,1,Pin_1_1*%
%TO.N,mot1.B1*%
X185585000Y-97830000D03*
D16*
%TO.P,mot1,2,Pin_2_2*%
%TO.N,mot1.A1*%
X188085000Y-97830000D03*
%TO.P,mot1,3,Pin_3_3*%
%TO.N,mot1.A2*%
X190585000Y-97830000D03*
%TO.P,mot1,4,Pin_4_4*%
%TO.N,mot1.B2*%
X193085000Y-97830000D03*
%TD*%
D17*
%TO.P,C1,1*%
%TO.N,reset*%
X217285000Y-171837500D03*
%TO.P,C1,2*%
%TO.N,GND*%
X217285000Y-173562500D03*
%TD*%
D10*
%TO.P,R32,1*%
%TO.N,encoder1_SD*%
X163085000Y-151127500D03*
%TO.P,R32,2*%
%TO.N,Net-(encoder1-Pin_2)*%
X163085000Y-152952500D03*
%TD*%
D18*
%TO.P,R11,1*%
%TO.N,+3V3*%
X190075000Y-137434000D03*
%TO.P,R11,2*%
%TO.N,Net-(U6-~{RESET})*%
X191900000Y-137434000D03*
%TD*%
D11*
%TO.P,R34,1*%
%TO.N,endswitch2*%
X178397500Y-127565000D03*
%TO.P,R34,2*%
%TO.N,+3V3*%
X176572500Y-127565000D03*
%TD*%
D18*
%TO.P,R10,1*%
%TO.N,Net-(U3-FB)*%
X242995500Y-144642500D03*
%TO.P,R10,2*%
%TO.N,+3V3*%
X244820500Y-144642500D03*
%TD*%
D19*
%TO.P,C3,1*%
%TO.N,/CONN/VO_USB_LDO*%
X236872500Y-165480000D03*
%TO.P,C3,2*%
%TO.N,GND*%
X238597500Y-165480000D03*
%TD*%
D20*
%TO.P,C6,1*%
%TO.N,+3V3*%
X196250000Y-137434000D03*
%TO.P,C6,2*%
%TO.N,GND*%
X194525000Y-137434000D03*
%TD*%
D21*
%TO.P,TVS3,1,A1_1*%
%TO.N,GND*%
X176235000Y-145340000D03*
%TO.P,TVS3,2,A2_2*%
%TO.N,endswitch0*%
X178335000Y-145340000D03*
%TD*%
D22*
%TO.P,TVS10,1,A1_1*%
%TO.N,GND*%
X165385000Y-134190000D03*
%TO.P,TVS10,2,A2_2*%
%TO.N,encoder3_SD*%
X165385000Y-132090000D03*
%TD*%
D18*
%TO.P,R12,1*%
%TO.N,+3V3*%
X249635000Y-150752500D03*
%TO.P,R12,2*%
%TO.N,Net-(LED1-A)*%
X251460000Y-150752500D03*
%TD*%
D19*
%TO.P,C22,1*%
%TO.N,GND*%
X181022500Y-106190000D03*
%TO.P,C22,2*%
%TO.N,+3V3*%
X182747500Y-106190000D03*
%TD*%
D23*
%TO.P,FB4,1*%
%TO.N,+3V3*%
X163285000Y-128665000D03*
%TO.P,FB4,2*%
%TO.N,Net-(encoder3-Pin_3)*%
X163285000Y-130415000D03*
%TD*%
D24*
%TO.P,TVS0,1,K_1*%
%TO.N,24V*%
X230335000Y-125290000D03*
%TO.P,TVS0,2,A_2*%
%TO.N,GND*%
X228435000Y-125290000D03*
%TO.P,TVS0,3*%
%TO.N,N/C*%
X229385000Y-127910000D03*
%TD*%
D21*
%TO.P,TVS6,1,A1_1*%
%TO.N,GND*%
X163035000Y-143790000D03*
%TO.P,TVS6,2,A2_2*%
%TO.N,endswitch1*%
X165135000Y-143790000D03*
%TD*%
D25*
%TO.P,,41,GND_41*%
%TO.N,GND*%
X200385000Y-164190000D03*
%TD*%
D18*
%TO.P,R6,1*%
%TO.N,+3V3*%
X163203750Y-158290000D03*
%TO.P,R6,2*%
%TO.N,encoder1_SC*%
X165028750Y-158290000D03*
%TD*%
D26*
%TO.P,C9,1*%
%TO.N,GND*%
X232885000Y-149367500D03*
%TO.P,C9,2*%
%TO.N,24V*%
X232885000Y-147292500D03*
%TD*%
D13*
%TO.P,R3,1*%
%TO.N,+3V3*%
X218885000Y-173612500D03*
%TO.P,R3,2*%
%TO.N,reset*%
X218885000Y-171787500D03*
%TD*%
D10*
%TO.P,R40,1*%
%TO.N,encoder3_SD*%
X163285000Y-132227500D03*
%TO.P,R40,2*%
%TO.N,Net-(encoder3-Pin_2)*%
X163285000Y-134052500D03*
%TD*%
D18*
%TO.P,R23,1*%
%TO.N,+3V3*%
X176472500Y-139727500D03*
%TO.P,R23,2*%
%TO.N,encoder2_SC*%
X178297500Y-139727500D03*
%TD*%
D27*
%TO.P,U6,1,A0_1*%
%TO.N,GND*%
X190322500Y-138815000D03*
%TO.P,U6,2,A1_2*%
X190322500Y-139465000D03*
%TO.P,U6,3,~{RESET}_3*%
%TO.N,Net-(U6-~{RESET})*%
X190322500Y-140115000D03*
%TO.P,U6,4,SD0_4*%
%TO.N,encoder0_SD*%
X190322500Y-140765000D03*
%TO.P,U6,5,SC0_5*%
%TO.N,encoder0_SC*%
X190322500Y-141415000D03*
%TO.P,U6,6,SD1_6*%
%TO.N,encoder1_SD*%
X190322500Y-142065000D03*
%TO.P,U6,7,SC1_7*%
%TO.N,encoder1_SC*%
X190322500Y-142715000D03*
%TO.P,U6,8,SD2_8*%
%TO.N,encoder2_SD*%
X190322500Y-143365000D03*
%TO.P,U6,9,SC2_9*%
%TO.N,encoder2_SC*%
X190322500Y-144015000D03*
%TO.P,U6,10,SD3_10*%
%TO.N,encoder3_SD*%
X190322500Y-144665000D03*
%TO.P,U6,11,SC3_11*%
%TO.N,encoder3_SC*%
X190322500Y-145315000D03*
%TO.P,U6,12,GND_12*%
%TO.N,GND*%
X190322500Y-145965000D03*
%TO.P,U6,13,SD4_13*%
%TO.N,unconnected-(U6-SD4-Pad13)*%
X196047500Y-145965000D03*
%TO.P,U6,14,SC4_14*%
%TO.N,unconnected-(U6-SC4-Pad14)*%
X196047500Y-145315000D03*
%TO.P,U6,15,SD5_15*%
%TO.N,unconnected-(U6-SD5-Pad15)*%
X196047500Y-144665000D03*
%TO.P,U6,16,SC5_16*%
%TO.N,unconnected-(U6-SC5-Pad16)*%
X196047500Y-144015000D03*
%TO.P,U6,17,SD6_17*%
%TO.N,unconnected-(U6-SD6-Pad17)*%
X196047500Y-143365000D03*
%TO.P,U6,18,SC6_18*%
%TO.N,unconnected-(U6-SC6-Pad18)*%
X196047500Y-142715000D03*
%TO.P,U6,19,SD7_19*%
%TO.N,unconnected-(U6-SD7-Pad19)*%
X196047500Y-142065000D03*
%TO.P,U6,20,SC7_20*%
%TO.N,unconnected-(U6-SC7-Pad20)*%
X196047500Y-141415000D03*
%TO.P,U6,21,A2_21*%
%TO.N,GND*%
X196047500Y-140765000D03*
%TO.P,U6,22,SCL_22*%
%TO.N,SCL*%
X196047500Y-140115000D03*
%TO.P,U6,23,SDA_23*%
%TO.N,SDA*%
X196047500Y-139465000D03*
%TO.P,U6,24,VCC_24*%
%TO.N,+3V3*%
X196047500Y-138815000D03*
%TD*%
D25*
%TO.P,,41,GND_41*%
%TO.N,GND*%
X190285000Y-169630000D03*
%TD*%
D11*
%TO.P,R37,1*%
%TO.N,endswitch2*%
X178285000Y-123290000D03*
%TO.P,R37,2*%
%TO.N,Net-(encoder2-Pin_6)*%
X176460000Y-123290000D03*
%TD*%
D17*
%TO.P,C5,1*%
%TO.N,+3V3*%
X213385000Y-171767500D03*
%TO.P,C5,2*%
%TO.N,GND*%
X213385000Y-173492500D03*
%TD*%
D28*
%TO.P,TVS5,1,A1_1*%
%TO.N,GND*%
X165085000Y-154690000D03*
%TO.P,TVS5,2,A2_2*%
%TO.N,encoder1_SC*%
X165085000Y-156790000D03*
%TD*%
D15*
%TO.P,mot2,1,Pin_1_1*%
%TO.N,mot2.B1*%
X211285000Y-97790000D03*
D16*
%TO.P,mot2,2,Pin_2_2*%
%TO.N,mot2.A1*%
X213785000Y-97790000D03*
%TO.P,mot2,3,Pin_3_3*%
%TO.N,mot2.A2*%
X216285000Y-97790000D03*
%TO.P,mot2,4,Pin_4_4*%
%TO.N,mot2.B2*%
X218785000Y-97790000D03*
%TD*%
D25*
%TO.P,,41,GND_41*%
%TO.N,GND*%
X197985000Y-166590000D03*
%TD*%
D12*
%TO.P,BOB-1,1,DIR_1*%
%TO.N,dir1*%
X180697500Y-116977500D03*
%TO.P,BOB-1,2,GND_2*%
%TO.N,GND*%
X180697500Y-104277500D03*
%TO.P,BOB-1,3,STEP_3*%
%TO.N,step1*%
X183237500Y-116977500D03*
%TO.P,BOB-1,4,VIO_4*%
%TO.N,+3V3*%
X183237500Y-104277500D03*
%TO.P,BOB-1,5,PDN_5*%
%TO.N,unconnected-(BOB-1-PDN-Pad5)*%
X185777500Y-116977500D03*
%TO.P,BOB-1,6,M1B_6*%
%TO.N,mot1.B1*%
X185777500Y-104277500D03*
%TO.P,BOB-1,7,UART_7*%
%TO.N,UART*%
X188317500Y-116977500D03*
%TO.P,BOB-1,8,M1A_8*%
%TO.N,mot1.A1*%
X188317500Y-104277500D03*
%TO.P,BOB-1,9,SPRD_9*%
%TO.N,unconnected-(BOB-1-SPRD-Pad9)*%
X190857500Y-116977500D03*
%TO.P,BOB-1,10,M2A_10*%
%TO.N,mot1.A2*%
X190857500Y-104277500D03*
%TO.P,BOB-1,11,MS2_11*%
%TO.N,/mot1/MS2*%
X193397500Y-116977500D03*
%TO.P,BOB-1,12,M2B_12*%
%TO.N,mot1.B2*%
X193397500Y-104277500D03*
%TO.P,BOB-1,13,MS1_13*%
%TO.N,/mot1/MS1*%
X195937500Y-116977500D03*
%TO.P,BOB-1,14,GND_14*%
%TO.N,GND*%
X195937500Y-104277500D03*
%TO.P,BOB-1,15,EN_15*%
%TO.N,en1*%
X198477500Y-117017500D03*
%TO.P,BOB-1,16,+VM_16*%
%TO.N,Net-(BOB-1-+VM)*%
X198477500Y-104277500D03*
%TO.P,BOB-1,17,Index_17*%
%TO.N,unconnected-(BOB-1-Index-Pad17)*%
X198477500Y-114477500D03*
%TO.P,BOB-1,18,DIAG_18*%
%TO.N,unconnected-(BOB-1-DIAG-Pad18)*%
X198477500Y-111937500D03*
%TD*%
D13*
%TO.P,R24,1*%
%TO.N,encoder2_SD*%
X178185000Y-130977500D03*
%TO.P,R24,2*%
%TO.N,+3V3*%
X178185000Y-129152500D03*
%TD*%
D10*
%TO.P,R27,1*%
%TO.N,+3V3*%
X197885000Y-137477500D03*
%TO.P,R27,2*%
%TO.N,SCL*%
X197885000Y-139302500D03*
%TD*%
D29*
%TO.P,F2,1,1_1*%
%TO.N,24V_Motor*%
X237835000Y-126190000D03*
%TO.P,F2,2,2_2*%
%TO.N,24V*%
X233055000Y-126190000D03*
%TD*%
D18*
%TO.P,R42,1*%
%TO.N,Net-(U1-IO46)*%
X208972500Y-153800000D03*
%TO.P,R42,2*%
%TO.N,GND*%
X210797500Y-153800000D03*
%TD*%
D30*
%TO.P,L2,1,1_1*%
%TO.N,Net-(C11-Pad2)*%
X246020500Y-149942500D03*
%TO.P,L2,2,2_2*%
%TO.N,+3V3*%
X246020500Y-152542500D03*
%TD*%
D31*
%TO.P,barreljack1,2,Pin_2_2*%
%TO.N,24Vin*%
X248285000Y-130190000D03*
D32*
%TO.P,barreljack1,MP*%
%TO.N,N/C*%
X249285000Y-134690000D03*
X249285000Y-125690000D03*
%TD*%
D25*
%TO.P,,41,GND_41*%
%TO.N,N/C*%
X190285000Y-153630000D03*
%TD*%
D28*
%TO.P,TVS8,1,A1_1*%
%TO.N,GND*%
X178485000Y-135890000D03*
%TO.P,TVS8,2,A2_2*%
%TO.N,encoder2_SC*%
X178485000Y-137990000D03*
%TD*%
D33*
%TO.P,PMOS1,1,D_1*%
%TO.N,24V_Motor*%
X237810000Y-137105000D03*
D34*
%TO.P,PMOS1,2,G_2*%
%TO.N,PWRSWITCH_gate*%
X228660000Y-134565000D03*
D33*
%TO.P,PMOS1,3,S_3*%
%TO.N,24Vin*%
X237810000Y-132025000D03*
%TD*%
D23*
%TO.P,FB2,1*%
%TO.N,+3V3*%
X163285000Y-147465000D03*
%TO.P,FB2,2*%
%TO.N,Net-(encoder1-Pin_3)*%
X163285000Y-149215000D03*
%TD*%
D14*
%TO.P,C27,1*%
%TO.N,Net-(BOB-2-+VM)*%
X218385000Y-110080000D03*
%TO.P,C27,2*%
%TO.N,GND*%
X210985000Y-110080000D03*
%TD*%
D25*
%TO.P,,41,GND_41*%
%TO.N,GND*%
X197985000Y-161190000D03*
%TD*%
D20*
%TO.P,C12,1*%
%TO.N,+3V3*%
X245083000Y-143142500D03*
%TO.P,C12,2*%
%TO.N,Net-(U3-FB)*%
X243358000Y-143142500D03*
%TD*%
D35*
%TO.P,U5,1,I/O1_1*%
%TO.N,USB D+*%
X242047500Y-156640000D03*
%TO.P,U5,2,GND_2*%
%TO.N,GND*%
X242047500Y-157590000D03*
%TO.P,U5,3,I/O2_3*%
%TO.N,USB D-*%
X242047500Y-158540000D03*
%TO.P,U5,4,I/O2_4*%
%TO.N,Net-(USB1-DN1)*%
X244322500Y-158540000D03*
%TO.P,U5,5,VBUS_5*%
%TO.N,VBUS*%
X244322500Y-157590000D03*
%TO.P,U5,6,I/O1_6*%
%TO.N,Net-(USB1-DP1)*%
X244322500Y-156640000D03*
%TD*%
D36*
%TO.P,encoder0,1,Pin_1_1*%
%TO.N,Net-(encoder0-Pin_1)*%
X171403750Y-156890000D03*
D37*
%TO.P,encoder0,2,Pin_2_2*%
%TO.N,Net-(encoder0-Pin_2)*%
X171403750Y-154390000D03*
%TO.P,encoder0,3,Pin_3_3*%
%TO.N,Net-(encoder0-Pin_3)*%
X171403750Y-151890000D03*
%TO.P,encoder0,4,Pin_4_4*%
%TO.N,GND*%
X171403750Y-149390000D03*
%TO.P,encoder0,5,Pin_5_5*%
X171403750Y-146890000D03*
%TO.P,encoder0,6,Pin_6_6*%
%TO.N,Net-(encoder0-Pin_6)*%
X171403750Y-144390000D03*
%TD*%
D13*
%TO.P,R19,1*%
%TO.N,/esp32/TX*%
X213385000Y-162312500D03*
%TO.P,R19,2*%
%TO.N,UART*%
X213385000Y-160487500D03*
%TD*%
D11*
%TO.P,R2,1*%
%TO.N,GND*%
X245097500Y-154990000D03*
%TO.P,R2,2*%
%TO.N,Net-(USB1-CC2)*%
X243272500Y-154990000D03*
%TD*%
D38*
%TO.P,USB1,A1,GND_A1*%
%TO.N,GND*%
X246725000Y-162065000D03*
%TO.P,USB1,A4,VBUS_A4*%
%TO.N,VBUS*%
X246725000Y-161215000D03*
%TO.P,USB1,A5,CC1_A5*%
%TO.N,Net-(USB1-CC1)*%
X246725000Y-160365000D03*
%TO.P,USB1,A6,DP1_A6*%
%TO.N,Net-(USB1-DP1)*%
X246725000Y-159515000D03*
%TO.P,USB1,A7,DN1_A7*%
%TO.N,Net-(USB1-DN1)*%
X246725000Y-158665000D03*
%TO.P,USB1,A8,SBU1_A8*%
%TO.N,unconnected-(USB1-SBU1-PadA8)*%
X246725000Y-157815000D03*
%TO.P,USB1,A9,VBUS_A9*%
%TO.N,VBUS*%
X246725000Y-156965000D03*
%TO.P,USB1,A12,GND_A12*%
%TO.N,GND*%
X246725000Y-156115000D03*
%TO.P,USB1,B1,GND_B1*%
X248075000Y-156115000D03*
%TO.P,USB1,B4,VBUS_B4*%
%TO.N,VBUS*%
X248075000Y-156965000D03*
%TO.P,USB1,B5,CC2_B5*%
%TO.N,Net-(USB1-CC2)*%
X248075000Y-157815000D03*
%TO.P,USB1,B6,DP2_B6*%
%TO.N,Net-(USB1-DP1)*%
X248075000Y-158665000D03*
%TO.P,USB1,B7,DN2_B7*%
%TO.N,Net-(USB1-DN1)*%
X248075000Y-159515000D03*
%TO.P,USB1,B8,SBU2_B8*%
%TO.N,unconnected-(USB1-SBU2-PadB8)*%
X248075000Y-160365000D03*
%TO.P,USB1,B9,VBUS_B9*%
%TO.N,VBUS*%
X248075000Y-161215000D03*
%TO.P,USB1,B12,GND_B12*%
%TO.N,GND*%
X248075000Y-162065000D03*
D39*
%TO.P,USB1,S1,SHELL_S1*%
X251085000Y-163415000D03*
%TO.P,USB1,S2,SHELL_S2*%
X251085000Y-154765000D03*
D40*
%TO.P,USB1,S3,SHELL_S3*%
X247705000Y-163415000D03*
%TO.P,USB1,S4,SHELL_S4*%
X247705000Y-154765000D03*
%TD*%
D36*
%TO.P,encoder3,1,Pin_1_1*%
%TO.N,Net-(encoder3-Pin_1)*%
X158385000Y-137890000D03*
D37*
%TO.P,encoder3,2,Pin_2_2*%
%TO.N,Net-(encoder3-Pin_2)*%
X158385000Y-135390000D03*
%TO.P,encoder3,3,Pin_3_3*%
%TO.N,Net-(encoder3-Pin_3)*%
X158385000Y-132890000D03*
%TO.P,encoder3,4,Pin_4_4*%
%TO.N,GND*%
X158385000Y-130390000D03*
%TO.P,encoder3,5,Pin_5_5*%
X158385000Y-127890000D03*
%TO.P,encoder3,6,Pin_6_6*%
%TO.N,Net-(encoder3-Pin_6)*%
X158385000Y-125390000D03*
%TD*%
D41*
%TO.P,J5,1,Pin_1_1*%
%TO.N,GND*%
X183985000Y-167390000D03*
D12*
%TO.P,J5,2,Pin_2_2*%
%TO.N,tx_ext*%
X183985000Y-169930000D03*
%TO.P,J5,3,Pin_3_3*%
%TO.N,rx_ext*%
X183985000Y-172470000D03*
%TD*%
D10*
%TO.P,R20,1*%
%TO.N,encoder0_SC*%
X176185000Y-155627500D03*
%TO.P,R20,2*%
%TO.N,Net-(encoder0-Pin_1)*%
X176185000Y-157452500D03*
%TD*%
D18*
%TO.P,R7,1*%
%TO.N,+3V3*%
X249672500Y-149152500D03*
%TO.P,R7,2*%
%TO.N,Net-(NPN1-B)*%
X251497500Y-149152500D03*
%TD*%
D10*
%TO.P,R31,1*%
%TO.N,encoder1_SC*%
X163085000Y-154727500D03*
%TO.P,R31,2*%
%TO.N,Net-(encoder1-Pin_1)*%
X163085000Y-156552500D03*
%TD*%
D42*
%TO.P,BOOT1,1,1_1*%
%TO.N,GND*%
X177485000Y-172490000D03*
X171735000Y-172490000D03*
%TO.P,BOOT1,2,2_2*%
%TO.N,Net-(U1-IO0)*%
X177485000Y-168490000D03*
X171735000Y-168490000D03*
%TD*%
D10*
%TO.P,R17,1*%
%TO.N,+3V3*%
X164916250Y-147377500D03*
%TO.P,R17,2*%
%TO.N,encoder1_SD*%
X164916250Y-149202500D03*
%TD*%
D25*
%TO.P,,41,GND_41*%
%TO.N,GND*%
X200385000Y-166590000D03*
%TD*%
D43*
%TO.P,REF\u002A\u002A2,1*%
%TO.N,N/C*%
X156685000Y-170590000D03*
D44*
X156685000Y-170590000D03*
%TD*%
D43*
%TO.P,REF\u002A\u002A3,1*%
%TO.N,N/C*%
X248685000Y-170590000D03*
D44*
X248685000Y-170590000D03*
%TD*%
D17*
%TO.P,C15,1*%
%TO.N,GND*%
X240120000Y-141177500D03*
%TO.P,C15,2*%
%TO.N,Net-(NPN1-B)*%
X240120000Y-142902500D03*
%TD*%
D19*
%TO.P,C24,1*%
%TO.N,GND*%
X228422500Y-106090000D03*
%TO.P,C24,2*%
%TO.N,+3V3*%
X230147500Y-106090000D03*
%TD*%
D28*
%TO.P,TVS2,1,A1_1*%
%TO.N,GND*%
X178085000Y-155490000D03*
%TO.P,TVS2,2,A2_2*%
%TO.N,encoder0_SC*%
X178085000Y-157590000D03*
%TD*%
D25*
%TO.P,,41,GND_41*%
%TO.N,GND*%
X200385000Y-169590000D03*
%TD*%
D45*
%TO.P,C14,1*%
%TO.N,+3V3*%
X239920500Y-151005000D03*
%TO.P,C14,2*%
%TO.N,GND*%
X239920500Y-149280000D03*
%TD*%
D11*
%TO.P,R41,1*%
%TO.N,endswitch3*%
X164997500Y-123190000D03*
%TO.P,R41,2*%
%TO.N,Net-(encoder3-Pin_6)*%
X163172500Y-123190000D03*
%TD*%
D17*
%TO.P,C7,1*%
%TO.N,GND*%
X208780000Y-125802500D03*
%TO.P,C7,2*%
%TO.N,+3V3*%
X208780000Y-127527500D03*
%TD*%
D18*
%TO.P,R4,1*%
%TO.N,+3V3*%
X176253750Y-158990000D03*
%TO.P,R4,2*%
%TO.N,encoder0_SC*%
X178078750Y-158990000D03*
%TD*%
D11*
%TO.P,R13,1*%
%TO.N,/mot1/MS1*%
X195797500Y-119490000D03*
%TO.P,R13,2*%
%TO.N,+3V3*%
X193972500Y-119490000D03*
%TD*%
D10*
%TO.P,R5,1*%
%TO.N,+3V3*%
X177966250Y-148690000D03*
%TO.P,R5,2*%
%TO.N,encoder0_SD*%
X177966250Y-150515000D03*
%TD*%
D12*
%TO.P,BOB-0,1,DIR_1*%
%TO.N,dir0*%
X158697500Y-116977500D03*
%TO.P,BOB-0,2,GND_2*%
%TO.N,GND*%
X158697500Y-104277500D03*
%TO.P,BOB-0,3,STEP_3*%
%TO.N,step0*%
X161237500Y-116977500D03*
%TO.P,BOB-0,4,VIO_4*%
%TO.N,+3V3*%
X161237500Y-104277500D03*
%TO.P,BOB-0,5,PDN_5*%
%TO.N,unconnected-(BOB-0-PDN-Pad5)*%
X163777500Y-116977500D03*
%TO.P,BOB-0,6,M1B_6*%
%TO.N,mot0.B1*%
X163777500Y-104277500D03*
%TO.P,BOB-0,7,UART_7*%
%TO.N,UART*%
X166317500Y-116977500D03*
%TO.P,BOB-0,8,M1A_8*%
%TO.N,mot0.A1*%
X166317500Y-104277500D03*
%TO.P,BOB-0,9,SPRD_9*%
%TO.N,unconnected-(BOB-0-SPRD-Pad9)*%
X168857500Y-116977500D03*
%TO.P,BOB-0,10,M2A_10*%
%TO.N,mot0.A2*%
X168857500Y-104277500D03*
%TO.P,BOB-0,11,MS2_11*%
%TO.N,/mot0/MS2*%
X171397500Y-116977500D03*
%TO.P,BOB-0,12,M2B_12*%
%TO.N,mot0.B2*%
X171397500Y-104277500D03*
%TO.P,BOB-0,13,MS1_13*%
%TO.N,/mot0/MS1*%
X173937500Y-116977500D03*
%TO.P,BOB-0,14,GND_14*%
%TO.N,GND*%
X173937500Y-104277500D03*
%TO.P,BOB-0,15,EN_15*%
%TO.N,en0*%
X176477500Y-117017500D03*
%TO.P,BOB-0,16,+VM_16*%
%TO.N,Net-(BOB-0-+VM)*%
X176477500Y-104277500D03*
%TO.P,BOB-0,17,Index_17*%
%TO.N,unconnected-(BOB-0-Index-Pad17)*%
X176477500Y-114477500D03*
%TO.P,BOB-0,18,DIAG_18*%
%TO.N,unconnected-(BOB-0-DIAG-Pad18)*%
X176477500Y-111937500D03*
%TD*%
D46*
%TO.P,D3,1,K_1*%
%TO.N,24Vin*%
X231335000Y-142052500D03*
%TO.P,D3,2,A_2*%
%TO.N,PWRSWITCH_diode*%
X229435000Y-142052500D03*
%TO.P,D3,3*%
%TO.N,N/C*%
X230385000Y-143927500D03*
%TD*%
D25*
%TO.P,,41,GND_41*%
%TO.N,GND*%
X202785000Y-161190000D03*
%TD*%
D41*
%TO.P,fan1,1,Pin_1_1*%
%TO.N,GND*%
X250885000Y-122230000D03*
D12*
%TO.P,fan1,2,Pin_2_2*%
%TO.N,24V*%
X248345000Y-122230000D03*
%TD*%
D11*
%TO.P,R29,1*%
%TO.N,endswitch0*%
X178178750Y-147090000D03*
%TO.P,R29,2*%
%TO.N,+3V3*%
X176353750Y-147090000D03*
%TD*%
D21*
%TO.P,TVS12,1,A1_1*%
%TO.N,GND*%
X162985000Y-124990000D03*
%TO.P,TVS12,2,A2_2*%
%TO.N,endswitch3*%
X165085000Y-124990000D03*
%TD*%
D10*
%TO.P,R43,1*%
%TO.N,24Vin*%
X251135000Y-137330000D03*
%TO.P,R43,2*%
%TO.N,PWRSWITCH_Voltage*%
X251135000Y-139155000D03*
%TD*%
D43*
%TO.P,REF\u002A\u002A1,1*%
%TO.N,N/C*%
X248685000Y-98590000D03*
D44*
X248685000Y-98590000D03*
%TD*%
D10*
%TO.P,R39,1*%
%TO.N,encoder3_SC*%
X163285000Y-135727500D03*
%TO.P,R39,2*%
%TO.N,Net-(encoder3-Pin_1)*%
X163285000Y-137552500D03*
%TD*%
D11*
%TO.P,R38,1*%
%TO.N,endswitch3*%
X164897500Y-126790000D03*
%TO.P,R38,2*%
%TO.N,+3V3*%
X163072500Y-126790000D03*
%TD*%
D45*
%TO.P,C10,1*%
%TO.N,GND*%
X234735000Y-148942500D03*
%TO.P,C10,2*%
%TO.N,24V*%
X234735000Y-147217500D03*
%TD*%
D36*
%TO.P,encoder2,1,Pin_1_1*%
%TO.N,Net-(encoder2-Pin_1)*%
X171485000Y-137690000D03*
D37*
%TO.P,encoder2,2,Pin_2_2*%
%TO.N,Net-(encoder2-Pin_2)*%
X171485000Y-135190000D03*
%TO.P,encoder2,3,Pin_3_3*%
%TO.N,Net-(encoder2-Pin_3)*%
X171485000Y-132690000D03*
%TO.P,encoder2,4,Pin_4_4*%
%TO.N,GND*%
X171485000Y-130190000D03*
%TO.P,encoder2,5,Pin_5_5*%
X171485000Y-127690000D03*
%TO.P,encoder2,6,Pin_6_6*%
%TO.N,Net-(encoder2-Pin_6)*%
X171485000Y-125190000D03*
%TD*%
D19*
%TO.P,C23,1*%
%TO.N,GND*%
X206522500Y-106090000D03*
%TO.P,C23,2*%
%TO.N,+3V3*%
X208247500Y-106090000D03*
%TD*%
D25*
%TO.P,,41,GND_41*%
%TO.N,GND*%
X202785000Y-164190000D03*
%TD*%
D17*
%TO.P,C11,1*%
%TO.N,Net-(U3-BST)*%
X243020500Y-147990000D03*
%TO.P,C11,2*%
%TO.N,Net-(C11-Pad2)*%
X243020500Y-149715000D03*
%TD*%
D22*
%TO.P,TVS7,1,A1_1*%
%TO.N,GND*%
X178485000Y-134490000D03*
%TO.P,TVS7,2,A2_2*%
%TO.N,encoder2_SD*%
X178485000Y-132390000D03*
%TD*%
D23*
%TO.P,FB1,1*%
%TO.N,+3V3*%
X176185000Y-148715000D03*
%TO.P,FB1,2*%
%TO.N,Net-(encoder0-Pin_3)*%
X176185000Y-150465000D03*
%TD*%
D47*
%TO.P,U2,1,GND_1*%
%TO.N,GND*%
X243135000Y-172190000D03*
%TO.P,U2,2,VO_2*%
%TO.N,/CONN/VO_USB_LDO*%
X243135000Y-169890000D03*
D48*
X236835000Y-169890000D03*
D47*
%TO.P,U2,3,VI_3*%
%TO.N,VBUS*%
X243135000Y-167590000D03*
%TD*%
D19*
%TO.P,C8,1*%
%TO.N,GND*%
X233295500Y-144042500D03*
%TO.P,C8,2*%
%TO.N,Net-(U3-TR{slash}SS)*%
X235020500Y-144042500D03*
%TD*%
D25*
%TO.P,,41,GND_41*%
%TO.N,GND*%
X197985000Y-169590000D03*
%TD*%
D11*
%TO.P,R8,1*%
%TO.N,Net-(U3-RT)*%
X235020500Y-145642500D03*
%TO.P,R8,2*%
%TO.N,GND*%
X233195500Y-145642500D03*
%TD*%
%TO.P,R15,1*%
%TO.N,/mot3/MS1*%
X243497500Y-119190000D03*
%TO.P,R15,2*%
%TO.N,+3V3*%
X241672500Y-119190000D03*
%TD*%
D22*
%TO.P,TVS4,1,A1_1*%
%TO.N,GND*%
X165085000Y-153240000D03*
%TO.P,TVS4,2,A2_2*%
%TO.N,encoder1_SD*%
X165085000Y-151140000D03*
%TD*%
D21*
%TO.P,TVS9,1,A1_1*%
%TO.N,GND*%
X176285000Y-125590000D03*
%TO.P,TVS9,2,A2_2*%
%TO.N,endswitch2*%
X178385000Y-125590000D03*
%TD*%
D49*
%TO.P,U4,1,QB_1*%
%TO.N,en0*%
X207225000Y-122190000D03*
%TO.P,U4,2,QC_2*%
%TO.N,dir1*%
X205955000Y-122190000D03*
%TO.P,U4,3,QD_3*%
%TO.N,en1*%
X204685000Y-122190000D03*
%TO.P,U4,4,QE_4*%
%TO.N,dir2*%
X203415000Y-122190000D03*
%TO.P,U4,5,QF_5*%
%TO.N,en2*%
X202145000Y-122190000D03*
%TO.P,U4,6,QG_6*%
%TO.N,dir3*%
X200875000Y-122190000D03*
%TO.P,U4,7,QH_7*%
%TO.N,en3*%
X199605000Y-122190000D03*
%TO.P,U4,8,GND_8*%
%TO.N,GND*%
X198335000Y-122190000D03*
%TO.P,U4,9,QH'_9*%
%TO.N,unconnected-(U4-QH'-Pad9)*%
X198335000Y-127140000D03*
%TO.P,U4,10,~{SRCLR}_10*%
%TO.N,+3V3*%
X199605000Y-127140000D03*
%TO.P,U4,11,SRCLK_11*%
%TO.N,SRCLK*%
X200875000Y-127140000D03*
%TO.P,U4,12,RCLK_12*%
%TO.N,RCLK*%
X202145000Y-127140000D03*
%TO.P,U4,13,~{OE}_13*%
%TO.N,GND*%
X203415000Y-127140000D03*
%TO.P,U4,14,SER_14*%
%TO.N,SER*%
X204685000Y-127140000D03*
%TO.P,U4,15,QA_15*%
%TO.N,dir0*%
X205955000Y-127140000D03*
%TO.P,U4,16,VCC_16*%
%TO.N,+3V3*%
X207225000Y-127140000D03*
%TD*%
D25*
%TO.P,,41,GND_41*%
%TO.N,GND*%
X190285000Y-161230000D03*
%TD*%
D45*
%TO.P,C16,1*%
%TO.N,GND*%
X214985000Y-173492500D03*
%TO.P,C16,2*%
%TO.N,+3V3*%
X214985000Y-171767500D03*
%TD*%
D41*
%TO.P,J1,1,Pin_1_1*%
%TO.N,GND*%
X226185000Y-172590000D03*
D12*
%TO.P,J1,2,Pin_2_2*%
%TO.N,reset*%
X223645000Y-172590000D03*
%TD*%
D11*
%TO.P,R33,1*%
%TO.N,endswitch1*%
X164997500Y-141990000D03*
%TO.P,R33,2*%
%TO.N,Net-(encoder1-Pin_6)*%
X163172500Y-141990000D03*
%TD*%
%TO.P,R25,1*%
%TO.N,encoder3_SC*%
X165097500Y-139690000D03*
%TO.P,R25,2*%
%TO.N,+3V3*%
X163272500Y-139690000D03*
%TD*%
D14*
%TO.P,C25,1*%
%TO.N,Net-(BOB-0-+VM)*%
X170385000Y-110490000D03*
%TO.P,C25,2*%
%TO.N,GND*%
X162985000Y-110490000D03*
%TD*%
D12*
%TO.P,BOB-3,1,DIR_1*%
%TO.N,dir3*%
X228197500Y-116777500D03*
%TO.P,BOB-3,2,GND_2*%
%TO.N,GND*%
X228197500Y-104077500D03*
%TO.P,BOB-3,3,STEP_3*%
%TO.N,step3*%
X230737500Y-116777500D03*
%TO.P,BOB-3,4,VIO_4*%
%TO.N,+3V3*%
X230737500Y-104077500D03*
%TO.P,BOB-3,5,PDN_5*%
%TO.N,unconnected-(BOB-3-PDN-Pad5)*%
X233277500Y-116777500D03*
%TO.P,BOB-3,6,M1B_6*%
%TO.N,mot3.B1*%
X233277500Y-104077500D03*
%TO.P,BOB-3,7,UART_7*%
%TO.N,UART*%
X235817500Y-116777500D03*
%TO.P,BOB-3,8,M1A_8*%
%TO.N,mot3.A1*%
X235817500Y-104077500D03*
%TO.P,BOB-3,9,SPRD_9*%
%TO.N,unconnected-(BOB-3-SPRD-Pad9)*%
X238357500Y-116777500D03*
%TO.P,BOB-3,10,M2A_10*%
%TO.N,mot3.A2*%
X238357500Y-104077500D03*
%TO.P,BOB-3,11,MS2_11*%
%TO.N,/mot3/MS2*%
X240897500Y-116777500D03*
%TO.P,BOB-3,12,M2B_12*%
%TO.N,mot3.B2*%
X240897500Y-104077500D03*
%TO.P,BOB-3,13,MS1_13*%
%TO.N,/mot3/MS1*%
X243437500Y-116777500D03*
%TO.P,BOB-3,14,GND_14*%
%TO.N,GND*%
X243437500Y-104077500D03*
%TO.P,BOB-3,15,EN_15*%
%TO.N,en3*%
X245977500Y-116817500D03*
%TO.P,BOB-3,16,+VM_16*%
%TO.N,Net-(BOB-3-+VM)*%
X245977500Y-104077500D03*
%TO.P,BOB-3,17,Index_17*%
%TO.N,unconnected-(BOB-3-Index-Pad17)*%
X245977500Y-114277500D03*
%TO.P,BOB-3,18,DIAG_18*%
%TO.N,unconnected-(BOB-3-DIAG-Pad18)*%
X245977500Y-111737500D03*
%TD*%
D50*
%TO.P,LED1,1,K_1*%
%TO.N,Net-(LED1-K)*%
X249335000Y-152552500D03*
%TO.P,LED1,2,A_2*%
%TO.N,Net-(LED1-A)*%
X251385000Y-152552500D03*
%TD*%
D23*
%TO.P,FB3,1*%
%TO.N,+3V3*%
X176585000Y-129190000D03*
%TO.P,FB3,2*%
%TO.N,Net-(encoder2-Pin_3)*%
X176585000Y-130940000D03*
%TD*%
D25*
%TO.P,,41,GND_41*%
%TO.N,GND*%
X197985000Y-164190000D03*
%TD*%
D15*
%TO.P,mot0,1,Pin_1_1*%
%TO.N,mot0.B1*%
X163585000Y-97830000D03*
D16*
%TO.P,mot0,2,Pin_2_2*%
%TO.N,mot0.A1*%
X166085000Y-97830000D03*
%TO.P,mot0,3,Pin_3_3*%
%TO.N,mot0.A2*%
X168585000Y-97830000D03*
%TO.P,mot0,4,Pin_4_4*%
%TO.N,mot0.B2*%
X171085000Y-97830000D03*
%TD*%
D41*
%TO.P,J6,1,Pin_1_1*%
%TO.N,PWRSWITCH_diode*%
X242585000Y-138390000D03*
D12*
%TO.P,J6,2,Pin_2_2*%
%TO.N,PWRSWITCH_gate*%
X245125000Y-138390000D03*
%TO.P,J6,3,Pin_3_3*%
%TO.N,PWRSWITCH_Voltage*%
X247665000Y-138390000D03*
%TD*%
D51*
%TO.P,NPN1,1,C_1*%
%TO.N,Net-(LED1-K)*%
X249135000Y-143080000D03*
%TO.P,NPN1,2,B_2*%
%TO.N,Net-(NPN1-B)*%
X247235000Y-143080000D03*
%TO.P,NPN1,3,E_3*%
%TO.N,GND*%
X248185000Y-146500000D03*
%TD*%
D28*
%TO.P,TVS11,1,A1_1*%
%TO.N,GND*%
X165385000Y-135590000D03*
%TO.P,TVS11,2,A2_2*%
%TO.N,encoder3_SC*%
X165385000Y-137690000D03*
%TD*%
D43*
%TO.P,REF\u002A\u002A,1*%
%TO.N,N/C*%
X156685000Y-98590000D03*
D44*
X156685000Y-98590000D03*
%TD*%
D10*
%TO.P,R35,1*%
%TO.N,encoder2_SC*%
X176385000Y-136127500D03*
%TO.P,R35,2*%
%TO.N,Net-(encoder2-Pin_1)*%
X176385000Y-137952500D03*
%TD*%
D18*
%TO.P,R14,1*%
%TO.N,/mot2/MS2*%
X219172500Y-119290000D03*
%TO.P,R14,2*%
%TO.N,+3V3*%
X220997500Y-119290000D03*
%TD*%
D15*
%TO.P,mot3,1,Pin_1_1*%
%TO.N,mot3.B1*%
X233185000Y-97830000D03*
D16*
%TO.P,mot3,2,Pin_2_2*%
%TO.N,mot3.A1*%
X235685000Y-97830000D03*
%TO.P,mot3,3,Pin_3_3*%
%TO.N,mot3.A2*%
X238185000Y-97830000D03*
%TO.P,mot3,4,Pin_4_4*%
%TO.N,mot3.B2*%
X240685000Y-97830000D03*
%TD*%
D36*
%TO.P,encoder1,1,Pin_1_1*%
%TO.N,Net-(encoder1-Pin_1)*%
X158310000Y-156640000D03*
D37*
%TO.P,encoder1,2,Pin_2_2*%
%TO.N,Net-(encoder1-Pin_2)*%
X158310000Y-154140000D03*
%TO.P,encoder1,3,Pin_3_3*%
%TO.N,Net-(encoder1-Pin_3)*%
X158310000Y-151640000D03*
%TO.P,encoder1,4,Pin_4_4*%
%TO.N,GND*%
X158310000Y-149140000D03*
%TO.P,encoder1,5,Pin_5_5*%
X158310000Y-146640000D03*
%TO.P,encoder1,6,Pin_6_6*%
%TO.N,Net-(encoder1-Pin_6)*%
X158310000Y-144140000D03*
%TD*%
D25*
%TO.P,,41,GND_41*%
%TO.N,GND*%
X205385000Y-164190000D03*
%TD*%
D11*
%TO.P,R16,1*%
%TO.N,/mot3/MS2*%
X239985000Y-119190000D03*
%TO.P,R16,2*%
%TO.N,+3V3*%
X238160000Y-119190000D03*
%TD*%
D52*
%TO.P,D2,1,K_1*%
%TO.N,+3V3*%
X236955000Y-162730000D03*
%TO.P,D2,2,A_2*%
%TO.N,/CONN/VO_USB_LDO*%
X236955000Y-164030000D03*
%TO.P,D2,3*%
%TO.N,N/C*%
X239615000Y-163380000D03*
%TD*%
D19*
%TO.P,C21,1*%
%TO.N,GND*%
X158922500Y-106190000D03*
%TO.P,C21,2*%
%TO.N,+3V3*%
X160647500Y-106190000D03*
%TD*%
D10*
%TO.P,R18,2*%
%TO.N,GND*%
X226735000Y-143342500D03*
%TO.P,R18,1*%
%TO.N,PWRSWITCH_diode*%
X226735000Y-141517500D03*
%TD*%
D13*
%TO.P,R26,1*%
%TO.N,encoder3_SD*%
X164985000Y-130402500D03*
%TO.P,R26,2*%
%TO.N,+3V3*%
X164985000Y-128577500D03*
%TD*%
D11*
%TO.P,R30,1*%
%TO.N,endswitch1*%
X164997500Y-145690000D03*
%TO.P,R30,2*%
%TO.N,+3V3*%
X163172500Y-145690000D03*
%TD*%
D22*
%TO.P,TVS1,1,A1_1*%
%TO.N,GND*%
X178085000Y-153990000D03*
%TO.P,TVS1,2,A2_2*%
%TO.N,encoder0_SD*%
X178085000Y-151890000D03*
%TD*%
D14*
%TO.P,C26,1*%
%TO.N,Net-(BOB-1-+VM)*%
X193285000Y-110590000D03*
%TO.P,C26,2*%
%TO.N,GND*%
X185885000Y-110590000D03*
%TD*%
D53*
%TO.P,U1,1,GND_1*%
%TO.N,GND*%
X211485000Y-173470000D03*
%TO.P,U1,2,3V3_2*%
%TO.N,+3V3*%
X211485000Y-172200000D03*
%TO.P,U1,3,EN_3*%
%TO.N,reset*%
X211485000Y-170930000D03*
%TO.P,U1,4,IO4_4*%
%TO.N,step0*%
X211485000Y-169660000D03*
%TO.P,U1,5,IO5_5*%
%TO.N,step1*%
X211485000Y-168390000D03*
%TO.P,U1,6,IO6_6*%
%TO.N,step2*%
X211485000Y-167120000D03*
%TO.P,U1,7,IO7_7*%
%TO.N,step3*%
X211485000Y-165850000D03*
%TO.P,U1,8,IO15_8*%
%TO.N,endswitch2*%
X211485000Y-164580000D03*
%TO.P,U1,9,IO16_9*%
%TO.N,endswitch3*%
X211485000Y-163310000D03*
%TO.P,U1,10,IO17_10*%
%TO.N,/esp32/TX*%
X211485000Y-162040000D03*
%TO.P,U1,11,IO18_11*%
%TO.N,UART*%
X211485000Y-160770000D03*
%TO.P,U1,12,IO8_12*%
%TO.N,SRCLK*%
X211485000Y-159500000D03*
%TO.P,U1,13,USB_D-/IO19_13*%
%TO.N,USB D-*%
X211485000Y-158230000D03*
%TO.P,U1,14,USB_D+/IO20_14*%
%TO.N,USB D+*%
X211485000Y-156960000D03*
D54*
%TO.P,U1,15,IO3_15*%
%TO.N,unconnected-(U1-IO3-Pad15)*%
X209720000Y-155710000D03*
%TO.P,U1,16,IO46_16*%
%TO.N,Net-(U1-IO46)*%
X208450000Y-155710000D03*
%TO.P,U1,17,IO9_17*%
%TO.N,SER*%
X207180000Y-155710000D03*
%TO.P,U1,18,IO10_18*%
%TO.N,RCLK*%
X205910000Y-155710000D03*
%TO.P,U1,19,IO11_19*%
%TO.N,SCL*%
X204640000Y-155710000D03*
%TO.P,U1,20,IO12_20*%
%TO.N,SDA*%
X203370000Y-155710000D03*
%TO.P,U1,21,IO13_21*%
%TO.N,endswitch0*%
X202100000Y-155710000D03*
%TO.P,U1,22,IO14_22*%
%TO.N,endswitch1*%
X200830000Y-155710000D03*
%TO.P,U1,23,IO21_23*%
%TO.N,unconnected-(U1-IO21-Pad23)*%
X199560000Y-155710000D03*
%TO.P,U1,24,IO47_24*%
%TO.N,unconnected-(U1-IO47-Pad24)*%
X198290000Y-155710000D03*
%TO.P,U1,25,IO48_25*%
%TO.N,unconnected-(U1-IO48-Pad25)*%
X197020000Y-155710000D03*
%TO.P,U1,26,IO45_26*%
%TO.N,unconnected-(U1-IO45-Pad26)*%
X195750000Y-155710000D03*
D53*
%TO.P,U1,27,IO0_27*%
%TO.N,Net-(U1-IO0)*%
X193985000Y-156960000D03*
%TO.P,U1,28,NC_28*%
%TO.N,unconnected-(U1-NC-Pad28)*%
X193985000Y-158230000D03*
%TO.P,U1,29,NC_29*%
%TO.N,unconnected-(U1-NC-Pad29)*%
X193985000Y-159500000D03*
%TO.P,U1,30,NC_30*%
%TO.N,unconnected-(U1-NC-Pad30)*%
X193985000Y-160770000D03*
%TO.P,U1,31,IO38_31*%
%TO.N,IO38*%
X193985000Y-162040000D03*
%TO.P,U1,32,MTCK/IO39_32*%
%TO.N,unconnected-(U1-MTCK{slash}IO39-Pad32)*%
X193985000Y-163310000D03*
%TO.P,U1,33,MTDO/IO40_33*%
%TO.N,unconnected-(U1-MTDO{slash}IO40-Pad33)*%
X193985000Y-164580000D03*
%TO.P,U1,34,MTDI/IO41_34*%
%TO.N,unconnected-(U1-MTDI{slash}IO41-Pad34)*%
X193985000Y-165850000D03*
%TO.P,U1,35,MTMS/IO42_35*%
%TO.N,unconnected-(U1-MTMS{slash}IO42-Pad35)*%
X193985000Y-167120000D03*
%TO.P,U1,36,RXD0/IO44_36*%
%TO.N,unconnected-(U1-RXD0{slash}IO44-Pad36)*%
X193985000Y-168390000D03*
%TO.P,U1,37,TXD0/IO43_37*%
%TO.N,unconnected-(U1-TXD0{slash}IO43-Pad37)*%
X193985000Y-169660000D03*
%TO.P,U1,38,IO2_38*%
%TO.N,tx_ext*%
X193985000Y-170930000D03*
%TO.P,U1,39,IO1_39*%
%TO.N,rx_ext*%
X193985000Y-172200000D03*
%TO.P,U1,40,GND_40*%
%TO.N,GND*%
X193985000Y-173470000D03*
D55*
%TO.P,U1,41,GND_41*%
X205595000Y-169620000D03*
D25*
X205595000Y-168870000D03*
D55*
X205595000Y-168120000D03*
D25*
X205595000Y-167370000D03*
D55*
X205595000Y-166620000D03*
D25*
X204845000Y-169620000D03*
X204845000Y-168120000D03*
X204845000Y-166620000D03*
D55*
X204095000Y-169620000D03*
D25*
X204095000Y-168870000D03*
D55*
X204095000Y-168120000D03*
D25*
X204095000Y-167370000D03*
D55*
X204095000Y-166620000D03*
D25*
X203345000Y-169620000D03*
X203345000Y-168120000D03*
X203345000Y-166620000D03*
D55*
X202595000Y-169620000D03*
D25*
X202595000Y-168870000D03*
D55*
X202595000Y-168120000D03*
D25*
X202595000Y-167370000D03*
D55*
X202595000Y-166620000D03*
%TD*%
D19*
%TO.P,C2,1*%
%TO.N,GND*%
X243222500Y-160190000D03*
%TO.P,C2,2*%
%TO.N,VBUS*%
X244947500Y-160190000D03*
%TD*%
D25*
%TO.P,,41,GND_41*%
%TO.N,GND*%
X200385000Y-161190000D03*
%TD*%
D20*
%TO.P,C4,1*%
%TO.N,VBUS*%
X242347500Y-165480000D03*
%TO.P,C4,2*%
%TO.N,GND*%
X240622500Y-165480000D03*
%TD*%
D19*
%TO.P,C13,1*%
%TO.N,Net-(U3-INTVcc)*%
X243222500Y-146390000D03*
%TO.P,C13,2*%
%TO.N,GND*%
X244947500Y-146390000D03*
%TD*%
D11*
%TO.P,R22,1*%
%TO.N,endswitch0*%
X178197500Y-142940000D03*
%TO.P,R22,2*%
%TO.N,Net-(encoder0-Pin_6)*%
X176372500Y-142940000D03*
%TD*%
D41*
%TO.P,J4,1,Pin_1_1*%
%TO.N,IO38*%
X183985000Y-162390000D03*
%TD*%
D56*
%TO.P,U3,1,SYNC_1*%
%TO.N,GND*%
X236920000Y-144340000D03*
%TO.P,U3,2,TR/SS_2*%
%TO.N,Net-(U3-TR{slash}SS)*%
X236920000Y-144840000D03*
%TO.P,U3,3,RT_3*%
%TO.N,Net-(U3-RT)*%
X236920000Y-145340000D03*
%TO.P,U3,4,EN/UV_4*%
%TO.N,24V*%
X236920000Y-145840000D03*
%TO.P,U3,5,VIN_5*%
X236920000Y-146340000D03*
%TO.P,U3,6,VIN_6*%
X236920000Y-146840000D03*
%TO.P,U3,7,GND_7*%
%TO.N,GND*%
X236920000Y-147340000D03*
%TO.P,U3,8,GND_8*%
X236920000Y-147840000D03*
%TO.P,U3,9,SW_9*%
%TO.N,Net-(C11-Pad2)*%
X241220000Y-147840000D03*
%TO.P,U3,10,SW_10*%
X241220000Y-147340000D03*
%TO.P,U3,11,SW_11*%
X241220000Y-146840000D03*
%TO.P,U3,12,BST_12*%
%TO.N,Net-(U3-BST)*%
X241220000Y-146340000D03*
%TO.P,U3,13,INTVcc_13*%
%TO.N,Net-(U3-INTVcc)*%
X241220000Y-145840000D03*
%TO.P,U3,14,BIAS_14*%
%TO.N,+3V3*%
X241220000Y-145340000D03*
%TO.P,U3,15,PG_15*%
%TO.N,Net-(NPN1-B)*%
X241220000Y-144840000D03*
%TO.P,U3,16,FB_16*%
%TO.N,Net-(U3-FB)*%
X241220000Y-144340000D03*
D57*
%TO.P,U3,17,GND_17*%
%TO.N,GND*%
X238519500Y-144942500D03*
X238519500Y-146090000D03*
X238519500Y-147237500D03*
D58*
X239070000Y-146090000D03*
D57*
X239620500Y-144942500D03*
X239620500Y-146090000D03*
X239620500Y-147237500D03*
%TD*%
D59*
%TO.N,24V_Motor*%
X239685000Y-138130000D03*
X239635000Y-135980000D03*
%TO.N,24Vin*%
X239285000Y-133080000D03*
X239235000Y-130980000D03*
%TO.N,24V_Motor*%
X236335000Y-138080000D03*
X236285000Y-136030000D03*
%TO.N,24Vin*%
X236385000Y-133080000D03*
X236335000Y-130930000D03*
%TO.N,24V_Motor*%
X234985000Y-137080000D03*
X237835000Y-138080000D03*
X237835000Y-136080000D03*
%TO.N,24Vin*%
X240635000Y-131980000D03*
X237835000Y-133030000D03*
X237835000Y-130980000D03*
%TO.N,GND*%
X226735000Y-144580000D03*
%TO.N,encoder0_SD*%
X179185000Y-150515000D03*
X188785000Y-140590000D03*
%TO.N,+3V3*%
X230085000Y-107190000D03*
X208780000Y-128690000D03*
X179285000Y-113730000D03*
X249660000Y-148190000D03*
X179385000Y-129190000D03*
X236925000Y-161330000D03*
X196250000Y-136390000D03*
X176253750Y-160090000D03*
X191685000Y-147390000D03*
X163285000Y-140530000D03*
X179085000Y-148690000D03*
X160585000Y-107290000D03*
X176485000Y-140730000D03*
X163285000Y-159690000D03*
X193985000Y-120590000D03*
X241085000Y-150990000D03*
X239685000Y-120190000D03*
X214185000Y-171865000D03*
X222085000Y-119290000D03*
X205035000Y-113930000D03*
X182747500Y-107190000D03*
X166185000Y-128633750D03*
X158785000Y-113780000D03*
X199585000Y-128790000D03*
X166116985Y-147658015D03*
X190085000Y-136390000D03*
X229035000Y-113726500D03*
X208285000Y-107190000D03*
X243485000Y-152590000D03*
X243885000Y-145417500D03*
%TO.N,GND*%
X183185000Y-111190000D03*
X240885000Y-141330000D03*
X217385000Y-153790000D03*
X218585000Y-161590000D03*
X188985000Y-139390000D03*
X224385000Y-161590000D03*
X178485000Y-135190000D03*
X224185000Y-167990000D03*
X208780000Y-124690000D03*
X183185000Y-109990000D03*
X242185000Y-160230000D03*
X217585000Y-130190000D03*
X160185000Y-109990000D03*
X209585000Y-111990000D03*
X211985000Y-130190000D03*
X230385000Y-111090000D03*
X239585000Y-165480000D03*
X178085000Y-154690000D03*
X224185000Y-153790000D03*
X241335000Y-172180000D03*
X194525000Y-136350000D03*
X218585000Y-167990000D03*
X231585000Y-112190000D03*
X212085000Y-153800000D03*
X227235000Y-125330000D03*
X160185000Y-111190000D03*
X224185000Y-147390000D03*
X190385000Y-146790000D03*
X246085000Y-146390000D03*
X230985000Y-153790000D03*
X208385000Y-110890000D03*
X211985000Y-122990000D03*
X184385000Y-112290000D03*
X192485000Y-173490000D03*
X217585000Y-122990000D03*
X198335000Y-120590000D03*
X209585000Y-108390000D03*
X231585000Y-108590000D03*
X197385000Y-140790000D03*
X230385000Y-109890000D03*
X161385000Y-112290000D03*
X208385000Y-109690000D03*
X203385000Y-128790000D03*
X230985000Y-161590000D03*
X233295500Y-144890000D03*
X216085000Y-173492500D03*
X217585000Y-147390000D03*
X231235000Y-149430000D03*
X165085000Y-153990000D03*
X161385000Y-108690000D03*
X211985000Y-147390000D03*
X165385000Y-134890000D03*
X184385000Y-108690000D03*
X230985000Y-167990000D03*
%TO.N,step2*%
X212985000Y-167090000D03*
%TO.N,UART*%
X214285000Y-159490000D03*
%TO.N,24V*%
X233085000Y-123090000D03*
X231285000Y-147390000D03*
%TO.N,Net-(USB1-CC1)*%
X243172500Y-164590000D03*
%TO.N,encoder1_SD*%
X166785000Y-150690000D03*
X188285000Y-141990000D03*
%TO.N,endswitch2*%
X179285000Y-127690000D03*
X209485000Y-164590000D03*
%TO.N,encoder1_SC*%
X188859265Y-142615735D03*
X165028750Y-159490000D03*
%TO.N,encoder0_SC*%
X179285000Y-157590000D03*
X188885000Y-141390000D03*
%TO.N,step1*%
X212985000Y-168490000D03*
%TO.N,24V_Motor*%
X164485000Y-108230000D03*
X191785000Y-108380000D03*
X216985000Y-107880000D03*
X239085000Y-108180000D03*
X166685000Y-107080000D03*
X214735000Y-108980000D03*
X236785000Y-109230000D03*
%TO.N,24Vin*%
X232385000Y-141990000D03*
%TO.N,24V_Motor*%
X236785000Y-106980000D03*
X212510000Y-107905000D03*
X187385000Y-108380000D03*
X189585000Y-109580000D03*
X214735000Y-106730000D03*
X189585000Y-107230000D03*
X166685000Y-109430000D03*
X168885000Y-108230000D03*
X234710000Y-108155000D03*
%TO.N,Net-(USB1-DP1)*%
X245485000Y-156640000D03*
%TO.N,endswitch3*%
X209485000Y-163390000D03*
X165885000Y-123190000D03*
%TO.N,step0*%
X210085000Y-169590000D03*
%TO.N,SRCLK*%
X200875000Y-128790000D03*
X212688093Y-158891443D03*
%TO.N,step3*%
X212985000Y-165850000D03*
%TO.N,Net-(BOB-0-+VM)*%
X167085000Y-110930000D03*
X170185000Y-112530000D03*
%TO.N,Net-(BOB-1-+VM)*%
X192985000Y-112680000D03*
X190235000Y-111030000D03*
%TO.N,Net-(BOB-2-+VM)*%
X215285000Y-110630000D03*
X218185000Y-112080000D03*
%TO.N,Net-(BOB-3-+VM)*%
X240285000Y-112380000D03*
X237335000Y-110880000D03*
%TO.N,24V_Motor*%
X236185000Y-126390000D03*
%TD*%
%TO.N,Net-(NPN1-B)*%
D60*
X240120000Y-142902500D02*
X240895000Y-142127500D01*
X240895000Y-142127500D02*
X245632500Y-142127500D01*
X245632500Y-142127500D02*
X246585000Y-143080000D01*
X246585000Y-143080000D02*
X247235000Y-143080000D01*
X247235000Y-143080000D02*
X247235000Y-141730000D01*
X247235000Y-141730000D02*
X247535000Y-141430000D01*
X247535000Y-141430000D02*
X250485000Y-141430000D01*
X250485000Y-141430000D02*
X251497500Y-142442500D01*
X251497500Y-142442500D02*
X251497500Y-149152500D01*
%TO.N,Net-(LED1-K)*%
X249335000Y-152552500D02*
X248707500Y-152552500D01*
X248707500Y-152552500D02*
X248335000Y-152180000D01*
X248335000Y-152180000D02*
X248335000Y-148330000D01*
X248335000Y-148330000D02*
X249135000Y-147530000D01*
X249135000Y-147530000D02*
X249135000Y-143080000D01*
%TO.N,24V_Motor*%
D61*
X236185000Y-126390000D02*
X237635000Y-126390000D01*
X237635000Y-126390000D02*
X237835000Y-126190000D01*
%TO.N,24V*%
X233055000Y-126190000D02*
X233055000Y-123120000D01*
X233055000Y-123120000D02*
X233085000Y-123090000D01*
%TO.N,24V_Motor*%
X239685000Y-138130000D02*
X239685000Y-137080000D01*
X239685000Y-137080000D02*
X239660000Y-137105000D01*
X239660000Y-137105000D02*
X237810000Y-137105000D01*
%TO.N,PWRSWITCH_gate*%
D60*
X245125000Y-138390000D02*
X245125000Y-136970000D01*
X233375000Y-139280000D02*
X228660000Y-134565000D01*
X245125000Y-136970000D02*
X244485000Y-136330000D01*
X244485000Y-136330000D02*
X241485000Y-136330000D01*
X241485000Y-136330000D02*
X240685000Y-137130000D01*
X240685000Y-137130000D02*
X240685000Y-138530000D01*
X240685000Y-138530000D02*
X240035000Y-139180000D01*
X240035000Y-139180000D02*
X238898604Y-139180000D01*
X238898604Y-139180000D02*
X238798604Y-139280000D01*
X238798604Y-139280000D02*
X233375000Y-139280000D01*
%TO.N,24V_Motor*%
D61*
X239635000Y-135980000D02*
X239635000Y-137030000D01*
X239635000Y-137030000D02*
X237885000Y-137030000D01*
X237885000Y-137030000D02*
X237810000Y-137105000D01*
%TO.N,24Vin*%
X239235000Y-130980000D02*
X239235000Y-133030000D01*
X239235000Y-133030000D02*
X239285000Y-133080000D01*
%TO.N,24V_Motor*%
X236285000Y-136030000D02*
X236285000Y-138030000D01*
X236285000Y-138030000D02*
X236335000Y-138080000D01*
%TO.N,24Vin*%
X236385000Y-133080000D02*
X236385000Y-130980000D01*
X236385000Y-130980000D02*
X236335000Y-130930000D01*
X237810000Y-132025000D02*
X236340000Y-132025000D01*
X236340000Y-132025000D02*
X236335000Y-132030000D01*
X236335000Y-132030000D02*
X236335000Y-130930000D01*
%TO.N,24V_Motor*%
X235010000Y-137105000D02*
X234985000Y-137080000D01*
X237810000Y-137105000D02*
X235010000Y-137105000D01*
X237810000Y-138055000D02*
X237835000Y-138080000D01*
X237810000Y-137105000D02*
X237810000Y-138055000D01*
X237810000Y-136105000D02*
X237835000Y-136080000D01*
X237810000Y-137105000D02*
X237810000Y-136105000D01*
%TO.N,24Vin*%
X240590000Y-132025000D02*
X240635000Y-131980000D01*
X237810000Y-132025000D02*
X240590000Y-132025000D01*
X237810000Y-133005000D02*
X237835000Y-133030000D01*
X237810000Y-132025000D02*
X237810000Y-133005000D01*
X237810000Y-131005000D02*
X237835000Y-130980000D01*
X237810000Y-132025000D02*
X237810000Y-131005000D01*
%TO.N,PWRSWITCH_diode*%
D62*
X238125000Y-140590000D02*
X239085000Y-139630000D01*
X230897500Y-140590000D02*
X238125000Y-140590000D01*
X229435000Y-142052500D02*
X230897500Y-140590000D01*
X239085000Y-139630000D02*
X241345000Y-139630000D01*
X241345000Y-139630000D02*
X242585000Y-138390000D01*
D60*
X228873750Y-141491250D02*
X228797500Y-141415000D01*
X228873750Y-141491250D02*
X228847500Y-141517500D01*
X228847500Y-141517500D02*
X226735000Y-141517500D01*
%TO.N,encoder0_SD*%
X188960000Y-140765000D02*
X190322500Y-140765000D01*
X179185000Y-150515000D02*
X178203750Y-150515000D01*
X178203750Y-150515000D02*
X178085000Y-150633750D01*
X188785000Y-140590000D02*
X188960000Y-140765000D01*
X177947500Y-152027500D02*
X178085000Y-151890000D01*
X176185000Y-152027500D02*
X177947500Y-152027500D01*
X178085000Y-150633750D02*
X178085000Y-151890000D01*
%TO.N,Net-(encoder0-Pin_2)*%
X171403750Y-154390000D02*
X175647500Y-154390000D01*
X175647500Y-154390000D02*
X176185000Y-153852500D01*
%TO.N,SDA*%
X203370000Y-154760000D02*
X196000000Y-147390000D01*
X196000000Y-147390000D02*
X194597500Y-147390000D01*
X196047500Y-139465000D02*
X195310001Y-139465000D01*
X203370000Y-155710000D02*
X203370000Y-154760000D01*
X195310001Y-139465000D02*
X194597500Y-140177501D01*
X194597500Y-140177501D02*
X194597500Y-147390000D01*
%TO.N,+3V3*%
X241220000Y-145340000D02*
X242438778Y-145340000D01*
X166185000Y-128633750D02*
X164928750Y-128633750D01*
D63*
X239685000Y-120190000D02*
X240672500Y-120190000D01*
D61*
X230085000Y-107190000D02*
X230085000Y-106152500D01*
D63*
X190075000Y-136400000D02*
X190085000Y-136390000D01*
X208392500Y-127140000D02*
X207225000Y-127140000D01*
D60*
X242516278Y-145417500D02*
X243885000Y-145417500D01*
D63*
X239685000Y-120190000D02*
X238585000Y-120190000D01*
X196250000Y-136390000D02*
X196250000Y-138612500D01*
X190075000Y-137434000D02*
X190075000Y-136400000D01*
D60*
X242438778Y-145340000D02*
X242516278Y-145417500D01*
D61*
X230737500Y-105500000D02*
X230737500Y-104077500D01*
D60*
X164897500Y-128665000D02*
X163285000Y-128665000D01*
X241085000Y-150990000D02*
X239935500Y-150990000D01*
D64*
X213050000Y-172200000D02*
X213385000Y-171865000D01*
D60*
X249660000Y-149140000D02*
X249672500Y-149152500D01*
X166116985Y-147658015D02*
X165196765Y-147658015D01*
D64*
X213385000Y-171865000D02*
X213385000Y-171767500D01*
D60*
X249660000Y-149165000D02*
X249635000Y-149190000D01*
X165041250Y-128633750D02*
X164985000Y-128577500D01*
X176572500Y-127565000D02*
X176572500Y-129177500D01*
D65*
X217762076Y-172700000D02*
X218674576Y-173612500D01*
D63*
X199585000Y-128790000D02*
X199585000Y-127160000D01*
D60*
X163072500Y-126790000D02*
X163072500Y-128452500D01*
X244045500Y-145417500D02*
X244820500Y-144642500D01*
X249635000Y-149190000D02*
X249635000Y-150752500D01*
X176572500Y-129177500D02*
X176585000Y-129190000D01*
X249660000Y-148190000D02*
X249660000Y-149165000D01*
D61*
X183237500Y-105700000D02*
X183237500Y-104277500D01*
D63*
X176472500Y-139727500D02*
X176472500Y-140717500D01*
D61*
X230085000Y-106152500D02*
X230737500Y-105500000D01*
D64*
X213385000Y-171767500D02*
X213482500Y-171865000D01*
D60*
X197841500Y-137434000D02*
X197885000Y-137477500D01*
X176253750Y-160090000D02*
X176253750Y-158990000D01*
X196250000Y-137434000D02*
X196250000Y-136390000D01*
X163172500Y-145690000D02*
X163172500Y-147352500D01*
X164928750Y-128633750D02*
X164897500Y-128665000D01*
D61*
X160585000Y-107290000D02*
X160585000Y-106252500D01*
D60*
X193985000Y-120590000D02*
X193972500Y-120577500D01*
D63*
X240672500Y-120190000D02*
X241672500Y-119190000D01*
D61*
X160585000Y-106252500D02*
X160647500Y-106190000D01*
D63*
X163285000Y-140530000D02*
X163285000Y-139702500D01*
X163285000Y-139702500D02*
X163272500Y-139690000D01*
D60*
X244820500Y-144642500D02*
X244820500Y-143405000D01*
X163203750Y-158290000D02*
X163203750Y-159608750D01*
D61*
X208285000Y-106127500D02*
X208247500Y-106090000D01*
D63*
X238160000Y-119765000D02*
X238160000Y-119190000D01*
D64*
X214887500Y-171865000D02*
X214985000Y-171767500D01*
X214185000Y-171865000D02*
X214887500Y-171865000D01*
D60*
X163172500Y-147352500D02*
X163285000Y-147465000D01*
D65*
X215082500Y-171865000D02*
X215420000Y-171865000D01*
D60*
X165021765Y-147658015D02*
X164828750Y-147465000D01*
D61*
X208285000Y-107190000D02*
X208285000Y-106127500D01*
X160585000Y-106252500D02*
X161237500Y-105600000D01*
D60*
X179385000Y-129190000D02*
X178222500Y-129190000D01*
D61*
X208285000Y-106052500D02*
X208837500Y-105500000D01*
D63*
X208780000Y-128690000D02*
X208780000Y-127527500D01*
X193972500Y-120577500D02*
X193972500Y-119490000D01*
D60*
X163072500Y-128452500D02*
X163285000Y-128665000D01*
X165196765Y-147658015D02*
X164916250Y-147377500D01*
X176353750Y-148546250D02*
X176185000Y-148715000D01*
D64*
X213482500Y-171865000D02*
X214185000Y-171865000D01*
D60*
X243885000Y-145417500D02*
X244045500Y-145417500D01*
D63*
X243532500Y-152542500D02*
X246020500Y-152542500D01*
D60*
X249660000Y-148190000D02*
X249660000Y-149140000D01*
D63*
X222085000Y-119290000D02*
X220997500Y-119290000D01*
D64*
X211485000Y-172200000D02*
X213050000Y-172200000D01*
D60*
X177941250Y-148715000D02*
X176185000Y-148715000D01*
X239935500Y-150990000D02*
X239920500Y-151005000D01*
D63*
X238585000Y-120190000D02*
X238160000Y-119765000D01*
D65*
X216255000Y-172700000D02*
X217762076Y-172700000D01*
D61*
X161237500Y-105600000D02*
X161237500Y-104277500D01*
D60*
X166116985Y-147658015D02*
X165021765Y-147658015D01*
X176585000Y-129190000D02*
X179385000Y-129190000D01*
X179085000Y-148690000D02*
X177966250Y-148690000D01*
D61*
X182747500Y-107190000D02*
X182747500Y-106190000D01*
D60*
X196250000Y-138612500D02*
X196047500Y-138815000D01*
D63*
X191685000Y-147390000D02*
X192772500Y-147390000D01*
X199585000Y-127160000D02*
X199605000Y-127140000D01*
D61*
X208837500Y-105500000D02*
X208837500Y-104077500D01*
D63*
X196250000Y-137434000D02*
X197841500Y-137434000D01*
D60*
X244820500Y-143405000D02*
X245083000Y-143142500D01*
D65*
X218674576Y-173612500D02*
X218885000Y-173612500D01*
D60*
X164828750Y-147465000D02*
X163285000Y-147465000D01*
X176353750Y-147090000D02*
X176353750Y-148546250D01*
D63*
X176472500Y-140717500D02*
X176485000Y-140730000D01*
D60*
X177966250Y-148690000D02*
X177941250Y-148715000D01*
D63*
X208780000Y-127527500D02*
X208392500Y-127140000D01*
X243485000Y-152590000D02*
X243532500Y-152542500D01*
D60*
X178222500Y-129190000D02*
X178185000Y-129152500D01*
D65*
X214985000Y-171767500D02*
X215082500Y-171865000D01*
D61*
X182747500Y-106190000D02*
X183237500Y-105700000D01*
X236925000Y-162700000D02*
X236955000Y-162730000D01*
X236925000Y-161330000D02*
X236925000Y-162700000D01*
D60*
X166185000Y-128633750D02*
X165041250Y-128633750D01*
D65*
X215420000Y-171865000D02*
X216255000Y-172700000D01*
D61*
X208285000Y-107190000D02*
X208285000Y-106052500D01*
D60*
X163203750Y-159608750D02*
X163285000Y-159690000D01*
%TO.N,dir2*%
X203415000Y-119660000D02*
X206297500Y-116777500D01*
X203415000Y-122190000D02*
X203415000Y-119660000D01*
%TO.N,GND*%
X171735000Y-172490000D02*
X177485000Y-172490000D01*
D61*
X185185000Y-111190000D02*
X185885000Y-110490000D01*
X206297500Y-105865000D02*
X206522500Y-106090000D01*
D62*
X236920000Y-147840000D02*
X235725000Y-147840000D01*
D64*
X213265000Y-173470000D02*
X213287500Y-173492500D01*
D60*
X212085000Y-153800000D02*
X210797500Y-153800000D01*
X158385000Y-130390000D02*
X158385000Y-127890000D01*
D62*
X236025000Y-147340000D02*
X235685000Y-147680000D01*
D64*
X213287500Y-173492500D02*
X213385000Y-173492500D01*
D61*
X209585000Y-108690000D02*
X211085000Y-110190000D01*
D60*
X237917000Y-144340000D02*
X238519500Y-144942500D01*
D61*
X230385000Y-109890000D02*
X232585000Y-109890000D01*
X208385000Y-110890000D02*
X210385000Y-110890000D01*
X210585000Y-109690000D02*
X211085000Y-110190000D01*
X209585000Y-108390000D02*
X209585000Y-108690000D01*
X184385000Y-111990000D02*
X185885000Y-110490000D01*
X162185000Y-111190000D02*
X162885000Y-110490000D01*
X183185000Y-111190000D02*
X185185000Y-111190000D01*
X243135000Y-172190000D02*
X241345000Y-172190000D01*
X231585000Y-108590000D02*
X231585000Y-108890000D01*
D60*
X172953750Y-145340000D02*
X171403750Y-146890000D01*
D63*
X235120500Y-149005000D02*
X234410000Y-149005000D01*
X234410000Y-149005000D02*
X234047500Y-149367500D01*
D61*
X161385000Y-108690000D02*
X161385000Y-108990000D01*
D63*
X244997500Y-163390000D02*
X247680000Y-163390000D01*
D61*
X161385000Y-112290000D02*
X161385000Y-111990000D01*
D60*
X239620500Y-148980000D02*
X239920500Y-149280000D01*
D62*
X235685000Y-147680000D02*
X235685000Y-147880000D01*
D63*
X208780000Y-125802500D02*
X208780000Y-124690000D01*
D60*
X233295500Y-145542500D02*
X233195500Y-145642500D01*
D63*
X242709999Y-157590000D02*
X242047500Y-157590000D01*
X247680000Y-163390000D02*
X247705000Y-163415000D01*
X243182500Y-160230000D02*
X243222500Y-160190000D01*
X245097500Y-154990000D02*
X247480000Y-154990000D01*
D61*
X183185000Y-109990000D02*
X185385000Y-109990000D01*
D60*
X236920000Y-144340000D02*
X237917000Y-144340000D01*
D61*
X180697500Y-105865000D02*
X181022500Y-106190000D01*
D60*
X178485000Y-135190000D02*
X178485000Y-134490000D01*
D61*
X209585000Y-111690000D02*
X211085000Y-110190000D01*
X231585000Y-108890000D02*
X233085000Y-110390000D01*
X160185000Y-109990000D02*
X162385000Y-109990000D01*
X228197500Y-105865000D02*
X228422500Y-106090000D01*
D63*
X243222500Y-160190000D02*
X243210000Y-160177500D01*
D60*
X241720500Y-141330000D02*
X240885000Y-141330000D01*
X178485000Y-135890000D02*
X178485000Y-135190000D01*
X240272500Y-141330000D02*
X240120000Y-141177500D01*
X177485000Y-171200000D02*
X181295000Y-167390000D01*
D63*
X247480000Y-154990000D02*
X247705000Y-154765000D01*
X194525000Y-136350000D02*
X194525000Y-137434000D01*
D60*
X162985000Y-124990000D02*
X162785000Y-124990000D01*
D61*
X185385000Y-109990000D02*
X185885000Y-110490000D01*
X158697500Y-104277500D02*
X158697500Y-105965000D01*
D64*
X213385000Y-173492500D02*
X213482500Y-173590000D01*
D60*
X203385000Y-128790000D02*
X203415000Y-128760000D01*
X173585000Y-125590000D02*
X171485000Y-127690000D01*
D63*
X197310000Y-140765000D02*
X197335000Y-140790000D01*
D61*
X241345000Y-172190000D02*
X241335000Y-172180000D01*
D60*
X165385000Y-135590000D02*
X165385000Y-134890000D01*
X181295000Y-167390000D02*
X183985000Y-167390000D01*
D63*
X238597500Y-165480000D02*
X239585000Y-165480000D01*
D61*
X210385000Y-110890000D02*
X211085000Y-110190000D01*
D62*
X236920000Y-147340000D02*
X236025000Y-147340000D01*
D60*
X163035000Y-143790000D02*
X160185000Y-146640000D01*
D63*
X196047500Y-140765000D02*
X197310000Y-140765000D01*
X242185000Y-160230000D02*
X243182500Y-160230000D01*
D61*
X161385000Y-108990000D02*
X162885000Y-110490000D01*
D60*
X162785000Y-124990000D02*
X159885000Y-127890000D01*
D63*
X190385000Y-146790000D02*
X190322500Y-146727500D01*
D60*
X246085000Y-146390000D02*
X244947500Y-146390000D01*
D63*
X190322500Y-138815000D02*
X190322500Y-139465000D01*
D60*
X240885000Y-141330000D02*
X240272500Y-141330000D01*
X239620500Y-147237500D02*
X239620500Y-148980000D01*
D63*
X190322500Y-146727500D02*
X190322500Y-145965000D01*
D60*
X165085000Y-153990000D02*
X165085000Y-153240000D01*
D62*
X235725000Y-147840000D02*
X235685000Y-147880000D01*
D60*
X160185000Y-146640000D02*
X158310000Y-146640000D01*
X171403750Y-146890000D02*
X171403750Y-149390000D01*
X171485000Y-130190000D02*
X171485000Y-127690000D01*
D63*
X198335000Y-122190000D02*
X198335000Y-120590000D01*
X240622500Y-165480000D02*
X239585000Y-165480000D01*
D60*
X192485000Y-173490000D02*
X193965000Y-173490000D01*
X193965000Y-173490000D02*
X193985000Y-173470000D01*
D61*
X231585000Y-112190000D02*
X231585000Y-111890000D01*
X228197500Y-104077500D02*
X228197500Y-105865000D01*
D60*
X159885000Y-127890000D02*
X158385000Y-127890000D01*
D63*
X243210000Y-160177500D02*
X243210000Y-158090001D01*
D61*
X206297500Y-104077500D02*
X206297500Y-105865000D01*
X160185000Y-111190000D02*
X162185000Y-111190000D01*
D60*
X176235000Y-145340000D02*
X172953750Y-145340000D01*
D61*
X158697500Y-105965000D02*
X158922500Y-106190000D01*
D62*
X238417000Y-147340000D02*
X238519500Y-147237500D01*
D60*
X233295500Y-144890000D02*
X233295500Y-145542500D01*
D63*
X190322500Y-139465000D02*
X189060000Y-139465000D01*
D61*
X217215000Y-173492500D02*
X217285000Y-173562500D01*
D60*
X165085000Y-154690000D02*
X165085000Y-153990000D01*
D61*
X208385000Y-109690000D02*
X210585000Y-109690000D01*
X180697500Y-104277500D02*
X180697500Y-105865000D01*
X232585000Y-109890000D02*
X233085000Y-110390000D01*
X231585000Y-111890000D02*
X233085000Y-110390000D01*
D60*
X165385000Y-134890000D02*
X165385000Y-134190000D01*
D62*
X236920000Y-147340000D02*
X238417000Y-147340000D01*
D60*
X177485000Y-172490000D02*
X177485000Y-171200000D01*
D61*
X214985000Y-173492500D02*
X213385000Y-173492500D01*
X184385000Y-108990000D02*
X185885000Y-110490000D01*
X230385000Y-111090000D02*
X232385000Y-111090000D01*
X161385000Y-111990000D02*
X162885000Y-110490000D01*
D63*
X234047500Y-149367500D02*
X232885000Y-149367500D01*
D61*
X184385000Y-108690000D02*
X184385000Y-108990000D01*
D60*
X246085000Y-146390000D02*
X248075000Y-146390000D01*
D63*
X203415000Y-128760000D02*
X203415000Y-127140000D01*
X189060000Y-139465000D02*
X188985000Y-139390000D01*
X234735000Y-148942500D02*
X235685000Y-147992500D01*
D64*
X211485000Y-173470000D02*
X213265000Y-173470000D01*
D60*
X248075000Y-146390000D02*
X248185000Y-146500000D01*
D61*
X162385000Y-109990000D02*
X162885000Y-110490000D01*
X232385000Y-111090000D02*
X233085000Y-110390000D01*
D63*
X235685000Y-147992500D02*
X235685000Y-147880000D01*
D60*
X178085000Y-153990000D02*
X178085000Y-154690000D01*
X233295500Y-144042500D02*
X233295500Y-144890000D01*
D63*
X243210000Y-158090001D02*
X242709999Y-157590000D01*
D60*
X178085000Y-154690000D02*
X178085000Y-155490000D01*
D61*
X214985000Y-173492500D02*
X217215000Y-173492500D01*
D60*
X176285000Y-125590000D02*
X173585000Y-125590000D01*
D61*
X209585000Y-111990000D02*
X209585000Y-111690000D01*
X184385000Y-112290000D02*
X184385000Y-111990000D01*
%TO.N,step2*%
D60*
X212345000Y-167090000D02*
X212315000Y-167120000D01*
X212315000Y-167120000D02*
X211485000Y-167120000D01*
X212985000Y-167090000D02*
X212345000Y-167090000D01*
%TO.N,mot2.B1*%
D66*
X211377500Y-104077500D02*
X211377500Y-97897500D01*
%TO.N,UART*%
D60*
X214285000Y-159587500D02*
X213102500Y-160770000D01*
X214285000Y-159490000D02*
X214285000Y-159587500D01*
X213102500Y-160770000D02*
X211485000Y-160770000D01*
%TO.N,mot2.A1*%
D66*
X213917500Y-104077500D02*
X213917500Y-97857500D01*
%TO.N,mot2.A2*%
X216457500Y-104077500D02*
X216457500Y-97817500D01*
%TO.N,/mot2/MS2*%
D60*
X218997500Y-119115000D02*
X219172500Y-119290000D01*
D63*
X218997500Y-116777500D02*
X218997500Y-119115000D01*
%TO.N,mot2.B2*%
D66*
X218997500Y-104077500D02*
X218997500Y-97802500D01*
%TO.N,en2*%
D60*
X206557240Y-114890000D02*
X222150000Y-114890000D01*
X202145000Y-119302240D02*
X206557240Y-114890000D01*
X202145000Y-122190000D02*
X202145000Y-119302240D01*
X222150000Y-114890000D02*
X224077500Y-116817500D01*
%TO.N,24V*%
D61*
X234660000Y-147292500D02*
X234735000Y-147217500D01*
D62*
X235745000Y-146840000D02*
X235635000Y-146730000D01*
D63*
X235147500Y-147217500D02*
X235635000Y-146730000D01*
D62*
X236920000Y-146030000D02*
X236920000Y-146840000D01*
D61*
X231285000Y-147390000D02*
X232787500Y-147390000D01*
D63*
X234735000Y-147217500D02*
X235147500Y-147217500D01*
D61*
X231235000Y-126190000D02*
X230335000Y-125290000D01*
D62*
X236920000Y-145840000D02*
X236920000Y-146030000D01*
X236025000Y-146340000D02*
X235635000Y-146730000D01*
X236920000Y-146840000D02*
X235745000Y-146840000D01*
X236920000Y-146340000D02*
X236025000Y-146340000D01*
D61*
X233055000Y-126190000D02*
X231235000Y-126190000D01*
X232787500Y-147390000D02*
X232885000Y-147292500D01*
X248345000Y-122230000D02*
X247485000Y-123090000D01*
X232885000Y-147292500D02*
X234660000Y-147292500D01*
X233085000Y-126160000D02*
X233055000Y-126190000D01*
%TO.N,Net-(U3-FB)*%
D60*
X241220000Y-144340000D02*
X241220000Y-143655500D01*
X243358000Y-144280000D02*
X242995500Y-144642500D01*
X243358000Y-143142500D02*
X243358000Y-144280000D01*
X241720500Y-143155000D02*
X243345500Y-143155000D01*
X241220000Y-143655500D02*
X241720500Y-143155000D01*
X243345500Y-143155000D02*
X243358000Y-143142500D01*
%TO.N,Net-(USB1-CC1)*%
X243172500Y-164590000D02*
X243172500Y-163390000D01*
%TO.N,encoder2_SD*%
X178485000Y-132390000D02*
X176622500Y-132390000D01*
X188760000Y-143365000D02*
X178485000Y-133090000D01*
X190322500Y-143365000D02*
X188760000Y-143365000D01*
X178485000Y-133090000D02*
X178485000Y-132390000D01*
X176622500Y-132390000D02*
X176385000Y-132627500D01*
X178485000Y-132390000D02*
X178485000Y-131277500D01*
X178485000Y-131277500D02*
X178185000Y-130977500D01*
%TO.N,Net-(encoder2-Pin_2)*%
X176385000Y-134452500D02*
X172222500Y-134452500D01*
X172222500Y-134452500D02*
X171485000Y-135190000D01*
%TO.N,mot1.B1*%
D66*
X185777500Y-104277500D02*
X185777500Y-98022500D01*
%TO.N,mot1.A1*%
X188317500Y-104277500D02*
X188317500Y-97982500D01*
%TO.N,mot1.A2*%
X190857500Y-104277500D02*
X190857500Y-97987500D01*
%TO.N,mot1.B2*%
X193397500Y-104277500D02*
X193397500Y-98027500D01*
%TO.N,reset*%
D60*
X217285000Y-171837500D02*
X218835000Y-171837500D01*
X222842500Y-171787500D02*
X223645000Y-172590000D01*
X216492500Y-171837500D02*
X217285000Y-171837500D01*
X215585000Y-170930000D02*
X216492500Y-171837500D01*
X218835000Y-171837500D02*
X218885000Y-171787500D01*
X211485000Y-170930000D02*
X215585000Y-170930000D01*
X218885000Y-171787500D02*
X222842500Y-171787500D01*
%TO.N,encoder1_SD*%
X165510000Y-150690000D02*
X165072500Y-151127500D01*
X164916250Y-150921250D02*
X164916250Y-149202500D01*
X188285000Y-141990000D02*
X190235000Y-141990000D01*
X166785000Y-150690000D02*
X165510000Y-150690000D01*
X190235000Y-141990000D02*
X190310000Y-142065000D01*
X165072500Y-151127500D02*
X163085000Y-151127500D01*
X165085000Y-151090000D02*
X164916250Y-150921250D01*
X190310000Y-142065000D02*
X190322500Y-142065000D01*
%TO.N,Net-(encoder1-Pin_2)*%
X158310000Y-154140000D02*
X161897500Y-154140000D01*
X161897500Y-154140000D02*
X163085000Y-152952500D01*
%TO.N,Net-(U6-~{RESET})*%
X190322500Y-140115000D02*
X191059999Y-140115000D01*
X191059999Y-140115000D02*
X191900000Y-139274999D01*
X191900000Y-139274999D02*
X191900000Y-137434000D01*
%TO.N,endswitch2*%
X209485000Y-164590000D02*
X210985000Y-164590000D01*
X179285000Y-127690000D02*
X178522500Y-127690000D01*
X178285000Y-123290000D02*
X178285000Y-125490000D01*
X178285000Y-125490000D02*
X178385000Y-125590000D01*
X178385000Y-125590000D02*
X178385000Y-127552500D01*
X178522500Y-127690000D02*
X178397500Y-127565000D01*
X178385000Y-127552500D02*
X178397500Y-127565000D01*
%TO.N,/CONN/VO_USB_LDO*%
D61*
X236872500Y-164112500D02*
X236955000Y-164030000D01*
X236835000Y-165517500D02*
X236872500Y-165480000D01*
X243135000Y-169890000D02*
X236835000Y-169890000D01*
X236835000Y-169890000D02*
X236835000Y-165517500D01*
X236872500Y-165480000D02*
X236872500Y-164112500D01*
%TO.N,endswitch0*%
D60*
X178335000Y-145340000D02*
X178335000Y-146933750D01*
X178335000Y-146933750D02*
X178178750Y-147090000D01*
X179741250Y-148165000D02*
X178666250Y-147090000D01*
X202100000Y-154760000D02*
X195505000Y-148165000D01*
X178197500Y-145202500D02*
X178335000Y-145340000D01*
X178666250Y-147090000D02*
X178178750Y-147090000D01*
X195505000Y-148165000D02*
X179741250Y-148165000D01*
X202100000Y-155710000D02*
X202100000Y-154760000D01*
X178197500Y-142940000D02*
X178197500Y-145202500D01*
%TO.N,encoder3_SD*%
X163285000Y-132227500D02*
X165247500Y-132227500D01*
X165247500Y-132227500D02*
X165385000Y-132090000D01*
X177260000Y-137573278D02*
X176851722Y-137165000D01*
X181742408Y-144665000D02*
X177260000Y-140182593D01*
X169635000Y-136340000D02*
X165385000Y-132090000D01*
X165385000Y-130802500D02*
X164985000Y-130402500D01*
X165385000Y-132090000D02*
X165385000Y-130802500D01*
X172244744Y-136340000D02*
X169635000Y-136340000D01*
X176851722Y-137165000D02*
X173069744Y-137165000D01*
X177260000Y-140182593D02*
X177260000Y-137573278D01*
X190322500Y-144665000D02*
X181742408Y-144665000D01*
X173069744Y-137165000D02*
X172244744Y-136340000D01*
%TO.N,Net-(LED1-A)*%
X251385000Y-150827500D02*
X251460000Y-150752500D01*
X251385000Y-152552500D02*
X251385000Y-150827500D01*
%TO.N,Net-(encoder3-Pin_3)*%
X163285000Y-130415000D02*
X160860000Y-130415000D01*
X160860000Y-130415000D02*
X158385000Y-132890000D01*
%TO.N,endswitch1*%
X164997500Y-143927500D02*
X165135000Y-143790000D01*
X200830000Y-155710000D02*
X200830000Y-154760000D01*
X164997500Y-145690000D02*
X164997500Y-143927500D01*
X195610000Y-149540000D02*
X173005096Y-149540000D01*
X165135000Y-143790000D02*
X165135000Y-142127500D01*
X200830000Y-154760000D02*
X195610000Y-149540000D01*
X172005096Y-150540000D02*
X169847500Y-150540000D01*
X165135000Y-142127500D02*
X164997500Y-141990000D01*
X169847500Y-150540000D02*
X164997500Y-145690000D01*
X173005096Y-149540000D02*
X172005096Y-150540000D01*
%TO.N,encoder1_SC*%
X165085000Y-156790000D02*
X163085000Y-154790000D01*
X163085000Y-154790000D02*
X163085000Y-154727500D01*
X165028750Y-159490000D02*
X165028750Y-156846250D01*
X189410735Y-142615735D02*
X189510000Y-142715000D01*
X189510000Y-142715000D02*
X190322500Y-142715000D01*
X188859265Y-142615735D02*
X189410735Y-142615735D01*
X165028750Y-156846250D02*
X165085000Y-156790000D01*
%TO.N,Net-(encoder3-Pin_2)*%
X163285000Y-134052500D02*
X159722500Y-134052500D01*
X159722500Y-134052500D02*
X158385000Y-135390000D01*
%TO.N,encoder2_SC*%
X188210000Y-144015000D02*
X183922500Y-139727500D01*
X183922500Y-139727500D02*
X178297500Y-139727500D01*
X178247500Y-137990000D02*
X176385000Y-136127500D01*
X178485000Y-137990000D02*
X178247500Y-137990000D01*
X190322500Y-144015000D02*
X188210000Y-144015000D01*
X178297500Y-139727500D02*
X178297500Y-138177500D01*
X178297500Y-138177500D02*
X178485000Y-137990000D01*
%TO.N,encoder0_SC*%
X178085000Y-157590000D02*
X178078750Y-157596250D01*
X176185000Y-155690000D02*
X176185000Y-155627500D01*
X178085000Y-157590000D02*
X176185000Y-155690000D01*
X188910000Y-141415000D02*
X190322500Y-141415000D01*
X178078750Y-157596250D02*
X178078750Y-158990000D01*
X179285000Y-157590000D02*
X178085000Y-157590000D01*
X188885000Y-141390000D02*
X188910000Y-141415000D01*
%TO.N,encoder3_SC*%
X166737500Y-141330000D02*
X165097500Y-139690000D01*
X163422500Y-135727500D02*
X163285000Y-135727500D01*
X165097500Y-139690000D02*
X165097500Y-137977500D01*
X165097500Y-137977500D02*
X165385000Y-137690000D01*
X165385000Y-137690000D02*
X163422500Y-135727500D01*
X181826722Y-145315000D02*
X177841722Y-141330000D01*
X190322500Y-145315000D02*
X181826722Y-145315000D01*
X177841722Y-141330000D02*
X166737500Y-141330000D01*
%TO.N,SCL*%
X197885000Y-140441471D02*
X197885000Y-139302500D01*
X204640000Y-153245000D02*
X198085000Y-146690000D01*
X198085000Y-140641471D02*
X197885000Y-140441471D01*
X204640000Y-155710000D02*
X204640000Y-153245000D01*
X196047500Y-140115000D02*
X196972500Y-140115000D01*
X197785000Y-139302500D02*
X197885000Y-139302500D01*
X196972500Y-140115000D02*
X197785000Y-139302500D01*
X198085000Y-146690000D02*
X198085000Y-140641471D01*
%TO.N,Net-(encoder2-Pin_6)*%
X171485000Y-125190000D02*
X174560000Y-125190000D01*
X174560000Y-125190000D02*
X176460000Y-123290000D01*
%TO.N,dir1*%
X197088500Y-116193500D02*
X195485000Y-114590000D01*
X205955000Y-123164999D02*
X205252999Y-123867000D01*
X195485000Y-114590000D02*
X183085000Y-114590000D01*
X183085000Y-114590000D02*
X180697500Y-116977500D01*
X205252999Y-123867000D02*
X198395032Y-123867000D01*
X205955000Y-122190000D02*
X205955000Y-123164999D01*
X198395032Y-123867000D02*
X197088500Y-122560468D01*
X197088500Y-122560468D02*
X197088500Y-116193500D01*
%TO.N,step1*%
X212985000Y-168490000D02*
X211585000Y-168490000D01*
X211585000Y-168490000D02*
X211485000Y-168390000D01*
%TO.N,/mot1/MS1*%
X195937500Y-119350000D02*
X195797500Y-119490000D01*
D63*
X195937500Y-116977500D02*
X195937500Y-119350000D01*
%TO.N,en1*%
D60*
X204685000Y-123164999D02*
X204383999Y-123466000D01*
X199264032Y-123466000D02*
X198936000Y-123137968D01*
X204685000Y-122190000D02*
X204685000Y-123164999D01*
X198936000Y-123137968D02*
X198936000Y-117476000D01*
X204383999Y-123466000D02*
X199264032Y-123466000D01*
X198936000Y-117476000D02*
X198477500Y-117017500D01*
%TO.N,Net-(U1-IO46)*%
X208450000Y-154322500D02*
X208450000Y-155710000D01*
X208972500Y-153800000D02*
X208450000Y-154322500D01*
%TO.N,Net-(C11-Pad2)*%
X243020500Y-149640500D02*
X243020500Y-149715000D01*
X241220000Y-147840000D02*
X243020500Y-149640500D01*
X241220000Y-147490000D02*
X241220000Y-147340000D01*
X241220000Y-147490000D02*
X241220000Y-146840000D01*
X241220000Y-147840000D02*
X241220000Y-147490000D01*
X245793000Y-149715000D02*
X246020500Y-149942500D01*
X243020500Y-149715000D02*
X245793000Y-149715000D01*
%TO.N,24Vin*%
X251135000Y-137330000D02*
X251135000Y-136230000D01*
X248285000Y-131630000D02*
X248285000Y-130190000D01*
X249035000Y-132380000D02*
X248285000Y-131630000D01*
X251135000Y-136230000D02*
X251635000Y-135730000D01*
X232322500Y-142052500D02*
X231335000Y-142052500D01*
X251635000Y-134451522D02*
X249563478Y-132380000D01*
X251635000Y-135730000D02*
X251635000Y-134451522D01*
X232385000Y-141990000D02*
X232322500Y-142052500D01*
X249563478Y-132380000D02*
X249035000Y-132380000D01*
%TO.N,PWRSWITCH_gate*%
X226585000Y-132490000D02*
X228660000Y-134565000D01*
%TO.N,Net-(encoder1-Pin_3)*%
X163285000Y-149215000D02*
X160860000Y-151640000D01*
X160860000Y-151640000D02*
X158310000Y-151640000D01*
%TO.N,USB D+*%
X241653749Y-156640000D02*
X240928749Y-157365000D01*
X211785000Y-156960000D02*
X211485000Y-156960000D01*
X212582796Y-157370000D02*
X212195000Y-157370000D01*
X242047500Y-156640000D02*
X241653749Y-156640000D01*
X212195000Y-157370000D02*
X211785000Y-156960000D01*
X212587796Y-157365000D02*
X212582796Y-157370000D01*
X240928749Y-157365000D02*
X212587796Y-157365000D01*
%TO.N,USB D-*%
X212760002Y-157815000D02*
X212755002Y-157820000D01*
X240928749Y-157815000D02*
X212760002Y-157815000D01*
X212755002Y-157820000D02*
X212195000Y-157820000D01*
X241653749Y-158540000D02*
X240928749Y-157815000D01*
X211785000Y-158230000D02*
X211485000Y-158230000D01*
X212195000Y-157820000D02*
X211785000Y-158230000D01*
X242047500Y-158540000D02*
X241653749Y-158540000D01*
%TO.N,Net-(USB1-DN1)*%
X246725000Y-158665000D02*
X247189702Y-158665000D01*
X247189702Y-158665000D02*
X248039702Y-159515000D01*
X244322500Y-158540000D02*
X246600000Y-158540000D01*
X248039702Y-159515000D02*
X248075000Y-159515000D01*
X246600000Y-158540000D02*
X246725000Y-158665000D01*
%TO.N,VBUS*%
D63*
X242635000Y-161130000D02*
X244685000Y-161130000D01*
X242347500Y-165480000D02*
X242235000Y-165367500D01*
X243135000Y-167590000D02*
X243135000Y-167030000D01*
X245640381Y-157590000D02*
X244322500Y-157590000D01*
X242347500Y-166242500D02*
X242347500Y-165480000D01*
X242235000Y-165367500D02*
X242235000Y-161530000D01*
X245595000Y-160190000D02*
X245885000Y-160480000D01*
X244685000Y-161130000D02*
X244947500Y-160867500D01*
X246725000Y-156965000D02*
X246265381Y-156965000D01*
X245885000Y-160480000D02*
X245885000Y-160834619D01*
X248075000Y-161215000D02*
X246725000Y-161215000D01*
X244947500Y-160190000D02*
X245595000Y-160190000D01*
X245885000Y-160834619D02*
X246265381Y-161215000D01*
X246265381Y-161215000D02*
X246725000Y-161215000D01*
X242235000Y-161530000D02*
X242635000Y-161130000D01*
X248075000Y-156965000D02*
X246725000Y-156965000D01*
X243135000Y-167030000D02*
X242347500Y-166242500D01*
X244947500Y-160867500D02*
X244947500Y-160190000D01*
X246265381Y-156965000D02*
X245640381Y-157590000D01*
%TO.N,Net-(USB1-DP1)*%
D60*
X245485000Y-156640000D02*
X244322500Y-156640000D01*
%TO.N,Net-(encoder0-Pin_1)*%
X175622500Y-156890000D02*
X176185000Y-157452500D01*
X171403750Y-156890000D02*
X175622500Y-156890000D01*
%TO.N,Net-(encoder0-Pin_3)*%
X174760000Y-151890000D02*
X176185000Y-150465000D01*
X171403750Y-151890000D02*
X174760000Y-151890000D01*
%TO.N,Net-(encoder0-Pin_6)*%
X174922500Y-144390000D02*
X176372500Y-142940000D01*
X171403750Y-144390000D02*
X174922500Y-144390000D01*
%TO.N,/esp32/TX*%
X213112500Y-162040000D02*
X213385000Y-162312500D01*
X211485000Y-162040000D02*
X213112500Y-162040000D01*
%TO.N,Net-(USB1-CC2)*%
X249206000Y-157143619D02*
X248534619Y-157815000D01*
X249206000Y-154453926D02*
X249206000Y-157143619D01*
X243272500Y-154990000D02*
X244248500Y-154014000D01*
X248534619Y-157815000D02*
X248075000Y-157815000D01*
X248766074Y-154014000D02*
X249206000Y-154453926D01*
X244248500Y-154014000D02*
X248766074Y-154014000D01*
%TO.N,Net-(encoder3-Pin_1)*%
X163285000Y-137552500D02*
X158722500Y-137552500D01*
X158722500Y-137552500D02*
X158385000Y-137890000D01*
%TO.N,Net-(encoder3-Pin_6)*%
X158385000Y-125390000D02*
X160972500Y-125390000D01*
X160972500Y-125390000D02*
X163172500Y-123190000D01*
%TO.N,tx_ext*%
X184985000Y-170930000D02*
X183985000Y-169930000D01*
X193985000Y-170930000D02*
X184985000Y-170930000D01*
%TO.N,rx_ext*%
X193985000Y-172200000D02*
X184255000Y-172200000D01*
X184255000Y-172200000D02*
X183985000Y-172470000D01*
%TO.N,Net-(NPN1-B)*%
X240462590Y-144840000D02*
X240195000Y-144572410D01*
X240195000Y-144572410D02*
X240195000Y-142977500D01*
X240195000Y-142977500D02*
X240120000Y-142902500D01*
X241220000Y-144840000D02*
X240462590Y-144840000D01*
%TO.N,Net-(encoder1-Pin_1)*%
X163085000Y-156552500D02*
X158397500Y-156552500D01*
X158397500Y-156552500D02*
X158310000Y-156640000D01*
%TO.N,Net-(U1-IO0)*%
X182565000Y-156960000D02*
X193985000Y-156960000D01*
X171735000Y-167790000D02*
X182565000Y-156960000D01*
X171735000Y-168490000D02*
X171735000Y-167790000D01*
X177485000Y-168490000D02*
X171735000Y-168490000D01*
%TO.N,endswitch3*%
X165085000Y-126602500D02*
X164897500Y-126790000D01*
X164997500Y-124902500D02*
X165085000Y-124990000D01*
X209485000Y-163390000D02*
X211085000Y-163390000D01*
X165085000Y-124990000D02*
X165085000Y-126602500D01*
X164997500Y-123190000D02*
X165885000Y-123190000D01*
X164997500Y-123190000D02*
X164997500Y-124902500D01*
%TO.N,dir0*%
X204464000Y-124669000D02*
X183764000Y-124669000D01*
X183764000Y-124669000D02*
X180385000Y-121290000D01*
X205955000Y-126160000D02*
X204464000Y-124669000D01*
X163010000Y-121290000D02*
X158697500Y-116977500D01*
X180385000Y-121290000D02*
X163010000Y-121290000D01*
X205955000Y-127140000D02*
X205955000Y-126160000D01*
%TO.N,step0*%
X210085000Y-169590000D02*
X210155000Y-169660000D01*
X210155000Y-169660000D02*
X211485000Y-169660000D01*
%TO.N,mot0.B1*%
D66*
X163777500Y-104277500D02*
X163777500Y-97797500D01*
%TO.N,mot0.A1*%
X166317500Y-104277500D02*
X166317500Y-97757500D01*
%TO.N,mot0.A2*%
X168857500Y-104277500D02*
X168857500Y-97717500D01*
%TO.N,mot0.B2*%
X171385000Y-97690000D02*
X171385000Y-104265000D01*
X171385000Y-104265000D02*
X171397500Y-104277500D01*
%TO.N,en0*%
D60*
X195863000Y-124268000D02*
X192085000Y-120490000D01*
X181985000Y-117490000D02*
X181185000Y-118290000D01*
X207225000Y-122190000D02*
X207225000Y-123164999D01*
X192085000Y-120490000D02*
X192085000Y-116290000D01*
X207225000Y-123164999D02*
X206121999Y-124268000D01*
X177750000Y-118290000D02*
X176477500Y-117017500D01*
X183159240Y-115190000D02*
X181985000Y-116364240D01*
X181185000Y-118290000D02*
X177750000Y-118290000D01*
X192085000Y-116290000D02*
X190985000Y-115190000D01*
X206121999Y-124268000D02*
X195863000Y-124268000D01*
X181985000Y-116364240D02*
X181985000Y-117490000D01*
X190985000Y-115190000D02*
X183159240Y-115190000D01*
%TO.N,PWRSWITCH_diode*%
X229435000Y-142052500D02*
X228873750Y-141491250D01*
%TO.N,Net-(encoder2-Pin_1)*%
X171747500Y-137952500D02*
X171485000Y-137690000D01*
X176385000Y-137952500D02*
X171747500Y-137952500D01*
%TO.N,Net-(encoder2-Pin_3)*%
X176585000Y-130940000D02*
X173235000Y-130940000D01*
X173235000Y-130940000D02*
X171485000Y-132690000D01*
%TO.N,Net-(U3-BST)*%
X243020500Y-147990000D02*
X242245000Y-147214500D01*
X242245000Y-147214500D02*
X242245000Y-146607590D01*
X241977410Y-146340000D02*
X241220000Y-146340000D01*
X242245000Y-146607590D02*
X241977410Y-146340000D01*
%TO.N,Net-(U3-TR{slash}SS)*%
X236920000Y-144840000D02*
X235818000Y-144840000D01*
X235818000Y-144840000D02*
X235020500Y-144042500D01*
%TO.N,Net-(U3-RT)*%
X235323000Y-145340000D02*
X235020500Y-145642500D01*
X236920000Y-145340000D02*
X235323000Y-145340000D01*
%TO.N,/mot3/MS1*%
X243437500Y-116842500D02*
X243497500Y-116902500D01*
X243437500Y-116777500D02*
X243437500Y-116842500D01*
D63*
X243497500Y-116902500D02*
X243497500Y-119190000D01*
%TO.N,dir3*%
D60*
X200875000Y-120005140D02*
X206790140Y-114090000D01*
X206790140Y-114090000D02*
X221985000Y-114090000D01*
X223323500Y-115428500D02*
X226848500Y-115428500D01*
X221985000Y-114090000D02*
X223323500Y-115428500D01*
X226848500Y-115428500D02*
X228197500Y-116777500D01*
X200875000Y-122190000D02*
X200875000Y-120005140D01*
%TO.N,en3*%
X207186540Y-113126500D02*
X225231500Y-113126500D01*
X199605000Y-120708040D02*
X207186540Y-113126500D01*
X243940000Y-114780000D02*
X245977500Y-116817500D01*
X225231500Y-113126500D02*
X226885000Y-114780000D01*
X226885000Y-114780000D02*
X243940000Y-114780000D01*
X199605000Y-122190000D02*
X199605000Y-120708040D01*
%TO.N,SRCLK*%
X212575000Y-159500000D02*
X211485000Y-159500000D01*
X200875000Y-128790000D02*
X200875000Y-127140000D01*
X212688093Y-159386907D02*
X212575000Y-159500000D01*
X212688093Y-158891443D02*
X212688093Y-159386907D01*
%TO.N,RCLK*%
X201785000Y-129390000D02*
X202145000Y-129030000D01*
X205910000Y-153115000D02*
X201785000Y-148990000D01*
X201785000Y-148990000D02*
X201785000Y-129390000D01*
X205910000Y-155710000D02*
X205910000Y-153115000D01*
X202145000Y-129030000D02*
X202145000Y-127140000D01*
%TO.N,SER*%
X207180000Y-155710000D02*
X207180000Y-151585000D01*
X203185000Y-147590000D02*
X203185000Y-129838529D01*
X203185000Y-129838529D02*
X204685000Y-128338529D01*
X204685000Y-128338529D02*
X204685000Y-127140000D01*
X207180000Y-151585000D02*
X203185000Y-147590000D01*
%TO.N,Net-(encoder1-Pin_6)*%
X163172500Y-141990000D02*
X161022500Y-144140000D01*
X161022500Y-144140000D02*
X158310000Y-144140000D01*
%TO.N,step3*%
X211485000Y-165850000D02*
X212985000Y-165850000D01*
%TO.N,mot3.B1*%
D66*
X233277500Y-104077500D02*
X233277500Y-97922500D01*
%TO.N,mot3.A1*%
X235817500Y-104077500D02*
X235817500Y-97882500D01*
%TO.N,mot3.A2*%
X238357500Y-104077500D02*
X238357500Y-97842500D01*
%TO.N,/mot3/MS2*%
D63*
X240897500Y-116777500D02*
X239985000Y-117690000D01*
X239985000Y-117690000D02*
X239985000Y-119190000D01*
%TO.N,mot3.B2*%
D66*
X240897500Y-104077500D02*
X240897500Y-97802500D01*
%TO.N,IO38*%
D60*
X184335000Y-162040000D02*
X193985000Y-162040000D01*
X183985000Y-162390000D02*
X184335000Y-162040000D01*
%TO.N,Net-(U3-INTVcc)*%
X241220000Y-145840000D02*
X242672500Y-145840000D01*
X242672500Y-145840000D02*
X243222500Y-146390000D01*
%TO.N,PWRSWITCH_Voltage*%
X251135000Y-139155000D02*
X248430000Y-139155000D01*
X248430000Y-139155000D02*
X247665000Y-138390000D01*
%TO.N,Net-(BOB-0-+VM)*%
D67*
X173925000Y-110490000D02*
X176485000Y-107930000D01*
X176485000Y-107930000D02*
X176477500Y-107922500D01*
X170385000Y-110490000D02*
X173925000Y-110490000D01*
D68*
X170385000Y-110490000D02*
X170385000Y-112330000D01*
X170385000Y-110490000D02*
X167525000Y-110490000D01*
X167525000Y-110490000D02*
X167085000Y-110930000D01*
D67*
X176477500Y-107922500D02*
X176477500Y-104277500D01*
D68*
X170385000Y-112330000D02*
X170185000Y-112530000D01*
%TO.N,Net-(BOB-1-+VM)*%
X193285000Y-112380000D02*
X192985000Y-112680000D01*
D67*
X195275000Y-110590000D02*
X198477500Y-107387500D01*
X198477500Y-107387500D02*
X198477500Y-104277500D01*
D61*
X194022500Y-110590000D02*
X193285000Y-110590000D01*
D68*
X193285000Y-110590000D02*
X193285000Y-112380000D01*
X193285000Y-110590000D02*
X190675000Y-110590000D01*
X190675000Y-110590000D02*
X190235000Y-111030000D01*
D67*
X193285000Y-110590000D02*
X195275000Y-110590000D01*
%TO.N,Net-(BOB-2-+VM)*%
D68*
X218385000Y-110080000D02*
X218385000Y-111880000D01*
D67*
X224085000Y-107180000D02*
X224077500Y-107172500D01*
X224077500Y-107172500D02*
X224077500Y-104077500D01*
D68*
X215835000Y-110080000D02*
X218385000Y-110080000D01*
X215285000Y-110630000D02*
X215835000Y-110080000D01*
D67*
X221185000Y-110080000D02*
X224085000Y-107180000D01*
X218385000Y-110080000D02*
X221185000Y-110080000D01*
D68*
X218385000Y-111880000D02*
X218185000Y-112080000D01*
%TO.N,Net-(BOB-3-+VM)*%
D61*
X241522500Y-110390000D02*
X240485000Y-110390000D01*
D68*
X237825000Y-110390000D02*
X237335000Y-110880000D01*
D67*
X245985000Y-106880000D02*
X245977500Y-106872500D01*
D68*
X240485000Y-112180000D02*
X240285000Y-112380000D01*
D67*
X245977500Y-106872500D02*
X245977500Y-104077500D01*
D68*
X240485000Y-110390000D02*
X240485000Y-112180000D01*
D67*
X242475000Y-110390000D02*
X245985000Y-106880000D01*
X240485000Y-110390000D02*
X242475000Y-110390000D01*
D68*
X240485000Y-110390000D02*
X237825000Y-110390000D01*
%TO.N,24V*%
D61*
X247485000Y-123090000D02*
X233085000Y-123090000D01*
%TD*%
%TA.AperFunction,Conductor*%
%TO.N,GND*%
G36*
X208528039Y-157409685D02*
G01*
X208573794Y-157462489D01*
X208585000Y-157514000D01*
X208585000Y-173406000D01*
X208565315Y-173473039D01*
X208512511Y-173518794D01*
X208461000Y-173530000D01*
X195709000Y-173530000D01*
X195641961Y-173510315D01*
X195596206Y-173457511D01*
X195585000Y-173406000D01*
X195585000Y-157514000D01*
X195604685Y-157446961D01*
X195657489Y-157401206D01*
X195709000Y-157390000D01*
X208461000Y-157390000D01*
X208528039Y-157409685D01*
G37*
%TD.AperFunction*%
%TD*%
%TA.AperFunction,Conductor*%
%TO.N,GND*%
G36*
X235528039Y-159009685D02*
G01*
X235573794Y-159062489D01*
X235585000Y-159114000D01*
X235585000Y-164466000D01*
X235565315Y-164533039D01*
X235512511Y-164578794D01*
X235461000Y-164590000D01*
X233185000Y-164590000D01*
X233185000Y-173995500D01*
X233165315Y-174062539D01*
X233112511Y-174108294D01*
X233061000Y-174119500D01*
X227330446Y-174119500D01*
X227263407Y-174099815D01*
X227217652Y-174047011D01*
X227207708Y-173977853D01*
X227236733Y-173914297D01*
X227271018Y-173886668D01*
X227277093Y-173883350D01*
X227392187Y-173797190D01*
X227392190Y-173797187D01*
X227478350Y-173682093D01*
X227478354Y-173682086D01*
X227528596Y-173547379D01*
X227528598Y-173547372D01*
X227534999Y-173487844D01*
X227535000Y-173487827D01*
X227535000Y-172840000D01*
X226618012Y-172840000D01*
X226650925Y-172782993D01*
X226685000Y-172655826D01*
X226685000Y-172524174D01*
X226650925Y-172397007D01*
X226618012Y-172340000D01*
X227535000Y-172340000D01*
X227535000Y-171692172D01*
X227534999Y-171692155D01*
X227528598Y-171632627D01*
X227528596Y-171632620D01*
X227478354Y-171497913D01*
X227478350Y-171497906D01*
X227392190Y-171382812D01*
X227392187Y-171382809D01*
X227277093Y-171296649D01*
X227277086Y-171296645D01*
X227142379Y-171246403D01*
X227142372Y-171246401D01*
X227082844Y-171240000D01*
X226435000Y-171240000D01*
X226435000Y-172156988D01*
X226377993Y-172124075D01*
X226250826Y-172090000D01*
X226119174Y-172090000D01*
X225992007Y-172124075D01*
X225935000Y-172156988D01*
X225935000Y-171240000D01*
X225287155Y-171240000D01*
X225227627Y-171246401D01*
X225227619Y-171246403D01*
X225137080Y-171280172D01*
X225067388Y-171285156D01*
X225006065Y-171251670D01*
X224972581Y-171190347D01*
X224969771Y-171161553D01*
X224985000Y-170390000D01*
X224514595Y-170380591D01*
X215106520Y-170192430D01*
X215039888Y-170171409D01*
X214995198Y-170117701D01*
X214985000Y-170068455D01*
X214985000Y-159916523D01*
X214994439Y-159869071D01*
X215054735Y-159723501D01*
X215054737Y-159723497D01*
X215085500Y-159568842D01*
X215085500Y-159411158D01*
X215085500Y-159411155D01*
X215085499Y-159411153D01*
X215054738Y-159256510D01*
X215054737Y-159256503D01*
X215015365Y-159161452D01*
X215007897Y-159091983D01*
X215039172Y-159029504D01*
X215099261Y-158993852D01*
X215129927Y-158990000D01*
X235461000Y-158990000D01*
X235528039Y-159009685D01*
G37*
%TD.AperFunction*%
%TD*%
%TA.AperFunction,Conductor*%
%TO.N,GND*%
G36*
X230926602Y-118297987D02*
G01*
X230973077Y-118350158D01*
X230985000Y-118403212D01*
X230985000Y-124066000D01*
X230982449Y-124074685D01*
X230983738Y-124083647D01*
X230972759Y-124107687D01*
X230965315Y-124133039D01*
X230958474Y-124138966D01*
X230954713Y-124147203D01*
X230932478Y-124161492D01*
X230912511Y-124178794D01*
X230901996Y-124181081D01*
X230895935Y-124184977D01*
X230861000Y-124190000D01*
X230650977Y-124190000D01*
X230624502Y-124185971D01*
X230624328Y-124186851D01*
X230617887Y-124185570D01*
X230611361Y-124184977D01*
X230551091Y-124179500D01*
X230551088Y-124179500D01*
X230118901Y-124179500D01*
X230052118Y-124185568D01*
X230045677Y-124186850D01*
X230045502Y-124185970D01*
X230019023Y-124190000D01*
X229185000Y-124190000D01*
X229185000Y-124203652D01*
X229165315Y-124270691D01*
X229112511Y-124316446D01*
X229043353Y-124326390D01*
X228996850Y-124309769D01*
X228871396Y-124233929D01*
X228717794Y-124186066D01*
X228685000Y-124183085D01*
X228685000Y-125166000D01*
X228665315Y-125233039D01*
X228612511Y-125278794D01*
X228561000Y-125290000D01*
X228435000Y-125290000D01*
X228435000Y-125416000D01*
X228415315Y-125483039D01*
X228362511Y-125528794D01*
X228311000Y-125540000D01*
X227610000Y-125540000D01*
X227610000Y-125791043D01*
X227616065Y-125857792D01*
X227663929Y-126011396D01*
X227747163Y-126149080D01*
X227860919Y-126262836D01*
X227998604Y-126346070D01*
X228003557Y-126347614D01*
X228061705Y-126386351D01*
X228089680Y-126450376D01*
X228078599Y-126519361D01*
X228031981Y-126571405D01*
X227966668Y-126590000D01*
X222185000Y-126590000D01*
X222185000Y-142190000D01*
X225824948Y-142190000D01*
X225854388Y-142198644D01*
X225884375Y-142205168D01*
X225889390Y-142208922D01*
X225891987Y-142209685D01*
X225912628Y-142226318D01*
X226028982Y-142342672D01*
X226062467Y-142403995D01*
X226057483Y-142473687D01*
X226028983Y-142518034D01*
X225915052Y-142631965D01*
X225824551Y-142778688D01*
X225824546Y-142778699D01*
X225770319Y-142942347D01*
X225760000Y-143043345D01*
X225760000Y-143092500D01*
X227709999Y-143092500D01*
X227709999Y-143043360D01*
X227709998Y-143043345D01*
X227699680Y-142942347D01*
X227645453Y-142778699D01*
X227645448Y-142778688D01*
X227554947Y-142631965D01*
X227554944Y-142631961D01*
X227441017Y-142518034D01*
X227436678Y-142510088D01*
X227429431Y-142504663D01*
X227420196Y-142479903D01*
X227407532Y-142456711D01*
X227408177Y-142447681D01*
X227405014Y-142439199D01*
X227410630Y-142413378D01*
X227412516Y-142387019D01*
X227418334Y-142377964D01*
X227419866Y-142370926D01*
X227441011Y-142342678D01*
X227555340Y-142228350D01*
X227555341Y-142228347D01*
X227557371Y-142226318D01*
X227618694Y-142192834D01*
X227645052Y-142190000D01*
X228061000Y-142190000D01*
X228128039Y-142209685D01*
X228173794Y-142262489D01*
X228185000Y-142314000D01*
X228185000Y-148390000D01*
X231701387Y-148390000D01*
X231768426Y-148409685D01*
X231814181Y-148462489D01*
X231824125Y-148531647D01*
X231806926Y-148579097D01*
X231725643Y-148710875D01*
X231725641Y-148710880D01*
X231670494Y-148877302D01*
X231670493Y-148877309D01*
X231660000Y-148980013D01*
X231660000Y-149117500D01*
X232761000Y-149117500D01*
X232828039Y-149137185D01*
X232873794Y-149189989D01*
X232885000Y-149241500D01*
X232885000Y-149367500D01*
X233011000Y-149367500D01*
X233078039Y-149387185D01*
X233123794Y-149439989D01*
X233135000Y-149491500D01*
X233135000Y-150454999D01*
X233409972Y-150454999D01*
X233409986Y-150454998D01*
X233512697Y-150444505D01*
X233679119Y-150389358D01*
X233679124Y-150389356D01*
X233828345Y-150297315D01*
X233952315Y-150173345D01*
X234044358Y-150024120D01*
X234051586Y-150002308D01*
X234091358Y-149944863D01*
X234155873Y-149918038D01*
X234208297Y-149923604D01*
X234347347Y-149969680D01*
X234448352Y-149979999D01*
X234485000Y-149979999D01*
X234985000Y-149979999D01*
X235021640Y-149979999D01*
X235021654Y-149979998D01*
X235122652Y-149969680D01*
X235286300Y-149915453D01*
X235286311Y-149915448D01*
X235433034Y-149824947D01*
X235433038Y-149824944D01*
X235554944Y-149703038D01*
X235554947Y-149703034D01*
X235645448Y-149556311D01*
X235645453Y-149556300D01*
X235699680Y-149392652D01*
X235709999Y-149291654D01*
X235710000Y-149291641D01*
X235710000Y-149192500D01*
X234985000Y-149192500D01*
X234985000Y-149979999D01*
X234485000Y-149979999D01*
X234485000Y-149066500D01*
X234504685Y-148999461D01*
X234557489Y-148953706D01*
X234609000Y-148942500D01*
X234735000Y-148942500D01*
X234735000Y-148816500D01*
X234754685Y-148749461D01*
X234807489Y-148703706D01*
X234859000Y-148692500D01*
X235709999Y-148692500D01*
X235709999Y-148593360D01*
X235709998Y-148593345D01*
X235703180Y-148526602D01*
X235715950Y-148457909D01*
X235763830Y-148407025D01*
X235826538Y-148390000D01*
X238958233Y-148390000D01*
X239025272Y-148409685D01*
X239071027Y-148462489D01*
X239080971Y-148531647D01*
X239063771Y-148579097D01*
X239010051Y-148666188D01*
X239010046Y-148666199D01*
X238955819Y-148829847D01*
X238945500Y-148930845D01*
X238945500Y-149030000D01*
X239796500Y-149030000D01*
X239863539Y-149049685D01*
X239909294Y-149102489D01*
X239920500Y-149154000D01*
X239920500Y-149406000D01*
X239900815Y-149473039D01*
X239848011Y-149518794D01*
X239796500Y-149530000D01*
X238945501Y-149530000D01*
X238945501Y-149629154D01*
X238955819Y-149730152D01*
X239010046Y-149893800D01*
X239010049Y-149893807D01*
X239046809Y-149953402D01*
X239065250Y-150020794D01*
X239044328Y-150087458D01*
X239018411Y-150109088D01*
X238985000Y-150142500D01*
X238985000Y-150445187D01*
X238978706Y-150484190D01*
X238955326Y-150554744D01*
X238955325Y-150554748D01*
X238945000Y-150655815D01*
X238945000Y-151354169D01*
X238945001Y-151354187D01*
X238955325Y-151455251D01*
X238955326Y-151455253D01*
X238978706Y-151525810D01*
X238985000Y-151564811D01*
X238985000Y-152130000D01*
X240561000Y-152130000D01*
X240628039Y-152149685D01*
X240673794Y-152202489D01*
X240685000Y-152254000D01*
X240685000Y-155466000D01*
X240665315Y-155533039D01*
X240612511Y-155578794D01*
X240561000Y-155590000D01*
X212909000Y-155590000D01*
X212841961Y-155570315D01*
X212796206Y-155517511D01*
X212785000Y-155466000D01*
X212785000Y-154390000D01*
X211879350Y-154390000D01*
X211812311Y-154370315D01*
X211766556Y-154317511D01*
X211756612Y-154248353D01*
X211761644Y-154226997D01*
X211774680Y-154187654D01*
X211774680Y-154187653D01*
X211784999Y-154086654D01*
X211785000Y-154086641D01*
X211785000Y-154050000D01*
X210921500Y-154050000D01*
X210854461Y-154030315D01*
X210808706Y-153977511D01*
X210797500Y-153926000D01*
X210797500Y-153800000D01*
X210671500Y-153800000D01*
X210604461Y-153780315D01*
X210558706Y-153727511D01*
X210547500Y-153676000D01*
X210547500Y-153550000D01*
X211047500Y-153550000D01*
X211784999Y-153550000D01*
X211784999Y-153513360D01*
X211784998Y-153513345D01*
X211774680Y-153412347D01*
X211720453Y-153248699D01*
X211720448Y-153248688D01*
X211629947Y-153101965D01*
X211629944Y-153101961D01*
X211508038Y-152980055D01*
X211508034Y-152980052D01*
X211361311Y-152889551D01*
X211361300Y-152889546D01*
X211197652Y-152835319D01*
X211096654Y-152825000D01*
X211047500Y-152825000D01*
X211047500Y-153550000D01*
X210547500Y-153550000D01*
X210547500Y-152825000D01*
X210547499Y-152824999D01*
X210498361Y-152825000D01*
X210498343Y-152825001D01*
X210397347Y-152835319D01*
X210233699Y-152889546D01*
X210233688Y-152889551D01*
X210086965Y-152980052D01*
X210008241Y-153058776D01*
X209946917Y-153092260D01*
X209877226Y-153087276D01*
X209821292Y-153045404D01*
X209796876Y-152979939D01*
X209796811Y-152978989D01*
X209785000Y-152790000D01*
X209189444Y-152254000D01*
X206412762Y-149754986D01*
X231660001Y-149754986D01*
X231670494Y-149857697D01*
X231725641Y-150024119D01*
X231725643Y-150024124D01*
X231817684Y-150173345D01*
X231941654Y-150297315D01*
X232090875Y-150389356D01*
X232090880Y-150389358D01*
X232257302Y-150444505D01*
X232257309Y-150444506D01*
X232360019Y-150454999D01*
X232634999Y-150454999D01*
X232635000Y-150454998D01*
X232635000Y-149617500D01*
X231660001Y-149617500D01*
X231660001Y-149754986D01*
X206412762Y-149754986D01*
X206305340Y-149658306D01*
X204279769Y-147835292D01*
X204275040Y-147830805D01*
X203822469Y-147378234D01*
X203788984Y-147316911D01*
X203786159Y-147289140D01*
X203828084Y-143641654D01*
X225760001Y-143641654D01*
X225770319Y-143742652D01*
X225824546Y-143906300D01*
X225824551Y-143906311D01*
X225915052Y-144053034D01*
X225915055Y-144053038D01*
X226036961Y-144174944D01*
X226036965Y-144174947D01*
X226183688Y-144265448D01*
X226183699Y-144265453D01*
X226347347Y-144319680D01*
X226448352Y-144329999D01*
X226485000Y-144329999D01*
X226985000Y-144329999D01*
X227021640Y-144329999D01*
X227021654Y-144329998D01*
X227122652Y-144319680D01*
X227286300Y-144265453D01*
X227286311Y-144265448D01*
X227433034Y-144174947D01*
X227433038Y-144174944D01*
X227554944Y-144053038D01*
X227554947Y-144053034D01*
X227645448Y-143906311D01*
X227645453Y-143906300D01*
X227699680Y-143742652D01*
X227709999Y-143641654D01*
X227710000Y-143641641D01*
X227710000Y-143592500D01*
X226985000Y-143592500D01*
X226985000Y-144329999D01*
X226485000Y-144329999D01*
X226485000Y-143592500D01*
X225760001Y-143592500D01*
X225760001Y-143641654D01*
X203828084Y-143641654D01*
X203983591Y-130112574D01*
X204004045Y-130045766D01*
X204057371Y-130000621D01*
X204107583Y-129990000D01*
X209785000Y-129990000D01*
X209885000Y-126590000D01*
X209884997Y-126590000D01*
X209884998Y-126589999D01*
X209807516Y-126593058D01*
X209739753Y-126576032D01*
X209691951Y-126525074D01*
X209679288Y-126456361D01*
X209688447Y-126423246D01*
X209688181Y-126423158D01*
X209689943Y-126417838D01*
X209690247Y-126416742D01*
X209690454Y-126416297D01*
X209744680Y-126252652D01*
X209754999Y-126151654D01*
X209755000Y-126151641D01*
X209755000Y-126052500D01*
X208904000Y-126052500D01*
X208836961Y-126032815D01*
X208791206Y-125980011D01*
X208780000Y-125928500D01*
X208780000Y-125802500D01*
X208654000Y-125802500D01*
X208586961Y-125782815D01*
X208541206Y-125730011D01*
X208530000Y-125678500D01*
X208530000Y-125552500D01*
X209030000Y-125552500D01*
X209754999Y-125552500D01*
X209754999Y-125453360D01*
X209754998Y-125453345D01*
X209744680Y-125352347D01*
X209690453Y-125188699D01*
X209690448Y-125188688D01*
X209599947Y-125041965D01*
X209599944Y-125041961D01*
X209478039Y-124920056D01*
X209432039Y-124891683D01*
X209432038Y-124891682D01*
X209331307Y-124829549D01*
X209331300Y-124829546D01*
X209208806Y-124788956D01*
X227610000Y-124788956D01*
X227610000Y-125040000D01*
X228185000Y-125040000D01*
X228185000Y-124183085D01*
X228184999Y-124183085D01*
X228152205Y-124186066D01*
X227998603Y-124233929D01*
X227860919Y-124317163D01*
X227747163Y-124430919D01*
X227663929Y-124568603D01*
X227616065Y-124722207D01*
X227610000Y-124788956D01*
X209208806Y-124788956D01*
X209167652Y-124775319D01*
X209066654Y-124765000D01*
X209030000Y-124765000D01*
X209030000Y-125552500D01*
X208530000Y-125552500D01*
X208530000Y-124765000D01*
X208493361Y-124765000D01*
X208493343Y-124765001D01*
X208392347Y-124775319D01*
X208228699Y-124829546D01*
X208228694Y-124829548D01*
X208174097Y-124863225D01*
X208106704Y-124881665D01*
X208040041Y-124860742D01*
X207995271Y-124807100D01*
X207985000Y-124757686D01*
X207985000Y-123264626D01*
X207989923Y-123230035D01*
X208022598Y-123117569D01*
X208025500Y-123080694D01*
X208025500Y-121299306D01*
X208022598Y-121262431D01*
X207989924Y-121149967D01*
X207985000Y-121115372D01*
X207985000Y-118714000D01*
X208004685Y-118646961D01*
X208057489Y-118601206D01*
X208109000Y-118590000D01*
X217661000Y-118590000D01*
X217728039Y-118609685D01*
X217773794Y-118662489D01*
X217785000Y-118714000D01*
X217785000Y-120590000D01*
X222785000Y-120590000D01*
X222785000Y-119716523D01*
X222794439Y-119669071D01*
X222830942Y-119580943D01*
X222854737Y-119523497D01*
X222885500Y-119368842D01*
X222885500Y-119211158D01*
X222885500Y-119211155D01*
X222885499Y-119211153D01*
X222854738Y-119056510D01*
X222854737Y-119056503D01*
X222794439Y-118910929D01*
X222785000Y-118863477D01*
X222785000Y-118512310D01*
X222804685Y-118445271D01*
X222857489Y-118399516D01*
X222907298Y-118388322D01*
X230859300Y-118279224D01*
X230926602Y-118297987D01*
G37*
%TD.AperFunction*%
%TD*%
M02*
