M48
; DRILL file KiCad 10.0.4-10.0.4~ubuntu24.04.1 date 2026-07-20T09:18:15
; FORMAT={-:-/ absolute / metric / decimal}
; #@! TF.CreationDate,2026-07-20T09:18:15+02:00
; #@! TF.GenerationSoftware,Kicad,Pcbnew,10.0.4-10.0.4~ubuntu24.04.1
; #@! TF.FileFunction,Plated,1,4,PTH
FMAT,2
METRIC
; #@! TA.AperFunction,Plated,PTH,ViaDrill
T1C0.300
; #@! TA.AperFunction,Plated,PTH,ComponentDrill
T2C0.300
; #@! TA.AperFunction,Plated,PTH,ComponentDrill
T3C0.400
; #@! TA.AperFunction,Plated,PTH,ComponentDrill
T4C0.600
; #@! TA.AperFunction,Plated,PTH,ComponentDrill
T5C0.950
; #@! TA.AperFunction,Plated,PTH,ComponentDrill
T6C1.000
; #@! TA.AperFunction,Plated,PTH,ComponentDrill
T7C3.200
%
G90
G05
T1
X158.785Y-113.78
X160.185Y-109.99
X160.185Y-111.19
X160.585Y-107.29
X161.385Y-108.69
X161.385Y-112.29
X163.285Y-140.53
X163.285Y-159.69
X164.485Y-108.23
X165.029Y-159.49
X165.085Y-153.99
X165.385Y-134.89
X165.885Y-123.19
X166.117Y-147.658
X166.185Y-128.634
X166.685Y-107.08
X166.685Y-109.43
X166.785Y-150.69
X167.085Y-110.93
X168.885Y-108.23
X170.185Y-112.53
X176.254Y-160.09
X176.485Y-140.73
X178.085Y-154.69
X178.485Y-135.19
X179.085Y-148.69
X179.185Y-150.515
X179.285Y-113.73
X179.285Y-127.69
X179.285Y-157.59
X179.385Y-129.19
X182.748Y-107.19
X183.185Y-109.99
X183.185Y-111.19
X184.385Y-108.69
X184.385Y-112.29
X187.385Y-108.38
X188.285Y-141.99
X188.785Y-140.59
X188.859Y-142.616
X188.885Y-141.39
X188.985Y-139.39
X189.585Y-107.23
X189.585Y-109.58
X190.085Y-136.39
X190.235Y-111.03
X190.385Y-146.79
X191.685Y-147.39
X191.785Y-108.38
X192.485Y-173.49
X192.985Y-112.68
X193.985Y-120.59
X194.525Y-136.35
X196.25Y-136.39
X197.385Y-140.79
X198.335Y-120.59
X199.585Y-128.79
X200.875Y-128.79
X203.385Y-128.79
X205.035Y-113.93
X208.285Y-107.19
X208.385Y-109.69
X208.385Y-110.89
X208.78Y-124.69
X208.78Y-128.69
X209.485Y-163.39
X209.485Y-164.59
X209.585Y-108.39
X209.585Y-111.99
X210.085Y-169.59
X211.985Y-122.99
X211.985Y-130.19
X211.985Y-147.39
X212.085Y-153.8
X212.51Y-107.905
X212.688Y-158.891
X212.985Y-165.85
X212.985Y-167.09
X212.985Y-168.49
X214.185Y-171.865
X214.285Y-159.49
X214.735Y-106.73
X214.735Y-108.98
X215.285Y-110.63
X216.085Y-173.492
X216.985Y-107.88
X217.385Y-153.79
X217.585Y-122.99
X217.585Y-130.19
X217.585Y-147.39
X218.185Y-112.08
X218.585Y-161.59
X218.585Y-167.99
X222.085Y-119.29
X224.185Y-147.39
X224.185Y-153.79
X224.185Y-167.99
X224.385Y-161.59
X226.735Y-144.58
X227.235Y-125.33
X229.035Y-113.727
X230.085Y-107.19
X230.385Y-109.89
X230.385Y-111.09
X230.985Y-153.79
X230.985Y-161.59
X230.985Y-167.99
X231.235Y-149.43
X231.285Y-147.39
X231.585Y-108.59
X231.585Y-112.19
X232.385Y-141.99
X233.085Y-123.09
X233.295Y-144.89
X234.71Y-108.155
X234.985Y-137.08
X236.185Y-126.39
X236.285Y-136.03
X236.335Y-130.93
X236.335Y-138.08
X236.385Y-133.08
X236.785Y-106.98
X236.785Y-109.23
X236.925Y-161.33
X237.335Y-110.88
X237.835Y-130.98
X237.835Y-133.03
X237.835Y-136.08
X237.835Y-138.08
X239.085Y-108.18
X239.235Y-130.98
X239.285Y-133.08
X239.585Y-165.48
X239.635Y-135.98
X239.685Y-120.19
X239.685Y-138.13
X240.285Y-112.38
X240.635Y-131.98
X240.885Y-141.33
X241.085Y-150.99
X241.335Y-172.18
X242.185Y-160.23
X243.172Y-164.59
X243.485Y-152.59
X243.885Y-145.417
X245.485Y-156.64
X246.085Y-146.39
X249.66Y-148.19
T2
X190.285Y-153.63
X190.285Y-161.23
X190.285Y-169.63
X197.985Y-161.19
X197.985Y-164.19
X197.985Y-166.59
X197.985Y-169.59
X200.385Y-161.19
X200.385Y-164.19
X200.385Y-166.59
X200.385Y-169.59
X202.595Y-167.37
X202.595Y-168.87
X202.785Y-161.19
X202.785Y-164.19
X203.345Y-166.62
X203.345Y-168.12
X203.345Y-169.62
X204.095Y-167.37
X204.095Y-168.87
X204.845Y-166.62
X204.845Y-168.12
X204.845Y-169.62
X205.385Y-164.19
X205.595Y-167.37
X205.595Y-168.87
X238.519Y-144.942
X238.519Y-146.09
X238.519Y-147.237
X239.62Y-144.942
X239.62Y-146.09
X239.62Y-147.237
T3
X246.725Y-156.115
X246.725Y-156.965
X246.725Y-157.815
X246.725Y-158.665
X246.725Y-159.515
X246.725Y-160.365
X246.725Y-161.215
X246.725Y-162.065
X248.075Y-156.115
X248.075Y-156.965
X248.075Y-157.815
X248.075Y-158.665
X248.075Y-159.515
X248.075Y-160.365
X248.075Y-161.215
X248.075Y-162.065
T5
X158.31Y-144.14
X158.31Y-146.64
X158.31Y-149.14
X158.31Y-151.64
X158.31Y-154.14
X158.31Y-156.64
X158.385Y-125.39
X158.385Y-127.89
X158.385Y-130.39
X158.385Y-132.89
X158.385Y-135.39
X158.385Y-137.89
X163.585Y-97.83
X166.085Y-97.83
X168.585Y-97.83
X171.085Y-97.83
X171.404Y-144.39
X171.404Y-146.89
X171.404Y-149.39
X171.404Y-151.89
X171.404Y-154.39
X171.404Y-156.89
X171.485Y-125.19
X171.485Y-127.69
X171.485Y-130.19
X171.485Y-132.69
X171.485Y-135.19
X171.485Y-137.69
X185.585Y-97.83
X188.085Y-97.83
X190.585Y-97.83
X193.085Y-97.83
X211.285Y-97.79
X213.785Y-97.79
X216.285Y-97.79
X218.785Y-97.79
X233.185Y-97.83
X235.685Y-97.83
X238.185Y-97.83
X240.685Y-97.83
T6
X158.697Y-104.277
X158.697Y-116.977
X161.237Y-104.277
X161.237Y-116.977
X163.778Y-104.277
X163.778Y-116.977
X166.317Y-104.277
X166.317Y-116.977
X168.857Y-104.277
X168.857Y-116.977
X171.397Y-104.277
X171.397Y-116.977
X173.938Y-104.277
X173.938Y-116.977
X176.477Y-104.277
X176.477Y-111.938
X176.477Y-114.477
X176.477Y-117.017
X180.697Y-104.277
X180.697Y-116.977
X183.237Y-104.277
X183.237Y-116.977
X183.985Y-162.39
X183.985Y-167.39
X183.985Y-169.93
X183.985Y-172.47
X185.778Y-104.277
X185.778Y-116.977
X188.317Y-104.277
X188.317Y-116.977
X190.857Y-104.277
X190.857Y-116.977
X193.397Y-104.277
X193.397Y-116.977
X195.938Y-104.277
X195.938Y-116.977
X198.477Y-104.277
X198.477Y-111.938
X198.477Y-114.477
X198.477Y-117.017
X206.297Y-104.078
X206.297Y-116.777
X208.837Y-104.078
X208.837Y-116.777
X211.377Y-104.078
X211.377Y-116.777
X213.917Y-104.078
X213.917Y-116.777
X216.457Y-104.078
X216.457Y-116.777
X218.998Y-104.078
X218.998Y-116.777
X221.537Y-104.078
X221.537Y-116.777
X223.645Y-172.59
X224.077Y-104.078
X224.077Y-111.737
X224.077Y-114.277
X224.077Y-116.817
X226.185Y-172.59
X228.197Y-104.078
X228.197Y-116.777
X230.737Y-104.078
X230.737Y-116.777
X233.278Y-104.078
X233.278Y-116.777
X235.817Y-104.078
X235.817Y-116.777
X238.357Y-104.078
X238.357Y-116.777
X240.897Y-104.078
X240.897Y-116.777
X242.585Y-138.39
X243.438Y-104.078
X243.438Y-116.777
X245.125Y-138.39
X245.977Y-104.078
X245.977Y-111.737
X245.977Y-114.277
X245.977Y-116.817
X247.665Y-138.39
X248.345Y-122.23
X250.885Y-122.23
T7
X156.685Y-98.59
X156.685Y-170.59
X248.685Y-98.59
X248.685Y-170.59
T4
G00X246.955Y-154.765
M15
G01X248.455Y-154.765
M16
G05
G00X246.955Y-163.415
M15
G01X248.455Y-163.415
M16
G05
G00X250.685Y-154.765
M15
G01X251.485Y-154.765
M16
G05
G00X250.685Y-163.415
M15
G01X251.485Y-163.415
M16
G05
T6
G00X242.285Y-131.19
M15
G01X242.285Y-129.19
M16
G05
G00X248.285Y-130.84
M15
G01X248.285Y-129.54
M16
G05
G00X248.535Y-125.69
M15
G01X250.035Y-125.69
M16
G05
G00X248.535Y-134.69
M15
G01X250.035Y-134.69
M16
G05
M30
