%TF.GenerationSoftware,KiCad,Pcbnew,10.0.4-10.0.4~ubuntu24.04.1*%
%TF.CreationDate,2026-07-20T09:18:12+02:00*%
%TF.ProjectId,esp32stepper,65737033-3273-4746-9570-7065722e6b69,rev?*%
%TF.SameCoordinates,Original*%
%TF.FileFunction,Copper,L4,Bot*%
%TF.FilePolarity,Positive*%
%FSLAX46Y46*%
G04 Gerber Fmt 4.6, Leading zero omitted, Abs format (unit mm)*
G04 Created by KiCad (PCBNEW 10.0.4-10.0.4~ubuntu24.04.1) date 2026-07-20 09:18:12*
%MOMM*%
%LPD*%
G01*
G04 APERTURE LIST*
G04 Aperture macros list*
%AMRoundRect*
0 Rectangle with rounded corners*
0 $1 Rounding radius*
0 $2 $3 $4 $5 $6 $7 $8 $9 X,Y pos of 4 corners*
0 Add a 4 corners polygon primitive as box body*
4,1,4,$2,$3,$4,$5,$6,$7,$8,$9,$2,$3,0*
0 Add four circle primitives for the rounded corners*
1,1,$1+$1,$2,$3*
1,1,$1+$1,$4,$5*
1,1,$1+$1,$6,$7*
1,1,$1+$1,$8,$9*
0 Add four rect primitives between the rounded corners*
20,1,$1+$1,$2,$3,$4,$5,0*
20,1,$1+$1,$4,$5,$6,$7,0*
20,1,$1+$1,$6,$7,$8,$9,0*
20,1,$1+$1,$8,$9,$2,$3,0*%
G04 Aperture macros list end*
%TA.AperFunction,ComponentPad*%
%ADD10C,1.700000*%
%TD*%
%TA.AperFunction,ComponentPad*%
%ADD11RoundRect,0.250000X-0.600000X-0.725000X0.600000X-0.725000X0.600000X0.725000X-0.600000X0.725000X0*%
%TD*%
%TA.AperFunction,ComponentPad*%
%ADD12O,1.700000X1.950000*%
%TD*%
%TA.AperFunction,HeatsinkPad*%
%ADD13C,0.600000*%
%TD*%
%TA.AperFunction,ComponentPad*%
%ADD14O,2.000000X3.300000*%
%TD*%
%TA.AperFunction,ComponentPad*%
%ADD15O,3.500000X2.000000*%
%TD*%
%TA.AperFunction,ComponentPad*%
%ADD16RoundRect,0.250000X0.725000X-0.600000X0.725000X0.600000X-0.725000X0.600000X-0.725000X-0.600000X0*%
%TD*%
%TA.AperFunction,ComponentPad*%
%ADD17O,1.950000X1.700000*%
%TD*%
%TA.AperFunction,ComponentPad*%
%ADD18C,0.650000*%
%TD*%
%TA.AperFunction,ComponentPad*%
%ADD19O,1.700000X0.900000*%
%TD*%
%TA.AperFunction,ComponentPad*%
%ADD20O,2.400000X0.900000*%
%TD*%
%TA.AperFunction,ComponentPad*%
%ADD21C,3.600000*%
%TD*%
%TA.AperFunction,ConnectorPad*%
%ADD22C,6.400000*%
%TD*%
%TA.AperFunction,ComponentPad*%
%ADD23R,1.700000X1.700000*%
%TD*%
%TA.AperFunction,HeatsinkPad*%
%ADD24C,0.550000*%
%TD*%
%TA.AperFunction,HeatsinkPad*%
%ADD25R,1.651000X2.845000*%
%TD*%
%TA.AperFunction,SMDPad,CuDef*%
%ADD26RoundRect,0.250000X-1.450000X0.400000X-1.450000X-0.400000X1.450000X-0.400000X1.450000X0.400000X0*%
%TD*%
%TA.AperFunction,ViaPad*%
%ADD27C,0.600000*%
%TD*%
%TA.AperFunction,Conductor*%
%ADD28C,0.200000*%
%TD*%
%TA.AperFunction,Conductor*%
%ADD29C,0.800000*%
%TD*%
%TA.AperFunction,Conductor*%
%ADD30C,0.500000*%
%TD*%
%TA.AperFunction,Conductor*%
%ADD31C,1.200000*%
%TD*%
G04 APERTURE END LIST*
D10*
%TO.P,BOB-2,1,DIR_1*%
%TO.N,dir2*%
X206297500Y-116777500D03*
%TO.P,BOB-2,2,GND_2*%
%TO.N,GND*%
X206297500Y-104077500D03*
%TO.P,BOB-2,3,STEP_3*%
%TO.N,step2*%
X208837500Y-116777500D03*
%TO.P,BOB-2,4,VIO_4*%
%TO.N,+3V3*%
X208837500Y-104077500D03*
%TO.P,BOB-2,5,PDN_5*%
%TO.N,unconnected-(BOB-2-PDN-Pad5)*%
X211377500Y-116777500D03*
%TO.P,BOB-2,6,M1B_6*%
%TO.N,mot2.B1*%
X211377500Y-104077500D03*
%TO.P,BOB-2,7,UART_7*%
%TO.N,UART*%
X213917500Y-116777500D03*
%TO.P,BOB-2,8,M1A_8*%
%TO.N,mot2.A1*%
X213917500Y-104077500D03*
%TO.P,BOB-2,9,SPRD_9*%
%TO.N,unconnected-(BOB-2-SPRD-Pad9)*%
X216457500Y-116777500D03*
%TO.P,BOB-2,10,M2A_10*%
%TO.N,mot2.A2*%
X216457500Y-104077500D03*
%TO.P,BOB-2,11,MS2_11*%
%TO.N,/mot2/MS2*%
X218997500Y-116777500D03*
%TO.P,BOB-2,12,M2B_12*%
%TO.N,mot2.B2*%
X218997500Y-104077500D03*
%TO.P,BOB-2,13,MS1_13*%
%TO.N,/mot2/MS1*%
X221537500Y-116777500D03*
%TO.P,BOB-2,14,GND_14*%
%TO.N,GND*%
X221537500Y-104077500D03*
%TO.P,BOB-2,15,EN_15*%
%TO.N,en2*%
X224077500Y-116817500D03*
%TO.P,BOB-2,16,+VM_16*%
%TO.N,Net-(BOB-2-+VM)*%
X224077500Y-104077500D03*
%TO.P,BOB-2,17,Index_17*%
%TO.N,unconnected-(BOB-2-Index-Pad17)*%
X224077500Y-114277500D03*
%TO.P,BOB-2,18,DIAG_18*%
%TO.N,unconnected-(BOB-2-DIAG-Pad18)*%
X224077500Y-111737500D03*
%TD*%
D11*
%TO.P,mot1,1,Pin_1_1*%
%TO.N,mot1.B1*%
X185585000Y-97830000D03*
D12*
%TO.P,mot1,2,Pin_2_2*%
%TO.N,mot1.A1*%
X188085000Y-97830000D03*
%TO.P,mot1,3,Pin_3_3*%
%TO.N,mot1.A2*%
X190585000Y-97830000D03*
%TO.P,mot1,4,Pin_4_4*%
%TO.N,mot1.B2*%
X193085000Y-97830000D03*
%TD*%
D13*
%TO.P,,41,GND_41*%
%TO.N,GND*%
X200385000Y-164190000D03*
%TD*%
%TO.P,,41,GND_41*%
%TO.N,GND*%
X190285000Y-169630000D03*
%TD*%
D11*
%TO.P,mot2,1,Pin_1_1*%
%TO.N,mot2.B1*%
X211285000Y-97790000D03*
D12*
%TO.P,mot2,2,Pin_2_2*%
%TO.N,mot2.A1*%
X213785000Y-97790000D03*
%TO.P,mot2,3,Pin_3_3*%
%TO.N,mot2.A2*%
X216285000Y-97790000D03*
%TO.P,mot2,4,Pin_4_4*%
%TO.N,mot2.B2*%
X218785000Y-97790000D03*
%TD*%
D13*
%TO.P,,41,GND_41*%
%TO.N,GND*%
X197985000Y-166590000D03*
%TD*%
D10*
%TO.P,BOB-1,1,DIR_1*%
%TO.N,dir1*%
X180697500Y-116977500D03*
%TO.P,BOB-1,2,GND_2*%
%TO.N,GND*%
X180697500Y-104277500D03*
%TO.P,BOB-1,3,STEP_3*%
%TO.N,step1*%
X183237500Y-116977500D03*
%TO.P,BOB-1,4,VIO_4*%
%TO.N,+3V3*%
X183237500Y-104277500D03*
%TO.P,BOB-1,5,PDN_5*%
%TO.N,unconnected-(BOB-1-PDN-Pad5)*%
X185777500Y-116977500D03*
%TO.P,BOB-1,6,M1B_6*%
%TO.N,mot1.B1*%
X185777500Y-104277500D03*
%TO.P,BOB-1,7,UART_7*%
%TO.N,UART*%
X188317500Y-116977500D03*
%TO.P,BOB-1,8,M1A_8*%
%TO.N,mot1.A1*%
X188317500Y-104277500D03*
%TO.P,BOB-1,9,SPRD_9*%
%TO.N,unconnected-(BOB-1-SPRD-Pad9)*%
X190857500Y-116977500D03*
%TO.P,BOB-1,10,M2A_10*%
%TO.N,mot1.A2*%
X190857500Y-104277500D03*
%TO.P,BOB-1,11,MS2_11*%
%TO.N,/mot1/MS2*%
X193397500Y-116977500D03*
%TO.P,BOB-1,12,M2B_12*%
%TO.N,mot1.B2*%
X193397500Y-104277500D03*
%TO.P,BOB-1,13,MS1_13*%
%TO.N,/mot1/MS1*%
X195937500Y-116977500D03*
%TO.P,BOB-1,14,GND_14*%
%TO.N,GND*%
X195937500Y-104277500D03*
%TO.P,BOB-1,15,EN_15*%
%TO.N,en1*%
X198477500Y-117017500D03*
%TO.P,BOB-1,16,+VM_16*%
%TO.N,Net-(BOB-1-+VM)*%
X198477500Y-104277500D03*
%TO.P,BOB-1,17,Index_17*%
%TO.N,unconnected-(BOB-1-Index-Pad17)*%
X198477500Y-114477500D03*
%TO.P,BOB-1,18,DIAG_18*%
%TO.N,unconnected-(BOB-1-DIAG-Pad18)*%
X198477500Y-111937500D03*
%TD*%
D14*
%TO.P,barreljack1,2,Pin_2_2*%
%TO.N,24Vin*%
X248285000Y-130190000D03*
D15*
%TO.P,barreljack1,MP*%
%TO.N,N/C*%
X249285000Y-134690000D03*
X249285000Y-125690000D03*
%TD*%
D13*
%TO.P,,41,GND_41*%
%TO.N,N/C*%
X190285000Y-153630000D03*
%TD*%
%TO.P,,41,GND_41*%
%TO.N,GND*%
X197985000Y-161190000D03*
%TD*%
D16*
%TO.P,encoder0,1,Pin_1_1*%
%TO.N,Net-(encoder0-Pin_1)*%
X171403750Y-156890000D03*
D17*
%TO.P,encoder0,2,Pin_2_2*%
%TO.N,Net-(encoder0-Pin_2)*%
X171403750Y-154390000D03*
%TO.P,encoder0,3,Pin_3_3*%
%TO.N,Net-(encoder0-Pin_3)*%
X171403750Y-151890000D03*
%TO.P,encoder0,4,Pin_4_4*%
%TO.N,GND*%
X171403750Y-149390000D03*
%TO.P,encoder0,5,Pin_5_5*%
X171403750Y-146890000D03*
%TO.P,encoder0,6,Pin_6_6*%
%TO.N,Net-(encoder0-Pin_6)*%
X171403750Y-144390000D03*
%TD*%
D18*
%TO.P,USB1,A1,GND_A1*%
%TO.N,GND*%
X246725000Y-162065000D03*
%TO.P,USB1,A4,VBUS_A4*%
%TO.N,VBUS*%
X246725000Y-161215000D03*
%TO.P,USB1,A5,CC1_A5*%
%TO.N,Net-(USB1-CC1)*%
X246725000Y-160365000D03*
%TO.P,USB1,A6,DP1_A6*%
%TO.N,Net-(USB1-DP1)*%
X246725000Y-159515000D03*
%TO.P,USB1,A7,DN1_A7*%
%TO.N,Net-(USB1-DN1)*%
X246725000Y-158665000D03*
%TO.P,USB1,A8,SBU1_A8*%
%TO.N,unconnected-(USB1-SBU1-PadA8)*%
X246725000Y-157815000D03*
%TO.P,USB1,A9,VBUS_A9*%
%TO.N,VBUS*%
X246725000Y-156965000D03*
%TO.P,USB1,A12,GND_A12*%
%TO.N,GND*%
X246725000Y-156115000D03*
%TO.P,USB1,B1,GND_B1*%
X248075000Y-156115000D03*
%TO.P,USB1,B4,VBUS_B4*%
%TO.N,VBUS*%
X248075000Y-156965000D03*
%TO.P,USB1,B5,CC2_B5*%
%TO.N,Net-(USB1-CC2)*%
X248075000Y-157815000D03*
%TO.P,USB1,B6,DP2_B6*%
%TO.N,Net-(USB1-DP1)*%
X248075000Y-158665000D03*
%TO.P,USB1,B7,DN2_B7*%
%TO.N,Net-(USB1-DN1)*%
X248075000Y-159515000D03*
%TO.P,USB1,B8,SBU2_B8*%
%TO.N,unconnected-(USB1-SBU2-PadB8)*%
X248075000Y-160365000D03*
%TO.P,USB1,B9,VBUS_B9*%
%TO.N,VBUS*%
X248075000Y-161215000D03*
%TO.P,USB1,B12,GND_B12*%
%TO.N,GND*%
X248075000Y-162065000D03*
D19*
%TO.P,USB1,S1,SHELL_S1*%
X251085000Y-163415000D03*
%TO.P,USB1,S2,SHELL_S2*%
X251085000Y-154765000D03*
D20*
%TO.P,USB1,S3,SHELL_S3*%
X247705000Y-163415000D03*
%TO.P,USB1,S4,SHELL_S4*%
X247705000Y-154765000D03*
%TD*%
D16*
%TO.P,encoder3,1,Pin_1_1*%
%TO.N,Net-(encoder3-Pin_1)*%
X158385000Y-137890000D03*
D17*
%TO.P,encoder3,2,Pin_2_2*%
%TO.N,Net-(encoder3-Pin_2)*%
X158385000Y-135390000D03*
%TO.P,encoder3,3,Pin_3_3*%
%TO.N,Net-(encoder3-Pin_3)*%
X158385000Y-132890000D03*
%TO.P,encoder3,4,Pin_4_4*%
%TO.N,GND*%
X158385000Y-130390000D03*
%TO.P,encoder3,5,Pin_5_5*%
X158385000Y-127890000D03*
%TO.P,encoder3,6,Pin_6_6*%
%TO.N,Net-(encoder3-Pin_6)*%
X158385000Y-125390000D03*
%TD*%
D10*
%TO.P,J5,2,Pin_2_2*%
%TO.N,tx_ext*%
X183985000Y-169930000D03*
%TO.P,J5,3,Pin_3_3*%
%TO.N,rx_ext*%
X183985000Y-172470000D03*
%TD*%
D13*
%TO.P,,41,GND_41*%
%TO.N,GND*%
X200385000Y-166590000D03*
%TD*%
D21*
%TO.P,REF\u002A\u002A2,1*%
%TO.N,N/C*%
X156685000Y-170590000D03*
D22*
X156685000Y-170590000D03*
%TD*%
D21*
%TO.P,REF\u002A\u002A3,1*%
%TO.N,N/C*%
X248685000Y-170590000D03*
D22*
X248685000Y-170590000D03*
%TD*%
D13*
%TO.P,,41,GND_41*%
%TO.N,GND*%
X200385000Y-169590000D03*
%TD*%
D10*
%TO.P,BOB-0,1,DIR_1*%
%TO.N,dir0*%
X158697500Y-116977500D03*
%TO.P,BOB-0,2,GND_2*%
%TO.N,GND*%
X158697500Y-104277500D03*
%TO.P,BOB-0,3,STEP_3*%
%TO.N,step0*%
X161237500Y-116977500D03*
%TO.P,BOB-0,4,VIO_4*%
%TO.N,+3V3*%
X161237500Y-104277500D03*
%TO.P,BOB-0,5,PDN_5*%
%TO.N,unconnected-(BOB-0-PDN-Pad5)*%
X163777500Y-116977500D03*
%TO.P,BOB-0,6,M1B_6*%
%TO.N,mot0.B1*%
X163777500Y-104277500D03*
%TO.P,BOB-0,7,UART_7*%
%TO.N,UART*%
X166317500Y-116977500D03*
%TO.P,BOB-0,8,M1A_8*%
%TO.N,mot0.A1*%
X166317500Y-104277500D03*
%TO.P,BOB-0,9,SPRD_9*%
%TO.N,unconnected-(BOB-0-SPRD-Pad9)*%
X168857500Y-116977500D03*
%TO.P,BOB-0,10,M2A_10*%
%TO.N,mot0.A2*%
X168857500Y-104277500D03*
%TO.P,BOB-0,11,MS2_11*%
%TO.N,/mot0/MS2*%
X171397500Y-116977500D03*
%TO.P,BOB-0,12,M2B_12*%
%TO.N,mot0.B2*%
X171397500Y-104277500D03*
%TO.P,BOB-0,13,MS1_13*%
%TO.N,/mot0/MS1*%
X173937500Y-116977500D03*
%TO.P,BOB-0,14,GND_14*%
%TO.N,GND*%
X173937500Y-104277500D03*
%TO.P,BOB-0,15,EN_15*%
%TO.N,en0*%
X176477500Y-117017500D03*
%TO.P,BOB-0,16,+VM_16*%
%TO.N,Net-(BOB-0-+VM)*%
X176477500Y-104277500D03*
%TO.P,BOB-0,17,Index_17*%
%TO.N,unconnected-(BOB-0-Index-Pad17)*%
X176477500Y-114477500D03*
%TO.P,BOB-0,18,DIAG_18*%
%TO.N,unconnected-(BOB-0-DIAG-Pad18)*%
X176477500Y-111937500D03*
%TD*%
D13*
%TO.P,,41,GND_41*%
%TO.N,GND*%
X202785000Y-161190000D03*
%TD*%
D23*
%TO.P,fan1,1,Pin_1_1*%
%TO.N,GND*%
X250885000Y-122230000D03*
D10*
%TO.P,fan1,2,Pin_2_2*%
%TO.N,24V*%
X248345000Y-122230000D03*
%TD*%
D21*
%TO.P,REF\u002A\u002A1,1*%
%TO.N,N/C*%
X248685000Y-98590000D03*
D22*
X248685000Y-98590000D03*
%TD*%
D16*
%TO.P,encoder2,1,Pin_1_1*%
%TO.N,Net-(encoder2-Pin_1)*%
X171485000Y-137690000D03*
D17*
%TO.P,encoder2,2,Pin_2_2*%
%TO.N,Net-(encoder2-Pin_2)*%
X171485000Y-135190000D03*
%TO.P,encoder2,3,Pin_3_3*%
%TO.N,Net-(encoder2-Pin_3)*%
X171485000Y-132690000D03*
%TO.P,encoder2,4,Pin_4_4*%
%TO.N,GND*%
X171485000Y-130190000D03*
%TO.P,encoder2,5,Pin_5_5*%
X171485000Y-127690000D03*
%TO.P,encoder2,6,Pin_6_6*%
%TO.N,Net-(encoder2-Pin_6)*%
X171485000Y-125190000D03*
%TD*%
D13*
%TO.P,,41,GND_41*%
%TO.N,GND*%
X202785000Y-164190000D03*
%TD*%
%TO.P,,41,GND_41*%
%TO.N,GND*%
X197985000Y-169590000D03*
%TD*%
%TO.P,,41,GND_41*%
%TO.N,GND*%
X190285000Y-161230000D03*
%TD*%
D23*
%TO.P,J1,1,Pin_1_1*%
%TO.N,GND*%
X226185000Y-172590000D03*
D10*
%TO.P,J1,2,Pin_2_2*%
%TO.N,reset*%
X223645000Y-172590000D03*
%TD*%
%TO.P,BOB-3,1,DIR_1*%
%TO.N,dir3*%
X228197500Y-116777500D03*
%TO.P,BOB-3,2,GND_2*%
%TO.N,GND*%
X228197500Y-104077500D03*
%TO.P,BOB-3,3,STEP_3*%
%TO.N,step3*%
X230737500Y-116777500D03*
%TO.P,BOB-3,4,VIO_4*%
%TO.N,+3V3*%
X230737500Y-104077500D03*
%TO.P,BOB-3,5,PDN_5*%
%TO.N,unconnected-(BOB-3-PDN-Pad5)*%
X233277500Y-116777500D03*
%TO.P,BOB-3,6,M1B_6*%
%TO.N,mot3.B1*%
X233277500Y-104077500D03*
%TO.P,BOB-3,7,UART_7*%
%TO.N,UART*%
X235817500Y-116777500D03*
%TO.P,BOB-3,8,M1A_8*%
%TO.N,mot3.A1*%
X235817500Y-104077500D03*
%TO.P,BOB-3,9,SPRD_9*%
%TO.N,unconnected-(BOB-3-SPRD-Pad9)*%
X238357500Y-116777500D03*
%TO.P,BOB-3,10,M2A_10*%
%TO.N,mot3.A2*%
X238357500Y-104077500D03*
%TO.P,BOB-3,11,MS2_11*%
%TO.N,/mot3/MS2*%
X240897500Y-116777500D03*
%TO.P,BOB-3,12,M2B_12*%
%TO.N,mot3.B2*%
X240897500Y-104077500D03*
%TO.P,BOB-3,13,MS1_13*%
%TO.N,/mot3/MS1*%
X243437500Y-116777500D03*
%TO.P,BOB-3,14,GND_14*%
%TO.N,GND*%
X243437500Y-104077500D03*
%TO.P,BOB-3,15,EN_15*%
%TO.N,en3*%
X245977500Y-116817500D03*
%TO.P,BOB-3,16,+VM_16*%
%TO.N,Net-(BOB-3-+VM)*%
X245977500Y-104077500D03*
%TO.P,BOB-3,17,Index_17*%
%TO.N,unconnected-(BOB-3-Index-Pad17)*%
X245977500Y-114277500D03*
%TO.P,BOB-3,18,DIAG_18*%
%TO.N,unconnected-(BOB-3-DIAG-Pad18)*%
X245977500Y-111737500D03*
%TD*%
D13*
%TO.P,,41,GND_41*%
%TO.N,GND*%
X197985000Y-164190000D03*
%TD*%
D11*
%TO.P,mot0,1,Pin_1_1*%
%TO.N,mot0.B1*%
X163585000Y-97830000D03*
D12*
%TO.P,mot0,2,Pin_2_2*%
%TO.N,mot0.A1*%
X166085000Y-97830000D03*
%TO.P,mot0,3,Pin_3_3*%
%TO.N,mot0.A2*%
X168585000Y-97830000D03*
%TO.P,mot0,4,Pin_4_4*%
%TO.N,mot0.B2*%
X171085000Y-97830000D03*
%TD*%
D23*
%TO.P,J6,1,Pin_1_1*%
%TO.N,PWRSWITCH_diode*%
X242585000Y-138390000D03*
D10*
%TO.P,J6,2,Pin_2_2*%
%TO.N,PWRSWITCH_gate*%
X245125000Y-138390000D03*
%TO.P,J6,3,Pin_3_3*%
%TO.N,PWRSWITCH_Voltage*%
X247665000Y-138390000D03*
%TD*%
D21*
%TO.P,REF\u002A\u002A,1*%
%TO.N,N/C*%
X156685000Y-98590000D03*
D22*
X156685000Y-98590000D03*
%TD*%
D11*
%TO.P,mot3,1,Pin_1_1*%
%TO.N,mot3.B1*%
X233185000Y-97830000D03*
D12*
%TO.P,mot3,2,Pin_2_2*%
%TO.N,mot3.A1*%
X235685000Y-97830000D03*
%TO.P,mot3,3,Pin_3_3*%
%TO.N,mot3.A2*%
X238185000Y-97830000D03*
%TO.P,mot3,4,Pin_4_4*%
%TO.N,mot3.B2*%
X240685000Y-97830000D03*
%TD*%
D16*
%TO.P,encoder1,1,Pin_1_1*%
%TO.N,Net-(encoder1-Pin_1)*%
X158310000Y-156640000D03*
D17*
%TO.P,encoder1,2,Pin_2_2*%
%TO.N,Net-(encoder1-Pin_2)*%
X158310000Y-154140000D03*
%TO.P,encoder1,3,Pin_3_3*%
%TO.N,Net-(encoder1-Pin_3)*%
X158310000Y-151640000D03*
%TO.P,encoder1,4,Pin_4_4*%
%TO.N,GND*%
X158310000Y-149140000D03*
%TO.P,encoder1,5,Pin_5_5*%
X158310000Y-146640000D03*
%TO.P,encoder1,6,Pin_6_6*%
%TO.N,Net-(encoder1-Pin_6)*%
X158310000Y-144140000D03*
%TD*%
D13*
%TO.P,,41,GND_41*%
%TO.N,GND*%
X205385000Y-164190000D03*
%TD*%
%TO.P,U1,41,GND_41*%
%TO.N,GND*%
X205595000Y-168870000D03*
X205595000Y-167370000D03*
X204845000Y-169620000D03*
X204845000Y-168120000D03*
X204845000Y-166620000D03*
X204095000Y-168870000D03*
X204095000Y-167370000D03*
X203345000Y-169620000D03*
X203345000Y-168120000D03*
X203345000Y-166620000D03*
X202595000Y-168870000D03*
X202595000Y-167370000D03*
%TD*%
%TO.P,,41,GND_41*%
%TO.N,GND*%
X200385000Y-161190000D03*
%TD*%
D23*
%TO.P,J4,1,Pin_1_1*%
%TO.N,IO38*%
X183985000Y-162390000D03*
%TD*%
D24*
%TO.P,U3,17,GND_17*%
%TO.N,GND*%
X238519500Y-144942500D03*
X238519500Y-146090000D03*
X238519500Y-147237500D03*
D25*
X239070000Y-146090000D03*
D24*
X239620500Y-144942500D03*
X239620500Y-146090000D03*
X239620500Y-147237500D03*
%TD*%
D26*
%TO.P,F4,1*%
%TO.N,24V_Motor*%
X214735000Y-107855000D03*
%TO.P,F4,2*%
%TO.N,Net-(BOB-2-+VM)*%
X214735000Y-112305000D03*
%TD*%
%TO.P,F5,1*%
%TO.N,24V_Motor*%
X236785000Y-108155000D03*
%TO.P,F5,2*%
%TO.N,Net-(BOB-3-+VM)*%
X236785000Y-112605000D03*
%TD*%
%TO.P,F3,1*%
%TO.N,24V_Motor*%
X189585000Y-108405000D03*
%TO.P,F3,2*%
%TO.N,Net-(BOB-1-+VM)*%
X189585000Y-112855000D03*
%TD*%
%TO.P,F1,1*%
%TO.N,24V_Motor*%
X166685000Y-108255000D03*
%TO.P,F1,2*%
%TO.N,Net-(BOB-0-+VM)*%
X166685000Y-112705000D03*
%TD*%
D27*
%TO.N,24V_Motor*%
X239685000Y-138130000D03*
X239635000Y-135980000D03*
%TO.N,24Vin*%
X239285000Y-133080000D03*
X239235000Y-130980000D03*
%TO.N,24V_Motor*%
X236335000Y-138080000D03*
X236285000Y-136030000D03*
%TO.N,24Vin*%
X236385000Y-133080000D03*
X236335000Y-130930000D03*
%TO.N,24V_Motor*%
X234985000Y-137080000D03*
X237835000Y-138080000D03*
X237835000Y-136080000D03*
%TO.N,24Vin*%
X240635000Y-131980000D03*
X237835000Y-133030000D03*
X237835000Y-130980000D03*
%TO.N,GND*%
X226735000Y-144580000D03*
%TO.N,encoder0_SD*%
X179185000Y-150515000D03*
X188785000Y-140590000D03*
%TO.N,+3V3*%
X230085000Y-107190000D03*
X208780000Y-128690000D03*
X179285000Y-113730000D03*
X249660000Y-148190000D03*
X179385000Y-129190000D03*
X236925000Y-161330000D03*
X196250000Y-136390000D03*
X176253750Y-160090000D03*
X191685000Y-147390000D03*
X163285000Y-140530000D03*
X179085000Y-148690000D03*
X160585000Y-107290000D03*
X176485000Y-140730000D03*
X163285000Y-159690000D03*
X193985000Y-120590000D03*
X241085000Y-150990000D03*
X239685000Y-120190000D03*
X214185000Y-171865000D03*
X222085000Y-119290000D03*
X205035000Y-113930000D03*
X182747500Y-107190000D03*
X166185000Y-128633750D03*
X158785000Y-113780000D03*
X199585000Y-128790000D03*
X166116985Y-147658015D03*
X190085000Y-136390000D03*
X229035000Y-113726500D03*
X208285000Y-107190000D03*
X243485000Y-152590000D03*
X243885000Y-145417500D03*
%TO.N,GND*%
X183185000Y-111190000D03*
X240885000Y-141330000D03*
X217385000Y-153790000D03*
X218585000Y-161590000D03*
X188985000Y-139390000D03*
X224385000Y-161590000D03*
X178485000Y-135190000D03*
X224185000Y-167990000D03*
X208780000Y-124690000D03*
X183185000Y-109990000D03*
X242185000Y-160230000D03*
X217585000Y-130190000D03*
X160185000Y-109990000D03*
X209585000Y-111990000D03*
X211985000Y-130190000D03*
X230385000Y-111090000D03*
X239585000Y-165480000D03*
X178085000Y-154690000D03*
X224185000Y-153790000D03*
X241335000Y-172180000D03*
X194525000Y-136350000D03*
X218585000Y-167990000D03*
X231585000Y-112190000D03*
X212085000Y-153800000D03*
X227235000Y-125330000D03*
X160185000Y-111190000D03*
X224185000Y-147390000D03*
X190385000Y-146790000D03*
X246085000Y-146390000D03*
X230985000Y-153790000D03*
X208385000Y-110890000D03*
X211985000Y-122990000D03*
X184385000Y-112290000D03*
X192485000Y-173490000D03*
X217585000Y-122990000D03*
X198335000Y-120590000D03*
X209585000Y-108390000D03*
X231585000Y-108590000D03*
X197385000Y-140790000D03*
X230385000Y-109890000D03*
X161385000Y-112290000D03*
X208385000Y-109690000D03*
X203385000Y-128790000D03*
X230985000Y-161590000D03*
X233295500Y-144890000D03*
X216085000Y-173492500D03*
X217585000Y-147390000D03*
X231235000Y-149430000D03*
X165085000Y-153990000D03*
X161385000Y-108690000D03*
X211985000Y-147390000D03*
X165385000Y-134890000D03*
X184385000Y-108690000D03*
X230985000Y-167990000D03*
%TO.N,step2*%
X212985000Y-167090000D03*
%TO.N,UART*%
X214285000Y-159490000D03*
%TO.N,24V*%
X233085000Y-123090000D03*
X231285000Y-147390000D03*
%TO.N,Net-(USB1-CC1)*%
X243172500Y-164590000D03*
%TO.N,encoder1_SD*%
X166785000Y-150690000D03*
X188285000Y-141990000D03*
%TO.N,endswitch2*%
X179285000Y-127690000D03*
X209485000Y-164590000D03*
%TO.N,encoder1_SC*%
X188859265Y-142615735D03*
X165028750Y-159490000D03*
%TO.N,encoder0_SC*%
X179285000Y-157590000D03*
X188885000Y-141390000D03*
%TO.N,step1*%
X212985000Y-168490000D03*
%TO.N,24V_Motor*%
X164485000Y-108230000D03*
X191785000Y-108380000D03*
X216985000Y-107880000D03*
X239085000Y-108180000D03*
X166685000Y-107080000D03*
X214735000Y-108980000D03*
X236785000Y-109230000D03*
%TO.N,24Vin*%
X232385000Y-141990000D03*
%TO.N,24V_Motor*%
X236785000Y-106980000D03*
X212510000Y-107905000D03*
X187385000Y-108380000D03*
X189585000Y-109580000D03*
X214735000Y-106730000D03*
X189585000Y-107230000D03*
X166685000Y-109430000D03*
X168885000Y-108230000D03*
X234710000Y-108155000D03*
%TO.N,Net-(USB1-DP1)*%
X245485000Y-156640000D03*
%TO.N,endswitch3*%
X209485000Y-163390000D03*
X165885000Y-123190000D03*
%TO.N,step0*%
X210085000Y-169590000D03*
%TO.N,SRCLK*%
X200875000Y-128790000D03*
X212688093Y-158891443D03*
%TO.N,step3*%
X212985000Y-165850000D03*
%TO.N,Net-(BOB-0-+VM)*%
X167085000Y-110930000D03*
X170185000Y-112530000D03*
%TO.N,Net-(BOB-1-+VM)*%
X192985000Y-112680000D03*
X190235000Y-111030000D03*
%TO.N,Net-(BOB-2-+VM)*%
X215285000Y-110630000D03*
X218185000Y-112080000D03*
%TO.N,Net-(BOB-3-+VM)*%
X240285000Y-112380000D03*
X237335000Y-110880000D03*
%TO.N,24V_Motor*%
X236185000Y-126390000D03*
%TD*%
%TO.N,encoder0_SD*%
D28*
X166185000Y-150938529D02*
X168286471Y-153040000D01*
X168286471Y-153040000D02*
X176660000Y-153040000D01*
X172005096Y-148240000D02*
X168386471Y-148240000D01*
X176660000Y-153040000D02*
X179185000Y-150515000D01*
X168386471Y-148240000D02*
X166185000Y-150441471D01*
X188785000Y-140590000D02*
X179655096Y-140590000D01*
X166185000Y-150441471D02*
X166185000Y-150938529D01*
X179655096Y-140590000D02*
X172005096Y-148240000D01*
%TO.N,+3V3*%
D29*
X207335000Y-108230000D02*
X207335000Y-111630000D01*
X179285000Y-110652500D02*
X179285000Y-113730000D01*
X230085000Y-107190000D02*
X229035000Y-108240000D01*
X182747500Y-107190000D02*
X179285000Y-110652500D01*
X207335000Y-111630000D02*
X205035000Y-113930000D01*
X229035000Y-108240000D02*
X229035000Y-113726500D01*
X208285000Y-107280000D02*
X207335000Y-108230000D01*
X208285000Y-107190000D02*
X208285000Y-107280000D01*
X158785000Y-109090000D02*
X160585000Y-107290000D01*
X158785000Y-113780000D02*
X158785000Y-109090000D01*
%TO.N,step2*%
D28*
X212385000Y-160330000D02*
X213288093Y-159426907D01*
X213288093Y-157833093D02*
X203985000Y-148530000D01*
X203985000Y-121630000D02*
X208837500Y-116777500D01*
X203985000Y-148530000D02*
X203985000Y-121630000D01*
X212985000Y-167090000D02*
X212385000Y-166490000D01*
X213288093Y-159426907D02*
X213288093Y-157833093D01*
X212385000Y-166490000D02*
X212385000Y-160330000D01*
%TO.N,UART*%
X166317500Y-116977500D02*
X167667500Y-115627500D01*
X227585000Y-115290000D02*
X234330000Y-115290000D01*
X167667500Y-115627500D02*
X189667500Y-115627500D01*
X214285000Y-128590000D02*
X227585000Y-115290000D01*
X214285000Y-129063654D02*
X214285000Y-128590000D01*
X214285000Y-129063654D02*
X214285000Y-117145000D01*
X189667500Y-115627500D02*
X212767500Y-115627500D01*
X214285000Y-117145000D02*
X213917500Y-116777500D01*
X212767500Y-115627500D02*
X213917500Y-116777500D01*
X234330000Y-115290000D02*
X235817500Y-116777500D01*
X188317500Y-116977500D02*
X189667500Y-115627500D01*
X214285000Y-159490000D02*
X214285000Y-129063654D01*
%TO.N,Net-(USB1-CC1)*%
X246725000Y-160365000D02*
X246265381Y-160365000D01*
X243172500Y-163457881D02*
X243172500Y-164590000D01*
X246265381Y-160365000D02*
X243172500Y-163457881D01*
%TO.N,encoder1_SD*%
X181885000Y-148090000D02*
X175685000Y-148090000D01*
X175685000Y-148090000D02*
X173085000Y-150690000D01*
X173085000Y-150690000D02*
X166785000Y-150690000D01*
X188285000Y-141990000D02*
X187985000Y-141990000D01*
X187985000Y-141990000D02*
X181885000Y-148090000D01*
%TO.N,endswitch2*%
X209485000Y-164590000D02*
X209485000Y-164341471D01*
X191285000Y-133590000D02*
X185385000Y-127690000D01*
X191285000Y-146141471D02*
X191285000Y-133590000D01*
X185385000Y-127690000D02*
X179285000Y-127690000D01*
X209485000Y-164341471D02*
X191285000Y-146141471D01*
%TO.N,encoder1_SC*%
X187934512Y-142615735D02*
X188859265Y-142615735D01*
X171060247Y-159490000D02*
X187934512Y-142615735D01*
X165028750Y-159490000D02*
X171060247Y-159490000D01*
%TO.N,encoder0_SC*%
X179285000Y-157590000D02*
X179285000Y-154190000D01*
X189459265Y-141964265D02*
X188885000Y-141390000D01*
X189459265Y-144015735D02*
X189459265Y-141964265D01*
X179285000Y-154190000D02*
X189459265Y-144015735D01*
%TO.N,step1*%
X210885000Y-166390000D02*
X210885000Y-158430000D01*
X199885000Y-147430000D02*
X199885000Y-133625000D01*
X210885000Y-158430000D02*
X199885000Y-147430000D01*
X199885000Y-133625000D02*
X183237500Y-116977500D01*
X212985000Y-168490000D02*
X210885000Y-166390000D01*
%TO.N,24V_Motor*%
D29*
X214735000Y-107855000D02*
X216960000Y-107855000D01*
X191760000Y-108405000D02*
X191785000Y-108380000D01*
X214735000Y-107855000D02*
X214735000Y-108980000D01*
X212535000Y-107880000D02*
X212510000Y-107905000D01*
X214735000Y-107855000D02*
X213410000Y-107855000D01*
X187410000Y-108405000D02*
X187385000Y-108380000D01*
X166685000Y-108255000D02*
X166685000Y-107080000D01*
X214735000Y-107855000D02*
X214735000Y-106730000D01*
X236785000Y-108155000D02*
X234710000Y-108155000D01*
X236785000Y-108155000D02*
X236785000Y-106980000D01*
X234685000Y-108130000D02*
X234710000Y-108155000D01*
X189585000Y-108405000D02*
X187410000Y-108405000D01*
X166685000Y-108255000D02*
X168860000Y-108255000D01*
X189585000Y-108405000D02*
X191760000Y-108405000D01*
X213385000Y-107880000D02*
X212535000Y-107880000D01*
X166685000Y-108255000D02*
X166685000Y-109430000D01*
X189585000Y-108405000D02*
X189585000Y-107230000D01*
X216960000Y-107855000D02*
X216985000Y-107880000D01*
X239060000Y-108155000D02*
X239085000Y-108180000D01*
X213410000Y-107855000D02*
X213385000Y-107880000D01*
X166685000Y-108255000D02*
X164510000Y-108255000D01*
X236785000Y-108155000D02*
X236785000Y-109230000D01*
X164510000Y-108255000D02*
X164485000Y-108230000D01*
X217010000Y-107855000D02*
X216985000Y-107880000D01*
X236785000Y-108155000D02*
X239060000Y-108155000D01*
X189585000Y-108405000D02*
X189585000Y-109580000D01*
X168860000Y-108255000D02*
X168885000Y-108230000D01*
%TO.N,VBUS*%
D30*
X248985000Y-157415381D02*
X248985000Y-160764619D01*
X248075000Y-156965000D02*
X248534619Y-156965000D01*
X248534619Y-156965000D02*
X248985000Y-157415381D01*
X248985000Y-160764619D02*
X248534619Y-161215000D01*
X248534619Y-161215000D02*
X248075000Y-161215000D01*
%TO.N,Net-(USB1-DP1)*%
D28*
X245535000Y-156640000D02*
X245585000Y-156690000D01*
X248075000Y-158665000D02*
X247610298Y-158665000D01*
X245585000Y-156690000D02*
X245585000Y-158834619D01*
X245485000Y-156640000D02*
X245535000Y-156640000D01*
X245585000Y-158834619D02*
X246265381Y-159515000D01*
X247610298Y-158665000D02*
X246760298Y-159515000D01*
X246760298Y-159515000D02*
X246725000Y-159515000D01*
X246265381Y-159515000D02*
X246725000Y-159515000D01*
%TO.N,endswitch3*%
X182985000Y-123190000D02*
X192185000Y-132390000D01*
X192185000Y-145530000D02*
X209485000Y-162830000D01*
X165885000Y-123190000D02*
X182985000Y-123190000D01*
X192185000Y-132390000D02*
X192185000Y-145530000D01*
X209485000Y-162830000D02*
X209485000Y-163390000D01*
X165785000Y-123190000D02*
X165885000Y-123190000D01*
%TO.N,step0*%
X164750000Y-120490000D02*
X183085000Y-120490000D01*
X210085000Y-160630000D02*
X210085000Y-169590000D01*
X161237500Y-116977500D02*
X164750000Y-120490000D01*
X198985000Y-149530000D02*
X210085000Y-160630000D01*
X198985000Y-136390000D02*
X198985000Y-149530000D01*
X183085000Y-120490000D02*
X198985000Y-136390000D01*
%TO.N,SRCLK*%
X200875000Y-146780000D02*
X200875000Y-128790000D01*
X212688093Y-158891443D02*
X212688093Y-158593093D01*
X212688093Y-158593093D02*
X200875000Y-146780000D01*
%TO.N,step3*%
X221185000Y-157650000D02*
X221185000Y-126330000D01*
X221185000Y-126330000D02*
X230737500Y-116777500D01*
X212985000Y-165850000D02*
X221185000Y-157650000D01*
%TO.N,Net-(BOB-0-+VM)*%
D31*
X166685000Y-112705000D02*
X170010000Y-112705000D01*
X166685000Y-112705000D02*
X166685000Y-111330000D01*
X170010000Y-112705000D02*
X170185000Y-112530000D01*
X166685000Y-111330000D02*
X167085000Y-110930000D01*
%TO.N,Net-(BOB-1-+VM)*%
X189585000Y-111680000D02*
X190235000Y-111030000D01*
X189585000Y-112855000D02*
X192810000Y-112855000D01*
X192810000Y-112855000D02*
X192985000Y-112680000D01*
X189585000Y-112855000D02*
X189585000Y-111680000D01*
%TO.N,Net-(BOB-2-+VM)*%
X214735000Y-112305000D02*
X214735000Y-111180000D01*
X217960000Y-112305000D02*
X218185000Y-112080000D01*
X214735000Y-112305000D02*
X217960000Y-112305000D01*
X214735000Y-111180000D02*
X215285000Y-110630000D01*
%TO.N,Net-(BOB-3-+VM)*%
X240060000Y-112605000D02*
X240285000Y-112380000D01*
X236785000Y-112605000D02*
X240060000Y-112605000D01*
X236785000Y-112605000D02*
X236785000Y-111430000D01*
X236785000Y-111430000D02*
X237335000Y-110880000D01*
%TD*%
%TA.AperFunction,Conductor*%
%TO.N,GND*%
G36*
X194200677Y-150809685D02*
G01*
X194221319Y-150826319D01*
X208749870Y-165354870D01*
X208783355Y-165416193D01*
X208786155Y-165439668D01*
X208982049Y-173863117D01*
X208963929Y-173930596D01*
X208912203Y-173977566D01*
X208858083Y-173990000D01*
X186909000Y-173990000D01*
X186841961Y-173970315D01*
X186796206Y-173917511D01*
X186785000Y-173866000D01*
X186785000Y-153551153D01*
X189484500Y-153551153D01*
X189484500Y-153708846D01*
X189515261Y-153863489D01*
X189515264Y-153863501D01*
X189575602Y-154009172D01*
X189575609Y-154009185D01*
X189663210Y-154140288D01*
X189663213Y-154140292D01*
X189774707Y-154251786D01*
X189774711Y-154251789D01*
X189905814Y-154339390D01*
X189905827Y-154339397D01*
X190051498Y-154399735D01*
X190051503Y-154399737D01*
X190206153Y-154430499D01*
X190206156Y-154430500D01*
X190206158Y-154430500D01*
X190363844Y-154430500D01*
X190363845Y-154430499D01*
X190518497Y-154399737D01*
X190664179Y-154339394D01*
X190795289Y-154251789D01*
X190906789Y-154140289D01*
X190994394Y-154009179D01*
X191054737Y-153863497D01*
X191085500Y-153708842D01*
X191085500Y-153551158D01*
X191085500Y-153551155D01*
X191085499Y-153551153D01*
X191054738Y-153396510D01*
X191054737Y-153396503D01*
X191054735Y-153396498D01*
X190994397Y-153250827D01*
X190994390Y-153250814D01*
X190906789Y-153119711D01*
X190906786Y-153119707D01*
X190795292Y-153008213D01*
X190795288Y-153008210D01*
X190664185Y-152920609D01*
X190664172Y-152920602D01*
X190518501Y-152860264D01*
X190518489Y-152860261D01*
X190363845Y-152829500D01*
X190363842Y-152829500D01*
X190206158Y-152829500D01*
X190206155Y-152829500D01*
X190051510Y-152860261D01*
X190051498Y-152860264D01*
X189905827Y-152920602D01*
X189905814Y-152920609D01*
X189774711Y-153008210D01*
X189774707Y-153008213D01*
X189663213Y-153119707D01*
X189663210Y-153119711D01*
X189575609Y-153250814D01*
X189575602Y-153250827D01*
X189515264Y-153396498D01*
X189515261Y-153396510D01*
X189484500Y-153551153D01*
X186785000Y-153551153D01*
X186785000Y-150914000D01*
X186804685Y-150846961D01*
X186857489Y-150801206D01*
X186909000Y-150790000D01*
X194133638Y-150790000D01*
X194200677Y-150809685D01*
G37*
%TD.AperFunction*%
%TD*%
%TA.AperFunction,Conductor*%
%TO.N,24V*%
G36*
X238028039Y-121449685D02*
G01*
X238073794Y-121502489D01*
X238085000Y-121554000D01*
X238085000Y-126424943D01*
X238065315Y-126491982D01*
X238044160Y-126516923D01*
X234435000Y-129779999D01*
X234435000Y-136446559D01*
X234415315Y-136513598D01*
X234398681Y-136534240D01*
X234363213Y-136569707D01*
X234363210Y-136569711D01*
X234275609Y-136700814D01*
X234275602Y-136700827D01*
X234215264Y-136846498D01*
X234215261Y-136846510D01*
X234184500Y-137001153D01*
X234184500Y-137158846D01*
X234215261Y-137313489D01*
X234215264Y-137313501D01*
X234275602Y-137459172D01*
X234275609Y-137459185D01*
X234363210Y-137590288D01*
X234363213Y-137590292D01*
X234398680Y-137625758D01*
X234432166Y-137687080D01*
X234435000Y-137713440D01*
X234435000Y-138230000D01*
X238697111Y-142343433D01*
X238731679Y-142404152D01*
X238735000Y-142432656D01*
X238735000Y-144043000D01*
X238715315Y-144110039D01*
X238662511Y-144155794D01*
X238611000Y-144167000D01*
X238196630Y-144167000D01*
X238196623Y-144167001D01*
X238137016Y-144173408D01*
X238002171Y-144223702D01*
X238002164Y-144223706D01*
X237886955Y-144309952D01*
X237886952Y-144309955D01*
X237800706Y-144425164D01*
X237800702Y-144425171D01*
X237750408Y-144560017D01*
X237744001Y-144619616D01*
X237744000Y-144619635D01*
X237744000Y-147560369D01*
X237744001Y-147560376D01*
X237750408Y-147619983D01*
X237800702Y-147754828D01*
X237800706Y-147754835D01*
X237886952Y-147870044D01*
X237886955Y-147870047D01*
X238002164Y-147956293D01*
X238002171Y-147956297D01*
X238047118Y-147973061D01*
X238137017Y-148006591D01*
X238196627Y-148013000D01*
X238429270Y-148012999D01*
X238443119Y-148012999D01*
X238443120Y-148013000D01*
X238595880Y-148013000D01*
X238595880Y-148012999D01*
X238611001Y-148013000D01*
X238678040Y-148032685D01*
X238723795Y-148085489D01*
X238723796Y-148085502D01*
X238735000Y-148137000D01*
X238735000Y-150028638D01*
X238715315Y-150095677D01*
X238698681Y-150116319D01*
X238471319Y-150343681D01*
X238409996Y-150377166D01*
X238383638Y-150380000D01*
X231656695Y-150380000D01*
X231589656Y-150360315D01*
X231543901Y-150307511D01*
X231533957Y-150238353D01*
X231562982Y-150174797D01*
X231609244Y-150141438D01*
X231614179Y-150139394D01*
X231745289Y-150051789D01*
X231856789Y-149940289D01*
X231944394Y-149809179D01*
X232004737Y-149663497D01*
X232035500Y-149508842D01*
X232035500Y-149351158D01*
X232035500Y-149351155D01*
X232035499Y-149351153D01*
X232004738Y-149196510D01*
X232004737Y-149196503D01*
X232004735Y-149196498D01*
X231944397Y-149050827D01*
X231944390Y-149050814D01*
X231856789Y-148919711D01*
X231856786Y-148919707D01*
X231745292Y-148808213D01*
X231745288Y-148808210D01*
X231614185Y-148720609D01*
X231614172Y-148720602D01*
X231468501Y-148660264D01*
X231468489Y-148660261D01*
X231313845Y-148629500D01*
X231313842Y-148629500D01*
X231156158Y-148629500D01*
X231156155Y-148629500D01*
X231001510Y-148660261D01*
X231001498Y-148660264D01*
X230855827Y-148720602D01*
X230855814Y-148720609D01*
X230724711Y-148808210D01*
X230724707Y-148808213D01*
X230613213Y-148919707D01*
X230613210Y-148919711D01*
X230525609Y-149050814D01*
X230525602Y-149050827D01*
X230465264Y-149196498D01*
X230465261Y-149196510D01*
X230434500Y-149351153D01*
X230434500Y-149508846D01*
X230465261Y-149663489D01*
X230465264Y-149663501D01*
X230525602Y-149809172D01*
X230525609Y-149809185D01*
X230613210Y-149940288D01*
X230613213Y-149940292D01*
X230724707Y-150051786D01*
X230724711Y-150051789D01*
X230855814Y-150139390D01*
X230855821Y-150139394D01*
X230860756Y-150141438D01*
X230915160Y-150185279D01*
X230937226Y-150251572D01*
X230919948Y-150319272D01*
X230868811Y-150366883D01*
X230813305Y-150380000D01*
X228889548Y-150380000D01*
X228822509Y-150360315D01*
X228798141Y-150339790D01*
X228317593Y-149815556D01*
X228286803Y-149752836D01*
X228285000Y-149731766D01*
X228285000Y-144811153D01*
X232495000Y-144811153D01*
X232495000Y-144968846D01*
X232525761Y-145123489D01*
X232525764Y-145123501D01*
X232586102Y-145269172D01*
X232586109Y-145269185D01*
X232673710Y-145400288D01*
X232673713Y-145400292D01*
X232785207Y-145511786D01*
X232785211Y-145511789D01*
X232916314Y-145599390D01*
X232916327Y-145599397D01*
X233061998Y-145659735D01*
X233062003Y-145659737D01*
X233216653Y-145690499D01*
X233216656Y-145690500D01*
X233216658Y-145690500D01*
X233374344Y-145690500D01*
X233374345Y-145690499D01*
X233528997Y-145659737D01*
X233674679Y-145599394D01*
X233805789Y-145511789D01*
X233917289Y-145400289D01*
X234004894Y-145269179D01*
X234065237Y-145123497D01*
X234096000Y-144968842D01*
X234096000Y-144811158D01*
X234096000Y-144811155D01*
X234095999Y-144811153D01*
X234065238Y-144656510D01*
X234065237Y-144656503D01*
X234049958Y-144619616D01*
X234004897Y-144510827D01*
X234004890Y-144510814D01*
X233917289Y-144379711D01*
X233917286Y-144379707D01*
X233805792Y-144268213D01*
X233805788Y-144268210D01*
X233674685Y-144180609D01*
X233674672Y-144180602D01*
X233529001Y-144120264D01*
X233528989Y-144120261D01*
X233374345Y-144089500D01*
X233374342Y-144089500D01*
X233216658Y-144089500D01*
X233216655Y-144089500D01*
X233062010Y-144120261D01*
X233061998Y-144120264D01*
X232916327Y-144180602D01*
X232916314Y-144180609D01*
X232785211Y-144268210D01*
X232785207Y-144268213D01*
X232673713Y-144379707D01*
X232673710Y-144379711D01*
X232586109Y-144510814D01*
X232586102Y-144510827D01*
X232525764Y-144656498D01*
X232525761Y-144656510D01*
X232495000Y-144811153D01*
X228285000Y-144811153D01*
X228285000Y-141911153D01*
X231584500Y-141911153D01*
X231584500Y-142068846D01*
X231615261Y-142223489D01*
X231615264Y-142223501D01*
X231675602Y-142369172D01*
X231675609Y-142369185D01*
X231763210Y-142500288D01*
X231763213Y-142500292D01*
X231874707Y-142611786D01*
X231874711Y-142611789D01*
X232005814Y-142699390D01*
X232005827Y-142699397D01*
X232151498Y-142759735D01*
X232151503Y-142759737D01*
X232306153Y-142790499D01*
X232306156Y-142790500D01*
X232306158Y-142790500D01*
X232463844Y-142790500D01*
X232463845Y-142790499D01*
X232618497Y-142759737D01*
X232764179Y-142699394D01*
X232895289Y-142611789D01*
X233006789Y-142500289D01*
X233094394Y-142369179D01*
X233154737Y-142223497D01*
X233185500Y-142068842D01*
X233185500Y-141911158D01*
X233185500Y-141911155D01*
X233185499Y-141911153D01*
X233154738Y-141756510D01*
X233154737Y-141756503D01*
X233154735Y-141756498D01*
X233094397Y-141610827D01*
X233094390Y-141610814D01*
X233006789Y-141479711D01*
X233006786Y-141479707D01*
X232895292Y-141368213D01*
X232895288Y-141368210D01*
X232764185Y-141280609D01*
X232764172Y-141280602D01*
X232618501Y-141220264D01*
X232618489Y-141220261D01*
X232463845Y-141189500D01*
X232463842Y-141189500D01*
X232306158Y-141189500D01*
X232306155Y-141189500D01*
X232151510Y-141220261D01*
X232151498Y-141220264D01*
X232005827Y-141280602D01*
X232005814Y-141280609D01*
X231874711Y-141368210D01*
X231874707Y-141368213D01*
X231763213Y-141479707D01*
X231763210Y-141479711D01*
X231675609Y-141610814D01*
X231675602Y-141610827D01*
X231615264Y-141756498D01*
X231615261Y-141756510D01*
X231584500Y-141911153D01*
X228285000Y-141911153D01*
X228285000Y-126311153D01*
X235384500Y-126311153D01*
X235384500Y-126468846D01*
X235415261Y-126623489D01*
X235415264Y-126623501D01*
X235475602Y-126769172D01*
X235475609Y-126769185D01*
X235563210Y-126900288D01*
X235563213Y-126900292D01*
X235674707Y-127011786D01*
X235674711Y-127011789D01*
X235805814Y-127099390D01*
X235805827Y-127099397D01*
X235951498Y-127159735D01*
X235951503Y-127159737D01*
X236106153Y-127190499D01*
X236106156Y-127190500D01*
X236106158Y-127190500D01*
X236263844Y-127190500D01*
X236263845Y-127190499D01*
X236418497Y-127159737D01*
X236564179Y-127099394D01*
X236695289Y-127011789D01*
X236806789Y-126900289D01*
X236894394Y-126769179D01*
X236954737Y-126623497D01*
X236985500Y-126468842D01*
X236985500Y-126311158D01*
X236985500Y-126311155D01*
X236985499Y-126311153D01*
X236954738Y-126156510D01*
X236954737Y-126156503D01*
X236930594Y-126098215D01*
X236894397Y-126010827D01*
X236894390Y-126010814D01*
X236806789Y-125879711D01*
X236806786Y-125879707D01*
X236695292Y-125768213D01*
X236695288Y-125768210D01*
X236564185Y-125680609D01*
X236564172Y-125680602D01*
X236418501Y-125620264D01*
X236418489Y-125620261D01*
X236263845Y-125589500D01*
X236263842Y-125589500D01*
X236106158Y-125589500D01*
X236106155Y-125589500D01*
X235951510Y-125620261D01*
X235951498Y-125620264D01*
X235805827Y-125680602D01*
X235805814Y-125680609D01*
X235674711Y-125768210D01*
X235674707Y-125768213D01*
X235563213Y-125879707D01*
X235563210Y-125879711D01*
X235475609Y-126010814D01*
X235475602Y-126010827D01*
X235415264Y-126156498D01*
X235415261Y-126156510D01*
X235384500Y-126311153D01*
X228285000Y-126311153D01*
X228285000Y-122429410D01*
X228304685Y-122362371D01*
X228318982Y-122344130D01*
X229148318Y-121468720D01*
X229208714Y-121433590D01*
X229238336Y-121430000D01*
X237961000Y-121430000D01*
X238028039Y-121449685D01*
G37*
%TD.AperFunction*%
%TD*%
%TA.AperFunction,Conductor*%
%TO.N,24Vin*%
G36*
X248101140Y-127131526D02*
G01*
X248108625Y-127132711D01*
X248120180Y-127134541D01*
X248125000Y-127135698D01*
X248127168Y-127135854D01*
X248133211Y-127137170D01*
X248183632Y-127153553D01*
X248271110Y-127167408D01*
X248416903Y-127190500D01*
X248416908Y-127190500D01*
X250153095Y-127190500D01*
X250153097Y-127190500D01*
X250282689Y-127169973D01*
X250386368Y-127153553D01*
X250437106Y-127137066D01*
X250443500Y-127135711D01*
X250444596Y-127135795D01*
X250449821Y-127134541D01*
X250468860Y-127131526D01*
X250488255Y-127130000D01*
X251317227Y-127130000D01*
X251352163Y-127135023D01*
X251377831Y-127142560D01*
X251428840Y-127172154D01*
X251430415Y-127173668D01*
X252333590Y-128042105D01*
X252355291Y-128069937D01*
X252368144Y-128092416D01*
X252384500Y-128153968D01*
X252384500Y-129518064D01*
X252379476Y-129553002D01*
X252376289Y-129563855D01*
X252338514Y-129622632D01*
X252274957Y-129651655D01*
X252205805Y-129641713D01*
X252203682Y-129640743D01*
X252152089Y-129596839D01*
X252100978Y-129520346D01*
X252100975Y-129520342D01*
X252100969Y-129520335D01*
X251954662Y-129374028D01*
X251954655Y-129374022D01*
X251872779Y-129319315D01*
X251872770Y-129319310D01*
X251868626Y-129316541D01*
X251782598Y-129259059D01*
X251719669Y-129232993D01*
X251591420Y-129179870D01*
X251591412Y-129179868D01*
X251591404Y-129179866D01*
X251591394Y-129179864D01*
X251388471Y-129139500D01*
X251388469Y-129139500D01*
X251388465Y-129139500D01*
X251181535Y-129139500D01*
X251181530Y-129139500D01*
X251181528Y-129139500D01*
X250978604Y-129179864D01*
X250978579Y-129179870D01*
X250787404Y-129259057D01*
X250615337Y-129374027D01*
X250469027Y-129520337D01*
X250354057Y-129692404D01*
X250274870Y-129883579D01*
X250274864Y-129883604D01*
X250234500Y-130086527D01*
X250234500Y-130086530D01*
X250234500Y-130293469D01*
X250234500Y-130293471D01*
X250234499Y-130293471D01*
X250274864Y-130496394D01*
X250274868Y-130496412D01*
X250274870Y-130496420D01*
X250290038Y-130533039D01*
X250354057Y-130687595D01*
X250354063Y-130687606D01*
X250382663Y-130730407D01*
X250382664Y-130730410D01*
X250469022Y-130859655D01*
X250469028Y-130859662D01*
X250615336Y-131005970D01*
X250615340Y-131005973D01*
X250615342Y-131005975D01*
X250615345Y-131005977D01*
X250615349Y-131005980D01*
X250615348Y-131005980D01*
X250615411Y-131006032D01*
X250615448Y-131006046D01*
X250787402Y-131120941D01*
X250978580Y-131200130D01*
X251169540Y-131238114D01*
X251178559Y-131239908D01*
X251180794Y-131240409D01*
X251181532Y-131240500D01*
X251388466Y-131240500D01*
X251392586Y-131240500D01*
X251400435Y-131238118D01*
X251591420Y-131200130D01*
X251782598Y-131120941D01*
X251954655Y-131005977D01*
X252100977Y-130859655D01*
X252147495Y-130790034D01*
X252158298Y-130780265D01*
X252163908Y-130770262D01*
X252171056Y-130763798D01*
X252179757Y-130756527D01*
X252189001Y-130752503D01*
X252192399Y-130749431D01*
X252202303Y-130744167D01*
X252213394Y-130741884D01*
X252243816Y-130728642D01*
X252262801Y-130731718D01*
X252270739Y-130730085D01*
X252283779Y-130735117D01*
X252312787Y-130739817D01*
X252325465Y-130751203D01*
X252335924Y-130755239D01*
X252347330Y-130770839D01*
X252364753Y-130786486D01*
X252365981Y-130788473D01*
X252369639Y-130801349D01*
X252377163Y-130811640D01*
X252378400Y-130832190D01*
X252384500Y-130853662D01*
X252384500Y-133029020D01*
X252379476Y-133063958D01*
X252372346Y-133088238D01*
X252336563Y-133145250D01*
X251774002Y-133654234D01*
X251691496Y-133728884D01*
X251691487Y-133728893D01*
X251683636Y-133735995D01*
X251654373Y-133755699D01*
X251629600Y-133767662D01*
X251575678Y-133780000D01*
X251309577Y-133780000D01*
X251274638Y-133774976D01*
X251253267Y-133768700D01*
X251241677Y-133762045D01*
X251231923Y-133760215D01*
X251203074Y-133739882D01*
X251199827Y-133736816D01*
X251184644Y-133719546D01*
X251180978Y-133714501D01*
X251179920Y-133712981D01*
X251179512Y-133712484D01*
X251012513Y-133545486D01*
X251012510Y-133545483D01*
X250821433Y-133406657D01*
X250610996Y-133299433D01*
X250386368Y-133226446D01*
X250386362Y-133226445D01*
X250153102Y-133189500D01*
X250153097Y-133189500D01*
X250153092Y-133189500D01*
X248416908Y-133189500D01*
X248416903Y-133189500D01*
X248416898Y-133189500D01*
X248183636Y-133226445D01*
X248183634Y-133226445D01*
X248183631Y-133226446D01*
X247959003Y-133299433D01*
X247763210Y-133399195D01*
X247748562Y-133406659D01*
X247639549Y-133485861D01*
X247639550Y-133485862D01*
X247569361Y-133536858D01*
X247561980Y-133540991D01*
X247390484Y-133712487D01*
X247389050Y-133714462D01*
X247389048Y-133714463D01*
X247389049Y-133714463D01*
X247364451Y-133739773D01*
X247346812Y-133753374D01*
X247293999Y-133777042D01*
X247289615Y-133777866D01*
X247282099Y-133778566D01*
X247281702Y-133778721D01*
X247281303Y-133778640D01*
X247266710Y-133780000D01*
X243884998Y-133780000D01*
X241733906Y-136126646D01*
X241733906Y-136126647D01*
X241706597Y-136149005D01*
X241684832Y-136162148D01*
X241620735Y-136180000D01*
X240577330Y-136180000D01*
X240542389Y-136174975D01*
X240527390Y-136170570D01*
X240468644Y-136132827D01*
X240467457Y-136131458D01*
X240439977Y-136076583D01*
X240438332Y-136069021D01*
X240435500Y-136042668D01*
X240435500Y-135900973D01*
X240435065Y-135898972D01*
X240424627Y-135846498D01*
X240424627Y-135846497D01*
X240404738Y-135746509D01*
X240404738Y-135746508D01*
X240404737Y-135746503D01*
X240385820Y-135700833D01*
X240385812Y-135700813D01*
X240344402Y-135600840D01*
X240344399Y-135600833D01*
X240344397Y-135600827D01*
X240344390Y-135600814D01*
X240256789Y-135469711D01*
X240256786Y-135469707D01*
X240256781Y-135469701D01*
X240145297Y-135358217D01*
X240145291Y-135358212D01*
X240145290Y-135358211D01*
X240014191Y-135270613D01*
X240014190Y-135270612D01*
X240014185Y-135270609D01*
X240014172Y-135270602D01*
X240014165Y-135270598D01*
X239868502Y-135210264D01*
X239868471Y-135210257D01*
X239713847Y-135179500D01*
X239713845Y-135179500D01*
X239713842Y-135179500D01*
X239556158Y-135179500D01*
X239556155Y-135179500D01*
X239556153Y-135179500D01*
X239401527Y-135210257D01*
X239401496Y-135210264D01*
X239255833Y-135270598D01*
X239255824Y-135270603D01*
X239255807Y-135270613D01*
X239124708Y-135358211D01*
X239124707Y-135358212D01*
X239124701Y-135358217D01*
X239013217Y-135469701D01*
X239013212Y-135469707D01*
X239013211Y-135469708D01*
X238925613Y-135600807D01*
X238925603Y-135600824D01*
X238925598Y-135600833D01*
X238865272Y-135746475D01*
X238865261Y-135746505D01*
X238865261Y-135746507D01*
X238865259Y-135746515D01*
X238850126Y-135822596D01*
X238844432Y-135833480D01*
X238838383Y-135855882D01*
X238833257Y-135865681D01*
X238820878Y-135878509D01*
X238817741Y-135884507D01*
X238805361Y-135895717D01*
X238800790Y-135899326D01*
X238784741Y-135915959D01*
X238716744Y-135932026D01*
X238669592Y-135915390D01*
X238664677Y-135914454D01*
X238663341Y-135913185D01*
X238650854Y-135908780D01*
X238615289Y-135867556D01*
X238614011Y-135866343D01*
X238613919Y-135865969D01*
X238613262Y-135865207D01*
X238612721Y-135864162D01*
X238611145Y-135861117D01*
X238605990Y-135849270D01*
X238605899Y-135849308D01*
X238544400Y-135700833D01*
X238544389Y-135700813D01*
X238544385Y-135700807D01*
X238477571Y-135600814D01*
X238456789Y-135569711D01*
X238456786Y-135569707D01*
X238456781Y-135569701D01*
X238345297Y-135458217D01*
X238345291Y-135458212D01*
X238345290Y-135458211D01*
X238214191Y-135370613D01*
X238214190Y-135370612D01*
X238214185Y-135370609D01*
X238214172Y-135370602D01*
X238214165Y-135370598D01*
X238068502Y-135310264D01*
X238068471Y-135310257D01*
X237913847Y-135279500D01*
X237913845Y-135279500D01*
X237913842Y-135279500D01*
X237756158Y-135279500D01*
X237756155Y-135279500D01*
X237756153Y-135279500D01*
X237601527Y-135310257D01*
X237601496Y-135310264D01*
X237455833Y-135370598D01*
X237455824Y-135370603D01*
X237455807Y-135370613D01*
X237324711Y-135458209D01*
X237324707Y-135458212D01*
X237227306Y-135555614D01*
X237227302Y-135555616D01*
X237227302Y-135555618D01*
X237199047Y-135576768D01*
X237185325Y-135584260D01*
X237117120Y-135599114D01*
X237116652Y-135599080D01*
X237115752Y-135599016D01*
X237056800Y-135579191D01*
X237049685Y-135574551D01*
X237028582Y-135557193D01*
X237027048Y-135555618D01*
X235832034Y-134328306D01*
X235811264Y-134299775D01*
X235798705Y-134276029D01*
X235784326Y-134219437D01*
X235751467Y-131262094D01*
X241279237Y-131262094D01*
X241322945Y-131481822D01*
X241322946Y-131481826D01*
X241322947Y-131481829D01*
X241322950Y-131481839D01*
X241322953Y-131481847D01*
X241322958Y-131481861D01*
X241398360Y-131663900D01*
X241398365Y-131663909D01*
X241398375Y-131663926D01*
X241507861Y-131827783D01*
X241507862Y-131827784D01*
X241507867Y-131827790D01*
X241647208Y-131967131D01*
X241647214Y-131967136D01*
X241647218Y-131967139D01*
X241811079Y-132076628D01*
X241811092Y-132076635D01*
X241993160Y-132152049D01*
X241993165Y-132152051D01*
X241993169Y-132152051D01*
X241993170Y-132152052D01*
X241993442Y-132152106D01*
X241993469Y-132152112D01*
X242186453Y-132190500D01*
X242383543Y-132190500D01*
X242383544Y-132190500D01*
X242405216Y-132186188D01*
X242513582Y-132164632D01*
X242513583Y-132164632D01*
X242526301Y-132162102D01*
X242576835Y-132152051D01*
X242758914Y-132076632D01*
X242922782Y-131967139D01*
X243062139Y-131827782D01*
X243171632Y-131663914D01*
X243247051Y-131481835D01*
X243282042Y-131305925D01*
X243285500Y-131288543D01*
X243285500Y-129421941D01*
X246785000Y-129421941D01*
X246785000Y-129421947D01*
X246785000Y-129790000D01*
X247661000Y-129790000D01*
X247728039Y-129809685D01*
X247773794Y-129862489D01*
X247785000Y-129914000D01*
X247785000Y-130466000D01*
X247765315Y-130533039D01*
X247712511Y-130578794D01*
X247661000Y-130590000D01*
X246785000Y-130590000D01*
X246785000Y-130958057D01*
X246821933Y-131191243D01*
X246821934Y-131191247D01*
X246894897Y-131415802D01*
X247002085Y-131626171D01*
X247140866Y-131817186D01*
X247307813Y-131984133D01*
X247498828Y-132122914D01*
X247598219Y-132173556D01*
X247709192Y-132230100D01*
X247709194Y-132230100D01*
X247709197Y-132230102D01*
X247884999Y-132287224D01*
X247885000Y-132287224D01*
X247885000Y-132287223D01*
X247885000Y-131401184D01*
X247904685Y-131334145D01*
X247957489Y-131288390D01*
X248026647Y-131278446D01*
X248071000Y-131293796D01*
X248092007Y-131305925D01*
X248219174Y-131340000D01*
X248350824Y-131340000D01*
X248350826Y-131340000D01*
X248477993Y-131305925D01*
X248498999Y-131293796D01*
X248566899Y-131277324D01*
X248632926Y-131300176D01*
X248676117Y-131355097D01*
X248685000Y-131401184D01*
X248685000Y-132287223D01*
X248685000Y-132287224D01*
X248860802Y-132230102D01*
X249071171Y-132122914D01*
X249262186Y-131984133D01*
X249429133Y-131817186D01*
X249567914Y-131626171D01*
X249675102Y-131415802D01*
X249748065Y-131191247D01*
X249785000Y-130958052D01*
X249785000Y-130590000D01*
X248909000Y-130590000D01*
X248841961Y-130570315D01*
X248796206Y-130517511D01*
X248785000Y-130466000D01*
X248785000Y-129914000D01*
X248804685Y-129846961D01*
X248857489Y-129801206D01*
X248909000Y-129790000D01*
X249785000Y-129790000D01*
X249785000Y-129421947D01*
X249768305Y-129316541D01*
X249748065Y-129188752D01*
X249675102Y-128964197D01*
X249567914Y-128753828D01*
X249429133Y-128562813D01*
X249262186Y-128395866D01*
X249071171Y-128257085D01*
X248860804Y-128149897D01*
X248685000Y-128092774D01*
X248685000Y-128978815D01*
X248665315Y-129045854D01*
X248612511Y-129091609D01*
X248543353Y-129101553D01*
X248499002Y-129086203D01*
X248477998Y-129074077D01*
X248477997Y-129074076D01*
X248462968Y-129070049D01*
X248350826Y-129040000D01*
X248350824Y-129040000D01*
X248219176Y-129040000D01*
X248219174Y-129040000D01*
X248141346Y-129060854D01*
X248092002Y-129074076D01*
X248092001Y-129074077D01*
X248070998Y-129086203D01*
X248003097Y-129102674D01*
X247937071Y-129079821D01*
X247893881Y-129024899D01*
X247885000Y-128978815D01*
X247885000Y-128092774D01*
X247709190Y-128149898D01*
X247498827Y-128257085D01*
X247389846Y-128336264D01*
X247307813Y-128395866D01*
X247307811Y-128395868D01*
X247307810Y-128395868D01*
X247140868Y-128562810D01*
X247140868Y-128562811D01*
X247140866Y-128562813D01*
X247081264Y-128644846D01*
X247002085Y-128753827D01*
X246894898Y-128964194D01*
X246821933Y-129188755D01*
X246785000Y-129421941D01*
X243285500Y-129421941D01*
X243285500Y-129091453D01*
X243247112Y-128898471D01*
X243247112Y-128898472D01*
X243247052Y-128898170D01*
X243247051Y-128898169D01*
X243246811Y-128896964D01*
X243244735Y-128892573D01*
X243171635Y-128716092D01*
X243171628Y-128716079D01*
X243062139Y-128552218D01*
X243062136Y-128552214D01*
X243062131Y-128552208D01*
X242922790Y-128412867D01*
X242922784Y-128412862D01*
X242922783Y-128412861D01*
X242758926Y-128303375D01*
X242758925Y-128303374D01*
X242758920Y-128303371D01*
X242758907Y-128303364D01*
X242758900Y-128303360D01*
X242576861Y-128227958D01*
X242576847Y-128227953D01*
X242576839Y-128227950D01*
X242576829Y-128227947D01*
X242576826Y-128227946D01*
X242576822Y-128227945D01*
X242383546Y-128189500D01*
X242383543Y-128189500D01*
X242383541Y-128189500D01*
X242186459Y-128189500D01*
X242186457Y-128189500D01*
X242186453Y-128189500D01*
X241993176Y-128227945D01*
X241993170Y-128227947D01*
X241993160Y-128227950D01*
X241993155Y-128227951D01*
X241993137Y-128227958D01*
X241811098Y-128303360D01*
X241811089Y-128303365D01*
X241811072Y-128303375D01*
X241647215Y-128412861D01*
X241647214Y-128412862D01*
X241647208Y-128412867D01*
X241507867Y-128552208D01*
X241507862Y-128552214D01*
X241507861Y-128552215D01*
X241398375Y-128716072D01*
X241398365Y-128716089D01*
X241398360Y-128716098D01*
X241322958Y-128898137D01*
X241322945Y-128898176D01*
X241284500Y-129091451D01*
X241284500Y-131244174D01*
X241279237Y-131262094D01*
X235751467Y-131262094D01*
X235735821Y-129853945D01*
X235740455Y-129818957D01*
X235747242Y-129794855D01*
X235783734Y-129736221D01*
X238636390Y-127173665D01*
X238665733Y-127154058D01*
X238674873Y-127149685D01*
X238690637Y-127142143D01*
X238744153Y-127130000D01*
X248081745Y-127130000D01*
X248101140Y-127131526D01*
G37*
%TD.AperFunction*%
%TD*%
M02*
