%TF.GenerationSoftware,KiCad,Pcbnew,10.0.4-10.0.4~ubuntu24.04.1*%
%TF.CreationDate,2026-07-20T13:26:45+02:00*%
%TF.ProjectId,esp32stepper,65737033-3273-4746-9570-7065722e6b69,rev?*%
%TF.SameCoordinates,Original*%
%TF.FileFunction,Soldermask,Top*%
%TF.FilePolarity,Negative*%
%FSLAX46Y46*%
G04 Gerber Fmt 4.6, Leading zero omitted, Abs format (unit mm)*
G04 Created by KiCad (PCBNEW 10.0.4-10.0.4~ubuntu24.04.1) date 2026-07-20 13:26:45*
%MOMM*%
%LPD*%
G01*
G04 APERTURE LIST*
G04 Aperture macros list*
%AMRoundRect*
0 Rectangle with rounded corners*
0 $1 Rounding radius*
0 $2 $3 $4 $5 $6 $7 $8 $9 X,Y pos of 4 corners*
0 Add a 4 corners polygon primitive as box body*
4,1,4,$2,$3,$4,$5,$6,$7,$8,$9,$2,$3,0*
0 Add four circle primitives for the rounded corners*
1,1,$1+$1,$2,$3*
1,1,$1+$1,$4,$5*
1,1,$1+$1,$6,$7*
1,1,$1+$1,$8,$9*
0 Add four rect primitives between the rounded corners*
20,1,$1+$1,$2,$3,$4,$5,0*
20,1,$1+$1,$4,$5,$6,$7,0*
20,1,$1+$1,$6,$7,$8,$9,0*
20,1,$1+$1,$8,$9,$2,$3,0*%
G04 Aperture macros list end*
%ADD10C,5.600000*%
%ADD11R,1.800000X4.400000*%
%ADD12O,1.800000X4.000000*%
%ADD13O,4.000000X1.800000*%
%ADD14RoundRect,0.237500X-0.237500X0.250000X-0.237500X-0.250000X0.237500X-0.250000X0.237500X0.250000X0*%
%ADD15RoundRect,0.237500X0.250000X0.237500X-0.250000X0.237500X-0.250000X-0.237500X0.250000X-0.237500X0*%
%ADD16C,1.700000*%
%ADD17RoundRect,0.237500X0.237500X-0.250000X0.237500X0.250000X-0.237500X0.250000X-0.237500X-0.250000X0*%
%ADD18RoundRect,0.250000X1.950000X1.000000X-1.950000X1.000000X-1.950000X-1.000000X1.950000X-1.000000X0*%
%ADD19RoundRect,0.250000X-0.600000X-0.725000X0.600000X-0.725000X0.600000X0.725000X-0.600000X0.725000X0*%
%ADD20O,1.700000X1.950000*%
%ADD21RoundRect,0.237500X-0.237500X0.300000X-0.237500X-0.300000X0.237500X-0.300000X0.237500X0.300000X0*%
%ADD22RoundRect,0.237500X-0.250000X-0.237500X0.250000X-0.237500X0.250000X0.237500X-0.250000X0.237500X0*%
%ADD23RoundRect,0.237500X-0.300000X-0.237500X0.300000X-0.237500X0.300000X0.237500X-0.300000X0.237500X0*%
%ADD24RoundRect,0.237500X0.300000X0.237500X-0.300000X0.237500X-0.300000X-0.237500X0.300000X-0.237500X0*%
%ADD25RoundRect,0.112500X-0.187500X-0.112500X0.187500X-0.112500X0.187500X0.112500X-0.187500X0.112500X0*%
%ADD26RoundRect,0.112500X0.112500X-0.187500X0.112500X0.187500X-0.112500X0.187500X-0.112500X-0.187500X0*%
%ADD27RoundRect,0.237500X-0.237500X0.287500X-0.237500X-0.287500X0.237500X-0.287500X0.237500X0.287500X0*%
%ADD28RoundRect,0.162500X-0.162500X0.447500X-0.162500X-0.447500X0.162500X-0.447500X0.162500X0.447500X0*%
%ADD29RoundRect,0.250000X0.475000X-0.337500X0.475000X0.337500X-0.475000X0.337500X-0.475000X-0.337500X0*%
%ADD30RoundRect,0.100000X-0.637500X-0.100000X0.637500X-0.100000X0.637500X0.100000X-0.637500X0.100000X0*%
%ADD31RoundRect,0.112500X-0.112500X0.187500X-0.112500X-0.187500X0.112500X-0.187500X0.112500X0.187500X0*%
%ADD32R,1.680000X3.150000*%
%ADD33R,1.800000X1.100000*%
%ADD34RoundRect,0.250000X2.050000X0.300000X-2.050000X0.300000X-2.050000X-0.300000X2.050000X-0.300000X0*%
%ADD35RoundRect,0.250002X4.449998X5.149998X-4.449998X5.149998X-4.449998X-5.149998X4.449998X-5.149998X0*%
%ADD36RoundRect,0.150000X-0.512500X-0.150000X0.512500X-0.150000X0.512500X0.150000X-0.512500X0.150000X0*%
%ADD37C,1.200000*%
%ADD38RoundRect,0.250000X0.725000X-0.600000X0.725000X0.600000X-0.725000X0.600000X-0.725000X-0.600000X0*%
%ADD39O,1.950000X1.700000*%
%ADD40C,0.854000*%
%ADD41O,1.904000X1.104000*%
%ADD42O,2.604000X1.104000*%
%ADD43R,1.700000X1.700000*%
%ADD44R,2.750000X1.000000*%
%ADD45RoundRect,0.237500X0.237500X-0.300000X0.237500X0.300000X-0.237500X0.300000X-0.237500X-0.300000X0*%
%ADD46RoundRect,0.150000X-0.150000X0.587500X-0.150000X-0.587500X0.150000X-0.587500X0.150000X0.587500X0*%
%ADD47RoundRect,0.375000X0.625000X0.375000X-0.625000X0.375000X-0.625000X-0.375000X0.625000X-0.375000X0*%
%ADD48RoundRect,0.500000X0.500000X1.400000X-0.500000X1.400000X-0.500000X-1.400000X0.500000X-1.400000X0*%
%ADD49RoundRect,0.150000X-0.150000X0.825000X-0.150000X-0.825000X0.150000X-0.825000X0.150000X0.825000X0*%
%ADD50RoundRect,0.250000X-0.325000X-0.450000X0.325000X-0.450000X0.325000X0.450000X-0.325000X0.450000X0*%
%ADD51RoundRect,0.162500X-0.162500X0.837500X-0.162500X-0.837500X0.162500X-0.837500X0.162500X0.837500X0*%
%ADD52RoundRect,0.112500X-0.637500X0.112500X-0.637500X-0.112500X0.637500X-0.112500X0.637500X0.112500X0*%
%ADD53R,1.500000X0.900000*%
%ADD54R,0.900000X1.500000*%
%ADD55R,1.000000X1.000000*%
%ADD56C,0.600000*%
%ADD57RoundRect,0.075000X-0.650000X-0.075000X0.650000X-0.075000X0.650000X0.075000X-0.650000X0.075000X0*%
%ADD58R,1.651000X2.845000*%
G04 APERTURE END LIST*
D10*
%TO.C,H8*%
X248885000Y-99030000D03*
%TD*%
%TO.C,H7*%
X156885000Y-99030000D03*
%TD*%
%TO.C,H6*%
X248885000Y-170530000D03*
%TD*%
%TO.C,H5*%
X156885000Y-170530000D03*
%TD*%
D11*
%TO.C,J2*%
X241885000Y-130987500D03*
D12*
X247685000Y-130987500D03*
D13*
X244885000Y-126187500D03*
%TD*%
D14*
%TO.C,R21*%
X176185000Y-152027500D03*
X176185000Y-153852500D03*
%TD*%
D15*
%TO.C,R28*%
X194597500Y-147390000D03*
X192772500Y-147390000D03*
%TD*%
D16*
%TO.C,BOB-2*%
X206297500Y-116777500D03*
X206297500Y-104077500D03*
X208837500Y-116777500D03*
X208837500Y-104077500D03*
X211377500Y-116777500D03*
X211377500Y-104077500D03*
X213917500Y-116777500D03*
X213917500Y-104077500D03*
X216457500Y-116777500D03*
X216457500Y-104077500D03*
X218997500Y-116777500D03*
X218997500Y-104077500D03*
X221537500Y-116777500D03*
X221537500Y-104077500D03*
X224077500Y-116817500D03*
X224077500Y-104077500D03*
X224077500Y-114277500D03*
X224077500Y-111737500D03*
%TD*%
D17*
%TO.C,R9*%
X241720500Y-143155000D03*
X241720500Y-141330000D03*
%TD*%
D15*
%TO.C,R1*%
X244997500Y-163390000D03*
X243172500Y-163390000D03*
%TD*%
D18*
%TO.C,C28*%
X240485000Y-110390000D03*
X233085000Y-110390000D03*
%TD*%
D14*
%TO.C,R36*%
X176385000Y-132627500D03*
X176385000Y-134452500D03*
%TD*%
D19*
%TO.C,mot1*%
X185585000Y-97830000D03*
D20*
X188085000Y-97830000D03*
X190585000Y-97830000D03*
X193085000Y-97830000D03*
%TD*%
D21*
%TO.C,C1*%
X217285000Y-171837500D03*
X217285000Y-173562500D03*
%TD*%
D14*
%TO.C,R32*%
X163085000Y-151127500D03*
X163085000Y-152952500D03*
%TD*%
D22*
%TO.C,R11*%
X190075000Y-137434000D03*
X191900000Y-137434000D03*
%TD*%
D15*
%TO.C,R34*%
X178397500Y-127565000D03*
X176572500Y-127565000D03*
%TD*%
D22*
%TO.C,R10*%
X242995500Y-144642500D03*
X244820500Y-144642500D03*
%TD*%
D23*
%TO.C,C3*%
X236872500Y-165480000D03*
X238597500Y-165480000D03*
%TD*%
D24*
%TO.C,C6*%
X196250000Y-137434000D03*
X194525000Y-137434000D03*
%TD*%
D25*
%TO.C,TVS3*%
X176235000Y-145340000D03*
X178335000Y-145340000D03*
%TD*%
D26*
%TO.C,TVS10*%
X165385000Y-134190000D03*
X165385000Y-132090000D03*
%TD*%
D22*
%TO.C,R12*%
X249635000Y-150752500D03*
X251460000Y-150752500D03*
%TD*%
D23*
%TO.C,C22*%
X181022500Y-106190000D03*
X182747500Y-106190000D03*
%TD*%
D27*
%TO.C,FB4*%
X163285000Y-128665000D03*
X163285000Y-130415000D03*
%TD*%
D28*
%TO.C,TVS0*%
X230335000Y-125290000D03*
X228435000Y-125290000D03*
X229385000Y-127910000D03*
%TD*%
D25*
%TO.C,TVS6*%
X163035000Y-143790000D03*
X165135000Y-143790000D03*
%TD*%
D22*
%TO.C,R6*%
X163203750Y-158290000D03*
X165028750Y-158290000D03*
%TD*%
D29*
%TO.C,C9*%
X232885000Y-149367500D03*
X232885000Y-147292500D03*
%TD*%
D17*
%TO.C,R3*%
X218885000Y-173612500D03*
X218885000Y-171787500D03*
%TD*%
D14*
%TO.C,R40*%
X163285000Y-132227500D03*
X163285000Y-134052500D03*
%TD*%
D22*
%TO.C,R23*%
X176472500Y-139727500D03*
X178297500Y-139727500D03*
%TD*%
D30*
%TO.C,U6*%
X190322500Y-138815000D03*
X190322500Y-139465000D03*
X190322500Y-140115000D03*
X190322500Y-140765000D03*
X190322500Y-141415000D03*
X190322500Y-142065000D03*
X190322500Y-142715000D03*
X190322500Y-143365000D03*
X190322500Y-144015000D03*
X190322500Y-144665000D03*
X190322500Y-145315000D03*
X190322500Y-145965000D03*
X196047500Y-145965000D03*
X196047500Y-145315000D03*
X196047500Y-144665000D03*
X196047500Y-144015000D03*
X196047500Y-143365000D03*
X196047500Y-142715000D03*
X196047500Y-142065000D03*
X196047500Y-141415000D03*
X196047500Y-140765000D03*
X196047500Y-140115000D03*
X196047500Y-139465000D03*
X196047500Y-138815000D03*
%TD*%
D15*
%TO.C,R37*%
X178285000Y-123290000D03*
X176460000Y-123290000D03*
%TD*%
D21*
%TO.C,C5*%
X213385000Y-171767500D03*
X213385000Y-173492500D03*
%TD*%
D31*
%TO.C,TVS5*%
X165085000Y-154690000D03*
X165085000Y-156790000D03*
%TD*%
D19*
%TO.C,mot2*%
X211285000Y-97790000D03*
D20*
X213785000Y-97790000D03*
X216285000Y-97790000D03*
X218785000Y-97790000D03*
%TD*%
D16*
%TO.C,BOB-1*%
X180697500Y-116977500D03*
X180697500Y-104277500D03*
X183237500Y-116977500D03*
X183237500Y-104277500D03*
X185777500Y-116977500D03*
X185777500Y-104277500D03*
X188317500Y-116977500D03*
X188317500Y-104277500D03*
X190857500Y-116977500D03*
X190857500Y-104277500D03*
X193397500Y-116977500D03*
X193397500Y-104277500D03*
X195937500Y-116977500D03*
X195937500Y-104277500D03*
X198477500Y-117017500D03*
X198477500Y-104277500D03*
X198477500Y-114477500D03*
X198477500Y-111937500D03*
%TD*%
D17*
%TO.C,R24*%
X178185000Y-130977500D03*
X178185000Y-129152500D03*
%TD*%
D14*
%TO.C,R27*%
X197885000Y-137477500D03*
X197885000Y-139302500D03*
%TD*%
D32*
%TO.C,F2*%
X237835000Y-126190000D03*
X233055000Y-126190000D03*
%TD*%
D22*
%TO.C,R42*%
X208972500Y-153800000D03*
X210797500Y-153800000D03*
%TD*%
D33*
%TO.C,L2*%
X240385000Y-149730000D03*
X240385000Y-152330000D03*
%TD*%
D31*
%TO.C,TVS8*%
X178485000Y-135890000D03*
X178485000Y-137990000D03*
%TD*%
D34*
%TO.C,PMOS1*%
X237810000Y-137105000D03*
D35*
X228660000Y-134565000D03*
D34*
X237810000Y-132025000D03*
%TD*%
D27*
%TO.C,FB2*%
X163285000Y-147465000D03*
X163285000Y-149215000D03*
%TD*%
D18*
%TO.C,C27*%
X218385000Y-110080000D03*
X210985000Y-110080000D03*
%TD*%
D24*
%TO.C,C12*%
X245083000Y-143142500D03*
X243358000Y-143142500D03*
%TD*%
D36*
%TO.C,U5*%
X242047500Y-156640000D03*
X242047500Y-157590000D03*
X242047500Y-158540000D03*
X244322500Y-158540000D03*
X244322500Y-157590000D03*
X244322500Y-156640000D03*
%TD*%
D37*
%TO.C,encoder0*%
X173403750Y-158490000D03*
D38*
X171403750Y-156890000D03*
D39*
X171403750Y-154390000D03*
X171403750Y-151890000D03*
X171403750Y-149390000D03*
X171403750Y-146890000D03*
X171403750Y-144390000D03*
%TD*%
D17*
%TO.C,R19*%
X213385000Y-162312500D03*
X213385000Y-160487500D03*
%TD*%
D15*
%TO.C,R2*%
X245097500Y-154990000D03*
X243272500Y-154990000D03*
%TD*%
D40*
%TO.C,USB1*%
X246725000Y-162065000D03*
X246725000Y-161215000D03*
X246725000Y-160365000D03*
X246725000Y-159515000D03*
X246725000Y-158665000D03*
X246725000Y-157815000D03*
X246725000Y-156965000D03*
X246725000Y-156115000D03*
X248075000Y-156115000D03*
X248075000Y-156965000D03*
X248075000Y-157815000D03*
X248075000Y-158665000D03*
X248075000Y-159515000D03*
X248075000Y-160365000D03*
X248075000Y-161215000D03*
X248075000Y-162065000D03*
D41*
X251085000Y-163415000D03*
X251085000Y-154765000D03*
D42*
X247705000Y-163415000D03*
X247705000Y-154765000D03*
%TD*%
D37*
%TO.C,encoder3*%
X160385000Y-139490000D03*
D38*
X158385000Y-137890000D03*
D39*
X158385000Y-135390000D03*
X158385000Y-132890000D03*
X158385000Y-130390000D03*
X158385000Y-127890000D03*
X158385000Y-125390000D03*
%TD*%
D43*
%TO.C,J5*%
X183985000Y-167390000D03*
D16*
X183985000Y-169930000D03*
X183985000Y-172470000D03*
%TD*%
D14*
%TO.C,R20*%
X176185000Y-155627500D03*
X176185000Y-157452500D03*
%TD*%
D22*
%TO.C,R7*%
X249672500Y-149152500D03*
X251497500Y-149152500D03*
%TD*%
D14*
%TO.C,R31*%
X163085000Y-154727500D03*
X163085000Y-156552500D03*
%TD*%
D44*
%TO.C,BOOT1*%
X177485000Y-172490000D03*
X171735000Y-172490000D03*
X177485000Y-168490000D03*
X171735000Y-168490000D03*
%TD*%
D14*
%TO.C,R17*%
X164916250Y-147377500D03*
X164916250Y-149202500D03*
%TD*%
D21*
%TO.C,C15*%
X240120000Y-141177500D03*
X240120000Y-142902500D03*
%TD*%
D23*
%TO.C,C24*%
X228422500Y-106090000D03*
X230147500Y-106090000D03*
%TD*%
D31*
%TO.C,TVS2*%
X178085000Y-155490000D03*
X178085000Y-157590000D03*
%TD*%
D45*
%TO.C,C14*%
X237385000Y-151892500D03*
X237385000Y-150167500D03*
%TD*%
D15*
%TO.C,R41*%
X164997500Y-123190000D03*
X163172500Y-123190000D03*
%TD*%
D21*
%TO.C,C7*%
X208780000Y-125802500D03*
X208780000Y-127527500D03*
%TD*%
D22*
%TO.C,R4*%
X176253750Y-158990000D03*
X178078750Y-158990000D03*
%TD*%
D15*
%TO.C,R13*%
X195797500Y-119490000D03*
X193972500Y-119490000D03*
%TD*%
D14*
%TO.C,R5*%
X177966250Y-148690000D03*
X177966250Y-150515000D03*
%TD*%
D16*
%TO.C,BOB-0*%
X158697500Y-116977500D03*
X158697500Y-104277500D03*
X161237500Y-116977500D03*
X161237500Y-104277500D03*
X163777500Y-116977500D03*
X163777500Y-104277500D03*
X166317500Y-116977500D03*
X166317500Y-104277500D03*
X168857500Y-116977500D03*
X168857500Y-104277500D03*
X171397500Y-116977500D03*
X171397500Y-104277500D03*
X173937500Y-116977500D03*
X173937500Y-104277500D03*
X176477500Y-117017500D03*
X176477500Y-104277500D03*
X176477500Y-114477500D03*
X176477500Y-111937500D03*
%TD*%
D46*
%TO.C,D3*%
X231335000Y-142052500D03*
X229435000Y-142052500D03*
X230385000Y-143927500D03*
%TD*%
D43*
%TO.C,fan1*%
X250885000Y-122230000D03*
D16*
X248345000Y-122230000D03*
%TD*%
D15*
%TO.C,R29*%
X178178750Y-147090000D03*
X176353750Y-147090000D03*
%TD*%
D25*
%TO.C,TVS12*%
X162985000Y-124990000D03*
X165085000Y-124990000D03*
%TD*%
D14*
%TO.C,R43*%
X251135000Y-137330000D03*
X251135000Y-139155000D03*
%TD*%
%TO.C,R39*%
X163285000Y-135727500D03*
X163285000Y-137552500D03*
%TD*%
D15*
%TO.C,R38*%
X164897500Y-126790000D03*
X163072500Y-126790000D03*
%TD*%
D45*
%TO.C,C10*%
X234735000Y-148942500D03*
X234735000Y-147217500D03*
%TD*%
D37*
%TO.C,encoder2*%
X173485000Y-139290000D03*
D38*
X171485000Y-137690000D03*
D39*
X171485000Y-135190000D03*
X171485000Y-132690000D03*
X171485000Y-130190000D03*
X171485000Y-127690000D03*
X171485000Y-125190000D03*
%TD*%
D23*
%TO.C,C23*%
X206522500Y-106090000D03*
X208247500Y-106090000D03*
%TD*%
D21*
%TO.C,C11*%
X243385000Y-147667500D03*
X243385000Y-149392500D03*
%TD*%
D26*
%TO.C,TVS7*%
X178485000Y-134490000D03*
X178485000Y-132390000D03*
%TD*%
D27*
%TO.C,FB1*%
X176185000Y-148715000D03*
X176185000Y-150465000D03*
%TD*%
D47*
%TO.C,U2*%
X243135000Y-172190000D03*
X243135000Y-169890000D03*
D48*
X236835000Y-169890000D03*
D47*
X243135000Y-167590000D03*
%TD*%
D23*
%TO.C,C8*%
X233295500Y-144042500D03*
X235020500Y-144042500D03*
%TD*%
D15*
%TO.C,R8*%
X235020500Y-145642500D03*
X233195500Y-145642500D03*
%TD*%
%TO.C,R15*%
X243497500Y-119190000D03*
X241672500Y-119190000D03*
%TD*%
D26*
%TO.C,TVS4*%
X165085000Y-153240000D03*
X165085000Y-151140000D03*
%TD*%
D25*
%TO.C,TVS9*%
X176285000Y-125590000D03*
X178385000Y-125590000D03*
%TD*%
D49*
%TO.C,U4*%
X207225000Y-122190000D03*
X205955000Y-122190000D03*
X204685000Y-122190000D03*
X203415000Y-122190000D03*
X202145000Y-122190000D03*
X200875000Y-122190000D03*
X199605000Y-122190000D03*
X198335000Y-122190000D03*
X198335000Y-127140000D03*
X199605000Y-127140000D03*
X200875000Y-127140000D03*
X202145000Y-127140000D03*
X203415000Y-127140000D03*
X204685000Y-127140000D03*
X205955000Y-127140000D03*
X207225000Y-127140000D03*
%TD*%
D45*
%TO.C,C16*%
X214985000Y-173492500D03*
X214985000Y-171767500D03*
%TD*%
D43*
%TO.C,J1*%
X226185000Y-172590000D03*
D16*
X223645000Y-172590000D03*
%TD*%
D15*
%TO.C,R33*%
X164997500Y-141990000D03*
X163172500Y-141990000D03*
%TD*%
%TO.C,R25*%
X165097500Y-139690000D03*
X163272500Y-139690000D03*
%TD*%
D18*
%TO.C,C25*%
X170385000Y-110490000D03*
X162985000Y-110490000D03*
%TD*%
D16*
%TO.C,BOB-3*%
X228197500Y-116777500D03*
X228197500Y-104077500D03*
X230737500Y-116777500D03*
X230737500Y-104077500D03*
X233277500Y-116777500D03*
X233277500Y-104077500D03*
X235817500Y-116777500D03*
X235817500Y-104077500D03*
X238357500Y-116777500D03*
X238357500Y-104077500D03*
X240897500Y-116777500D03*
X240897500Y-104077500D03*
X243437500Y-116777500D03*
X243437500Y-104077500D03*
X245977500Y-116817500D03*
X245977500Y-104077500D03*
X245977500Y-114277500D03*
X245977500Y-111737500D03*
%TD*%
D50*
%TO.C,LED1*%
X249335000Y-152552500D03*
X251385000Y-152552500D03*
%TD*%
D27*
%TO.C,FB3*%
X176585000Y-129190000D03*
X176585000Y-130940000D03*
%TD*%
D19*
%TO.C,mot0*%
X163585000Y-97830000D03*
D20*
X166085000Y-97830000D03*
X168585000Y-97830000D03*
X171085000Y-97830000D03*
%TD*%
D43*
%TO.C,J6*%
X242585000Y-138390000D03*
D16*
X245125000Y-138390000D03*
X247665000Y-138390000D03*
%TD*%
D51*
%TO.C,NPN1*%
X249135000Y-143080000D03*
X247235000Y-143080000D03*
X248185000Y-146500000D03*
%TD*%
D31*
%TO.C,TVS11*%
X165385000Y-135590000D03*
X165385000Y-137690000D03*
%TD*%
D14*
%TO.C,R35*%
X176385000Y-136127500D03*
X176385000Y-137952500D03*
%TD*%
D22*
%TO.C,R14*%
X219172500Y-119290000D03*
X220997500Y-119290000D03*
%TD*%
D19*
%TO.C,mot3*%
X233185000Y-97830000D03*
D20*
X235685000Y-97830000D03*
X238185000Y-97830000D03*
X240685000Y-97830000D03*
%TD*%
D37*
%TO.C,encoder1*%
X160310000Y-158240000D03*
D38*
X158310000Y-156640000D03*
D39*
X158310000Y-154140000D03*
X158310000Y-151640000D03*
X158310000Y-149140000D03*
X158310000Y-146640000D03*
X158310000Y-144140000D03*
%TD*%
D15*
%TO.C,R16*%
X239985000Y-119190000D03*
X238160000Y-119190000D03*
%TD*%
D52*
%TO.C,D2*%
X236955000Y-162730000D03*
X236955000Y-164030000D03*
X239615000Y-163380000D03*
%TD*%
D23*
%TO.C,C21*%
X158922500Y-106190000D03*
X160647500Y-106190000D03*
%TD*%
D14*
%TO.C,R18*%
X226735000Y-141517500D03*
X226735000Y-143342500D03*
%TD*%
D17*
%TO.C,R26*%
X164985000Y-130402500D03*
X164985000Y-128577500D03*
%TD*%
D15*
%TO.C,R30*%
X164997500Y-145690000D03*
X163172500Y-145690000D03*
%TD*%
D26*
%TO.C,TVS1*%
X178085000Y-153990000D03*
X178085000Y-151890000D03*
%TD*%
D18*
%TO.C,C26*%
X193285000Y-110590000D03*
X185885000Y-110590000D03*
%TD*%
D53*
%TO.C,U1*%
X211485000Y-173470000D03*
X211485000Y-172200000D03*
X211485000Y-170930000D03*
X211485000Y-169660000D03*
X211485000Y-168390000D03*
X211485000Y-167120000D03*
X211485000Y-165850000D03*
X211485000Y-164580000D03*
X211485000Y-163310000D03*
X211485000Y-162040000D03*
X211485000Y-160770000D03*
X211485000Y-159500000D03*
X211485000Y-158230000D03*
X211485000Y-156960000D03*
D54*
X209720000Y-155710000D03*
X208450000Y-155710000D03*
X207180000Y-155710000D03*
X205910000Y-155710000D03*
X204640000Y-155710000D03*
X203370000Y-155710000D03*
X202100000Y-155710000D03*
X200830000Y-155710000D03*
X199560000Y-155710000D03*
X198290000Y-155710000D03*
X197020000Y-155710000D03*
X195750000Y-155710000D03*
D53*
X193985000Y-156960000D03*
X193985000Y-158230000D03*
X193985000Y-159500000D03*
X193985000Y-160770000D03*
X193985000Y-162040000D03*
X193985000Y-163310000D03*
X193985000Y-164580000D03*
X193985000Y-165850000D03*
X193985000Y-167120000D03*
X193985000Y-168390000D03*
X193985000Y-169660000D03*
X193985000Y-170930000D03*
X193985000Y-172200000D03*
X193985000Y-173470000D03*
D55*
X205595000Y-169620000D03*
D56*
X205595000Y-168870000D03*
D55*
X205595000Y-168120000D03*
D56*
X205595000Y-167370000D03*
D55*
X205595000Y-166620000D03*
D56*
X204845000Y-169620000D03*
X204845000Y-168120000D03*
X204845000Y-166620000D03*
D55*
X204095000Y-169620000D03*
D56*
X204095000Y-168870000D03*
D55*
X204095000Y-168120000D03*
D56*
X204095000Y-167370000D03*
D55*
X204095000Y-166620000D03*
D56*
X203345000Y-169620000D03*
X203345000Y-168120000D03*
X203345000Y-166620000D03*
D55*
X202595000Y-169620000D03*
D56*
X202595000Y-168870000D03*
D55*
X202595000Y-168120000D03*
D56*
X202595000Y-167370000D03*
D55*
X202595000Y-166620000D03*
%TD*%
D23*
%TO.C,C2*%
X243222500Y-160190000D03*
X244947500Y-160190000D03*
%TD*%
D24*
%TO.C,C4*%
X242347500Y-165480000D03*
X240622500Y-165480000D03*
%TD*%
D23*
%TO.C,C13*%
X243222500Y-146390000D03*
X244947500Y-146390000D03*
%TD*%
D15*
%TO.C,R22*%
X178197500Y-142940000D03*
X176372500Y-142940000D03*
%TD*%
D43*
%TO.C,J4*%
X183985000Y-162390000D03*
%TD*%
D57*
%TO.C,U3*%
X236920000Y-144340000D03*
X236920000Y-144840000D03*
X236920000Y-145340000D03*
X236920000Y-145840000D03*
X236920000Y-146340000D03*
X236920000Y-146840000D03*
X236920000Y-147340000D03*
X236920000Y-147840000D03*
X241220000Y-147840000D03*
X241220000Y-147340000D03*
X241220000Y-146840000D03*
X241220000Y-146340000D03*
X241220000Y-145840000D03*
X241220000Y-145340000D03*
X241220000Y-144840000D03*
X241220000Y-144340000D03*
D58*
X239070000Y-146090000D03*
%TD*%
M02*
