%TF.GenerationSoftware,KiCad,Pcbnew,10.0.4-10.0.4~ubuntu24.04.1*%
%TF.CreationDate,2026-07-20T13:26:44+02:00*%
%TF.ProjectId,esp32stepper,65737033-3273-4746-9570-7065722e6b69,rev?*%
%TF.SameCoordinates,Original*%
%TF.FileFunction,Copper,L1,Top*%
%TF.FilePolarity,Positive*%
%FSLAX46Y46*%
G04 Gerber Fmt 4.6, Leading zero omitted, Abs format (unit mm)*
G04 Created by KiCad (PCBNEW 10.0.4-10.0.4~ubuntu24.04.1) date 2026-07-20 13:26:44*
%MOMM*%
%LPD*%
G01*
G04 APERTURE LIST*
G04 Aperture macros list*
%AMRoundRect*
0 Rectangle with rounded corners*
0 $1 Rounding radius*
0 $2 $3 $4 $5 $6 $7 $8 $9 X,Y pos of 4 corners*
0 Add a 4 corners polygon primitive as box body*
4,1,4,$2,$3,$4,$5,$6,$7,$8,$9,$2,$3,0*
0 Add four circle primitives for the rounded corners*
1,1,$1+$1,$2,$3*
1,1,$1+$1,$4,$5*
1,1,$1+$1,$6,$7*
1,1,$1+$1,$8,$9*
0 Add four rect primitives between the rounded corners*
20,1,$1+$1,$2,$3,$4,$5,0*
20,1,$1+$1,$4,$5,$6,$7,0*
20,1,$1+$1,$6,$7,$8,$9,0*
20,1,$1+$1,$8,$9,$2,$3,0*%
G04 Aperture macros list end*
%TA.AperFunction,ComponentPad*%
%ADD10C,5.600000*%
%TD*%
%TA.AperFunction,ComponentPad*%
%ADD11R,1.800000X4.400000*%
%TD*%
%TA.AperFunction,ComponentPad*%
%ADD12O,1.800000X4.000000*%
%TD*%
%TA.AperFunction,ComponentPad*%
%ADD13O,4.000000X1.800000*%
%TD*%
%TA.AperFunction,SMDPad,CuDef*%
%ADD14RoundRect,0.237500X-0.237500X0.250000X-0.237500X-0.250000X0.237500X-0.250000X0.237500X0.250000X0*%
%TD*%
%TA.AperFunction,SMDPad,CuDef*%
%ADD15RoundRect,0.237500X0.250000X0.237500X-0.250000X0.237500X-0.250000X-0.237500X0.250000X-0.237500X0*%
%TD*%
%TA.AperFunction,ComponentPad*%
%ADD16C,1.700000*%
%TD*%
%TA.AperFunction,SMDPad,CuDef*%
%ADD17RoundRect,0.237500X0.237500X-0.250000X0.237500X0.250000X-0.237500X0.250000X-0.237500X-0.250000X0*%
%TD*%
%TA.AperFunction,SMDPad,CuDef*%
%ADD18RoundRect,0.250000X1.950000X1.000000X-1.950000X1.000000X-1.950000X-1.000000X1.950000X-1.000000X0*%
%TD*%
%TA.AperFunction,ComponentPad*%
%ADD19RoundRect,0.250000X-0.600000X-0.725000X0.600000X-0.725000X0.600000X0.725000X-0.600000X0.725000X0*%
%TD*%
%TA.AperFunction,ComponentPad*%
%ADD20O,1.700000X1.950000*%
%TD*%
%TA.AperFunction,SMDPad,CuDef*%
%ADD21RoundRect,0.237500X-0.237500X0.300000X-0.237500X-0.300000X0.237500X-0.300000X0.237500X0.300000X0*%
%TD*%
%TA.AperFunction,SMDPad,CuDef*%
%ADD22RoundRect,0.237500X-0.250000X-0.237500X0.250000X-0.237500X0.250000X0.237500X-0.250000X0.237500X0*%
%TD*%
%TA.AperFunction,SMDPad,CuDef*%
%ADD23RoundRect,0.237500X-0.300000X-0.237500X0.300000X-0.237500X0.300000X0.237500X-0.300000X0.237500X0*%
%TD*%
%TA.AperFunction,SMDPad,CuDef*%
%ADD24RoundRect,0.237500X0.300000X0.237500X-0.300000X0.237500X-0.300000X-0.237500X0.300000X-0.237500X0*%
%TD*%
%TA.AperFunction,SMDPad,CuDef*%
%ADD25RoundRect,0.112500X-0.187500X-0.112500X0.187500X-0.112500X0.187500X0.112500X-0.187500X0.112500X0*%
%TD*%
%TA.AperFunction,SMDPad,CuDef*%
%ADD26RoundRect,0.112500X0.112500X-0.187500X0.112500X0.187500X-0.112500X0.187500X-0.112500X-0.187500X0*%
%TD*%
%TA.AperFunction,SMDPad,CuDef*%
%ADD27RoundRect,0.237500X-0.237500X0.287500X-0.237500X-0.287500X0.237500X-0.287500X0.237500X0.287500X0*%
%TD*%
%TA.AperFunction,SMDPad,CuDef*%
%ADD28RoundRect,0.162500X-0.162500X0.447500X-0.162500X-0.447500X0.162500X-0.447500X0.162500X0.447500X0*%
%TD*%
%TA.AperFunction,SMDPad,CuDef*%
%ADD29RoundRect,0.250000X0.475000X-0.337500X0.475000X0.337500X-0.475000X0.337500X-0.475000X-0.337500X0*%
%TD*%
%TA.AperFunction,SMDPad,CuDef*%
%ADD30RoundRect,0.100000X-0.637500X-0.100000X0.637500X-0.100000X0.637500X0.100000X-0.637500X0.100000X0*%
%TD*%
%TA.AperFunction,SMDPad,CuDef*%
%ADD31RoundRect,0.112500X-0.112500X0.187500X-0.112500X-0.187500X0.112500X-0.187500X0.112500X0.187500X0*%
%TD*%
%TA.AperFunction,SMDPad,CuDef*%
%ADD32R,1.680000X3.150000*%
%TD*%
%TA.AperFunction,SMDPad,CuDef*%
%ADD33R,1.800000X1.100000*%
%TD*%
%TA.AperFunction,SMDPad,CuDef*%
%ADD34RoundRect,0.250000X2.050000X0.300000X-2.050000X0.300000X-2.050000X-0.300000X2.050000X-0.300000X0*%
%TD*%
%TA.AperFunction,SMDPad,CuDef*%
%ADD35RoundRect,0.250002X4.449998X5.149998X-4.449998X5.149998X-4.449998X-5.149998X4.449998X-5.149998X0*%
%TD*%
%TA.AperFunction,SMDPad,CuDef*%
%ADD36RoundRect,0.150000X-0.512500X-0.150000X0.512500X-0.150000X0.512500X0.150000X-0.512500X0.150000X0*%
%TD*%
%TA.AperFunction,ComponentPad*%
%ADD37RoundRect,0.250000X0.725000X-0.600000X0.725000X0.600000X-0.725000X0.600000X-0.725000X-0.600000X0*%
%TD*%
%TA.AperFunction,ComponentPad*%
%ADD38O,1.950000X1.700000*%
%TD*%
%TA.AperFunction,ComponentPad*%
%ADD39C,0.650000*%
%TD*%
%TA.AperFunction,ComponentPad*%
%ADD40O,1.700000X0.900000*%
%TD*%
%TA.AperFunction,ComponentPad*%
%ADD41O,2.400000X0.900000*%
%TD*%
%TA.AperFunction,ComponentPad*%
%ADD42R,1.700000X1.700000*%
%TD*%
%TA.AperFunction,SMDPad,CuDef*%
%ADD43R,2.750000X1.000000*%
%TD*%
%TA.AperFunction,SMDPad,CuDef*%
%ADD44RoundRect,0.237500X0.237500X-0.300000X0.237500X0.300000X-0.237500X0.300000X-0.237500X-0.300000X0*%
%TD*%
%TA.AperFunction,SMDPad,CuDef*%
%ADD45RoundRect,0.150000X-0.150000X0.587500X-0.150000X-0.587500X0.150000X-0.587500X0.150000X0.587500X0*%
%TD*%
%TA.AperFunction,SMDPad,CuDef*%
%ADD46RoundRect,0.375000X0.625000X0.375000X-0.625000X0.375000X-0.625000X-0.375000X0.625000X-0.375000X0*%
%TD*%
%TA.AperFunction,SMDPad,CuDef*%
%ADD47RoundRect,0.500000X0.500000X1.400000X-0.500000X1.400000X-0.500000X-1.400000X0.500000X-1.400000X0*%
%TD*%
%TA.AperFunction,SMDPad,CuDef*%
%ADD48RoundRect,0.150000X-0.150000X0.825000X-0.150000X-0.825000X0.150000X-0.825000X0.150000X0.825000X0*%
%TD*%
%TA.AperFunction,SMDPad,CuDef*%
%ADD49RoundRect,0.250000X-0.325000X-0.450000X0.325000X-0.450000X0.325000X0.450000X-0.325000X0.450000X0*%
%TD*%
%TA.AperFunction,SMDPad,CuDef*%
%ADD50RoundRect,0.162500X-0.162500X0.837500X-0.162500X-0.837500X0.162500X-0.837500X0.162500X0.837500X0*%
%TD*%
%TA.AperFunction,SMDPad,CuDef*%
%ADD51RoundRect,0.112500X-0.637500X0.112500X-0.637500X-0.112500X0.637500X-0.112500X0.637500X0.112500X0*%
%TD*%
%TA.AperFunction,SMDPad,CuDef*%
%ADD52R,1.500000X0.900000*%
%TD*%
%TA.AperFunction,SMDPad,CuDef*%
%ADD53R,0.900000X1.500000*%
%TD*%
%TA.AperFunction,HeatsinkPad*%
%ADD54R,1.000000X1.000000*%
%TD*%
%TA.AperFunction,HeatsinkPad*%
%ADD55C,0.600000*%
%TD*%
%TA.AperFunction,SMDPad,CuDef*%
%ADD56RoundRect,0.075000X-0.650000X-0.075000X0.650000X-0.075000X0.650000X0.075000X-0.650000X0.075000X0*%
%TD*%
%TA.AperFunction,HeatsinkPad*%
%ADD57C,0.550000*%
%TD*%
%TA.AperFunction,HeatsinkPad*%
%ADD58R,1.651000X2.845000*%
%TD*%
%TA.AperFunction,ViaPad*%
%ADD59C,0.600000*%
%TD*%
%TA.AperFunction,Conductor*%
%ADD60C,0.200000*%
%TD*%
%TA.AperFunction,Conductor*%
%ADD61C,0.800000*%
%TD*%
%TA.AperFunction,Conductor*%
%ADD62C,0.500000*%
%TD*%
%TA.AperFunction,Conductor*%
%ADD63C,0.900000*%
%TD*%
%TA.AperFunction,Conductor*%
%ADD64C,0.250000*%
%TD*%
%TA.AperFunction,Conductor*%
%ADD65C,0.300000*%
%TD*%
%TA.AperFunction,Conductor*%
%ADD66C,2.200000*%
%TD*%
%TA.AperFunction,Conductor*%
%ADD67C,1.200000*%
%TD*%
%TA.AperFunction,Conductor*%
%ADD68C,2.000000*%
%TD*%
G04 APERTURE END LIST*
D10*
%TO.P,H8,1,1_1*%
%TO.N,unconnected-(H8-Pad1)*%
X248885000Y-99030000D03*
%TD*%
%TO.P,H7,1,1_1*%
%TO.N,unconnected-(H7-Pad1)*%
X156885000Y-99030000D03*
%TD*%
%TO.P,H6,1,1_1*%
%TO.N,unconnected-(H6-Pad1)*%
X248885000Y-170530000D03*
%TD*%
%TO.P,H5,1,1_1*%
%TO.N,unconnected-(H5-Pad1)*%
X156885000Y-170530000D03*
%TD*%
D11*
%TO.P,J2,1*%
%TO.N,24Vin*%
X241885000Y-130987500D03*
D12*
%TO.P,J2,2*%
%TO.N,Net-(J2-Pad2)*%
X247685000Y-130987500D03*
D13*
%TO.P,J2,3*%
%TO.N,GND*%
X244885000Y-126187500D03*
%TD*%
D14*
%TO.P,R21,1*%
%TO.N,encoder0_SD*%
X176185000Y-152027500D03*
%TO.P,R21,2*%
%TO.N,Net-(encoder0-Pin_2)*%
X176185000Y-153852500D03*
%TD*%
D15*
%TO.P,R28,1*%
%TO.N,SDA*%
X194597500Y-147390000D03*
%TO.P,R28,2*%
%TO.N,+3V3*%
X192772500Y-147390000D03*
%TD*%
D16*
%TO.P,BOB-2,1,DIR_1*%
%TO.N,dir2*%
X206297500Y-116777500D03*
%TO.P,BOB-2,2,GND_2*%
%TO.N,GND*%
X206297500Y-104077500D03*
%TO.P,BOB-2,3,STEP_3*%
%TO.N,step2*%
X208837500Y-116777500D03*
%TO.P,BOB-2,4,VIO_4*%
%TO.N,+3V3*%
X208837500Y-104077500D03*
%TO.P,BOB-2,5,PDN_5*%
%TO.N,unconnected-(BOB-2-PDN-Pad5)*%
X211377500Y-116777500D03*
%TO.P,BOB-2,6,M1B_6*%
%TO.N,mot2.B1*%
X211377500Y-104077500D03*
%TO.P,BOB-2,7,UART_7*%
%TO.N,UART*%
X213917500Y-116777500D03*
%TO.P,BOB-2,8,M1A_8*%
%TO.N,mot2.A1*%
X213917500Y-104077500D03*
%TO.P,BOB-2,9,SPRD_9*%
%TO.N,unconnected-(BOB-2-SPRD-Pad9)*%
X216457500Y-116777500D03*
%TO.P,BOB-2,10,M2A_10*%
%TO.N,mot2.A2*%
X216457500Y-104077500D03*
%TO.P,BOB-2,11,MS2_11*%
%TO.N,/mot2/MS2*%
X218997500Y-116777500D03*
%TO.P,BOB-2,12,M2B_12*%
%TO.N,mot2.B2*%
X218997500Y-104077500D03*
%TO.P,BOB-2,13,MS1_13*%
%TO.N,/mot2/MS1*%
X221537500Y-116777500D03*
%TO.P,BOB-2,14,GND_14*%
%TO.N,GND*%
X221537500Y-104077500D03*
%TO.P,BOB-2,15,EN_15*%
%TO.N,en2*%
X224077500Y-116817500D03*
%TO.P,BOB-2,16,+VM_16*%
%TO.N,Net-(BOB-2-+VM)*%
X224077500Y-104077500D03*
%TO.P,BOB-2,17,Index_17*%
%TO.N,unconnected-(BOB-2-Index-Pad17)*%
X224077500Y-114277500D03*
%TO.P,BOB-2,18,DIAG_18*%
%TO.N,unconnected-(BOB-2-DIAG-Pad18)*%
X224077500Y-111737500D03*
%TD*%
D17*
%TO.P,R9,1*%
%TO.N,Net-(U3-FB)*%
X241720500Y-143155000D03*
%TO.P,R9,2*%
%TO.N,GND*%
X241720500Y-141330000D03*
%TD*%
D15*
%TO.P,R1,1*%
%TO.N,GND*%
X244997500Y-163390000D03*
%TO.P,R1,2*%
%TO.N,Net-(USB1-CC1)*%
X243172500Y-163390000D03*
%TD*%
D18*
%TO.P,C28,1*%
%TO.N,Net-(BOB-3-+VM)*%
X240485000Y-110390000D03*
%TO.P,C28,2*%
%TO.N,GND*%
X233085000Y-110390000D03*
%TD*%
D14*
%TO.P,R36,1*%
%TO.N,encoder2_SD*%
X176385000Y-132627500D03*
%TO.P,R36,2*%
%TO.N,Net-(encoder2-Pin_2)*%
X176385000Y-134452500D03*
%TD*%
D19*
%TO.P,mot1,1,Pin_1_1*%
%TO.N,mot1.B1*%
X185585000Y-97830000D03*
D20*
%TO.P,mot1,2,Pin_2_2*%
%TO.N,mot1.A1*%
X188085000Y-97830000D03*
%TO.P,mot1,3,Pin_3_3*%
%TO.N,mot1.A2*%
X190585000Y-97830000D03*
%TO.P,mot1,4,Pin_4_4*%
%TO.N,mot1.B2*%
X193085000Y-97830000D03*
%TD*%
D21*
%TO.P,C1,1*%
%TO.N,reset*%
X217285000Y-171837500D03*
%TO.P,C1,2*%
%TO.N,GND*%
X217285000Y-173562500D03*
%TD*%
D14*
%TO.P,R32,1*%
%TO.N,encoder1_SD*%
X163085000Y-151127500D03*
%TO.P,R32,2*%
%TO.N,Net-(encoder1-Pin_2)*%
X163085000Y-152952500D03*
%TD*%
D22*
%TO.P,R11,1*%
%TO.N,+3V3*%
X190075000Y-137434000D03*
%TO.P,R11,2*%
%TO.N,Net-(U6-~{RESET})*%
X191900000Y-137434000D03*
%TD*%
D15*
%TO.P,R34,1*%
%TO.N,endswitch2*%
X178397500Y-127565000D03*
%TO.P,R34,2*%
%TO.N,+3V3*%
X176572500Y-127565000D03*
%TD*%
D22*
%TO.P,R10,1*%
%TO.N,Net-(U3-FB)*%
X242995500Y-144642500D03*
%TO.P,R10,2*%
%TO.N,+3V3*%
X244820500Y-144642500D03*
%TD*%
D23*
%TO.P,C3,1*%
%TO.N,/CONN/VO_USB_LDO*%
X236872500Y-165480000D03*
%TO.P,C3,2*%
%TO.N,GND*%
X238597500Y-165480000D03*
%TD*%
D24*
%TO.P,C6,1*%
%TO.N,+3V3*%
X196250000Y-137434000D03*
%TO.P,C6,2*%
%TO.N,GND*%
X194525000Y-137434000D03*
%TD*%
D25*
%TO.P,TVS3,1,A1_1*%
%TO.N,GND*%
X176235000Y-145340000D03*
%TO.P,TVS3,2,A2_2*%
%TO.N,endswitch0*%
X178335000Y-145340000D03*
%TD*%
D26*
%TO.P,TVS10,1,A1_1*%
%TO.N,GND*%
X165385000Y-134190000D03*
%TO.P,TVS10,2,A2_2*%
%TO.N,encoder3_SD*%
X165385000Y-132090000D03*
%TD*%
D22*
%TO.P,R12,1*%
%TO.N,+3V3*%
X249635000Y-150752500D03*
%TO.P,R12,2*%
%TO.N,Net-(LED1-A)*%
X251460000Y-150752500D03*
%TD*%
D23*
%TO.P,C22,1*%
%TO.N,GND*%
X181022500Y-106190000D03*
%TO.P,C22,2*%
%TO.N,+3V3*%
X182747500Y-106190000D03*
%TD*%
D27*
%TO.P,FB4,1*%
%TO.N,+3V3*%
X163285000Y-128665000D03*
%TO.P,FB4,2*%
%TO.N,Net-(encoder3-Pin_3)*%
X163285000Y-130415000D03*
%TD*%
D28*
%TO.P,TVS0,1,K_1*%
%TO.N,24V*%
X230335000Y-125290000D03*
%TO.P,TVS0,2,A_2*%
%TO.N,GND*%
X228435000Y-125290000D03*
%TO.P,TVS0,3*%
%TO.N,N/C*%
X229385000Y-127910000D03*
%TD*%
D25*
%TO.P,TVS6,1,A1_1*%
%TO.N,GND*%
X163035000Y-143790000D03*
%TO.P,TVS6,2,A2_2*%
%TO.N,endswitch1*%
X165135000Y-143790000D03*
%TD*%
D22*
%TO.P,R6,1*%
%TO.N,+3V3*%
X163203750Y-158290000D03*
%TO.P,R6,2*%
%TO.N,encoder1_SC*%
X165028750Y-158290000D03*
%TD*%
D29*
%TO.P,C9,1*%
%TO.N,GND*%
X232885000Y-149367500D03*
%TO.P,C9,2*%
%TO.N,24V*%
X232885000Y-147292500D03*
%TD*%
D17*
%TO.P,R3,1*%
%TO.N,+3V3*%
X218885000Y-173612500D03*
%TO.P,R3,2*%
%TO.N,reset*%
X218885000Y-171787500D03*
%TD*%
D14*
%TO.P,R40,1*%
%TO.N,encoder3_SD*%
X163285000Y-132227500D03*
%TO.P,R40,2*%
%TO.N,Net-(encoder3-Pin_2)*%
X163285000Y-134052500D03*
%TD*%
D22*
%TO.P,R23,1*%
%TO.N,+3V3*%
X176472500Y-139727500D03*
%TO.P,R23,2*%
%TO.N,encoder2_SC*%
X178297500Y-139727500D03*
%TD*%
D30*
%TO.P,U6,1,A0_1*%
%TO.N,GND*%
X190322500Y-138815000D03*
%TO.P,U6,2,A1_2*%
X190322500Y-139465000D03*
%TO.P,U6,3,~{RESET}_3*%
%TO.N,Net-(U6-~{RESET})*%
X190322500Y-140115000D03*
%TO.P,U6,4,SD0_4*%
%TO.N,encoder0_SD*%
X190322500Y-140765000D03*
%TO.P,U6,5,SC0_5*%
%TO.N,encoder0_SC*%
X190322500Y-141415000D03*
%TO.P,U6,6,SD1_6*%
%TO.N,encoder1_SD*%
X190322500Y-142065000D03*
%TO.P,U6,7,SC1_7*%
%TO.N,encoder1_SC*%
X190322500Y-142715000D03*
%TO.P,U6,8,SD2_8*%
%TO.N,encoder2_SD*%
X190322500Y-143365000D03*
%TO.P,U6,9,SC2_9*%
%TO.N,encoder2_SC*%
X190322500Y-144015000D03*
%TO.P,U6,10,SD3_10*%
%TO.N,encoder3_SD*%
X190322500Y-144665000D03*
%TO.P,U6,11,SC3_11*%
%TO.N,encoder3_SC*%
X190322500Y-145315000D03*
%TO.P,U6,12,GND_12*%
%TO.N,GND*%
X190322500Y-145965000D03*
%TO.P,U6,13,SD4_13*%
%TO.N,unconnected-(U6-SD4-Pad13)*%
X196047500Y-145965000D03*
%TO.P,U6,14,SC4_14*%
%TO.N,unconnected-(U6-SC4-Pad14)*%
X196047500Y-145315000D03*
%TO.P,U6,15,SD5_15*%
%TO.N,unconnected-(U6-SD5-Pad15)*%
X196047500Y-144665000D03*
%TO.P,U6,16,SC5_16*%
%TO.N,unconnected-(U6-SC5-Pad16)*%
X196047500Y-144015000D03*
%TO.P,U6,17,SD6_17*%
%TO.N,unconnected-(U6-SD6-Pad17)*%
X196047500Y-143365000D03*
%TO.P,U6,18,SC6_18*%
%TO.N,unconnected-(U6-SC6-Pad18)*%
X196047500Y-142715000D03*
%TO.P,U6,19,SD7_19*%
%TO.N,unconnected-(U6-SD7-Pad19)*%
X196047500Y-142065000D03*
%TO.P,U6,20,SC7_20*%
%TO.N,unconnected-(U6-SC7-Pad20)*%
X196047500Y-141415000D03*
%TO.P,U6,21,A2_21*%
%TO.N,GND*%
X196047500Y-140765000D03*
%TO.P,U6,22,SCL_22*%
%TO.N,SCL*%
X196047500Y-140115000D03*
%TO.P,U6,23,SDA_23*%
%TO.N,SDA*%
X196047500Y-139465000D03*
%TO.P,U6,24,VCC_24*%
%TO.N,+3V3*%
X196047500Y-138815000D03*
%TD*%
D15*
%TO.P,R37,1*%
%TO.N,endswitch2*%
X178285000Y-123290000D03*
%TO.P,R37,2*%
%TO.N,Net-(encoder2-Pin_6)*%
X176460000Y-123290000D03*
%TD*%
D21*
%TO.P,C5,1*%
%TO.N,+3V3*%
X213385000Y-171767500D03*
%TO.P,C5,2*%
%TO.N,GND*%
X213385000Y-173492500D03*
%TD*%
D31*
%TO.P,TVS5,1,A1_1*%
%TO.N,GND*%
X165085000Y-154690000D03*
%TO.P,TVS5,2,A2_2*%
%TO.N,encoder1_SC*%
X165085000Y-156790000D03*
%TD*%
D19*
%TO.P,mot2,1,Pin_1_1*%
%TO.N,mot2.B1*%
X211285000Y-97790000D03*
D20*
%TO.P,mot2,2,Pin_2_2*%
%TO.N,mot2.A1*%
X213785000Y-97790000D03*
%TO.P,mot2,3,Pin_3_3*%
%TO.N,mot2.A2*%
X216285000Y-97790000D03*
%TO.P,mot2,4,Pin_4_4*%
%TO.N,mot2.B2*%
X218785000Y-97790000D03*
%TD*%
D16*
%TO.P,BOB-1,1,DIR_1*%
%TO.N,dir1*%
X180697500Y-116977500D03*
%TO.P,BOB-1,2,GND_2*%
%TO.N,GND*%
X180697500Y-104277500D03*
%TO.P,BOB-1,3,STEP_3*%
%TO.N,step1*%
X183237500Y-116977500D03*
%TO.P,BOB-1,4,VIO_4*%
%TO.N,+3V3*%
X183237500Y-104277500D03*
%TO.P,BOB-1,5,PDN_5*%
%TO.N,unconnected-(BOB-1-PDN-Pad5)*%
X185777500Y-116977500D03*
%TO.P,BOB-1,6,M1B_6*%
%TO.N,mot1.B1*%
X185777500Y-104277500D03*
%TO.P,BOB-1,7,UART_7*%
%TO.N,UART*%
X188317500Y-116977500D03*
%TO.P,BOB-1,8,M1A_8*%
%TO.N,mot1.A1*%
X188317500Y-104277500D03*
%TO.P,BOB-1,9,SPRD_9*%
%TO.N,unconnected-(BOB-1-SPRD-Pad9)*%
X190857500Y-116977500D03*
%TO.P,BOB-1,10,M2A_10*%
%TO.N,mot1.A2*%
X190857500Y-104277500D03*
%TO.P,BOB-1,11,MS2_11*%
%TO.N,/mot1/MS2*%
X193397500Y-116977500D03*
%TO.P,BOB-1,12,M2B_12*%
%TO.N,mot1.B2*%
X193397500Y-104277500D03*
%TO.P,BOB-1,13,MS1_13*%
%TO.N,/mot1/MS1*%
X195937500Y-116977500D03*
%TO.P,BOB-1,14,GND_14*%
%TO.N,GND*%
X195937500Y-104277500D03*
%TO.P,BOB-1,15,EN_15*%
%TO.N,en1*%
X198477500Y-117017500D03*
%TO.P,BOB-1,16,+VM_16*%
%TO.N,Net-(BOB-1-+VM)*%
X198477500Y-104277500D03*
%TO.P,BOB-1,17,Index_17*%
%TO.N,unconnected-(BOB-1-Index-Pad17)*%
X198477500Y-114477500D03*
%TO.P,BOB-1,18,DIAG_18*%
%TO.N,unconnected-(BOB-1-DIAG-Pad18)*%
X198477500Y-111937500D03*
%TD*%
D17*
%TO.P,R24,1*%
%TO.N,encoder2_SD*%
X178185000Y-130977500D03*
%TO.P,R24,2*%
%TO.N,+3V3*%
X178185000Y-129152500D03*
%TD*%
D14*
%TO.P,R27,1*%
%TO.N,+3V3*%
X197885000Y-137477500D03*
%TO.P,R27,2*%
%TO.N,SCL*%
X197885000Y-139302500D03*
%TD*%
D32*
%TO.P,F2,1,1_1*%
%TO.N,24V_Motor*%
X237835000Y-126190000D03*
%TO.P,F2,2,2_2*%
%TO.N,24V*%
X233055000Y-126190000D03*
%TD*%
D22*
%TO.P,R42,1*%
%TO.N,Net-(U1-IO46)*%
X208972500Y-153800000D03*
%TO.P,R42,2*%
%TO.N,GND*%
X210797500Y-153800000D03*
%TD*%
D33*
%TO.P,L2,1,1_1*%
%TO.N,Net-(C11-Pad2)*%
X240385000Y-149730000D03*
%TO.P,L2,2,2_2*%
%TO.N,+3V3*%
X240385000Y-152330000D03*
%TD*%
D31*
%TO.P,TVS8,1,A1_1*%
%TO.N,GND*%
X178485000Y-135890000D03*
%TO.P,TVS8,2,A2_2*%
%TO.N,encoder2_SC*%
X178485000Y-137990000D03*
%TD*%
D34*
%TO.P,PMOS1,1,D_1*%
%TO.N,24V_Motor*%
X237810000Y-137105000D03*
D35*
%TO.P,PMOS1,2,G_2*%
%TO.N,PWRSWITCH_gate*%
X228660000Y-134565000D03*
D34*
%TO.P,PMOS1,3,S_3*%
%TO.N,24Vin*%
X237810000Y-132025000D03*
%TD*%
D27*
%TO.P,FB2,1*%
%TO.N,+3V3*%
X163285000Y-147465000D03*
%TO.P,FB2,2*%
%TO.N,Net-(encoder1-Pin_3)*%
X163285000Y-149215000D03*
%TD*%
D18*
%TO.P,C27,1*%
%TO.N,Net-(BOB-2-+VM)*%
X218385000Y-110080000D03*
%TO.P,C27,2*%
%TO.N,GND*%
X210985000Y-110080000D03*
%TD*%
D24*
%TO.P,C12,1*%
%TO.N,+3V3*%
X245083000Y-143142500D03*
%TO.P,C12,2*%
%TO.N,Net-(U3-FB)*%
X243358000Y-143142500D03*
%TD*%
D36*
%TO.P,U5,1,I/O1_1*%
%TO.N,USB D+*%
X242047500Y-156640000D03*
%TO.P,U5,2,GND_2*%
%TO.N,GND*%
X242047500Y-157590000D03*
%TO.P,U5,3,I/O2_3*%
%TO.N,USB D-*%
X242047500Y-158540000D03*
%TO.P,U5,4,I/O2_4*%
%TO.N,Net-(USB1-DN1)*%
X244322500Y-158540000D03*
%TO.P,U5,5,VBUS_5*%
%TO.N,VBUS*%
X244322500Y-157590000D03*
%TO.P,U5,6,I/O1_6*%
%TO.N,Net-(USB1-DP1)*%
X244322500Y-156640000D03*
%TD*%
D37*
%TO.P,encoder0,1,Pin_1_1*%
%TO.N,Net-(encoder0-Pin_1)*%
X171403750Y-156890000D03*
D38*
%TO.P,encoder0,2,Pin_2_2*%
%TO.N,Net-(encoder0-Pin_2)*%
X171403750Y-154390000D03*
%TO.P,encoder0,3,Pin_3_3*%
%TO.N,Net-(encoder0-Pin_3)*%
X171403750Y-151890000D03*
%TO.P,encoder0,4,Pin_4_4*%
%TO.N,GND*%
X171403750Y-149390000D03*
%TO.P,encoder0,5,Pin_5_5*%
X171403750Y-146890000D03*
%TO.P,encoder0,6,Pin_6_6*%
%TO.N,Net-(encoder0-Pin_6)*%
X171403750Y-144390000D03*
%TD*%
D17*
%TO.P,R19,1*%
%TO.N,/esp32/TX*%
X213385000Y-162312500D03*
%TO.P,R19,2*%
%TO.N,UART*%
X213385000Y-160487500D03*
%TD*%
D15*
%TO.P,R2,1*%
%TO.N,GND*%
X245097500Y-154990000D03*
%TO.P,R2,2*%
%TO.N,Net-(USB1-CC2)*%
X243272500Y-154990000D03*
%TD*%
D39*
%TO.P,USB1,A1,GND_A1*%
%TO.N,GND*%
X246725000Y-162065000D03*
%TO.P,USB1,A4,VBUS_A4*%
%TO.N,VBUS*%
X246725000Y-161215000D03*
%TO.P,USB1,A5,CC1_A5*%
%TO.N,Net-(USB1-CC1)*%
X246725000Y-160365000D03*
%TO.P,USB1,A6,DP1_A6*%
%TO.N,Net-(USB1-DP1)*%
X246725000Y-159515000D03*
%TO.P,USB1,A7,DN1_A7*%
%TO.N,Net-(USB1-DN1)*%
X246725000Y-158665000D03*
%TO.P,USB1,A8,SBU1_A8*%
%TO.N,unconnected-(USB1-SBU1-PadA8)*%
X246725000Y-157815000D03*
%TO.P,USB1,A9,VBUS_A9*%
%TO.N,VBUS*%
X246725000Y-156965000D03*
%TO.P,USB1,A12,GND_A12*%
%TO.N,GND*%
X246725000Y-156115000D03*
%TO.P,USB1,B1,GND_B1*%
X248075000Y-156115000D03*
%TO.P,USB1,B4,VBUS_B4*%
%TO.N,VBUS*%
X248075000Y-156965000D03*
%TO.P,USB1,B5,CC2_B5*%
%TO.N,Net-(USB1-CC2)*%
X248075000Y-157815000D03*
%TO.P,USB1,B6,DP2_B6*%
%TO.N,Net-(USB1-DP1)*%
X248075000Y-158665000D03*
%TO.P,USB1,B7,DN2_B7*%
%TO.N,Net-(USB1-DN1)*%
X248075000Y-159515000D03*
%TO.P,USB1,B8,SBU2_B8*%
%TO.N,unconnected-(USB1-SBU2-PadB8)*%
X248075000Y-160365000D03*
%TO.P,USB1,B9,VBUS_B9*%
%TO.N,VBUS*%
X248075000Y-161215000D03*
%TO.P,USB1,B12,GND_B12*%
%TO.N,GND*%
X248075000Y-162065000D03*
D40*
%TO.P,USB1,S1,SHELL_S1*%
X251085000Y-163415000D03*
%TO.P,USB1,S2,SHELL_S2*%
X251085000Y-154765000D03*
D41*
%TO.P,USB1,S3,SHELL_S3*%
X247705000Y-163415000D03*
%TO.P,USB1,S4,SHELL_S4*%
X247705000Y-154765000D03*
%TD*%
D37*
%TO.P,encoder3,1,Pin_1_1*%
%TO.N,Net-(encoder3-Pin_1)*%
X158385000Y-137890000D03*
D38*
%TO.P,encoder3,2,Pin_2_2*%
%TO.N,Net-(encoder3-Pin_2)*%
X158385000Y-135390000D03*
%TO.P,encoder3,3,Pin_3_3*%
%TO.N,Net-(encoder3-Pin_3)*%
X158385000Y-132890000D03*
%TO.P,encoder3,4,Pin_4_4*%
%TO.N,GND*%
X158385000Y-130390000D03*
%TO.P,encoder3,5,Pin_5_5*%
X158385000Y-127890000D03*
%TO.P,encoder3,6,Pin_6_6*%
%TO.N,Net-(encoder3-Pin_6)*%
X158385000Y-125390000D03*
%TD*%
D42*
%TO.P,J5,1,Pin_1_1*%
%TO.N,GND*%
X183985000Y-167390000D03*
D16*
%TO.P,J5,2,Pin_2_2*%
%TO.N,tx_ext*%
X183985000Y-169930000D03*
%TO.P,J5,3,Pin_3_3*%
%TO.N,rx_ext*%
X183985000Y-172470000D03*
%TD*%
D14*
%TO.P,R20,1*%
%TO.N,encoder0_SC*%
X176185000Y-155627500D03*
%TO.P,R20,2*%
%TO.N,Net-(encoder0-Pin_1)*%
X176185000Y-157452500D03*
%TD*%
D22*
%TO.P,R7,1*%
%TO.N,+3V3*%
X249672500Y-149152500D03*
%TO.P,R7,2*%
%TO.N,Net-(NPN1-B)*%
X251497500Y-149152500D03*
%TD*%
D14*
%TO.P,R31,1*%
%TO.N,encoder1_SC*%
X163085000Y-154727500D03*
%TO.P,R31,2*%
%TO.N,Net-(encoder1-Pin_1)*%
X163085000Y-156552500D03*
%TD*%
D43*
%TO.P,BOOT1,1,1_1*%
%TO.N,GND*%
X177485000Y-172490000D03*
X171735000Y-172490000D03*
%TO.P,BOOT1,2,2_2*%
%TO.N,Net-(U1-IO0)*%
X177485000Y-168490000D03*
X171735000Y-168490000D03*
%TD*%
D14*
%TO.P,R17,1*%
%TO.N,+3V3*%
X164916250Y-147377500D03*
%TO.P,R17,2*%
%TO.N,encoder1_SD*%
X164916250Y-149202500D03*
%TD*%
D21*
%TO.P,C15,1*%
%TO.N,GND*%
X240120000Y-141177500D03*
%TO.P,C15,2*%
%TO.N,Net-(NPN1-B)*%
X240120000Y-142902500D03*
%TD*%
D23*
%TO.P,C24,1*%
%TO.N,GND*%
X228422500Y-106090000D03*
%TO.P,C24,2*%
%TO.N,+3V3*%
X230147500Y-106090000D03*
%TD*%
D31*
%TO.P,TVS2,1,A1_1*%
%TO.N,GND*%
X178085000Y-155490000D03*
%TO.P,TVS2,2,A2_2*%
%TO.N,encoder0_SC*%
X178085000Y-157590000D03*
%TD*%
D44*
%TO.P,C14,1*%
%TO.N,+3V3*%
X237385000Y-151892500D03*
%TO.P,C14,2*%
%TO.N,GND*%
X237385000Y-150167500D03*
%TD*%
D15*
%TO.P,R41,1*%
%TO.N,endswitch3*%
X164997500Y-123190000D03*
%TO.P,R41,2*%
%TO.N,Net-(encoder3-Pin_6)*%
X163172500Y-123190000D03*
%TD*%
D21*
%TO.P,C7,1*%
%TO.N,GND*%
X208780000Y-125802500D03*
%TO.P,C7,2*%
%TO.N,+3V3*%
X208780000Y-127527500D03*
%TD*%
D22*
%TO.P,R4,1*%
%TO.N,+3V3*%
X176253750Y-158990000D03*
%TO.P,R4,2*%
%TO.N,encoder0_SC*%
X178078750Y-158990000D03*
%TD*%
D15*
%TO.P,R13,1*%
%TO.N,/mot1/MS1*%
X195797500Y-119490000D03*
%TO.P,R13,2*%
%TO.N,+3V3*%
X193972500Y-119490000D03*
%TD*%
D14*
%TO.P,R5,1*%
%TO.N,+3V3*%
X177966250Y-148690000D03*
%TO.P,R5,2*%
%TO.N,encoder0_SD*%
X177966250Y-150515000D03*
%TD*%
D16*
%TO.P,BOB-0,1,DIR_1*%
%TO.N,dir0*%
X158697500Y-116977500D03*
%TO.P,BOB-0,2,GND_2*%
%TO.N,GND*%
X158697500Y-104277500D03*
%TO.P,BOB-0,3,STEP_3*%
%TO.N,step0*%
X161237500Y-116977500D03*
%TO.P,BOB-0,4,VIO_4*%
%TO.N,+3V3*%
X161237500Y-104277500D03*
%TO.P,BOB-0,5,PDN_5*%
%TO.N,unconnected-(BOB-0-PDN-Pad5)*%
X163777500Y-116977500D03*
%TO.P,BOB-0,6,M1B_6*%
%TO.N,mot0.B1*%
X163777500Y-104277500D03*
%TO.P,BOB-0,7,UART_7*%
%TO.N,UART*%
X166317500Y-116977500D03*
%TO.P,BOB-0,8,M1A_8*%
%TO.N,mot0.A1*%
X166317500Y-104277500D03*
%TO.P,BOB-0,9,SPRD_9*%
%TO.N,unconnected-(BOB-0-SPRD-Pad9)*%
X168857500Y-116977500D03*
%TO.P,BOB-0,10,M2A_10*%
%TO.N,mot0.A2*%
X168857500Y-104277500D03*
%TO.P,BOB-0,11,MS2_11*%
%TO.N,/mot0/MS2*%
X171397500Y-116977500D03*
%TO.P,BOB-0,12,M2B_12*%
%TO.N,mot0.B2*%
X171397500Y-104277500D03*
%TO.P,BOB-0,13,MS1_13*%
%TO.N,/mot0/MS1*%
X173937500Y-116977500D03*
%TO.P,BOB-0,14,GND_14*%
%TO.N,GND*%
X173937500Y-104277500D03*
%TO.P,BOB-0,15,EN_15*%
%TO.N,en0*%
X176477500Y-117017500D03*
%TO.P,BOB-0,16,+VM_16*%
%TO.N,Net-(BOB-0-+VM)*%
X176477500Y-104277500D03*
%TO.P,BOB-0,17,Index_17*%
%TO.N,unconnected-(BOB-0-Index-Pad17)*%
X176477500Y-114477500D03*
%TO.P,BOB-0,18,DIAG_18*%
%TO.N,unconnected-(BOB-0-DIAG-Pad18)*%
X176477500Y-111937500D03*
%TD*%
D45*
%TO.P,D3,1,K_1*%
%TO.N,24Vin*%
X231335000Y-142052500D03*
%TO.P,D3,2,A_2*%
%TO.N,PWRSWITCH_diode*%
X229435000Y-142052500D03*
%TO.P,D3,3*%
%TO.N,N/C*%
X230385000Y-143927500D03*
%TD*%
D42*
%TO.P,fan1,1,Pin_1_1*%
%TO.N,GND*%
X250885000Y-122230000D03*
D16*
%TO.P,fan1,2,Pin_2_2*%
%TO.N,24V*%
X248345000Y-122230000D03*
%TD*%
D15*
%TO.P,R29,1*%
%TO.N,endswitch0*%
X178178750Y-147090000D03*
%TO.P,R29,2*%
%TO.N,+3V3*%
X176353750Y-147090000D03*
%TD*%
D25*
%TO.P,TVS12,1,A1_1*%
%TO.N,GND*%
X162985000Y-124990000D03*
%TO.P,TVS12,2,A2_2*%
%TO.N,endswitch3*%
X165085000Y-124990000D03*
%TD*%
D14*
%TO.P,R43,1*%
%TO.N,24Vin*%
X251135000Y-137330000D03*
%TO.P,R43,2*%
%TO.N,PWRSWITCH_Voltage*%
X251135000Y-139155000D03*
%TD*%
%TO.P,R39,1*%
%TO.N,encoder3_SC*%
X163285000Y-135727500D03*
%TO.P,R39,2*%
%TO.N,Net-(encoder3-Pin_1)*%
X163285000Y-137552500D03*
%TD*%
D15*
%TO.P,R38,1*%
%TO.N,endswitch3*%
X164897500Y-126790000D03*
%TO.P,R38,2*%
%TO.N,+3V3*%
X163072500Y-126790000D03*
%TD*%
D44*
%TO.P,C10,1*%
%TO.N,GND*%
X234735000Y-148942500D03*
%TO.P,C10,2*%
%TO.N,24V*%
X234735000Y-147217500D03*
%TD*%
D37*
%TO.P,encoder2,1,Pin_1_1*%
%TO.N,Net-(encoder2-Pin_1)*%
X171485000Y-137690000D03*
D38*
%TO.P,encoder2,2,Pin_2_2*%
%TO.N,Net-(encoder2-Pin_2)*%
X171485000Y-135190000D03*
%TO.P,encoder2,3,Pin_3_3*%
%TO.N,Net-(encoder2-Pin_3)*%
X171485000Y-132690000D03*
%TO.P,encoder2,4,Pin_4_4*%
%TO.N,GND*%
X171485000Y-130190000D03*
%TO.P,encoder2,5,Pin_5_5*%
X171485000Y-127690000D03*
%TO.P,encoder2,6,Pin_6_6*%
%TO.N,Net-(encoder2-Pin_6)*%
X171485000Y-125190000D03*
%TD*%
D23*
%TO.P,C23,1*%
%TO.N,GND*%
X206522500Y-106090000D03*
%TO.P,C23,2*%
%TO.N,+3V3*%
X208247500Y-106090000D03*
%TD*%
D21*
%TO.P,C11,1*%
%TO.N,Net-(U3-BST)*%
X243385000Y-147667500D03*
%TO.P,C11,2*%
%TO.N,Net-(C11-Pad2)*%
X243385000Y-149392500D03*
%TD*%
D26*
%TO.P,TVS7,1,A1_1*%
%TO.N,GND*%
X178485000Y-134490000D03*
%TO.P,TVS7,2,A2_2*%
%TO.N,encoder2_SD*%
X178485000Y-132390000D03*
%TD*%
D27*
%TO.P,FB1,1*%
%TO.N,+3V3*%
X176185000Y-148715000D03*
%TO.P,FB1,2*%
%TO.N,Net-(encoder0-Pin_3)*%
X176185000Y-150465000D03*
%TD*%
D46*
%TO.P,U2,1,GND_1*%
%TO.N,GND*%
X243135000Y-172190000D03*
%TO.P,U2,2,VO_2*%
%TO.N,/CONN/VO_USB_LDO*%
X243135000Y-169890000D03*
D47*
X236835000Y-169890000D03*
D46*
%TO.P,U2,3,VI_3*%
%TO.N,VBUS*%
X243135000Y-167590000D03*
%TD*%
D23*
%TO.P,C8,1*%
%TO.N,GND*%
X233295500Y-144042500D03*
%TO.P,C8,2*%
%TO.N,Net-(U3-TR{slash}SS)*%
X235020500Y-144042500D03*
%TD*%
D15*
%TO.P,R8,1*%
%TO.N,Net-(U3-RT)*%
X235020500Y-145642500D03*
%TO.P,R8,2*%
%TO.N,GND*%
X233195500Y-145642500D03*
%TD*%
%TO.P,R15,1*%
%TO.N,/mot3/MS1*%
X243497500Y-119190000D03*
%TO.P,R15,2*%
%TO.N,+3V3*%
X241672500Y-119190000D03*
%TD*%
D26*
%TO.P,TVS4,1,A1_1*%
%TO.N,GND*%
X165085000Y-153240000D03*
%TO.P,TVS4,2,A2_2*%
%TO.N,encoder1_SD*%
X165085000Y-151140000D03*
%TD*%
D25*
%TO.P,TVS9,1,A1_1*%
%TO.N,GND*%
X176285000Y-125590000D03*
%TO.P,TVS9,2,A2_2*%
%TO.N,endswitch2*%
X178385000Y-125590000D03*
%TD*%
D48*
%TO.P,U4,1,QB_1*%
%TO.N,en0*%
X207225000Y-122190000D03*
%TO.P,U4,2,QC_2*%
%TO.N,dir1*%
X205955000Y-122190000D03*
%TO.P,U4,3,QD_3*%
%TO.N,en1*%
X204685000Y-122190000D03*
%TO.P,U4,4,QE_4*%
%TO.N,dir2*%
X203415000Y-122190000D03*
%TO.P,U4,5,QF_5*%
%TO.N,en2*%
X202145000Y-122190000D03*
%TO.P,U4,6,QG_6*%
%TO.N,dir3*%
X200875000Y-122190000D03*
%TO.P,U4,7,QH_7*%
%TO.N,en3*%
X199605000Y-122190000D03*
%TO.P,U4,8,GND_8*%
%TO.N,GND*%
X198335000Y-122190000D03*
%TO.P,U4,9,QH'_9*%
%TO.N,unconnected-(U4-QH'-Pad9)*%
X198335000Y-127140000D03*
%TO.P,U4,10,~{SRCLR}_10*%
%TO.N,+3V3*%
X199605000Y-127140000D03*
%TO.P,U4,11,SRCLK_11*%
%TO.N,SRCLK*%
X200875000Y-127140000D03*
%TO.P,U4,12,RCLK_12*%
%TO.N,RCLK*%
X202145000Y-127140000D03*
%TO.P,U4,13,~{OE}_13*%
%TO.N,GND*%
X203415000Y-127140000D03*
%TO.P,U4,14,SER_14*%
%TO.N,SER*%
X204685000Y-127140000D03*
%TO.P,U4,15,QA_15*%
%TO.N,dir0*%
X205955000Y-127140000D03*
%TO.P,U4,16,VCC_16*%
%TO.N,+3V3*%
X207225000Y-127140000D03*
%TD*%
D44*
%TO.P,C16,1*%
%TO.N,GND*%
X214985000Y-173492500D03*
%TO.P,C16,2*%
%TO.N,+3V3*%
X214985000Y-171767500D03*
%TD*%
D42*
%TO.P,J1,1,Pin_1_1*%
%TO.N,GND*%
X226185000Y-172590000D03*
D16*
%TO.P,J1,2,Pin_2_2*%
%TO.N,reset*%
X223645000Y-172590000D03*
%TD*%
D15*
%TO.P,R33,1*%
%TO.N,endswitch1*%
X164997500Y-141990000D03*
%TO.P,R33,2*%
%TO.N,Net-(encoder1-Pin_6)*%
X163172500Y-141990000D03*
%TD*%
%TO.P,R25,1*%
%TO.N,encoder3_SC*%
X165097500Y-139690000D03*
%TO.P,R25,2*%
%TO.N,+3V3*%
X163272500Y-139690000D03*
%TD*%
D18*
%TO.P,C25,1*%
%TO.N,Net-(BOB-0-+VM)*%
X170385000Y-110490000D03*
%TO.P,C25,2*%
%TO.N,GND*%
X162985000Y-110490000D03*
%TD*%
D16*
%TO.P,BOB-3,1,DIR_1*%
%TO.N,dir3*%
X228197500Y-116777500D03*
%TO.P,BOB-3,2,GND_2*%
%TO.N,GND*%
X228197500Y-104077500D03*
%TO.P,BOB-3,3,STEP_3*%
%TO.N,step3*%
X230737500Y-116777500D03*
%TO.P,BOB-3,4,VIO_4*%
%TO.N,+3V3*%
X230737500Y-104077500D03*
%TO.P,BOB-3,5,PDN_5*%
%TO.N,unconnected-(BOB-3-PDN-Pad5)*%
X233277500Y-116777500D03*
%TO.P,BOB-3,6,M1B_6*%
%TO.N,mot3.B1*%
X233277500Y-104077500D03*
%TO.P,BOB-3,7,UART_7*%
%TO.N,UART*%
X235817500Y-116777500D03*
%TO.P,BOB-3,8,M1A_8*%
%TO.N,mot3.A1*%
X235817500Y-104077500D03*
%TO.P,BOB-3,9,SPRD_9*%
%TO.N,unconnected-(BOB-3-SPRD-Pad9)*%
X238357500Y-116777500D03*
%TO.P,BOB-3,10,M2A_10*%
%TO.N,mot3.A2*%
X238357500Y-104077500D03*
%TO.P,BOB-3,11,MS2_11*%
%TO.N,/mot3/MS2*%
X240897500Y-116777500D03*
%TO.P,BOB-3,12,M2B_12*%
%TO.N,mot3.B2*%
X240897500Y-104077500D03*
%TO.P,BOB-3,13,MS1_13*%
%TO.N,/mot3/MS1*%
X243437500Y-116777500D03*
%TO.P,BOB-3,14,GND_14*%
%TO.N,GND*%
X243437500Y-104077500D03*
%TO.P,BOB-3,15,EN_15*%
%TO.N,en3*%
X245977500Y-116817500D03*
%TO.P,BOB-3,16,+VM_16*%
%TO.N,Net-(BOB-3-+VM)*%
X245977500Y-104077500D03*
%TO.P,BOB-3,17,Index_17*%
%TO.N,unconnected-(BOB-3-Index-Pad17)*%
X245977500Y-114277500D03*
%TO.P,BOB-3,18,DIAG_18*%
%TO.N,unconnected-(BOB-3-DIAG-Pad18)*%
X245977500Y-111737500D03*
%TD*%
D49*
%TO.P,LED1,1,K_1*%
%TO.N,Net-(LED1-K)*%
X249335000Y-152552500D03*
%TO.P,LED1,2,A_2*%
%TO.N,Net-(LED1-A)*%
X251385000Y-152552500D03*
%TD*%
D27*
%TO.P,FB3,1*%
%TO.N,+3V3*%
X176585000Y-129190000D03*
%TO.P,FB3,2*%
%TO.N,Net-(encoder2-Pin_3)*%
X176585000Y-130940000D03*
%TD*%
D19*
%TO.P,mot0,1,Pin_1_1*%
%TO.N,mot0.B1*%
X163585000Y-97830000D03*
D20*
%TO.P,mot0,2,Pin_2_2*%
%TO.N,mot0.A1*%
X166085000Y-97830000D03*
%TO.P,mot0,3,Pin_3_3*%
%TO.N,mot0.A2*%
X168585000Y-97830000D03*
%TO.P,mot0,4,Pin_4_4*%
%TO.N,mot0.B2*%
X171085000Y-97830000D03*
%TD*%
D42*
%TO.P,J6,1,Pin_1_1*%
%TO.N,PWRSWITCH_diode*%
X242585000Y-138390000D03*
D16*
%TO.P,J6,2,Pin_2_2*%
%TO.N,PWRSWITCH_gate*%
X245125000Y-138390000D03*
%TO.P,J6,3,Pin_3_3*%
%TO.N,PWRSWITCH_Voltage*%
X247665000Y-138390000D03*
%TD*%
D50*
%TO.P,NPN1,1,C_1*%
%TO.N,Net-(LED1-K)*%
X249135000Y-143080000D03*
%TO.P,NPN1,2,B_2*%
%TO.N,Net-(NPN1-B)*%
X247235000Y-143080000D03*
%TO.P,NPN1,3,E_3*%
%TO.N,GND*%
X248185000Y-146500000D03*
%TD*%
D31*
%TO.P,TVS11,1,A1_1*%
%TO.N,GND*%
X165385000Y-135590000D03*
%TO.P,TVS11,2,A2_2*%
%TO.N,encoder3_SC*%
X165385000Y-137690000D03*
%TD*%
D14*
%TO.P,R35,1*%
%TO.N,encoder2_SC*%
X176385000Y-136127500D03*
%TO.P,R35,2*%
%TO.N,Net-(encoder2-Pin_1)*%
X176385000Y-137952500D03*
%TD*%
D22*
%TO.P,R14,1*%
%TO.N,/mot2/MS2*%
X219172500Y-119290000D03*
%TO.P,R14,2*%
%TO.N,+3V3*%
X220997500Y-119290000D03*
%TD*%
D19*
%TO.P,mot3,1,Pin_1_1*%
%TO.N,mot3.B1*%
X233185000Y-97830000D03*
D20*
%TO.P,mot3,2,Pin_2_2*%
%TO.N,mot3.A1*%
X235685000Y-97830000D03*
%TO.P,mot3,3,Pin_3_3*%
%TO.N,mot3.A2*%
X238185000Y-97830000D03*
%TO.P,mot3,4,Pin_4_4*%
%TO.N,mot3.B2*%
X240685000Y-97830000D03*
%TD*%
D37*
%TO.P,encoder1,1,Pin_1_1*%
%TO.N,Net-(encoder1-Pin_1)*%
X158310000Y-156640000D03*
D38*
%TO.P,encoder1,2,Pin_2_2*%
%TO.N,Net-(encoder1-Pin_2)*%
X158310000Y-154140000D03*
%TO.P,encoder1,3,Pin_3_3*%
%TO.N,Net-(encoder1-Pin_3)*%
X158310000Y-151640000D03*
%TO.P,encoder1,4,Pin_4_4*%
%TO.N,GND*%
X158310000Y-149140000D03*
%TO.P,encoder1,5,Pin_5_5*%
X158310000Y-146640000D03*
%TO.P,encoder1,6,Pin_6_6*%
%TO.N,Net-(encoder1-Pin_6)*%
X158310000Y-144140000D03*
%TD*%
D15*
%TO.P,R16,1*%
%TO.N,/mot3/MS2*%
X239985000Y-119190000D03*
%TO.P,R16,2*%
%TO.N,+3V3*%
X238160000Y-119190000D03*
%TD*%
D51*
%TO.P,D2,1,K_1*%
%TO.N,+3V3*%
X236955000Y-162730000D03*
%TO.P,D2,2,A_2*%
%TO.N,/CONN/VO_USB_LDO*%
X236955000Y-164030000D03*
%TO.P,D2,3*%
%TO.N,N/C*%
X239615000Y-163380000D03*
%TD*%
D23*
%TO.P,C21,1*%
%TO.N,GND*%
X158922500Y-106190000D03*
%TO.P,C21,2*%
%TO.N,+3V3*%
X160647500Y-106190000D03*
%TD*%
D14*
%TO.P,R18,1*%
%TO.N,PWRSWITCH_diode*%
X226735000Y-141517500D03*
%TO.P,R18,2*%
%TO.N,GND*%
X226735000Y-143342500D03*
%TD*%
D17*
%TO.P,R26,1*%
%TO.N,encoder3_SD*%
X164985000Y-130402500D03*
%TO.P,R26,2*%
%TO.N,+3V3*%
X164985000Y-128577500D03*
%TD*%
D15*
%TO.P,R30,1*%
%TO.N,endswitch1*%
X164997500Y-145690000D03*
%TO.P,R30,2*%
%TO.N,+3V3*%
X163172500Y-145690000D03*
%TD*%
D26*
%TO.P,TVS1,1,A1_1*%
%TO.N,GND*%
X178085000Y-153990000D03*
%TO.P,TVS1,2,A2_2*%
%TO.N,encoder0_SD*%
X178085000Y-151890000D03*
%TD*%
D18*
%TO.P,C26,1*%
%TO.N,Net-(BOB-1-+VM)*%
X193285000Y-110590000D03*
%TO.P,C26,2*%
%TO.N,GND*%
X185885000Y-110590000D03*
%TD*%
D52*
%TO.P,U1,1,GND_1*%
%TO.N,GND*%
X211485000Y-173470000D03*
%TO.P,U1,2,3V3_2*%
%TO.N,+3V3*%
X211485000Y-172200000D03*
%TO.P,U1,3,EN_3*%
%TO.N,reset*%
X211485000Y-170930000D03*
%TO.P,U1,4,IO4_4*%
%TO.N,step0*%
X211485000Y-169660000D03*
%TO.P,U1,5,IO5_5*%
%TO.N,step1*%
X211485000Y-168390000D03*
%TO.P,U1,6,IO6_6*%
%TO.N,step2*%
X211485000Y-167120000D03*
%TO.P,U1,7,IO7_7*%
%TO.N,step3*%
X211485000Y-165850000D03*
%TO.P,U1,8,IO15_8*%
%TO.N,endswitch2*%
X211485000Y-164580000D03*
%TO.P,U1,9,IO16_9*%
%TO.N,endswitch3*%
X211485000Y-163310000D03*
%TO.P,U1,10,IO17_10*%
%TO.N,/esp32/TX*%
X211485000Y-162040000D03*
%TO.P,U1,11,IO18_11*%
%TO.N,UART*%
X211485000Y-160770000D03*
%TO.P,U1,12,IO8_12*%
%TO.N,SRCLK*%
X211485000Y-159500000D03*
%TO.P,U1,13,USB_D-/IO19_13*%
%TO.N,USB D-*%
X211485000Y-158230000D03*
%TO.P,U1,14,USB_D+/IO20_14*%
%TO.N,USB D+*%
X211485000Y-156960000D03*
D53*
%TO.P,U1,15,IO3_15*%
%TO.N,unconnected-(U1-IO3-Pad15)*%
X209720000Y-155710000D03*
%TO.P,U1,16,IO46_16*%
%TO.N,Net-(U1-IO46)*%
X208450000Y-155710000D03*
%TO.P,U1,17,IO9_17*%
%TO.N,SER*%
X207180000Y-155710000D03*
%TO.P,U1,18,IO10_18*%
%TO.N,RCLK*%
X205910000Y-155710000D03*
%TO.P,U1,19,IO11_19*%
%TO.N,SCL*%
X204640000Y-155710000D03*
%TO.P,U1,20,IO12_20*%
%TO.N,SDA*%
X203370000Y-155710000D03*
%TO.P,U1,21,IO13_21*%
%TO.N,endswitch0*%
X202100000Y-155710000D03*
%TO.P,U1,22,IO14_22*%
%TO.N,endswitch1*%
X200830000Y-155710000D03*
%TO.P,U1,23,IO21_23*%
%TO.N,unconnected-(U1-IO21-Pad23)*%
X199560000Y-155710000D03*
%TO.P,U1,24,IO47_24*%
%TO.N,unconnected-(U1-IO47-Pad24)*%
X198290000Y-155710000D03*
%TO.P,U1,25,IO48_25*%
%TO.N,unconnected-(U1-IO48-Pad25)*%
X197020000Y-155710000D03*
%TO.P,U1,26,IO45_26*%
%TO.N,unconnected-(U1-IO45-Pad26)*%
X195750000Y-155710000D03*
D52*
%TO.P,U1,27,IO0_27*%
%TO.N,Net-(U1-IO0)*%
X193985000Y-156960000D03*
%TO.P,U1,28,NC_28*%
%TO.N,unconnected-(U1-NC-Pad28)*%
X193985000Y-158230000D03*
%TO.P,U1,29,NC_29*%
%TO.N,unconnected-(U1-NC-Pad29)*%
X193985000Y-159500000D03*
%TO.P,U1,30,NC_30*%
%TO.N,unconnected-(U1-NC-Pad30)*%
X193985000Y-160770000D03*
%TO.P,U1,31,IO38_31*%
%TO.N,IO38*%
X193985000Y-162040000D03*
%TO.P,U1,32,MTCK/IO39_32*%
%TO.N,unconnected-(U1-MTCK{slash}IO39-Pad32)*%
X193985000Y-163310000D03*
%TO.P,U1,33,MTDO/IO40_33*%
%TO.N,unconnected-(U1-MTDO{slash}IO40-Pad33)*%
X193985000Y-164580000D03*
%TO.P,U1,34,MTDI/IO41_34*%
%TO.N,unconnected-(U1-MTDI{slash}IO41-Pad34)*%
X193985000Y-165850000D03*
%TO.P,U1,35,MTMS/IO42_35*%
%TO.N,unconnected-(U1-MTMS{slash}IO42-Pad35)*%
X193985000Y-167120000D03*
%TO.P,U1,36,RXD0/IO44_36*%
%TO.N,unconnected-(U1-RXD0{slash}IO44-Pad36)*%
X193985000Y-168390000D03*
%TO.P,U1,37,TXD0/IO43_37*%
%TO.N,unconnected-(U1-TXD0{slash}IO43-Pad37)*%
X193985000Y-169660000D03*
%TO.P,U1,38,IO2_38*%
%TO.N,tx_ext*%
X193985000Y-170930000D03*
%TO.P,U1,39,IO1_39*%
%TO.N,rx_ext*%
X193985000Y-172200000D03*
%TO.P,U1,40,GND_40*%
%TO.N,GND*%
X193985000Y-173470000D03*
D54*
%TO.P,U1,41,GND_41*%
X205595000Y-169620000D03*
D55*
X205595000Y-168870000D03*
D54*
X205595000Y-168120000D03*
D55*
X205595000Y-167370000D03*
D54*
X205595000Y-166620000D03*
D55*
X204845000Y-169620000D03*
X204845000Y-168120000D03*
X204845000Y-166620000D03*
D54*
X204095000Y-169620000D03*
D55*
X204095000Y-168870000D03*
D54*
X204095000Y-168120000D03*
D55*
X204095000Y-167370000D03*
D54*
X204095000Y-166620000D03*
D55*
X203345000Y-169620000D03*
X203345000Y-168120000D03*
X203345000Y-166620000D03*
D54*
X202595000Y-169620000D03*
D55*
X202595000Y-168870000D03*
D54*
X202595000Y-168120000D03*
D55*
X202595000Y-167370000D03*
D54*
X202595000Y-166620000D03*
%TD*%
D23*
%TO.P,C2,1*%
%TO.N,GND*%
X243222500Y-160190000D03*
%TO.P,C2,2*%
%TO.N,VBUS*%
X244947500Y-160190000D03*
%TD*%
D24*
%TO.P,C4,1*%
%TO.N,VBUS*%
X242347500Y-165480000D03*
%TO.P,C4,2*%
%TO.N,GND*%
X240622500Y-165480000D03*
%TD*%
D23*
%TO.P,C13,1*%
%TO.N,Net-(U3-INTVcc)*%
X243222500Y-146390000D03*
%TO.P,C13,2*%
%TO.N,GND*%
X244947500Y-146390000D03*
%TD*%
D15*
%TO.P,R22,1*%
%TO.N,endswitch0*%
X178197500Y-142940000D03*
%TO.P,R22,2*%
%TO.N,Net-(encoder0-Pin_6)*%
X176372500Y-142940000D03*
%TD*%
D42*
%TO.P,J4,1,Pin_1_1*%
%TO.N,IO38*%
X183985000Y-162390000D03*
%TD*%
D56*
%TO.P,U3,1,SYNC_1*%
%TO.N,GND*%
X236920000Y-144340000D03*
%TO.P,U3,2,TR/SS_2*%
%TO.N,Net-(U3-TR{slash}SS)*%
X236920000Y-144840000D03*
%TO.P,U3,3,RT_3*%
%TO.N,Net-(U3-RT)*%
X236920000Y-145340000D03*
%TO.P,U3,4,EN/UV_4*%
%TO.N,24V*%
X236920000Y-145840000D03*
%TO.P,U3,5,VIN_5*%
X236920000Y-146340000D03*
%TO.P,U3,6,VIN_6*%
X236920000Y-146840000D03*
%TO.P,U3,7,GND_7*%
%TO.N,GND*%
X236920000Y-147340000D03*
%TO.P,U3,8,GND_8*%
X236920000Y-147840000D03*
%TO.P,U3,9,SW_9*%
%TO.N,Net-(C11-Pad2)*%
X241220000Y-147840000D03*
%TO.P,U3,10,SW_10*%
X241220000Y-147340000D03*
%TO.P,U3,11,SW_11*%
X241220000Y-146840000D03*
%TO.P,U3,12,BST_12*%
%TO.N,Net-(U3-BST)*%
X241220000Y-146340000D03*
%TO.P,U3,13,INTVcc_13*%
%TO.N,Net-(U3-INTVcc)*%
X241220000Y-145840000D03*
%TO.P,U3,14,BIAS_14*%
%TO.N,+3V3*%
X241220000Y-145340000D03*
%TO.P,U3,15,PG_15*%
%TO.N,Net-(NPN1-B)*%
X241220000Y-144840000D03*
%TO.P,U3,16,FB_16*%
%TO.N,Net-(U3-FB)*%
X241220000Y-144340000D03*
D57*
%TO.P,U3,17,GND_17*%
%TO.N,GND*%
X238519500Y-144942500D03*
X238519500Y-146090000D03*
X238519500Y-147237500D03*
D58*
X239070000Y-146090000D03*
D57*
X239620500Y-144942500D03*
X239620500Y-146090000D03*
X239620500Y-147237500D03*
%TD*%
D59*
%TO.N,+3V3*%
X235885000Y-152030000D03*
%TO.N,24Vin*%
X250385000Y-136030000D03*
%TO.N,PWRSWITCH_gate*%
X244385000Y-135030000D03*
%TO.N,encoder0_SD*%
X179185000Y-150515000D03*
X188785000Y-140590000D03*
%TO.N,+3V3*%
X230085000Y-107190000D03*
X208780000Y-128690000D03*
X179285000Y-113730000D03*
X249660000Y-148190000D03*
X179385000Y-129190000D03*
X236925000Y-161330000D03*
X196250000Y-136390000D03*
X176253750Y-160090000D03*
X191685000Y-147390000D03*
X163285000Y-140530000D03*
X179085000Y-148690000D03*
X160585000Y-107290000D03*
X176485000Y-140730000D03*
X163285000Y-159690000D03*
X193985000Y-120590000D03*
%TO.N,GND*%
X237385000Y-149030000D03*
%TO.N,+3V3*%
X239685000Y-120190000D03*
X214185000Y-171865000D03*
X222085000Y-119290000D03*
X205035000Y-113930000D03*
X182747500Y-107190000D03*
X166185000Y-128633750D03*
X158785000Y-113780000D03*
X199585000Y-128790000D03*
X166116985Y-147658015D03*
X190085000Y-136390000D03*
X229035000Y-113726500D03*
X208285000Y-107190000D03*
X243885000Y-145417500D03*
%TO.N,GND*%
X183185000Y-111190000D03*
X240885000Y-141330000D03*
X226735000Y-144580000D03*
X217385000Y-153790000D03*
X218585000Y-161590000D03*
X188985000Y-139390000D03*
X224385000Y-161590000D03*
X178485000Y-135190000D03*
X224185000Y-167990000D03*
X208780000Y-124690000D03*
X183185000Y-109990000D03*
X242185000Y-160230000D03*
X217585000Y-130190000D03*
X160185000Y-109990000D03*
X209585000Y-111990000D03*
X211985000Y-130190000D03*
X230385000Y-111090000D03*
X239585000Y-165480000D03*
X178085000Y-154690000D03*
X224185000Y-153790000D03*
X241335000Y-172180000D03*
X194525000Y-136350000D03*
X218585000Y-167990000D03*
X231585000Y-112190000D03*
X212085000Y-153800000D03*
X227235000Y-125330000D03*
X160185000Y-111190000D03*
X224185000Y-147390000D03*
X190385000Y-146790000D03*
X246085000Y-146390000D03*
X230985000Y-153790000D03*
X208385000Y-110890000D03*
X211985000Y-122990000D03*
X184385000Y-112290000D03*
X192485000Y-173490000D03*
X217585000Y-122990000D03*
X198335000Y-120590000D03*
X209585000Y-108390000D03*
X231585000Y-108590000D03*
X197385000Y-140790000D03*
X230385000Y-109890000D03*
X161385000Y-112290000D03*
X208385000Y-109690000D03*
X203385000Y-128790000D03*
X230985000Y-161590000D03*
X233295500Y-144890000D03*
X216085000Y-173492500D03*
X217585000Y-147390000D03*
X231235000Y-149430000D03*
X165085000Y-153990000D03*
X161385000Y-108690000D03*
X211985000Y-147390000D03*
X165385000Y-134890000D03*
X184385000Y-108690000D03*
X230985000Y-167990000D03*
%TO.N,step2*%
X212985000Y-167090000D03*
%TO.N,UART*%
X214285000Y-159490000D03*
%TO.N,Net-(BOB-2-+VM)*%
X215285000Y-110630000D03*
X218185000Y-112080000D03*
%TO.N,Net-(USB1-CC1)*%
X243172500Y-164590000D03*
%TO.N,Net-(BOB-3-+VM)*%
X240285000Y-112380000D03*
X237335000Y-110880000D03*
%TO.N,encoder1_SD*%
X166785000Y-150690000D03*
X188285000Y-141990000D03*
%TO.N,endswitch2*%
X179285000Y-127690000D03*
X209485000Y-164590000D03*
%TO.N,24V*%
X233085000Y-123090000D03*
X231285000Y-147390000D03*
%TO.N,encoder1_SC*%
X188859265Y-142615735D03*
X165028750Y-159490000D03*
%TO.N,encoder0_SC*%
X179285000Y-157590000D03*
X188885000Y-141390000D03*
%TO.N,step1*%
X212985000Y-168490000D03*
%TO.N,Net-(BOB-1-+VM)*%
X192985000Y-112680000D03*
X190235000Y-111030000D03*
%TO.N,24Vin*%
X232385000Y-141990000D03*
%TO.N,Net-(USB1-DP1)*%
X245485000Y-156640000D03*
%TO.N,endswitch3*%
X209485000Y-163390000D03*
X165885000Y-123190000D03*
%TO.N,step0*%
X210085000Y-169590000D03*
%TO.N,Net-(BOB-0-+VM)*%
X167085000Y-110930000D03*
X170185000Y-112530000D03*
%TO.N,SRCLK*%
X200875000Y-128790000D03*
X212688093Y-158891443D03*
%TO.N,step3*%
X212985000Y-165850000D03*
%TO.N,24V_Motor*%
X236335000Y-138080000D03*
X164485000Y-108230000D03*
X191785000Y-108380000D03*
X216985000Y-107880000D03*
X239085000Y-108180000D03*
X236185000Y-126390000D03*
X166685000Y-107080000D03*
X214735000Y-108980000D03*
X239685000Y-138130000D03*
X236285000Y-136030000D03*
X236785000Y-109230000D03*
X236785000Y-106980000D03*
X234985000Y-137080000D03*
X239635000Y-135980000D03*
X212510000Y-107905000D03*
X237835000Y-136080000D03*
X187385000Y-108380000D03*
X189585000Y-109580000D03*
X214735000Y-106730000D03*
X189585000Y-107230000D03*
X166685000Y-109430000D03*
X168885000Y-108230000D03*
X234710000Y-108155000D03*
X237835000Y-138080000D03*
%TO.N,24Vin*%
X239285000Y-133080000D03*
X239235000Y-130980000D03*
X237835000Y-133030000D03*
X237835000Y-130980000D03*
X236385000Y-133080000D03*
X236335000Y-130930000D03*
%TD*%
%TO.N,Net-(C11-Pad2)*%
D60*
X243385000Y-149392500D02*
X242772500Y-149392500D01*
X242772500Y-149392500D02*
X241220000Y-147840000D01*
%TO.N,+3V3*%
D61*
X236022500Y-151892500D02*
X235885000Y-152030000D01*
X237385000Y-151892500D02*
X236022500Y-151892500D01*
X240385000Y-152330000D02*
X238685000Y-152330000D01*
X238685000Y-152330000D02*
X238247500Y-151892500D01*
X238247500Y-151892500D02*
X237385000Y-151892500D01*
%TO.N,Net-(C11-Pad2)*%
X241220000Y-147840000D02*
X240885000Y-148175000D01*
X240885000Y-148175000D02*
X240885000Y-148530000D01*
D62*
X241220000Y-147840000D02*
X241220000Y-146940000D01*
D60*
X241220000Y-147840000D02*
X241220000Y-147490000D01*
D61*
X240385000Y-149030000D02*
X240885000Y-148530000D01*
X240385000Y-149730000D02*
X240385000Y-149030000D01*
%TO.N,24Vin*%
D60*
X250385000Y-136030000D02*
X250885000Y-136030000D01*
X250885000Y-136030000D02*
X251135000Y-136280000D01*
X251135000Y-136280000D02*
X251135000Y-137330000D01*
%TO.N,PWRSWITCH_gate*%
X244385000Y-136230000D02*
X244385000Y-135030000D01*
X244485000Y-136330000D02*
X244385000Y-136230000D01*
%TO.N,encoder0_SD*%
X188960000Y-140765000D02*
X190322500Y-140765000D01*
X179185000Y-150515000D02*
X178203750Y-150515000D01*
X178203750Y-150515000D02*
X178085000Y-150633750D01*
X188785000Y-140590000D02*
X188960000Y-140765000D01*
X177947500Y-152027500D02*
X178085000Y-151890000D01*
X176185000Y-152027500D02*
X177947500Y-152027500D01*
X178085000Y-150633750D02*
X178085000Y-151890000D01*
%TO.N,Net-(encoder0-Pin_2)*%
X171403750Y-154390000D02*
X175647500Y-154390000D01*
X175647500Y-154390000D02*
X176185000Y-153852500D01*
%TO.N,SDA*%
X203370000Y-154760000D02*
X196000000Y-147390000D01*
X196000000Y-147390000D02*
X194597500Y-147390000D01*
X196047500Y-139465000D02*
X195310001Y-139465000D01*
X203370000Y-155710000D02*
X203370000Y-154760000D01*
X195310001Y-139465000D02*
X194597500Y-140177501D01*
X194597500Y-140177501D02*
X194597500Y-147390000D01*
%TO.N,+3V3*%
X241220000Y-145340000D02*
X242438778Y-145340000D01*
X166185000Y-128633750D02*
X164928750Y-128633750D01*
D62*
X239685000Y-120190000D02*
X240672500Y-120190000D01*
D61*
X230085000Y-107190000D02*
X230085000Y-106152500D01*
D62*
X190075000Y-136400000D02*
X190085000Y-136390000D01*
X208392500Y-127140000D02*
X207225000Y-127140000D01*
D60*
X242516278Y-145417500D02*
X243885000Y-145417500D01*
D62*
X239685000Y-120190000D02*
X238585000Y-120190000D01*
X196250000Y-136390000D02*
X196250000Y-138612500D01*
X190075000Y-137434000D02*
X190075000Y-136400000D01*
D60*
X242438778Y-145340000D02*
X242516278Y-145417500D01*
D61*
X230737500Y-105500000D02*
X230737500Y-104077500D01*
D60*
X164897500Y-128665000D02*
X163285000Y-128665000D01*
D63*
X213050000Y-172200000D02*
X213385000Y-171865000D01*
D60*
X249660000Y-149140000D02*
X249672500Y-149152500D01*
X166116985Y-147658015D02*
X165196765Y-147658015D01*
D63*
X213385000Y-171865000D02*
X213385000Y-171767500D01*
D60*
X249660000Y-149165000D02*
X249635000Y-149190000D01*
X165041250Y-128633750D02*
X164985000Y-128577500D01*
X176572500Y-127565000D02*
X176572500Y-129177500D01*
D64*
X217762076Y-172700000D02*
X218674576Y-173612500D01*
D62*
X199585000Y-128790000D02*
X199585000Y-127160000D01*
D60*
X163072500Y-126790000D02*
X163072500Y-128452500D01*
X244045500Y-145417500D02*
X244820500Y-144642500D01*
X249635000Y-149190000D02*
X249635000Y-150752500D01*
X176572500Y-129177500D02*
X176585000Y-129190000D01*
X249660000Y-148190000D02*
X249660000Y-149165000D01*
D61*
X183237500Y-105700000D02*
X183237500Y-104277500D01*
D62*
X176472500Y-139727500D02*
X176472500Y-140717500D01*
D61*
X230085000Y-106152500D02*
X230737500Y-105500000D01*
D63*
X213385000Y-171767500D02*
X213482500Y-171865000D01*
D60*
X197841500Y-137434000D02*
X197885000Y-137477500D01*
X176253750Y-160090000D02*
X176253750Y-158990000D01*
X196250000Y-137434000D02*
X196250000Y-136390000D01*
X163172500Y-145690000D02*
X163172500Y-147352500D01*
X164928750Y-128633750D02*
X164897500Y-128665000D01*
D61*
X160585000Y-107290000D02*
X160585000Y-106252500D01*
D60*
X193985000Y-120590000D02*
X193972500Y-120577500D01*
D62*
X240672500Y-120190000D02*
X241672500Y-119190000D01*
D61*
X160585000Y-106252500D02*
X160647500Y-106190000D01*
D62*
X163285000Y-140530000D02*
X163285000Y-139702500D01*
X163285000Y-139702500D02*
X163272500Y-139690000D01*
D60*
X244820500Y-144642500D02*
X244820500Y-143405000D01*
X163203750Y-158290000D02*
X163203750Y-159608750D01*
D61*
X208285000Y-106127500D02*
X208247500Y-106090000D01*
D62*
X238160000Y-119765000D02*
X238160000Y-119190000D01*
D63*
X214887500Y-171865000D02*
X214985000Y-171767500D01*
X214185000Y-171865000D02*
X214887500Y-171865000D01*
D60*
X163172500Y-147352500D02*
X163285000Y-147465000D01*
D64*
X215082500Y-171865000D02*
X215420000Y-171865000D01*
D60*
X165021765Y-147658015D02*
X164828750Y-147465000D01*
D61*
X208285000Y-107190000D02*
X208285000Y-106127500D01*
X160585000Y-106252500D02*
X161237500Y-105600000D01*
D60*
X179385000Y-129190000D02*
X178222500Y-129190000D01*
D61*
X208285000Y-106052500D02*
X208837500Y-105500000D01*
D62*
X208780000Y-128690000D02*
X208780000Y-127527500D01*
X193972500Y-120577500D02*
X193972500Y-119490000D01*
D60*
X163072500Y-128452500D02*
X163285000Y-128665000D01*
X165196765Y-147658015D02*
X164916250Y-147377500D01*
X176353750Y-148546250D02*
X176185000Y-148715000D01*
D63*
X213482500Y-171865000D02*
X214185000Y-171865000D01*
D60*
X243885000Y-145417500D02*
X244045500Y-145417500D01*
X249660000Y-148190000D02*
X249660000Y-149140000D01*
D62*
X222085000Y-119290000D02*
X220997500Y-119290000D01*
D63*
X211485000Y-172200000D02*
X213050000Y-172200000D01*
D60*
X177941250Y-148715000D02*
X176185000Y-148715000D01*
D62*
X238585000Y-120190000D02*
X238160000Y-119765000D01*
D64*
X216255000Y-172700000D02*
X217762076Y-172700000D01*
D61*
X161237500Y-105600000D02*
X161237500Y-104277500D01*
D60*
X166116985Y-147658015D02*
X165021765Y-147658015D01*
X176585000Y-129190000D02*
X179385000Y-129190000D01*
X179085000Y-148690000D02*
X177966250Y-148690000D01*
D61*
X182747500Y-107190000D02*
X182747500Y-106190000D01*
D60*
X196250000Y-138612500D02*
X196047500Y-138815000D01*
D62*
X191685000Y-147390000D02*
X192772500Y-147390000D01*
X199585000Y-127160000D02*
X199605000Y-127140000D01*
D61*
X208837500Y-105500000D02*
X208837500Y-104077500D01*
D62*
X196250000Y-137434000D02*
X197841500Y-137434000D01*
D60*
X244820500Y-143405000D02*
X245083000Y-143142500D01*
D64*
X218674576Y-173612500D02*
X218885000Y-173612500D01*
D60*
X164828750Y-147465000D02*
X163285000Y-147465000D01*
X176353750Y-147090000D02*
X176353750Y-148546250D01*
D62*
X176472500Y-140717500D02*
X176485000Y-140730000D01*
D60*
X177966250Y-148690000D02*
X177941250Y-148715000D01*
D62*
X208780000Y-127527500D02*
X208392500Y-127140000D01*
D60*
X178222500Y-129190000D02*
X178185000Y-129152500D01*
D64*
X214985000Y-171767500D02*
X215082500Y-171865000D01*
D61*
X182747500Y-106190000D02*
X183237500Y-105700000D01*
X236925000Y-162700000D02*
X236955000Y-162730000D01*
X236925000Y-161330000D02*
X236925000Y-162700000D01*
D60*
X166185000Y-128633750D02*
X165041250Y-128633750D01*
D64*
X215420000Y-171865000D02*
X216255000Y-172700000D01*
D61*
X208285000Y-107190000D02*
X208285000Y-106052500D01*
D60*
X163203750Y-159608750D02*
X163285000Y-159690000D01*
%TO.N,dir2*%
X203415000Y-119660000D02*
X206297500Y-116777500D01*
X203415000Y-122190000D02*
X203415000Y-119660000D01*
%TO.N,GND*%
X171735000Y-172490000D02*
X177485000Y-172490000D01*
D61*
X185185000Y-111190000D02*
X185885000Y-110490000D01*
X206297500Y-105865000D02*
X206522500Y-106090000D01*
D65*
X236920000Y-147840000D02*
X235725000Y-147840000D01*
D63*
X213265000Y-173470000D02*
X213287500Y-173492500D01*
D60*
X212085000Y-153800000D02*
X210797500Y-153800000D01*
X158385000Y-130390000D02*
X158385000Y-127890000D01*
D65*
X236025000Y-147340000D02*
X235685000Y-147680000D01*
D63*
X213287500Y-173492500D02*
X213385000Y-173492500D01*
D61*
X209585000Y-108690000D02*
X211085000Y-110190000D01*
D60*
X237917000Y-144340000D02*
X238519500Y-144942500D01*
D61*
X230385000Y-109890000D02*
X232585000Y-109890000D01*
X208385000Y-110890000D02*
X210385000Y-110890000D01*
X210585000Y-109690000D02*
X211085000Y-110190000D01*
X209585000Y-108390000D02*
X209585000Y-108690000D01*
X184385000Y-111990000D02*
X185885000Y-110490000D01*
X162185000Y-111190000D02*
X162885000Y-110490000D01*
X183185000Y-111190000D02*
X185185000Y-111190000D01*
X243135000Y-172190000D02*
X241345000Y-172190000D01*
X231585000Y-108590000D02*
X231585000Y-108890000D01*
D60*
X172953750Y-145340000D02*
X171403750Y-146890000D01*
D62*
X235120500Y-149005000D02*
X234410000Y-149005000D01*
X234410000Y-149005000D02*
X234047500Y-149367500D01*
D61*
X161385000Y-108690000D02*
X161385000Y-108990000D01*
D62*
X244997500Y-163390000D02*
X247680000Y-163390000D01*
D61*
X161385000Y-112290000D02*
X161385000Y-111990000D01*
D65*
X235685000Y-147680000D02*
X235685000Y-147880000D01*
D62*
X208780000Y-125802500D02*
X208780000Y-124690000D01*
D60*
X233295500Y-145542500D02*
X233195500Y-145642500D01*
D62*
X242709999Y-157590000D02*
X242047500Y-157590000D01*
X247680000Y-163390000D02*
X247705000Y-163415000D01*
X243182500Y-160230000D02*
X243222500Y-160190000D01*
X245097500Y-154990000D02*
X247480000Y-154990000D01*
D61*
X183185000Y-109990000D02*
X185385000Y-109990000D01*
D60*
X236920000Y-144340000D02*
X237917000Y-144340000D01*
D61*
X180697500Y-105865000D02*
X181022500Y-106190000D01*
D60*
X178485000Y-135190000D02*
X178485000Y-134490000D01*
D61*
X209585000Y-111690000D02*
X211085000Y-110190000D01*
X231585000Y-108890000D02*
X233085000Y-110390000D01*
X160185000Y-109990000D02*
X162385000Y-109990000D01*
X228197500Y-105865000D02*
X228422500Y-106090000D01*
D62*
X243222500Y-160190000D02*
X243210000Y-160177500D01*
D60*
X241720500Y-141330000D02*
X240885000Y-141330000D01*
X178485000Y-135890000D02*
X178485000Y-135190000D01*
X240272500Y-141330000D02*
X240120000Y-141177500D01*
X177485000Y-171200000D02*
X181295000Y-167390000D01*
D62*
X247480000Y-154990000D02*
X247705000Y-154765000D01*
X194525000Y-136350000D02*
X194525000Y-137434000D01*
D60*
X162985000Y-124990000D02*
X162785000Y-124990000D01*
D61*
X185385000Y-109990000D02*
X185885000Y-110490000D01*
X158697500Y-104277500D02*
X158697500Y-105965000D01*
D63*
X213385000Y-173492500D02*
X213482500Y-173590000D01*
D60*
X203385000Y-128790000D02*
X203415000Y-128760000D01*
X173585000Y-125590000D02*
X171485000Y-127690000D01*
D62*
X197310000Y-140765000D02*
X197335000Y-140790000D01*
D61*
X241345000Y-172190000D02*
X241335000Y-172180000D01*
D60*
X165385000Y-135590000D02*
X165385000Y-134890000D01*
X181295000Y-167390000D02*
X183985000Y-167390000D01*
D62*
X238597500Y-165480000D02*
X239585000Y-165480000D01*
D61*
X210385000Y-110890000D02*
X211085000Y-110190000D01*
D65*
X236920000Y-147340000D02*
X236025000Y-147340000D01*
D60*
X163035000Y-143790000D02*
X160185000Y-146640000D01*
D62*
X196047500Y-140765000D02*
X197310000Y-140765000D01*
X242185000Y-160230000D02*
X243182500Y-160230000D01*
D61*
X161385000Y-108990000D02*
X162885000Y-110490000D01*
D60*
X162785000Y-124990000D02*
X159885000Y-127890000D01*
D62*
X190385000Y-146790000D02*
X190322500Y-146727500D01*
D60*
X246085000Y-146390000D02*
X244947500Y-146390000D01*
D62*
X190322500Y-138815000D02*
X190322500Y-139465000D01*
D60*
X240885000Y-141330000D02*
X240272500Y-141330000D01*
D62*
X190322500Y-146727500D02*
X190322500Y-145965000D01*
D60*
X165085000Y-153990000D02*
X165085000Y-153240000D01*
D65*
X235725000Y-147840000D02*
X235685000Y-147880000D01*
D60*
X160185000Y-146640000D02*
X158310000Y-146640000D01*
X171403750Y-146890000D02*
X171403750Y-149390000D01*
X171485000Y-130190000D02*
X171485000Y-127690000D01*
D62*
X198335000Y-122190000D02*
X198335000Y-120590000D01*
X240622500Y-165480000D02*
X239585000Y-165480000D01*
D60*
X192485000Y-173490000D02*
X193965000Y-173490000D01*
X193965000Y-173490000D02*
X193985000Y-173470000D01*
D61*
X231585000Y-112190000D02*
X231585000Y-111890000D01*
X228197500Y-104077500D02*
X228197500Y-105865000D01*
D60*
X159885000Y-127890000D02*
X158385000Y-127890000D01*
D62*
X243210000Y-160177500D02*
X243210000Y-158090001D01*
D61*
X206297500Y-104077500D02*
X206297500Y-105865000D01*
X160185000Y-111190000D02*
X162185000Y-111190000D01*
D60*
X176235000Y-145340000D02*
X172953750Y-145340000D01*
D61*
X158697500Y-105965000D02*
X158922500Y-106190000D01*
D65*
X238417000Y-147340000D02*
X238519500Y-147237500D01*
D60*
X233295500Y-144890000D02*
X233295500Y-145542500D01*
D62*
X190322500Y-139465000D02*
X189060000Y-139465000D01*
D61*
X217215000Y-173492500D02*
X217285000Y-173562500D01*
D60*
X165085000Y-154690000D02*
X165085000Y-153990000D01*
D61*
X208385000Y-109690000D02*
X210585000Y-109690000D01*
X180697500Y-104277500D02*
X180697500Y-105865000D01*
X232585000Y-109890000D02*
X233085000Y-110390000D01*
X231585000Y-111890000D02*
X233085000Y-110390000D01*
D60*
X165385000Y-134890000D02*
X165385000Y-134190000D01*
D65*
X236920000Y-147340000D02*
X238417000Y-147340000D01*
D60*
X177485000Y-172490000D02*
X177485000Y-171200000D01*
D61*
X214985000Y-173492500D02*
X213385000Y-173492500D01*
X184385000Y-108990000D02*
X185885000Y-110490000D01*
X230385000Y-111090000D02*
X232385000Y-111090000D01*
X161385000Y-111990000D02*
X162885000Y-110490000D01*
D62*
X234047500Y-149367500D02*
X232885000Y-149367500D01*
D61*
X184385000Y-108690000D02*
X184385000Y-108990000D01*
D60*
X246085000Y-146390000D02*
X248075000Y-146390000D01*
D62*
X203415000Y-128760000D02*
X203415000Y-127140000D01*
X189060000Y-139465000D02*
X188985000Y-139390000D01*
X234735000Y-148942500D02*
X235685000Y-147992500D01*
D63*
X211485000Y-173470000D02*
X213265000Y-173470000D01*
D60*
X248075000Y-146390000D02*
X248185000Y-146500000D01*
D61*
X162385000Y-109990000D02*
X162885000Y-110490000D01*
X232385000Y-111090000D02*
X233085000Y-110390000D01*
D62*
X235685000Y-147992500D02*
X235685000Y-147880000D01*
D60*
X178085000Y-153990000D02*
X178085000Y-154690000D01*
X233295500Y-144042500D02*
X233295500Y-144890000D01*
D62*
X243210000Y-158090001D02*
X242709999Y-157590000D01*
D60*
X178085000Y-154690000D02*
X178085000Y-155490000D01*
D61*
X214985000Y-173492500D02*
X217215000Y-173492500D01*
D60*
X176285000Y-125590000D02*
X173585000Y-125590000D01*
D61*
X209585000Y-111990000D02*
X209585000Y-111690000D01*
X184385000Y-112290000D02*
X184385000Y-111990000D01*
%TO.N,step2*%
D60*
X212345000Y-167090000D02*
X212315000Y-167120000D01*
X212315000Y-167120000D02*
X211485000Y-167120000D01*
X212985000Y-167090000D02*
X212345000Y-167090000D01*
%TO.N,mot2.B1*%
D66*
X211377500Y-104077500D02*
X211377500Y-97897500D01*
%TO.N,UART*%
D60*
X214285000Y-159587500D02*
X213102500Y-160770000D01*
X214285000Y-159490000D02*
X214285000Y-159587500D01*
X213102500Y-160770000D02*
X211485000Y-160770000D01*
%TO.N,mot2.A1*%
D66*
X213917500Y-104077500D02*
X213917500Y-97857500D01*
%TO.N,mot2.A2*%
X216457500Y-104077500D02*
X216457500Y-97817500D01*
%TO.N,/mot2/MS2*%
D60*
X218997500Y-119115000D02*
X219172500Y-119290000D01*
D62*
X218997500Y-116777500D02*
X218997500Y-119115000D01*
%TO.N,mot2.B2*%
D66*
X218997500Y-104077500D02*
X218997500Y-97802500D01*
%TO.N,en2*%
D60*
X206557240Y-114890000D02*
X222150000Y-114890000D01*
X202145000Y-119302240D02*
X206557240Y-114890000D01*
X202145000Y-122190000D02*
X202145000Y-119302240D01*
X222150000Y-114890000D02*
X224077500Y-116817500D01*
%TO.N,Net-(BOB-2-+VM)*%
D67*
X218385000Y-110080000D02*
X218385000Y-111880000D01*
D68*
X224085000Y-107180000D02*
X224077500Y-107172500D01*
X224077500Y-107172500D02*
X224077500Y-104077500D01*
D67*
X215835000Y-110080000D02*
X218385000Y-110080000D01*
X215285000Y-110630000D02*
X215835000Y-110080000D01*
D68*
X221185000Y-110080000D02*
X224085000Y-107180000D01*
X218385000Y-110080000D02*
X221185000Y-110080000D01*
D67*
X218385000Y-111880000D02*
X218185000Y-112080000D01*
%TO.N,Net-(U3-FB)*%
D60*
X241220000Y-144340000D02*
X241220000Y-143655500D01*
X243358000Y-144280000D02*
X242995500Y-144642500D01*
X243358000Y-143142500D02*
X243358000Y-144280000D01*
X241720500Y-143155000D02*
X243345500Y-143155000D01*
X241220000Y-143655500D02*
X241720500Y-143155000D01*
X243345500Y-143155000D02*
X243358000Y-143142500D01*
%TO.N,Net-(USB1-CC1)*%
X243172500Y-164590000D02*
X243172500Y-163390000D01*
%TO.N,Net-(BOB-3-+VM)*%
D61*
X241522500Y-110390000D02*
X240485000Y-110390000D01*
D67*
X237825000Y-110390000D02*
X237335000Y-110880000D01*
D68*
X245985000Y-106880000D02*
X245977500Y-106872500D01*
D67*
X240485000Y-112180000D02*
X240285000Y-112380000D01*
D68*
X245977500Y-106872500D02*
X245977500Y-104077500D01*
D67*
X240485000Y-110390000D02*
X240485000Y-112180000D01*
D68*
X242475000Y-110390000D02*
X245985000Y-106880000D01*
X240485000Y-110390000D02*
X242475000Y-110390000D01*
D67*
X240485000Y-110390000D02*
X237825000Y-110390000D01*
%TO.N,encoder2_SD*%
D60*
X178485000Y-132390000D02*
X176622500Y-132390000D01*
X188760000Y-143365000D02*
X178485000Y-133090000D01*
X190322500Y-143365000D02*
X188760000Y-143365000D01*
X178485000Y-133090000D02*
X178485000Y-132390000D01*
X176622500Y-132390000D02*
X176385000Y-132627500D01*
X178485000Y-132390000D02*
X178485000Y-131277500D01*
X178485000Y-131277500D02*
X178185000Y-130977500D01*
%TO.N,Net-(encoder2-Pin_2)*%
X176385000Y-134452500D02*
X172222500Y-134452500D01*
X172222500Y-134452500D02*
X171485000Y-135190000D01*
%TO.N,mot1.B1*%
D66*
X185777500Y-104277500D02*
X185777500Y-98022500D01*
%TO.N,mot1.A1*%
X188317500Y-104277500D02*
X188317500Y-97982500D01*
%TO.N,mot1.A2*%
X190857500Y-104277500D02*
X190857500Y-97987500D01*
%TO.N,mot1.B2*%
X193397500Y-104277500D02*
X193397500Y-98027500D01*
%TO.N,reset*%
D60*
X217285000Y-171837500D02*
X218835000Y-171837500D01*
X222842500Y-171787500D02*
X223645000Y-172590000D01*
X216492500Y-171837500D02*
X217285000Y-171837500D01*
X215585000Y-170930000D02*
X216492500Y-171837500D01*
X218835000Y-171837500D02*
X218885000Y-171787500D01*
X211485000Y-170930000D02*
X215585000Y-170930000D01*
X218885000Y-171787500D02*
X222842500Y-171787500D01*
%TO.N,encoder1_SD*%
X165510000Y-150690000D02*
X165072500Y-151127500D01*
X164916250Y-150921250D02*
X164916250Y-149202500D01*
X188285000Y-141990000D02*
X190235000Y-141990000D01*
X166785000Y-150690000D02*
X165510000Y-150690000D01*
X190235000Y-141990000D02*
X190310000Y-142065000D01*
X165072500Y-151127500D02*
X163085000Y-151127500D01*
X165085000Y-151090000D02*
X164916250Y-150921250D01*
X190310000Y-142065000D02*
X190322500Y-142065000D01*
%TO.N,Net-(encoder1-Pin_2)*%
X158310000Y-154140000D02*
X161897500Y-154140000D01*
X161897500Y-154140000D02*
X163085000Y-152952500D01*
%TO.N,Net-(U6-~{RESET})*%
X190322500Y-140115000D02*
X191059999Y-140115000D01*
X191059999Y-140115000D02*
X191900000Y-139274999D01*
X191900000Y-139274999D02*
X191900000Y-137434000D01*
%TO.N,endswitch2*%
X209485000Y-164590000D02*
X210985000Y-164590000D01*
X179285000Y-127690000D02*
X178522500Y-127690000D01*
X178285000Y-123290000D02*
X178285000Y-125490000D01*
X178285000Y-125490000D02*
X178385000Y-125590000D01*
X178385000Y-125590000D02*
X178385000Y-127552500D01*
X178522500Y-127690000D02*
X178397500Y-127565000D01*
X178385000Y-127552500D02*
X178397500Y-127565000D01*
%TO.N,/CONN/VO_USB_LDO*%
D61*
X236872500Y-164112500D02*
X236955000Y-164030000D01*
X236835000Y-165517500D02*
X236872500Y-165480000D01*
X243135000Y-169890000D02*
X236835000Y-169890000D01*
X236835000Y-169890000D02*
X236835000Y-165517500D01*
X236872500Y-165480000D02*
X236872500Y-164112500D01*
%TO.N,endswitch0*%
D60*
X178335000Y-145340000D02*
X178335000Y-146933750D01*
X178335000Y-146933750D02*
X178178750Y-147090000D01*
X179741250Y-148165000D02*
X178666250Y-147090000D01*
X202100000Y-154760000D02*
X195505000Y-148165000D01*
X178197500Y-145202500D02*
X178335000Y-145340000D01*
X178666250Y-147090000D02*
X178178750Y-147090000D01*
X195505000Y-148165000D02*
X179741250Y-148165000D01*
X202100000Y-155710000D02*
X202100000Y-154760000D01*
X178197500Y-142940000D02*
X178197500Y-145202500D01*
%TO.N,encoder3_SD*%
X163285000Y-132227500D02*
X165247500Y-132227500D01*
X165247500Y-132227500D02*
X165385000Y-132090000D01*
X177260000Y-137573278D02*
X176851722Y-137165000D01*
X181742408Y-144665000D02*
X177260000Y-140182593D01*
X169635000Y-136340000D02*
X165385000Y-132090000D01*
X165385000Y-130802500D02*
X164985000Y-130402500D01*
X165385000Y-132090000D02*
X165385000Y-130802500D01*
X172244744Y-136340000D02*
X169635000Y-136340000D01*
X176851722Y-137165000D02*
X173069744Y-137165000D01*
X177260000Y-140182593D02*
X177260000Y-137573278D01*
X190322500Y-144665000D02*
X181742408Y-144665000D01*
X173069744Y-137165000D02*
X172244744Y-136340000D01*
%TO.N,Net-(LED1-A)*%
X251385000Y-150827500D02*
X251460000Y-150752500D01*
X251385000Y-152552500D02*
X251385000Y-150827500D01*
%TO.N,Net-(encoder3-Pin_3)*%
X163285000Y-130415000D02*
X160860000Y-130415000D01*
X160860000Y-130415000D02*
X158385000Y-132890000D01*
%TO.N,24V*%
D61*
X233055000Y-126190000D02*
X233055000Y-123120000D01*
X234660000Y-147292500D02*
X234735000Y-147217500D01*
X233055000Y-123120000D02*
X233085000Y-123090000D01*
D65*
X235745000Y-146840000D02*
X235635000Y-146730000D01*
D62*
X235147500Y-147217500D02*
X235635000Y-146730000D01*
D65*
X236920000Y-146030000D02*
X236920000Y-146840000D01*
D61*
X231285000Y-147390000D02*
X232787500Y-147390000D01*
D62*
X234735000Y-147217500D02*
X235147500Y-147217500D01*
D61*
X231235000Y-126190000D02*
X230335000Y-125290000D01*
D65*
X236920000Y-145840000D02*
X236920000Y-146030000D01*
X236025000Y-146340000D02*
X235635000Y-146730000D01*
D61*
X247485000Y-123090000D02*
X233085000Y-123090000D01*
D65*
X236920000Y-146840000D02*
X235745000Y-146840000D01*
X236920000Y-146340000D02*
X236025000Y-146340000D01*
D61*
X233055000Y-126190000D02*
X231235000Y-126190000D01*
X232787500Y-147390000D02*
X232885000Y-147292500D01*
X248345000Y-122230000D02*
X247485000Y-123090000D01*
X232885000Y-147292500D02*
X234660000Y-147292500D01*
X233085000Y-126160000D02*
X233055000Y-126190000D01*
%TO.N,endswitch1*%
D60*
X164997500Y-143927500D02*
X165135000Y-143790000D01*
X200830000Y-155710000D02*
X200830000Y-154760000D01*
X164997500Y-145690000D02*
X164997500Y-143927500D01*
X195610000Y-149540000D02*
X173005096Y-149540000D01*
X165135000Y-143790000D02*
X165135000Y-142127500D01*
X200830000Y-154760000D02*
X195610000Y-149540000D01*
X172005096Y-150540000D02*
X169847500Y-150540000D01*
X165135000Y-142127500D02*
X164997500Y-141990000D01*
X169847500Y-150540000D02*
X164997500Y-145690000D01*
X173005096Y-149540000D02*
X172005096Y-150540000D01*
%TO.N,encoder1_SC*%
X165085000Y-156790000D02*
X163085000Y-154790000D01*
X163085000Y-154790000D02*
X163085000Y-154727500D01*
X165028750Y-159490000D02*
X165028750Y-156846250D01*
X189410735Y-142615735D02*
X189510000Y-142715000D01*
X189510000Y-142715000D02*
X190322500Y-142715000D01*
X188859265Y-142615735D02*
X189410735Y-142615735D01*
X165028750Y-156846250D02*
X165085000Y-156790000D01*
%TO.N,Net-(encoder3-Pin_2)*%
X163285000Y-134052500D02*
X159722500Y-134052500D01*
X159722500Y-134052500D02*
X158385000Y-135390000D01*
%TO.N,encoder2_SC*%
X188210000Y-144015000D02*
X183922500Y-139727500D01*
X183922500Y-139727500D02*
X178297500Y-139727500D01*
X178247500Y-137990000D02*
X176385000Y-136127500D01*
X178485000Y-137990000D02*
X178247500Y-137990000D01*
X190322500Y-144015000D02*
X188210000Y-144015000D01*
X178297500Y-139727500D02*
X178297500Y-138177500D01*
X178297500Y-138177500D02*
X178485000Y-137990000D01*
%TO.N,encoder0_SC*%
X178085000Y-157590000D02*
X178078750Y-157596250D01*
X176185000Y-155690000D02*
X176185000Y-155627500D01*
X178085000Y-157590000D02*
X176185000Y-155690000D01*
X188910000Y-141415000D02*
X190322500Y-141415000D01*
X178078750Y-157596250D02*
X178078750Y-158990000D01*
X179285000Y-157590000D02*
X178085000Y-157590000D01*
X188885000Y-141390000D02*
X188910000Y-141415000D01*
%TO.N,encoder3_SC*%
X166737500Y-141330000D02*
X165097500Y-139690000D01*
X163422500Y-135727500D02*
X163285000Y-135727500D01*
X165097500Y-139690000D02*
X165097500Y-137977500D01*
X165097500Y-137977500D02*
X165385000Y-137690000D01*
X165385000Y-137690000D02*
X163422500Y-135727500D01*
X181826722Y-145315000D02*
X177841722Y-141330000D01*
X190322500Y-145315000D02*
X181826722Y-145315000D01*
X177841722Y-141330000D02*
X166737500Y-141330000D01*
%TO.N,SCL*%
X197885000Y-140441471D02*
X197885000Y-139302500D01*
X204640000Y-153245000D02*
X198085000Y-146690000D01*
X198085000Y-140641471D02*
X197885000Y-140441471D01*
X204640000Y-155710000D02*
X204640000Y-153245000D01*
X196047500Y-140115000D02*
X196972500Y-140115000D01*
X197785000Y-139302500D02*
X197885000Y-139302500D01*
X196972500Y-140115000D02*
X197785000Y-139302500D01*
X198085000Y-146690000D02*
X198085000Y-140641471D01*
%TO.N,Net-(encoder2-Pin_6)*%
X171485000Y-125190000D02*
X174560000Y-125190000D01*
X174560000Y-125190000D02*
X176460000Y-123290000D01*
%TO.N,dir1*%
X197088500Y-116193500D02*
X195485000Y-114590000D01*
X205955000Y-123164999D02*
X205252999Y-123867000D01*
X195485000Y-114590000D02*
X183085000Y-114590000D01*
X183085000Y-114590000D02*
X180697500Y-116977500D01*
X205252999Y-123867000D02*
X198395032Y-123867000D01*
X205955000Y-122190000D02*
X205955000Y-123164999D01*
X198395032Y-123867000D02*
X197088500Y-122560468D01*
X197088500Y-122560468D02*
X197088500Y-116193500D01*
%TO.N,step1*%
X212985000Y-168490000D02*
X211585000Y-168490000D01*
X211585000Y-168490000D02*
X211485000Y-168390000D01*
%TO.N,/mot1/MS1*%
X195937500Y-119350000D02*
X195797500Y-119490000D01*
D62*
X195937500Y-116977500D02*
X195937500Y-119350000D01*
%TO.N,en1*%
D60*
X204685000Y-123164999D02*
X204383999Y-123466000D01*
X199264032Y-123466000D02*
X198936000Y-123137968D01*
X204685000Y-122190000D02*
X204685000Y-123164999D01*
X198936000Y-123137968D02*
X198936000Y-117476000D01*
X204383999Y-123466000D02*
X199264032Y-123466000D01*
X198936000Y-117476000D02*
X198477500Y-117017500D01*
%TO.N,Net-(BOB-1-+VM)*%
D67*
X193285000Y-112380000D02*
X192985000Y-112680000D01*
D68*
X195275000Y-110590000D02*
X198477500Y-107387500D01*
X198477500Y-107387500D02*
X198477500Y-104277500D01*
D61*
X194022500Y-110590000D02*
X193285000Y-110590000D01*
D67*
X193285000Y-110590000D02*
X193285000Y-112380000D01*
X193285000Y-110590000D02*
X190675000Y-110590000D01*
X190675000Y-110590000D02*
X190235000Y-111030000D01*
D68*
X193285000Y-110590000D02*
X195275000Y-110590000D01*
%TO.N,Net-(U1-IO46)*%
D60*
X208450000Y-154322500D02*
X208450000Y-155710000D01*
X208972500Y-153800000D02*
X208450000Y-154322500D01*
%TO.N,Net-(C11-Pad2)*%
X243020500Y-149640500D02*
X243020500Y-149715000D01*
X241220000Y-147490000D02*
X241220000Y-147340000D01*
X241220000Y-147490000D02*
X241220000Y-146840000D01*
%TO.N,Net-(J2-Pad2)*%
X248285000Y-131630000D02*
X248285000Y-130190000D01*
%TO.N,24Vin*%
X232322500Y-142052500D02*
X231335000Y-142052500D01*
X232385000Y-141990000D02*
X232322500Y-142052500D01*
%TO.N,PWRSWITCH_gate*%
X240685000Y-137130000D02*
X240685000Y-138530000D01*
X238898604Y-139180000D02*
X238798604Y-139280000D01*
X245125000Y-138390000D02*
X245125000Y-136970000D01*
X233375000Y-139280000D02*
X228660000Y-134565000D01*
X238798604Y-139280000D02*
X233375000Y-139280000D01*
X240035000Y-139180000D02*
X238898604Y-139180000D01*
X226585000Y-132490000D02*
X228660000Y-134565000D01*
X245125000Y-136970000D02*
X244485000Y-136330000D01*
X240685000Y-138530000D02*
X240035000Y-139180000D01*
X244485000Y-136330000D02*
X241485000Y-136330000D01*
X241485000Y-136330000D02*
X240685000Y-137130000D01*
%TO.N,Net-(encoder1-Pin_3)*%
X163285000Y-149215000D02*
X160860000Y-151640000D01*
X160860000Y-151640000D02*
X158310000Y-151640000D01*
%TO.N,USB D+*%
X241653749Y-156640000D02*
X240928749Y-157365000D01*
X211785000Y-156960000D02*
X211485000Y-156960000D01*
X212582796Y-157370000D02*
X212195000Y-157370000D01*
X242047500Y-156640000D02*
X241653749Y-156640000D01*
X212195000Y-157370000D02*
X211785000Y-156960000D01*
X212587796Y-157365000D02*
X212582796Y-157370000D01*
X240928749Y-157365000D02*
X212587796Y-157365000D01*
%TO.N,USB D-*%
X212760002Y-157815000D02*
X212755002Y-157820000D01*
X240928749Y-157815000D02*
X212760002Y-157815000D01*
X212755002Y-157820000D02*
X212195000Y-157820000D01*
X241653749Y-158540000D02*
X240928749Y-157815000D01*
X211785000Y-158230000D02*
X211485000Y-158230000D01*
X212195000Y-157820000D02*
X211785000Y-158230000D01*
X242047500Y-158540000D02*
X241653749Y-158540000D01*
%TO.N,Net-(USB1-DN1)*%
X246725000Y-158665000D02*
X247189702Y-158665000D01*
X247189702Y-158665000D02*
X248039702Y-159515000D01*
X244322500Y-158540000D02*
X246600000Y-158540000D01*
X248039702Y-159515000D02*
X248075000Y-159515000D01*
X246600000Y-158540000D02*
X246725000Y-158665000D01*
%TO.N,VBUS*%
D62*
X242635000Y-161130000D02*
X244685000Y-161130000D01*
X242347500Y-165480000D02*
X242235000Y-165367500D01*
X243135000Y-167590000D02*
X243135000Y-167030000D01*
X245640381Y-157590000D02*
X244322500Y-157590000D01*
X242347500Y-166242500D02*
X242347500Y-165480000D01*
X242235000Y-165367500D02*
X242235000Y-161530000D01*
X245595000Y-160190000D02*
X245885000Y-160480000D01*
X244685000Y-161130000D02*
X244947500Y-160867500D01*
X246725000Y-156965000D02*
X246265381Y-156965000D01*
X245885000Y-160480000D02*
X245885000Y-160834619D01*
X248075000Y-161215000D02*
X246725000Y-161215000D01*
X244947500Y-160190000D02*
X245595000Y-160190000D01*
X245885000Y-160834619D02*
X246265381Y-161215000D01*
X246265381Y-161215000D02*
X246725000Y-161215000D01*
X242235000Y-161530000D02*
X242635000Y-161130000D01*
X248075000Y-156965000D02*
X246725000Y-156965000D01*
X243135000Y-167030000D02*
X242347500Y-166242500D01*
X244947500Y-160867500D02*
X244947500Y-160190000D01*
X246265381Y-156965000D02*
X245640381Y-157590000D01*
%TO.N,Net-(USB1-DP1)*%
D60*
X245485000Y-156640000D02*
X244322500Y-156640000D01*
%TO.N,Net-(encoder0-Pin_1)*%
X175622500Y-156890000D02*
X176185000Y-157452500D01*
X171403750Y-156890000D02*
X175622500Y-156890000D01*
%TO.N,Net-(encoder0-Pin_3)*%
X174760000Y-151890000D02*
X176185000Y-150465000D01*
X171403750Y-151890000D02*
X174760000Y-151890000D01*
%TO.N,Net-(encoder0-Pin_6)*%
X174922500Y-144390000D02*
X176372500Y-142940000D01*
X171403750Y-144390000D02*
X174922500Y-144390000D01*
%TO.N,/esp32/TX*%
X213112500Y-162040000D02*
X213385000Y-162312500D01*
X211485000Y-162040000D02*
X213112500Y-162040000D01*
%TO.N,Net-(USB1-CC2)*%
X249206000Y-157143619D02*
X248534619Y-157815000D01*
X249206000Y-154453926D02*
X249206000Y-157143619D01*
X243272500Y-154990000D02*
X244248500Y-154014000D01*
X248534619Y-157815000D02*
X248075000Y-157815000D01*
X248766074Y-154014000D02*
X249206000Y-154453926D01*
X244248500Y-154014000D02*
X248766074Y-154014000D01*
%TO.N,Net-(encoder3-Pin_1)*%
X163285000Y-137552500D02*
X158722500Y-137552500D01*
X158722500Y-137552500D02*
X158385000Y-137890000D01*
%TO.N,Net-(encoder3-Pin_6)*%
X158385000Y-125390000D02*
X160972500Y-125390000D01*
X160972500Y-125390000D02*
X163172500Y-123190000D01*
%TO.N,tx_ext*%
X184985000Y-170930000D02*
X183985000Y-169930000D01*
X193985000Y-170930000D02*
X184985000Y-170930000D01*
%TO.N,rx_ext*%
X193985000Y-172200000D02*
X184255000Y-172200000D01*
X184255000Y-172200000D02*
X183985000Y-172470000D01*
%TO.N,Net-(NPN1-B)*%
X240462590Y-144840000D02*
X240195000Y-144572410D01*
X246585000Y-143080000D02*
X247235000Y-143080000D01*
X247235000Y-141730000D02*
X247535000Y-141430000D01*
X240195000Y-144572410D02*
X240195000Y-142977500D01*
X247535000Y-141430000D02*
X250485000Y-141430000D01*
X250485000Y-141430000D02*
X251497500Y-142442500D01*
X251497500Y-142442500D02*
X251497500Y-149152500D01*
X247235000Y-143080000D02*
X247235000Y-141730000D01*
X240195000Y-142977500D02*
X240120000Y-142902500D01*
X245632500Y-142127500D02*
X246585000Y-143080000D01*
X240895000Y-142127500D02*
X245632500Y-142127500D01*
X241220000Y-144840000D02*
X240462590Y-144840000D01*
X240120000Y-142902500D02*
X240895000Y-142127500D01*
%TO.N,Net-(encoder1-Pin_1)*%
X163085000Y-156552500D02*
X158397500Y-156552500D01*
X158397500Y-156552500D02*
X158310000Y-156640000D01*
%TO.N,Net-(U1-IO0)*%
X182565000Y-156960000D02*
X193985000Y-156960000D01*
X171735000Y-167790000D02*
X182565000Y-156960000D01*
X171735000Y-168490000D02*
X171735000Y-167790000D01*
X177485000Y-168490000D02*
X171735000Y-168490000D01*
%TO.N,endswitch3*%
X165085000Y-126602500D02*
X164897500Y-126790000D01*
X164997500Y-124902500D02*
X165085000Y-124990000D01*
X209485000Y-163390000D02*
X211085000Y-163390000D01*
X165085000Y-124990000D02*
X165085000Y-126602500D01*
X164997500Y-123190000D02*
X165885000Y-123190000D01*
X164997500Y-123190000D02*
X164997500Y-124902500D01*
%TO.N,dir0*%
X204464000Y-124669000D02*
X183764000Y-124669000D01*
X183764000Y-124669000D02*
X180385000Y-121290000D01*
X205955000Y-126160000D02*
X204464000Y-124669000D01*
X163010000Y-121290000D02*
X158697500Y-116977500D01*
X180385000Y-121290000D02*
X163010000Y-121290000D01*
X205955000Y-127140000D02*
X205955000Y-126160000D01*
%TO.N,step0*%
X210085000Y-169590000D02*
X210155000Y-169660000D01*
X210155000Y-169660000D02*
X211485000Y-169660000D01*
%TO.N,mot0.B1*%
D66*
X163777500Y-104277500D02*
X163777500Y-97797500D01*
%TO.N,mot0.A1*%
X166317500Y-104277500D02*
X166317500Y-97757500D01*
%TO.N,mot0.A2*%
X168857500Y-104277500D02*
X168857500Y-97717500D01*
%TO.N,mot0.B2*%
X171385000Y-97690000D02*
X171385000Y-104265000D01*
X171385000Y-104265000D02*
X171397500Y-104277500D01*
%TO.N,en0*%
D60*
X195863000Y-124268000D02*
X192085000Y-120490000D01*
X181985000Y-117490000D02*
X181185000Y-118290000D01*
X207225000Y-122190000D02*
X207225000Y-123164999D01*
X192085000Y-120490000D02*
X192085000Y-116290000D01*
X207225000Y-123164999D02*
X206121999Y-124268000D01*
X177750000Y-118290000D02*
X176477500Y-117017500D01*
X183159240Y-115190000D02*
X181985000Y-116364240D01*
X181185000Y-118290000D02*
X177750000Y-118290000D01*
X192085000Y-116290000D02*
X190985000Y-115190000D01*
X206121999Y-124268000D02*
X195863000Y-124268000D01*
X181985000Y-116364240D02*
X181985000Y-117490000D01*
X190985000Y-115190000D02*
X183159240Y-115190000D01*
%TO.N,Net-(BOB-0-+VM)*%
D68*
X173925000Y-110490000D02*
X176485000Y-107930000D01*
X176485000Y-107930000D02*
X176477500Y-107922500D01*
X170385000Y-110490000D02*
X173925000Y-110490000D01*
D67*
X170385000Y-110490000D02*
X170385000Y-112330000D01*
X170385000Y-110490000D02*
X167525000Y-110490000D01*
X167525000Y-110490000D02*
X167085000Y-110930000D01*
D68*
X176477500Y-107922500D02*
X176477500Y-104277500D01*
D67*
X170385000Y-112330000D02*
X170185000Y-112530000D01*
%TO.N,PWRSWITCH_diode*%
D65*
X241345000Y-139630000D02*
X242585000Y-138390000D01*
X239085000Y-139630000D02*
X241345000Y-139630000D01*
X230897500Y-140590000D02*
X238125000Y-140590000D01*
X238125000Y-140590000D02*
X239085000Y-139630000D01*
D60*
X229435000Y-142052500D02*
X228873750Y-141491250D01*
X228847500Y-141517500D02*
X226735000Y-141517500D01*
D65*
X229435000Y-142052500D02*
X230897500Y-140590000D01*
D60*
X228873750Y-141491250D02*
X228847500Y-141517500D01*
X228873750Y-141491250D02*
X228797500Y-141415000D01*
%TO.N,PWRSWITCH_Voltage*%
X251135000Y-139155000D02*
X248430000Y-139155000D01*
X248430000Y-139155000D02*
X247665000Y-138390000D01*
%TO.N,Net-(encoder2-Pin_1)*%
X171747500Y-137952500D02*
X171485000Y-137690000D01*
X176385000Y-137952500D02*
X171747500Y-137952500D01*
%TO.N,Net-(encoder2-Pin_3)*%
X176585000Y-130940000D02*
X173235000Y-130940000D01*
X173235000Y-130940000D02*
X171485000Y-132690000D01*
%TO.N,Net-(U3-BST)*%
X243020500Y-147990000D02*
X242245000Y-147214500D01*
X242245000Y-147214500D02*
X242245000Y-146607590D01*
X241977410Y-146340000D02*
X241220000Y-146340000D01*
X242245000Y-146607590D02*
X241977410Y-146340000D01*
%TO.N,Net-(U3-TR{slash}SS)*%
X236920000Y-144840000D02*
X235818000Y-144840000D01*
X235818000Y-144840000D02*
X235020500Y-144042500D01*
%TO.N,Net-(U3-RT)*%
X235323000Y-145340000D02*
X235020500Y-145642500D01*
X236920000Y-145340000D02*
X235323000Y-145340000D01*
%TO.N,/mot3/MS1*%
X243437500Y-116842500D02*
X243497500Y-116902500D01*
X243437500Y-116777500D02*
X243437500Y-116842500D01*
D62*
X243497500Y-116902500D02*
X243497500Y-119190000D01*
%TO.N,dir3*%
D60*
X200875000Y-120005140D02*
X206790140Y-114090000D01*
X206790140Y-114090000D02*
X221985000Y-114090000D01*
X223323500Y-115428500D02*
X226848500Y-115428500D01*
X221985000Y-114090000D02*
X223323500Y-115428500D01*
X226848500Y-115428500D02*
X228197500Y-116777500D01*
X200875000Y-122190000D02*
X200875000Y-120005140D01*
%TO.N,en3*%
X207186540Y-113126500D02*
X225231500Y-113126500D01*
X199605000Y-120708040D02*
X207186540Y-113126500D01*
X243940000Y-114780000D02*
X245977500Y-116817500D01*
X225231500Y-113126500D02*
X226885000Y-114780000D01*
X226885000Y-114780000D02*
X243940000Y-114780000D01*
X199605000Y-122190000D02*
X199605000Y-120708040D01*
%TO.N,SRCLK*%
X212575000Y-159500000D02*
X211485000Y-159500000D01*
X200875000Y-128790000D02*
X200875000Y-127140000D01*
X212688093Y-159386907D02*
X212575000Y-159500000D01*
X212688093Y-158891443D02*
X212688093Y-159386907D01*
%TO.N,RCLK*%
X201785000Y-129390000D02*
X202145000Y-129030000D01*
X205910000Y-153115000D02*
X201785000Y-148990000D01*
X201785000Y-148990000D02*
X201785000Y-129390000D01*
X205910000Y-155710000D02*
X205910000Y-153115000D01*
X202145000Y-129030000D02*
X202145000Y-127140000D01*
%TO.N,SER*%
X207180000Y-155710000D02*
X207180000Y-151585000D01*
X203185000Y-147590000D02*
X203185000Y-129838529D01*
X203185000Y-129838529D02*
X204685000Y-128338529D01*
X204685000Y-128338529D02*
X204685000Y-127140000D01*
X207180000Y-151585000D02*
X203185000Y-147590000D01*
%TO.N,Net-(encoder1-Pin_6)*%
X163172500Y-141990000D02*
X161022500Y-144140000D01*
X161022500Y-144140000D02*
X158310000Y-144140000D01*
%TO.N,step3*%
X211485000Y-165850000D02*
X212985000Y-165850000D01*
%TO.N,mot3.B1*%
D66*
X233277500Y-104077500D02*
X233277500Y-97922500D01*
%TO.N,mot3.A1*%
X235817500Y-104077500D02*
X235817500Y-97882500D01*
%TO.N,mot3.A2*%
X238357500Y-104077500D02*
X238357500Y-97842500D01*
%TO.N,/mot3/MS2*%
D62*
X240897500Y-116777500D02*
X239985000Y-117690000D01*
X239985000Y-117690000D02*
X239985000Y-119190000D01*
%TO.N,mot3.B2*%
D66*
X240897500Y-104077500D02*
X240897500Y-97802500D01*
%TO.N,Net-(LED1-K)*%
D60*
X249335000Y-152552500D02*
X248707500Y-152552500D01*
X248707500Y-152552500D02*
X248335000Y-152180000D01*
X248335000Y-152180000D02*
X248335000Y-148330000D01*
X248335000Y-148330000D02*
X249135000Y-147530000D01*
X249135000Y-147530000D02*
X249135000Y-143080000D01*
%TO.N,IO38*%
X184335000Y-162040000D02*
X193985000Y-162040000D01*
X183985000Y-162390000D02*
X184335000Y-162040000D01*
%TO.N,Net-(U3-INTVcc)*%
X241220000Y-145840000D02*
X242672500Y-145840000D01*
X242672500Y-145840000D02*
X243222500Y-146390000D01*
%TO.N,24V_Motor*%
D61*
X239685000Y-138130000D02*
X239685000Y-137080000D01*
X237810000Y-137105000D02*
X235010000Y-137105000D01*
X237885000Y-137030000D02*
X237810000Y-137105000D01*
X236285000Y-136030000D02*
X236285000Y-138030000D01*
X237810000Y-138055000D02*
X237835000Y-138080000D01*
X239685000Y-137080000D02*
X239660000Y-137105000D01*
X237810000Y-137105000D02*
X237810000Y-136105000D01*
X237810000Y-136105000D02*
X237835000Y-136080000D01*
X239635000Y-135980000D02*
X239635000Y-137030000D01*
X236285000Y-138030000D02*
X236335000Y-138080000D01*
X239660000Y-137105000D02*
X237810000Y-137105000D01*
X236185000Y-126390000D02*
X237635000Y-126390000D01*
X237810000Y-137105000D02*
X237810000Y-138055000D01*
X235010000Y-137105000D02*
X234985000Y-137080000D01*
X237635000Y-126390000D02*
X237835000Y-126190000D01*
X239635000Y-137030000D02*
X237885000Y-137030000D01*
%TO.N,24Vin*%
X236385000Y-133080000D02*
X236385000Y-130980000D01*
X236340000Y-132025000D02*
X236335000Y-132030000D01*
X236385000Y-130980000D02*
X236335000Y-130930000D01*
X237810000Y-132025000D02*
X237810000Y-131005000D01*
X239235000Y-133030000D02*
X239285000Y-133080000D01*
X237810000Y-132025000D02*
X236340000Y-132025000D01*
X237810000Y-131005000D02*
X237835000Y-130980000D01*
X237810000Y-133005000D02*
X237835000Y-133030000D01*
X237810000Y-132025000D02*
X237810000Y-133005000D01*
X236335000Y-132030000D02*
X236335000Y-130930000D01*
X239235000Y-130980000D02*
X239235000Y-133030000D01*
%TD*%
%TA.AperFunction,Conductor*%
%TO.N,GND*%
G36*
X208528039Y-157409685D02*
G01*
X208573794Y-157462489D01*
X208585000Y-157514000D01*
X208585000Y-173406000D01*
X208565315Y-173473039D01*
X208512511Y-173518794D01*
X208461000Y-173530000D01*
X195709000Y-173530000D01*
X195641961Y-173510315D01*
X195596206Y-173457511D01*
X195585000Y-173406000D01*
X195585000Y-157514000D01*
X195604685Y-157446961D01*
X195657489Y-157401206D01*
X195709000Y-157390000D01*
X208461000Y-157390000D01*
X208528039Y-157409685D01*
G37*
%TD.AperFunction*%
%TD*%
%TA.AperFunction,Conductor*%
%TO.N,GND*%
G36*
X235528039Y-159009685D02*
G01*
X235573794Y-159062489D01*
X235585000Y-159114000D01*
X235585000Y-164466000D01*
X235565315Y-164533039D01*
X235512511Y-164578794D01*
X235461000Y-164590000D01*
X233185000Y-164590000D01*
X233185000Y-173995500D01*
X233165315Y-174062539D01*
X233112511Y-174108294D01*
X233061000Y-174119500D01*
X227330446Y-174119500D01*
X227263407Y-174099815D01*
X227217652Y-174047011D01*
X227207708Y-173977853D01*
X227236733Y-173914297D01*
X227271018Y-173886668D01*
X227277093Y-173883350D01*
X227392187Y-173797190D01*
X227392190Y-173797187D01*
X227478350Y-173682093D01*
X227478354Y-173682086D01*
X227528596Y-173547379D01*
X227528598Y-173547372D01*
X227534999Y-173487844D01*
X227535000Y-173487827D01*
X227535000Y-172840000D01*
X226618012Y-172840000D01*
X226650925Y-172782993D01*
X226685000Y-172655826D01*
X226685000Y-172524174D01*
X226650925Y-172397007D01*
X226618012Y-172340000D01*
X227535000Y-172340000D01*
X227535000Y-171692172D01*
X227534999Y-171692155D01*
X227528598Y-171632627D01*
X227528596Y-171632620D01*
X227478354Y-171497913D01*
X227478350Y-171497906D01*
X227392190Y-171382812D01*
X227392187Y-171382809D01*
X227277093Y-171296649D01*
X227277086Y-171296645D01*
X227142379Y-171246403D01*
X227142372Y-171246401D01*
X227082844Y-171240000D01*
X226435000Y-171240000D01*
X226435000Y-172156988D01*
X226377993Y-172124075D01*
X226250826Y-172090000D01*
X226119174Y-172090000D01*
X225992007Y-172124075D01*
X225935000Y-172156988D01*
X225935000Y-171240000D01*
X225287155Y-171240000D01*
X225227627Y-171246401D01*
X225227619Y-171246403D01*
X225137080Y-171280172D01*
X225067388Y-171285156D01*
X225006065Y-171251670D01*
X224972581Y-171190347D01*
X224969771Y-171161553D01*
X224985000Y-170390000D01*
X224514595Y-170380591D01*
X215106520Y-170192430D01*
X215039888Y-170171409D01*
X214995198Y-170117701D01*
X214985000Y-170068455D01*
X214985000Y-159916523D01*
X214994439Y-159869071D01*
X215054735Y-159723501D01*
X215054737Y-159723497D01*
X215085500Y-159568842D01*
X215085500Y-159411158D01*
X215085500Y-159411155D01*
X215085499Y-159411153D01*
X215054738Y-159256510D01*
X215054737Y-159256503D01*
X215015365Y-159161452D01*
X215007897Y-159091983D01*
X215039172Y-159029504D01*
X215099261Y-158993852D01*
X215129927Y-158990000D01*
X235461000Y-158990000D01*
X235528039Y-159009685D01*
G37*
%TD.AperFunction*%
%TD*%
%TA.AperFunction,Conductor*%
%TO.N,GND*%
G36*
X230876469Y-118284010D02*
G01*
X230891530Y-118288209D01*
X230906669Y-118297647D01*
X230923855Y-118302443D01*
X230950799Y-118325160D01*
X230950821Y-118325174D01*
X230950838Y-118325193D01*
X230951740Y-118326206D01*
X230980112Y-118381469D01*
X230981980Y-118389778D01*
X230985000Y-118416976D01*
X230985000Y-124048166D01*
X230983101Y-124061367D01*
X230983400Y-124061389D01*
X230983045Y-124066348D01*
X230982376Y-124069176D01*
X230982655Y-124070715D01*
X230980767Y-124077599D01*
X230979976Y-124083104D01*
X230978693Y-124087473D01*
X230978107Y-124087301D01*
X230978023Y-124087608D01*
X230974258Y-124103548D01*
X230974297Y-124103563D01*
X230974183Y-124103867D01*
X230973936Y-124104915D01*
X230973075Y-124106993D01*
X230972759Y-124107687D01*
X230972686Y-124107933D01*
X230971636Y-124110472D01*
X230971291Y-124110899D01*
X230970922Y-124111709D01*
X230970715Y-124111614D01*
X230951236Y-124135800D01*
X230934899Y-124157627D01*
X230935773Y-124158637D01*
X230934717Y-124159551D01*
X230932807Y-124160422D01*
X230931410Y-124162290D01*
X230928970Y-124164118D01*
X230928709Y-124163770D01*
X230927810Y-124164888D01*
X230910118Y-124170781D01*
X230871258Y-124188524D01*
X230869822Y-124188731D01*
X230852130Y-124190000D01*
X230660361Y-124190000D01*
X230647256Y-124189306D01*
X230644472Y-124189010D01*
X230624502Y-124185971D01*
X230624328Y-124186851D01*
X230617887Y-124185570D01*
X230611361Y-124184977D01*
X230578037Y-124181948D01*
X230577974Y-124181942D01*
X230551091Y-124179500D01*
X230551088Y-124179500D01*
X230118901Y-124179500D01*
X230118893Y-124179500D01*
X230091948Y-124181948D01*
X230091884Y-124181954D01*
X230052118Y-124185568D01*
X230045677Y-124186850D01*
X230045502Y-124185970D01*
X230025530Y-124189009D01*
X230022752Y-124189305D01*
X230021597Y-124189095D01*
X230009643Y-124190000D01*
X229185000Y-124190000D01*
X229184299Y-124190700D01*
X229179975Y-124220763D01*
X229176064Y-124234080D01*
X229138287Y-124292856D01*
X229074733Y-124321877D01*
X229074730Y-124321877D01*
X229074729Y-124321878D01*
X229074727Y-124321877D01*
X229073780Y-124322014D01*
X229014406Y-124316043D01*
X229008597Y-124313967D01*
X228986177Y-124303317D01*
X228871396Y-124233929D01*
X228744365Y-124194345D01*
X228717791Y-124186065D01*
X228685000Y-124183085D01*
X228685000Y-125148170D01*
X228684999Y-125148176D01*
X228685000Y-125148179D01*
X228679975Y-125183114D01*
X228675570Y-125198112D01*
X228637827Y-125256855D01*
X228637792Y-125256885D01*
X228637791Y-125256887D01*
X228637789Y-125256887D01*
X228636458Y-125258042D01*
X228581597Y-125285518D01*
X228574039Y-125287163D01*
X228547668Y-125290000D01*
X228435000Y-125290000D01*
X228435000Y-125398170D01*
X228434999Y-125398176D01*
X228435000Y-125398179D01*
X228429975Y-125433114D01*
X228425570Y-125448112D01*
X228387827Y-125506855D01*
X228387792Y-125506885D01*
X228387791Y-125506887D01*
X228387789Y-125506887D01*
X228386458Y-125508042D01*
X228331597Y-125535518D01*
X228324039Y-125537163D01*
X228297668Y-125540000D01*
X227610000Y-125540000D01*
X227610000Y-125791051D01*
X227616063Y-125857788D01*
X227616066Y-125857798D01*
X227663927Y-126011393D01*
X227663928Y-126011395D01*
X227747163Y-126149080D01*
X227747166Y-126149084D01*
X227860915Y-126262833D01*
X227860917Y-126262834D01*
X227860919Y-126262836D01*
X227998604Y-126346070D01*
X227998606Y-126346070D01*
X228005020Y-126349948D01*
X228004879Y-126350180D01*
X228015243Y-126355399D01*
X228023887Y-126361157D01*
X228044920Y-126386253D01*
X228050447Y-126390990D01*
X228052883Y-126395755D01*
X228068766Y-126414706D01*
X228077570Y-126484018D01*
X228047503Y-126547088D01*
X227989101Y-126583613D01*
X227986333Y-126584401D01*
X227983319Y-126585259D01*
X227978850Y-126585883D01*
X227977126Y-126586851D01*
X227973479Y-126586632D01*
X227949359Y-126590000D01*
X222185000Y-126590000D01*
X222185000Y-142190000D01*
X225807119Y-142190000D01*
X225839354Y-142194263D01*
X225840714Y-142194629D01*
X225854388Y-142198644D01*
X225860847Y-142200049D01*
X225863751Y-142200831D01*
X225891077Y-142217531D01*
X225919190Y-142232880D01*
X225919197Y-142232887D01*
X226016374Y-142330064D01*
X226037526Y-142358320D01*
X226045018Y-142372041D01*
X226059870Y-142440301D01*
X226059741Y-142442107D01*
X226040372Y-142500311D01*
X226036189Y-142506820D01*
X226019555Y-142527462D01*
X225915049Y-142631968D01*
X225824552Y-142778686D01*
X225824550Y-142778689D01*
X225824543Y-142778703D01*
X225770318Y-142942348D01*
X225760000Y-143043339D01*
X225760000Y-143043342D01*
X225760000Y-143043345D01*
X225760000Y-143092500D01*
X227709999Y-143092500D01*
X227709999Y-143043360D01*
X227709998Y-143043345D01*
X227699680Y-142942347D01*
X227645453Y-142778699D01*
X227645448Y-142778688D01*
X227599645Y-142704431D01*
X227554957Y-142631980D01*
X227554943Y-142631960D01*
X227453617Y-142530634D01*
X227439770Y-142514141D01*
X227434336Y-142506390D01*
X227433326Y-142503402D01*
X227432470Y-142502382D01*
X227430286Y-142498382D01*
X227431172Y-142497898D01*
X227422712Y-142483639D01*
X227422042Y-142483946D01*
X227420777Y-142481177D01*
X227420625Y-142480122D01*
X227419690Y-142478546D01*
X227418650Y-142475758D01*
X227419928Y-142475281D01*
X227417807Y-142460542D01*
X227412937Y-142451627D01*
X227413441Y-142444552D01*
X227411970Y-142440197D01*
X227413817Y-142432817D01*
X227411671Y-142417899D01*
X227410314Y-142417802D01*
X227410414Y-142416403D01*
X227411165Y-142414387D01*
X227410825Y-142412020D01*
X227410830Y-142411983D01*
X227411263Y-142408975D01*
X227413085Y-142409237D01*
X227416639Y-142399704D01*
X227417907Y-142381934D01*
X227434816Y-142350954D01*
X227435681Y-142349798D01*
X227447275Y-142336413D01*
X227544769Y-142238920D01*
X227573020Y-142217773D01*
X227596109Y-142205165D01*
X227655533Y-142190000D01*
X228043171Y-142190000D01*
X228078106Y-142195023D01*
X228093104Y-142199427D01*
X228151855Y-142237172D01*
X228151879Y-142237200D01*
X228151882Y-142237202D01*
X228151883Y-142237204D01*
X228153042Y-142238541D01*
X228180518Y-142293402D01*
X228182163Y-142300960D01*
X228185000Y-142327331D01*
X228185000Y-148390000D01*
X231683557Y-148390000D01*
X231713676Y-148394330D01*
X231718489Y-148395021D01*
X231731808Y-148398932D01*
X231790586Y-148436706D01*
X231819612Y-148500261D01*
X231819617Y-148500296D01*
X231819712Y-148500958D01*
X231813549Y-148560823D01*
X231811273Y-148567103D01*
X231800231Y-148589949D01*
X231725645Y-148710869D01*
X231725643Y-148710874D01*
X231725641Y-148710878D01*
X231725638Y-148710888D01*
X231670494Y-148877299D01*
X231670493Y-148877304D01*
X231660000Y-148980007D01*
X231660000Y-148980013D01*
X231660000Y-149117500D01*
X232743171Y-149117500D01*
X232778106Y-149122523D01*
X232793104Y-149126927D01*
X232851855Y-149164672D01*
X232851879Y-149164700D01*
X232851882Y-149164702D01*
X232851883Y-149164704D01*
X232853042Y-149166041D01*
X232880518Y-149220902D01*
X232882163Y-149228460D01*
X232885000Y-149254831D01*
X232885000Y-149367500D01*
X232993171Y-149367500D01*
X233028106Y-149372523D01*
X233043104Y-149376927D01*
X233101855Y-149414672D01*
X233101879Y-149414700D01*
X233101882Y-149414702D01*
X233101883Y-149414704D01*
X233103042Y-149416041D01*
X233130518Y-149470902D01*
X233132163Y-149478460D01*
X233135000Y-149504831D01*
X233135000Y-150454999D01*
X233409960Y-150454999D01*
X233409972Y-150454999D01*
X233409986Y-150454998D01*
X233512697Y-150444505D01*
X233679119Y-150389358D01*
X233679124Y-150389356D01*
X233828345Y-150297315D01*
X233952315Y-150173345D01*
X234044358Y-150024120D01*
X234045980Y-150019224D01*
X234061731Y-149987654D01*
X234070637Y-149974791D01*
X234124961Y-149930890D01*
X234126638Y-149930193D01*
X234187343Y-149921379D01*
X234195046Y-149922197D01*
X234220946Y-149927795D01*
X234347347Y-149969680D01*
X234448352Y-149979999D01*
X234485000Y-149979999D01*
X234985000Y-149979999D01*
X235021628Y-149979999D01*
X235021640Y-149979999D01*
X235021654Y-149979998D01*
X235122652Y-149969680D01*
X235286300Y-149915453D01*
X235286311Y-149915448D01*
X235433034Y-149824947D01*
X235433038Y-149824944D01*
X235439643Y-149818339D01*
X236410000Y-149818339D01*
X236410000Y-149818342D01*
X236410000Y-149818345D01*
X236410000Y-149917500D01*
X237135000Y-149917500D01*
X237635000Y-149917500D01*
X238359999Y-149917500D01*
X238359999Y-149818360D01*
X238359998Y-149818345D01*
X238349680Y-149717347D01*
X238295453Y-149553699D01*
X238295448Y-149553688D01*
X238225317Y-149439989D01*
X238204957Y-149406980D01*
X238204952Y-149406973D01*
X238204947Y-149406965D01*
X238204944Y-149406961D01*
X238204941Y-149406958D01*
X238204939Y-149406955D01*
X238083043Y-149285059D01*
X238083040Y-149285057D01*
X238083038Y-149285055D01*
X238083034Y-149285052D01*
X238083028Y-149285048D01*
X238083018Y-149285041D01*
X237973439Y-149217452D01*
X237936311Y-149194551D01*
X237936309Y-149194550D01*
X237936295Y-149194543D01*
X237772650Y-149140318D01*
X237671659Y-149130000D01*
X237671654Y-149130000D01*
X237635000Y-149130000D01*
X237635000Y-149917500D01*
X237135000Y-149917500D01*
X237135000Y-149130000D01*
X237098363Y-149130000D01*
X237098361Y-149130000D01*
X237098343Y-149130001D01*
X237098332Y-149130002D01*
X237098319Y-149130003D01*
X236997345Y-149140319D01*
X236833701Y-149194545D01*
X236833689Y-149194550D01*
X236833686Y-149194552D01*
X236686980Y-149285041D01*
X236686958Y-149285057D01*
X236686955Y-149285059D01*
X236565059Y-149406955D01*
X236565057Y-149406958D01*
X236565041Y-149406980D01*
X236474552Y-149553686D01*
X236474550Y-149553689D01*
X236474543Y-149553703D01*
X236420318Y-149717348D01*
X236410000Y-149818339D01*
X235439643Y-149818339D01*
X235502997Y-149754986D01*
X235530470Y-149727514D01*
X235530474Y-149727510D01*
X235542705Y-149715277D01*
X235554944Y-149703038D01*
X235554947Y-149703034D01*
X235645448Y-149556311D01*
X235645453Y-149556300D01*
X235646315Y-149553701D01*
X235683994Y-149439989D01*
X235699680Y-149392652D01*
X235709999Y-149291654D01*
X235710000Y-149291641D01*
X235710000Y-149192500D01*
X234985000Y-149192500D01*
X234985000Y-149979999D01*
X234485000Y-149979999D01*
X234485000Y-149084329D01*
X234490023Y-149049393D01*
X234494427Y-149034395D01*
X234504069Y-149019386D01*
X234504685Y-149017290D01*
X234506334Y-149015860D01*
X234532172Y-148975644D01*
X234533541Y-148974457D01*
X234588420Y-148946977D01*
X234595979Y-148945333D01*
X234622332Y-148942500D01*
X234735000Y-148942500D01*
X234735000Y-148834329D01*
X234740023Y-148799393D01*
X234744427Y-148784395D01*
X234782172Y-148725644D01*
X234782200Y-148725619D01*
X234782199Y-148725619D01*
X234783541Y-148724456D01*
X234838420Y-148696977D01*
X234845979Y-148695333D01*
X234872332Y-148692500D01*
X235709999Y-148692500D01*
X235709999Y-148593364D01*
X235709999Y-148593360D01*
X235709998Y-148593345D01*
X235704991Y-148544332D01*
X235706437Y-148509078D01*
X235709129Y-148494597D01*
X235740735Y-148432289D01*
X235798552Y-148397597D01*
X235810590Y-148394329D01*
X235843071Y-148390000D01*
X239479793Y-148390000D01*
X239490300Y-148391510D01*
X239490317Y-148391227D01*
X239494759Y-148391479D01*
X239498948Y-148392442D01*
X239501300Y-148392024D01*
X239510485Y-148394413D01*
X239514728Y-148395023D01*
X239518229Y-148396051D01*
X239518126Y-148396400D01*
X239533017Y-148400273D01*
X239535475Y-148400838D01*
X239535625Y-148400900D01*
X239537636Y-148401749D01*
X239537713Y-148401771D01*
X239540816Y-148403066D01*
X239540878Y-148403116D01*
X239540889Y-148403121D01*
X239540887Y-148403124D01*
X239565541Y-148423093D01*
X239591284Y-148441802D01*
X239592507Y-148444935D01*
X239595110Y-148447043D01*
X239604803Y-148476411D01*
X239614237Y-148500564D01*
X239615859Y-148500332D01*
X239616068Y-148501790D01*
X239615711Y-148504337D01*
X239616596Y-148506601D01*
X239616633Y-148507020D01*
X239615320Y-148507135D01*
X239615208Y-148507937D01*
X239617009Y-148513392D01*
X239611411Y-148535094D01*
X239607161Y-148565494D01*
X239608245Y-148565931D01*
X239607259Y-148568380D01*
X239606578Y-148569669D01*
X239606536Y-148569970D01*
X239606431Y-148570205D01*
X239606321Y-148570155D01*
X239595338Y-148590953D01*
X239593728Y-148593364D01*
X239586192Y-148604642D01*
X239586117Y-148604957D01*
X239585298Y-148605980D01*
X239583604Y-148608517D01*
X239583386Y-148608371D01*
X239573036Y-148621318D01*
X239564364Y-148632750D01*
X239563397Y-148633676D01*
X239559684Y-148637088D01*
X239559171Y-148637724D01*
X239555928Y-148640831D01*
X239527873Y-148655376D01*
X239505715Y-148668424D01*
X239506152Y-148669736D01*
X239495879Y-148673155D01*
X239456722Y-148679500D01*
X239437131Y-148679500D01*
X239437127Y-148679500D01*
X239436946Y-148679511D01*
X239436084Y-148679612D01*
X239377516Y-148685907D01*
X239242666Y-148736204D01*
X239242665Y-148736205D01*
X239127456Y-148822450D01*
X239127450Y-148822456D01*
X239041205Y-148937665D01*
X239041203Y-148937668D01*
X238990907Y-149072516D01*
X238986072Y-149117500D01*
X238984501Y-149132116D01*
X238984500Y-149132135D01*
X238984500Y-150327863D01*
X238984679Y-150331180D01*
X238984572Y-150331185D01*
X238984972Y-150338639D01*
X238984996Y-150341438D01*
X238984973Y-150341515D01*
X238985000Y-150342489D01*
X238985000Y-151052441D01*
X238979976Y-151087381D01*
X238976138Y-151100450D01*
X238938361Y-151159226D01*
X238874804Y-151188249D01*
X238812792Y-151181299D01*
X238805075Y-151178342D01*
X238780566Y-151165661D01*
X238778454Y-151164250D01*
X238767118Y-151156676D01*
X238762459Y-151153563D01*
X238762455Y-151153560D01*
X238762454Y-151153559D01*
X238674044Y-151094485D01*
X238674042Y-151094484D01*
X238592107Y-151060546D01*
X238592106Y-151060546D01*
X238510166Y-151026605D01*
X238510158Y-151026603D01*
X238510151Y-151026601D01*
X238510132Y-151026597D01*
X238376674Y-151000051D01*
X238343390Y-150988310D01*
X238331090Y-150981876D01*
X238280811Y-150933360D01*
X238279181Y-150926461D01*
X238264743Y-150865367D01*
X238265063Y-150859393D01*
X238283347Y-150800928D01*
X238295449Y-150781309D01*
X238295453Y-150781300D01*
X238349680Y-150617652D01*
X238359999Y-150516654D01*
X238360000Y-150516641D01*
X238360000Y-150417500D01*
X236410001Y-150417500D01*
X236410001Y-150516663D01*
X236420319Y-150617653D01*
X236474544Y-150781296D01*
X236474550Y-150781309D01*
X236478511Y-150787731D01*
X236483613Y-150799473D01*
X236492574Y-150820096D01*
X236496237Y-150833481D01*
X236494946Y-150903339D01*
X236456093Y-150961409D01*
X236456054Y-150961441D01*
X236455542Y-150961868D01*
X236401376Y-150988040D01*
X236394833Y-150989401D01*
X236369580Y-150992000D01*
X235933804Y-150992000D01*
X235765945Y-151025389D01*
X235765723Y-151025434D01*
X235761300Y-151026313D01*
X235759830Y-151026606D01*
X235759826Y-151026607D01*
X235595965Y-151094479D01*
X235595956Y-151094484D01*
X235595939Y-151094494D01*
X235448467Y-151193032D01*
X235448464Y-151193034D01*
X235431026Y-151210474D01*
X235362001Y-151279499D01*
X235185535Y-151455964D01*
X235185532Y-151455966D01*
X235086988Y-151603449D01*
X235019105Y-151767333D01*
X235019097Y-151767366D01*
X234984500Y-151941299D01*
X234984500Y-152118699D01*
X235019097Y-152292632D01*
X235019105Y-152292665D01*
X235086987Y-152456547D01*
X235086988Y-152456548D01*
X235185534Y-152604034D01*
X235185540Y-152604041D01*
X235310958Y-152729459D01*
X235310965Y-152729465D01*
X235437327Y-152813897D01*
X235458451Y-152828011D01*
X235458452Y-152828011D01*
X235458453Y-152828012D01*
X235622334Y-152895895D01*
X235744390Y-152920173D01*
X235793332Y-152929908D01*
X235795567Y-152930409D01*
X235796305Y-152930500D01*
X235973693Y-152930500D01*
X235977814Y-152930500D01*
X235985667Y-152928117D01*
X236147666Y-152895895D01*
X236311547Y-152828012D01*
X236317853Y-152823797D01*
X236349681Y-152808571D01*
X236381325Y-152798663D01*
X236418373Y-152793000D01*
X236662872Y-152793000D01*
X236696698Y-152797703D01*
X236728624Y-152806757D01*
X236759884Y-152820512D01*
X236833477Y-152865904D01*
X236833478Y-152865904D01*
X236833679Y-152866028D01*
X236835995Y-152866740D01*
X236997247Y-152920174D01*
X237098323Y-152930500D01*
X237671676Y-152930499D01*
X237671684Y-152930498D01*
X237671687Y-152930498D01*
X237671695Y-152930497D01*
X237671985Y-152930479D01*
X237673001Y-152930363D01*
X237717342Y-152925833D01*
X237727031Y-152924844D01*
X237727031Y-152924843D01*
X237772753Y-152920174D01*
X237855174Y-152892861D01*
X237889910Y-152886641D01*
X237906778Y-152886061D01*
X237972467Y-152902273D01*
X237984313Y-152909029D01*
X238010555Y-152929055D01*
X238110961Y-153029461D01*
X238110965Y-153029464D01*
X238258446Y-153128009D01*
X238258459Y-153128016D01*
X238294579Y-153142977D01*
X238380144Y-153178419D01*
X238380182Y-153178434D01*
X238381363Y-153178923D01*
X238422334Y-153195894D01*
X238422336Y-153195894D01*
X238422341Y-153195896D01*
X238588680Y-153228982D01*
X238591403Y-153229704D01*
X238596306Y-153230500D01*
X238596307Y-153230500D01*
X238596309Y-153230500D01*
X239058939Y-153230500D01*
X239093871Y-153235522D01*
X239101626Y-153237798D01*
X239123213Y-153244137D01*
X239162582Y-153263843D01*
X239242668Y-153323795D01*
X239242671Y-153323797D01*
X239377517Y-153374091D01*
X239377516Y-153374091D01*
X239384444Y-153374835D01*
X239437127Y-153380500D01*
X240543172Y-153380499D01*
X240578107Y-153385522D01*
X240593105Y-153389926D01*
X240651883Y-153427701D01*
X240651890Y-153427710D01*
X240653076Y-153429079D01*
X240680518Y-153483901D01*
X240682163Y-153491459D01*
X240685000Y-153517830D01*
X240685000Y-155448170D01*
X240684999Y-155448176D01*
X240685000Y-155448179D01*
X240679975Y-155483114D01*
X240675570Y-155498112D01*
X240637827Y-155556855D01*
X240637792Y-155556885D01*
X240637791Y-155556887D01*
X240637789Y-155556887D01*
X240636458Y-155558042D01*
X240581597Y-155585518D01*
X240574039Y-155587163D01*
X240547668Y-155590000D01*
X212926830Y-155590000D01*
X212926825Y-155589999D01*
X212926823Y-155590000D01*
X212891889Y-155584975D01*
X212876890Y-155580570D01*
X212818144Y-155542827D01*
X212818115Y-155542793D01*
X212818114Y-155542793D01*
X212818113Y-155542791D01*
X212816957Y-155541458D01*
X212789477Y-155486583D01*
X212787832Y-155479021D01*
X212785000Y-155452668D01*
X212785000Y-154390000D01*
X211897180Y-154390000D01*
X211897177Y-154389999D01*
X211897176Y-154390000D01*
X211862241Y-154384976D01*
X211848923Y-154381065D01*
X211790146Y-154343289D01*
X211761124Y-154279732D01*
X211761123Y-154279729D01*
X211760150Y-154272959D01*
X211765181Y-154216320D01*
X211774680Y-154187654D01*
X211774680Y-154187653D01*
X211774681Y-154187648D01*
X211775150Y-154184742D01*
X211775322Y-154181368D01*
X211784999Y-154086654D01*
X211785000Y-154086641D01*
X211785000Y-154050000D01*
X210939330Y-154050000D01*
X210939325Y-154049999D01*
X210939323Y-154050000D01*
X210904389Y-154044975D01*
X210889390Y-154040570D01*
X210830644Y-154002827D01*
X210830615Y-154002793D01*
X210830614Y-154002793D01*
X210830613Y-154002791D01*
X210829457Y-154001458D01*
X210801977Y-153946583D01*
X210800332Y-153939021D01*
X210797500Y-153912668D01*
X210797500Y-153800000D01*
X210689330Y-153800000D01*
X210689325Y-153799999D01*
X210689323Y-153800000D01*
X210654389Y-153794975D01*
X210639390Y-153790570D01*
X210580644Y-153752827D01*
X210580615Y-153752793D01*
X210580614Y-153752793D01*
X210580613Y-153752791D01*
X210579457Y-153751458D01*
X210551977Y-153696583D01*
X210550332Y-153689021D01*
X210547500Y-153662668D01*
X210547500Y-153550000D01*
X211047500Y-153550000D01*
X211784999Y-153550000D01*
X211784999Y-153513360D01*
X211784998Y-153513345D01*
X211774680Y-153412347D01*
X211720453Y-153248699D01*
X211720448Y-153248688D01*
X211646014Y-153128013D01*
X211629957Y-153101980D01*
X211629952Y-153101973D01*
X211629947Y-153101965D01*
X211629944Y-153101961D01*
X211629941Y-153101958D01*
X211629939Y-153101955D01*
X211508043Y-152980059D01*
X211508040Y-152980057D01*
X211508038Y-152980055D01*
X211508034Y-152980052D01*
X211508028Y-152980048D01*
X211508018Y-152980041D01*
X211371594Y-152895894D01*
X211361311Y-152889551D01*
X211361309Y-152889550D01*
X211361295Y-152889543D01*
X211197650Y-152835318D01*
X211096659Y-152825000D01*
X211096654Y-152825000D01*
X211047500Y-152825000D01*
X211047500Y-153550000D01*
X210547500Y-153550000D01*
X210547500Y-152824999D01*
X210547499Y-152824998D01*
X210547498Y-152824998D01*
X210498381Y-152824999D01*
X210498353Y-152825000D01*
X210498319Y-152825003D01*
X210397345Y-152835319D01*
X210233701Y-152889545D01*
X210233689Y-152889550D01*
X210233686Y-152889552D01*
X210086968Y-152980049D01*
X210020848Y-153046169D01*
X210020844Y-153046171D01*
X210020844Y-153046172D01*
X209992589Y-153067322D01*
X209982662Y-153072742D01*
X209914389Y-153087591D01*
X209848925Y-153063171D01*
X209807061Y-153007248D01*
X209807057Y-153007237D01*
X209803299Y-152997161D01*
X209795722Y-152961567D01*
X209785000Y-152790000D01*
X208106667Y-151279500D01*
X206412772Y-149754995D01*
X231660001Y-149754995D01*
X231670493Y-149857694D01*
X231670494Y-149857696D01*
X231724020Y-150019229D01*
X231725641Y-150024119D01*
X231725643Y-150024124D01*
X231817684Y-150173345D01*
X231941654Y-150297315D01*
X232090875Y-150389356D01*
X232090880Y-150389358D01*
X232257299Y-150444504D01*
X232257300Y-150444504D01*
X232257302Y-150444505D01*
X232257309Y-150444506D01*
X232360019Y-150454999D01*
X232634999Y-150454999D01*
X232635000Y-150454998D01*
X232635000Y-149617500D01*
X231660001Y-149617500D01*
X231660001Y-149754995D01*
X206412772Y-149754995D01*
X206305340Y-149658306D01*
X205295512Y-148749461D01*
X204280984Y-147836385D01*
X204278596Y-147834178D01*
X204276221Y-147831925D01*
X204273880Y-147829645D01*
X203835076Y-147390841D01*
X203813925Y-147362587D01*
X203801437Y-147339717D01*
X203786277Y-147278865D01*
X203828084Y-143641663D01*
X225760001Y-143641663D01*
X225770319Y-143742653D01*
X225824545Y-143906297D01*
X225824550Y-143906309D01*
X225824552Y-143906312D01*
X225915041Y-144053018D01*
X225915048Y-144053028D01*
X225915052Y-144053034D01*
X225915055Y-144053038D01*
X225915057Y-144053040D01*
X225915059Y-144053043D01*
X226036955Y-144174939D01*
X226036958Y-144174941D01*
X226036961Y-144174944D01*
X226036965Y-144174947D01*
X226036973Y-144174952D01*
X226036980Y-144174957D01*
X226109431Y-144219645D01*
X226183688Y-144265448D01*
X226183699Y-144265453D01*
X226347347Y-144319680D01*
X226448352Y-144329999D01*
X226485000Y-144329999D01*
X226985000Y-144329999D01*
X227021628Y-144329999D01*
X227021640Y-144329999D01*
X227021654Y-144329998D01*
X227122652Y-144319680D01*
X227286300Y-144265453D01*
X227286311Y-144265448D01*
X227433034Y-144174947D01*
X227433038Y-144174944D01*
X227554944Y-144053038D01*
X227554947Y-144053034D01*
X227645448Y-143906311D01*
X227645453Y-143906300D01*
X227699680Y-143742652D01*
X227709999Y-143641654D01*
X227710000Y-143641641D01*
X227710000Y-143592500D01*
X226985000Y-143592500D01*
X226985000Y-144329999D01*
X226485000Y-144329999D01*
X226485000Y-143592500D01*
X225760001Y-143592500D01*
X225760001Y-143641663D01*
X203828084Y-143641663D01*
X203829256Y-143539713D01*
X203983386Y-130130403D01*
X203988809Y-130095531D01*
X203993385Y-130080583D01*
X204031822Y-130022250D01*
X204033495Y-130020833D01*
X204087974Y-129994147D01*
X204094908Y-129992680D01*
X204120555Y-129990000D01*
X209785000Y-129990000D01*
X209883553Y-126639214D01*
X209885000Y-126589998D01*
X209825336Y-126592353D01*
X209825333Y-126592354D01*
X209825330Y-126592354D01*
X209790227Y-126588713D01*
X209776766Y-126585331D01*
X209716544Y-126549905D01*
X209685035Y-126487543D01*
X209685032Y-126487531D01*
X209684454Y-126484393D01*
X209686887Y-126428886D01*
X209688447Y-126423246D01*
X209688446Y-126423245D01*
X209689110Y-126420846D01*
X209690906Y-126414931D01*
X209744680Y-126252652D01*
X209754999Y-126151654D01*
X209755000Y-126151641D01*
X209755000Y-126052500D01*
X208921830Y-126052500D01*
X208921825Y-126052499D01*
X208921823Y-126052500D01*
X208886889Y-126047475D01*
X208871890Y-126043070D01*
X208813144Y-126005327D01*
X208813115Y-126005293D01*
X208813114Y-126005293D01*
X208813113Y-126005291D01*
X208811957Y-126003958D01*
X208784477Y-125949083D01*
X208782832Y-125941521D01*
X208780000Y-125915168D01*
X208780000Y-125802500D01*
X208671830Y-125802500D01*
X208671825Y-125802499D01*
X208671823Y-125802500D01*
X208636889Y-125797475D01*
X208621890Y-125793070D01*
X208563144Y-125755327D01*
X208563115Y-125755293D01*
X208563114Y-125755293D01*
X208563113Y-125755291D01*
X208561957Y-125753958D01*
X208534477Y-125699083D01*
X208532832Y-125691521D01*
X208530000Y-125665168D01*
X208530000Y-125552500D01*
X209030000Y-125552500D01*
X209754999Y-125552500D01*
X209754999Y-125453360D01*
X209754998Y-125453345D01*
X209744680Y-125352347D01*
X209690453Y-125188699D01*
X209690448Y-125188688D01*
X209644645Y-125114431D01*
X209599957Y-125041980D01*
X209599943Y-125041960D01*
X209597983Y-125040000D01*
X209478039Y-124920056D01*
X209478036Y-124920054D01*
X209438188Y-124895475D01*
X209432042Y-124891684D01*
X209432040Y-124891682D01*
X209331313Y-124829553D01*
X209331307Y-124829549D01*
X209331300Y-124829546D01*
X209331299Y-124829545D01*
X209331296Y-124829544D01*
X209208780Y-124788947D01*
X227610000Y-124788947D01*
X227610000Y-124788956D01*
X227610000Y-125040000D01*
X228185000Y-125040000D01*
X228185000Y-124183085D01*
X228184999Y-124183085D01*
X228181721Y-124183382D01*
X228152207Y-124186065D01*
X227998602Y-124233929D01*
X227860918Y-124317163D01*
X227860914Y-124317166D01*
X227747166Y-124430914D01*
X227747163Y-124430918D01*
X227663928Y-124568603D01*
X227663927Y-124568605D01*
X227616066Y-124722200D01*
X227616063Y-124722210D01*
X227610000Y-124788947D01*
X209208780Y-124788947D01*
X209167650Y-124775318D01*
X209066659Y-124765000D01*
X209066654Y-124765000D01*
X209030000Y-124765000D01*
X209030000Y-125552500D01*
X208530000Y-125552500D01*
X208530000Y-124765000D01*
X208493361Y-124765000D01*
X208493343Y-124765001D01*
X208493332Y-124765002D01*
X208493319Y-124765003D01*
X208392345Y-124775319D01*
X208228706Y-124829543D01*
X208228697Y-124829546D01*
X208228690Y-124829549D01*
X208228688Y-124829550D01*
X208189268Y-124853865D01*
X208156903Y-124867928D01*
X208143518Y-124871591D01*
X208073660Y-124870300D01*
X208015592Y-124831448D01*
X208015069Y-124830821D01*
X207988953Y-124776705D01*
X207987592Y-124770159D01*
X207985000Y-124744935D01*
X207985000Y-123273406D01*
X207986237Y-123255938D01*
X207988686Y-123238727D01*
X207992369Y-123221614D01*
X208022598Y-123117569D01*
X208025500Y-123080694D01*
X208025500Y-121299306D01*
X208022598Y-121262431D01*
X207992372Y-121158393D01*
X207988687Y-121141275D01*
X207986237Y-121124058D01*
X207985000Y-121106589D01*
X207985000Y-118731829D01*
X207990023Y-118696893D01*
X207994427Y-118681895D01*
X208032172Y-118623144D01*
X208033541Y-118621957D01*
X208088420Y-118594477D01*
X208095979Y-118592833D01*
X208122332Y-118590000D01*
X217643171Y-118590000D01*
X217678106Y-118595023D01*
X217693104Y-118599427D01*
X217751855Y-118637172D01*
X217751879Y-118637200D01*
X217751882Y-118637202D01*
X217751883Y-118637204D01*
X217753042Y-118638541D01*
X217780518Y-118693402D01*
X217782163Y-118700960D01*
X217785000Y-118727331D01*
X217785000Y-120590000D01*
X222785000Y-120590000D01*
X222785000Y-119728735D01*
X222787382Y-119704547D01*
X222792057Y-119681041D01*
X222799108Y-119657797D01*
X222830942Y-119580943D01*
X222854737Y-119523497D01*
X222885500Y-119368842D01*
X222885500Y-119211158D01*
X222885500Y-119211155D01*
X222885500Y-119210973D01*
X222885065Y-119208972D01*
X222855398Y-119059830D01*
X222854983Y-119057403D01*
X222854738Y-119056507D01*
X222854737Y-119056505D01*
X222854737Y-119056503D01*
X222799109Y-118922204D01*
X222792057Y-118898955D01*
X222787381Y-118875451D01*
X222785000Y-118851264D01*
X222785000Y-118530139D01*
X222790023Y-118495203D01*
X222794427Y-118480205D01*
X222832184Y-118421443D01*
X222832365Y-118421285D01*
X222833897Y-118419958D01*
X222887927Y-118392675D01*
X222894717Y-118391149D01*
X222920196Y-118388145D01*
X230841475Y-118279468D01*
X230876469Y-118284010D01*
G37*
%TD.AperFunction*%
%TD*%
%TA.AperFunction,Conductor*%
%TO.N,24Vin*%
G36*
X236573144Y-128049685D02*
G01*
X236605369Y-128079686D01*
X236637454Y-128122546D01*
X236683643Y-128157123D01*
X236752664Y-128208793D01*
X236752671Y-128208797D01*
X236887517Y-128259091D01*
X236887516Y-128259091D01*
X236894444Y-128259835D01*
X236947127Y-128265500D01*
X238722872Y-128265499D01*
X238782483Y-128259091D01*
X238917331Y-128208796D01*
X239032546Y-128122546D01*
X239064629Y-128079687D01*
X239120562Y-128037818D01*
X239163895Y-128030000D01*
X244333638Y-128030000D01*
X244400677Y-128049685D01*
X244421319Y-128066319D01*
X245348681Y-128993681D01*
X245382166Y-129055004D01*
X245385000Y-129081362D01*
X245385000Y-133478637D01*
X245365315Y-133545676D01*
X245348681Y-133566318D01*
X244695590Y-134219408D01*
X244634267Y-134252893D01*
X244583718Y-134253344D01*
X244463846Y-134229500D01*
X244463842Y-134229500D01*
X244306158Y-134229500D01*
X244306155Y-134229500D01*
X244151510Y-134260261D01*
X244151498Y-134260264D01*
X244005827Y-134320602D01*
X244005814Y-134320609D01*
X243874711Y-134408210D01*
X243874707Y-134408213D01*
X243763213Y-134519707D01*
X243763210Y-134519711D01*
X243675609Y-134650814D01*
X243675602Y-134650827D01*
X243615264Y-134796498D01*
X243615261Y-134796510D01*
X243588670Y-134930191D01*
X243556285Y-134992102D01*
X243495569Y-135026677D01*
X243467053Y-135030000D01*
X235436362Y-135030000D01*
X235369323Y-135010315D01*
X235348681Y-134993681D01*
X234421319Y-134066319D01*
X234387834Y-134004996D01*
X234385000Y-133978638D01*
X234385000Y-132575000D01*
X235052737Y-132575000D01*
X235075641Y-132644120D01*
X235167684Y-132793345D01*
X235291654Y-132917315D01*
X235440875Y-133009356D01*
X235440880Y-133009358D01*
X235607302Y-133064505D01*
X235607309Y-133064506D01*
X235710019Y-133074999D01*
X237259999Y-133074999D01*
X238360000Y-133074999D01*
X239909972Y-133074999D01*
X239909986Y-133074998D01*
X240012697Y-133064505D01*
X240179119Y-133009358D01*
X240179124Y-133009356D01*
X240295903Y-132937326D01*
X240363295Y-132918886D01*
X240429959Y-132939808D01*
X240474729Y-132993450D01*
X240485000Y-133042865D01*
X240485000Y-133235344D01*
X240491401Y-133294872D01*
X240491403Y-133294879D01*
X240541645Y-133429586D01*
X240541649Y-133429593D01*
X240627809Y-133544687D01*
X240627812Y-133544690D01*
X240742906Y-133630850D01*
X240742913Y-133630854D01*
X240877620Y-133681096D01*
X240877627Y-133681098D01*
X240937155Y-133687499D01*
X240937172Y-133687500D01*
X241285000Y-133687500D01*
X242485000Y-133687500D01*
X242832828Y-133687500D01*
X242832844Y-133687499D01*
X242892372Y-133681098D01*
X242892379Y-133681096D01*
X243027086Y-133630854D01*
X243027093Y-133630850D01*
X243142187Y-133544690D01*
X243142190Y-133544687D01*
X243228350Y-133429593D01*
X243228354Y-133429586D01*
X243278596Y-133294879D01*
X243278598Y-133294872D01*
X243284999Y-133235344D01*
X243285000Y-133235327D01*
X243285000Y-131587500D01*
X242485000Y-131587500D01*
X242485000Y-133687500D01*
X241285000Y-133687500D01*
X241285000Y-131587500D01*
X240479000Y-131587500D01*
X240411961Y-131567815D01*
X240366206Y-131515011D01*
X240355000Y-131463500D01*
X240355000Y-131159339D01*
X240328345Y-131132684D01*
X240179124Y-131040643D01*
X240179119Y-131040641D01*
X240012697Y-130985494D01*
X240012690Y-130985493D01*
X239909986Y-130975000D01*
X238360000Y-130975000D01*
X238360000Y-133074999D01*
X237259999Y-133074999D01*
X237260000Y-133074998D01*
X237260000Y-132575000D01*
X235052737Y-132575000D01*
X234385000Y-132575000D01*
X234385000Y-131475000D01*
X235052737Y-131475000D01*
X237260000Y-131475000D01*
X237260000Y-130975000D01*
X235710028Y-130975000D01*
X235710012Y-130975001D01*
X235607302Y-130985494D01*
X235440880Y-131040641D01*
X235440875Y-131040643D01*
X235291654Y-131132684D01*
X235167684Y-131256654D01*
X235075641Y-131405879D01*
X235052737Y-131475000D01*
X234385000Y-131475000D01*
X234385000Y-129081362D01*
X234404685Y-129014323D01*
X234421319Y-128993681D01*
X234675345Y-128739655D01*
X240485000Y-128739655D01*
X240485000Y-130387500D01*
X241285000Y-130387500D01*
X241285000Y-129634839D01*
X241485000Y-129634839D01*
X241485000Y-132340161D01*
X241512259Y-132441894D01*
X241564920Y-132533106D01*
X241639394Y-132607580D01*
X241730606Y-132660241D01*
X241832339Y-132687500D01*
X241937661Y-132687500D01*
X242039394Y-132660241D01*
X242130606Y-132607580D01*
X242205080Y-132533106D01*
X242257741Y-132441894D01*
X242285000Y-132340161D01*
X242285000Y-130387500D01*
X242485000Y-130387500D01*
X243285000Y-130387500D01*
X243285000Y-128739672D01*
X243284999Y-128739655D01*
X243278598Y-128680127D01*
X243278596Y-128680120D01*
X243228354Y-128545413D01*
X243228350Y-128545406D01*
X243142190Y-128430312D01*
X243142187Y-128430309D01*
X243027093Y-128344149D01*
X243027086Y-128344145D01*
X242892379Y-128293903D01*
X242892372Y-128293901D01*
X242832844Y-128287500D01*
X242485000Y-128287500D01*
X242485000Y-130387500D01*
X242285000Y-130387500D01*
X242285000Y-129634839D01*
X242257741Y-129533106D01*
X242205080Y-129441894D01*
X242130606Y-129367420D01*
X242039394Y-129314759D01*
X241937661Y-129287500D01*
X241832339Y-129287500D01*
X241730606Y-129314759D01*
X241639394Y-129367420D01*
X241564920Y-129441894D01*
X241512259Y-129533106D01*
X241485000Y-129634839D01*
X241285000Y-129634839D01*
X241285000Y-128287500D01*
X240937155Y-128287500D01*
X240877627Y-128293901D01*
X240877620Y-128293903D01*
X240742913Y-128344145D01*
X240742906Y-128344149D01*
X240627812Y-128430309D01*
X240627809Y-128430312D01*
X240541649Y-128545406D01*
X240541645Y-128545413D01*
X240491403Y-128680120D01*
X240491401Y-128680127D01*
X240485000Y-128739655D01*
X234675345Y-128739655D01*
X235348681Y-128066319D01*
X235410004Y-128032834D01*
X235436362Y-128030000D01*
X236506105Y-128030000D01*
X236573144Y-128049685D01*
G37*
%TD.AperFunction*%
%TD*%
M02*
