%TF.GenerationSoftware,KiCad,Pcbnew,10.0.4-10.0.4~ubuntu24.04.1*%
%TF.CreationDate,2026-07-20T13:26:45+02:00*%
%TF.ProjectId,esp32stepper,65737033-3273-4746-9570-7065722e6b69,rev?*%
%TF.SameCoordinates,Original*%
%TF.FileFunction,Soldermask,Bot*%
%TF.FilePolarity,Negative*%
%FSLAX46Y46*%
G04 Gerber Fmt 4.6, Leading zero omitted, Abs format (unit mm)*
G04 Created by KiCad (PCBNEW 10.0.4-10.0.4~ubuntu24.04.1) date 2026-07-20 13:26:45*
%MOMM*%
%LPD*%
G01*
G04 APERTURE LIST*
G04 Aperture macros list*
%AMRoundRect*
0 Rectangle with rounded corners*
0 $1 Rounding radius*
0 $2 $3 $4 $5 $6 $7 $8 $9 X,Y pos of 4 corners*
0 Add a 4 corners polygon primitive as box body*
4,1,4,$2,$3,$4,$5,$6,$7,$8,$9,$2,$3,0*
0 Add four circle primitives for the rounded corners*
1,1,$1+$1,$2,$3*
1,1,$1+$1,$4,$5*
1,1,$1+$1,$6,$7*
1,1,$1+$1,$8,$9*
0 Add four rect primitives between the rounded corners*
20,1,$1+$1,$2,$3,$4,$5,0*
20,1,$1+$1,$4,$5,$6,$7,0*
20,1,$1+$1,$6,$7,$8,$9,0*
20,1,$1+$1,$8,$9,$2,$3,0*%
G04 Aperture macros list end*
%ADD10C,5.600000*%
%ADD11R,1.800000X4.400000*%
%ADD12O,1.800000X4.000000*%
%ADD13O,4.000000X1.800000*%
%ADD14RoundRect,0.237500X-0.250000X-0.237500X0.250000X-0.237500X0.250000X0.237500X-0.250000X0.237500X0*%
%ADD15RoundRect,0.237500X0.250000X0.237500X-0.250000X0.237500X-0.250000X-0.237500X0.250000X-0.237500X0*%
%ADD16C,1.700000*%
%ADD17RoundRect,0.250000X-0.600000X-0.725000X0.600000X-0.725000X0.600000X0.725000X-0.600000X0.725000X0*%
%ADD18O,1.700000X1.950000*%
%ADD19C,1.200000*%
%ADD20RoundRect,0.250000X0.725000X-0.600000X0.725000X0.600000X-0.725000X0.600000X-0.725000X-0.600000X0*%
%ADD21O,1.950000X1.700000*%
%ADD22C,0.854000*%
%ADD23O,1.904000X1.104000*%
%ADD24O,2.604000X1.104000*%
%ADD25R,1.700000X1.700000*%
%ADD26C,0.600000*%
%ADD27RoundRect,0.250000X-1.450000X0.400000X-1.450000X-0.400000X1.450000X-0.400000X1.450000X0.400000X0*%
G04 APERTURE END LIST*
D10*
%TO.C,H8*%
X248885000Y-99030000D03*
%TD*%
%TO.C,H7*%
X156885000Y-99030000D03*
%TD*%
%TO.C,H6*%
X248885000Y-170530000D03*
%TD*%
%TO.C,H5*%
X156885000Y-170530000D03*
%TD*%
D11*
%TO.C,J2*%
X241885000Y-130987500D03*
D12*
X247685000Y-130987500D03*
D13*
X244885000Y-126187500D03*
%TD*%
D14*
%TO.C,R45*%
X246472500Y-134030000D03*
X248297500Y-134030000D03*
%TD*%
D15*
%TO.C,R44*%
X244297500Y-134030000D03*
X242472500Y-134030000D03*
%TD*%
D16*
%TO.C,BOB-2*%
X206297500Y-116777500D03*
X206297500Y-104077500D03*
X208837500Y-116777500D03*
X208837500Y-104077500D03*
X211377500Y-116777500D03*
X211377500Y-104077500D03*
X213917500Y-116777500D03*
X213917500Y-104077500D03*
X216457500Y-116777500D03*
X216457500Y-104077500D03*
X218997500Y-116777500D03*
X218997500Y-104077500D03*
X221537500Y-116777500D03*
X221537500Y-104077500D03*
X224077500Y-116817500D03*
X224077500Y-104077500D03*
X224077500Y-114277500D03*
X224077500Y-111737500D03*
%TD*%
D17*
%TO.C,mot1*%
X185585000Y-97830000D03*
D18*
X188085000Y-97830000D03*
X190585000Y-97830000D03*
X193085000Y-97830000D03*
%TD*%
D17*
%TO.C,mot2*%
X211285000Y-97790000D03*
D18*
X213785000Y-97790000D03*
X216285000Y-97790000D03*
X218785000Y-97790000D03*
%TD*%
D16*
%TO.C,BOB-1*%
X180697500Y-116977500D03*
X180697500Y-104277500D03*
X183237500Y-116977500D03*
X183237500Y-104277500D03*
X185777500Y-116977500D03*
X185777500Y-104277500D03*
X188317500Y-116977500D03*
X188317500Y-104277500D03*
X190857500Y-116977500D03*
X190857500Y-104277500D03*
X193397500Y-116977500D03*
X193397500Y-104277500D03*
X195937500Y-116977500D03*
X195937500Y-104277500D03*
X198477500Y-117017500D03*
X198477500Y-104277500D03*
X198477500Y-114477500D03*
X198477500Y-111937500D03*
%TD*%
D19*
%TO.C,encoder0*%
X173403750Y-158490000D03*
D20*
X171403750Y-156890000D03*
D21*
X171403750Y-154390000D03*
X171403750Y-151890000D03*
X171403750Y-149390000D03*
X171403750Y-146890000D03*
X171403750Y-144390000D03*
%TD*%
D22*
%TO.C,USB1*%
X246725000Y-162065000D03*
X246725000Y-161215000D03*
X246725000Y-160365000D03*
X246725000Y-159515000D03*
X246725000Y-158665000D03*
X246725000Y-157815000D03*
X246725000Y-156965000D03*
X246725000Y-156115000D03*
X248075000Y-156115000D03*
X248075000Y-156965000D03*
X248075000Y-157815000D03*
X248075000Y-158665000D03*
X248075000Y-159515000D03*
X248075000Y-160365000D03*
X248075000Y-161215000D03*
X248075000Y-162065000D03*
D23*
X251085000Y-163415000D03*
X251085000Y-154765000D03*
D24*
X247705000Y-163415000D03*
X247705000Y-154765000D03*
%TD*%
D19*
%TO.C,encoder3*%
X160385000Y-139490000D03*
D20*
X158385000Y-137890000D03*
D21*
X158385000Y-135390000D03*
X158385000Y-132890000D03*
X158385000Y-130390000D03*
X158385000Y-127890000D03*
X158385000Y-125390000D03*
%TD*%
D25*
%TO.C,J5*%
X183985000Y-167390000D03*
D16*
X183985000Y-169930000D03*
X183985000Y-172470000D03*
%TD*%
%TO.C,BOB-0*%
X158697500Y-116977500D03*
X158697500Y-104277500D03*
X161237500Y-116977500D03*
X161237500Y-104277500D03*
X163777500Y-116977500D03*
X163777500Y-104277500D03*
X166317500Y-116977500D03*
X166317500Y-104277500D03*
X168857500Y-116977500D03*
X168857500Y-104277500D03*
X171397500Y-116977500D03*
X171397500Y-104277500D03*
X173937500Y-116977500D03*
X173937500Y-104277500D03*
X176477500Y-117017500D03*
X176477500Y-104277500D03*
X176477500Y-114477500D03*
X176477500Y-111937500D03*
%TD*%
D25*
%TO.C,fan1*%
X250885000Y-122230000D03*
D16*
X248345000Y-122230000D03*
%TD*%
D19*
%TO.C,encoder2*%
X173485000Y-139290000D03*
D20*
X171485000Y-137690000D03*
D21*
X171485000Y-135190000D03*
X171485000Y-132690000D03*
X171485000Y-130190000D03*
X171485000Y-127690000D03*
X171485000Y-125190000D03*
%TD*%
D25*
%TO.C,J1*%
X226185000Y-172590000D03*
D16*
X223645000Y-172590000D03*
%TD*%
%TO.C,BOB-3*%
X228197500Y-116777500D03*
X228197500Y-104077500D03*
X230737500Y-116777500D03*
X230737500Y-104077500D03*
X233277500Y-116777500D03*
X233277500Y-104077500D03*
X235817500Y-116777500D03*
X235817500Y-104077500D03*
X238357500Y-116777500D03*
X238357500Y-104077500D03*
X240897500Y-116777500D03*
X240897500Y-104077500D03*
X243437500Y-116777500D03*
X243437500Y-104077500D03*
X245977500Y-116817500D03*
X245977500Y-104077500D03*
X245977500Y-114277500D03*
X245977500Y-111737500D03*
%TD*%
D17*
%TO.C,mot0*%
X163585000Y-97830000D03*
D18*
X166085000Y-97830000D03*
X168585000Y-97830000D03*
X171085000Y-97830000D03*
%TD*%
D25*
%TO.C,J6*%
X242585000Y-138390000D03*
D16*
X245125000Y-138390000D03*
X247665000Y-138390000D03*
%TD*%
D17*
%TO.C,mot3*%
X233185000Y-97830000D03*
D18*
X235685000Y-97830000D03*
X238185000Y-97830000D03*
X240685000Y-97830000D03*
%TD*%
D19*
%TO.C,encoder1*%
X160310000Y-158240000D03*
D20*
X158310000Y-156640000D03*
D21*
X158310000Y-154140000D03*
X158310000Y-151640000D03*
X158310000Y-149140000D03*
X158310000Y-146640000D03*
X158310000Y-144140000D03*
%TD*%
D26*
%TO.C,U1*%
X205595000Y-168870000D03*
X205595000Y-167370000D03*
X204845000Y-169620000D03*
X204845000Y-168120000D03*
X204845000Y-166620000D03*
X204095000Y-168870000D03*
X204095000Y-167370000D03*
X203345000Y-169620000D03*
X203345000Y-168120000D03*
X203345000Y-166620000D03*
X202595000Y-168870000D03*
X202595000Y-167370000D03*
%TD*%
D25*
%TO.C,J4*%
X183985000Y-162390000D03*
%TD*%
D27*
%TO.C,F4*%
X214735000Y-107855000D03*
X214735000Y-112305000D03*
%TD*%
%TO.C,F5*%
X236785000Y-108155000D03*
X236785000Y-112605000D03*
%TD*%
%TO.C,F3*%
X189585000Y-108405000D03*
X189585000Y-112855000D03*
%TD*%
%TO.C,F1*%
X166685000Y-108255000D03*
X166685000Y-112705000D03*
%TD*%
M02*
